<?xml version="1.0" encoding="UTF-8"?><svg id="Layer_1" xmlns="http://www.w3.org/2000/svg" viewBox="0 0 443.74 230.92"><defs><style>.cls-1{fill:#fff;}.cls-2{opacity:.15;}</style></defs><g class="cls-2"><path class="cls-1" d="m1.89,87.75c-1.26-12.94-1.01-23.04-.8-33.14.11-5.26-.14-10.54-.39-15.8-.16-3.27-.48-6.52,0-9.8.22-1.48.33-3.2-.21-4.53-.81-1.97-.41-3.92-.39-5.81.07-6.18,3.17-8.68,9.14-7.67,2.17.36,4.32.72,6.55.59,1.09-.06,2.34-.18,3.26.27,6.84,3.33,14.18,2.1,21.29,2.19,9.87.13,19.74-.48,29.62-.77,8.78-.26,17.57-.39,26.35-.77,21.92-.92,43.86-.98,65.79-2.02,16.45-.78,32.85-2.33,49.32-2.72,5.69-.13,11.36-1.09,17.05-1.63,8.95-.83,17.91-1.66,26.87-2.4,7.65-.63,15.31-1.18,22.98-1.7,5.91-.4,11.83-.71,17.75-1.03,3.28-.18,6.57-.16,9.84-.72,2.34-.4,4.8-.7,6.87,1.2,1.03.94,2.46.82,3.78.77,1.97-.07,3.94-.22,5.91-.33,3.29-.19,6.33.12,9.51,1.62,19.43,9.14,38.86,18.32,58.79,26.34,8.34,3.35,16.71,6.64,25.06,9.98,1.42.57,3.15.92,4.12,1.95,2.44,2.6,5.37,2.95,8.47,2.34,4.13-.82,7.29.63,10.07,3.46.31.31.55.75.91.95,4.12,2.29,5.31,5.47,3.49,9.93-.55,1.34-.23,3.04-.33,4.57-.6,8.53-1.02,17.06-1.54,25.59-.68,11.17-.41,22.4-1.93,33.53-.35,2.6-.21,5.26-.28,7.9-.36,14.05-1.51,28.06-1.87,42.12-.21,7.89-.75,15.78-.71,23.68.01,2.56-.32,2.97-3.02,3.31-7.41.91-14.83,1.7-22.25,2.5-.62.06-1.5.11-1.87-.25-2.65-2.53-5.81-1.55-8.79-1.3-4.15.34-8.31.86-12.42,1.53-14.53,2.38-29.13,4.06-43.82,5.16-12.69.96-25.35,2.31-38.03,3.47-1.53.14-3.07.27-4.61.29-12.3.18-24.55,1.33-36.81,2.2-10.29.73-20.6,1.31-30.92,1.58-8.59.23-17.08,1.29-25.6,2.15-13.97,1.42-27.93,2.92-41.87,4.54-7.19.84-14.33,2.07-21.51,3.03-13.27,1.79-26.52,3.58-39.95,3.98-8.96.27-17.92,1.44-26.81,2.71-4.41.62-7.09-1.25-9.37-4.36-.88-1.2-1.77-2.56-1.75-4.2.01-1.92-.8-3.07-2.46-4.23-2.67-1.85-3.63-5.47-6.6-7.17-3.43-6.49-10.22-10.1-14.01-16.27-3.64-1.87-5.06-5.97-8.37-8.22-2.56-1.73-2.95-5.45-5.87-6.96-2.12-4.4-6.24-7.21-8.9-11.22-2.02-3.06-5.14-5.3-6.98-8.6-.62-1.13-1.92-1.9-3.32-1.87-2,.04-3.16-1.33-4.53-2.4-1.27-1-1.97-2.26-2.06-3.92-.38-7.01-1.01-14.02-1.17-21.04-.35-15.14-.48-30.29-.65-42.58Zm117.84,75.39l-.13.13c5.41,1.07,8.88,5.2,13.01,8.31.11.09.04.4.08.65-.58.62-1.2.2-1.83.1-.4-.06-.91-.17-1.21.01-.4.24-.3.74.16.99,3.19,1.8,5.25,5.33,9.22,5.93-.06.04-.11.07-.18.1.71-1.94-.86-2.55-2.02-3.29-1.71-1.1-3.95-1.58-4.36-4.05,2.58.64,5.02,1.6,6.72,3.76,1.31,1.65,3.21,2.21,4.94,3.08.3.16.92.04,1.19-.19.72-.62-.03-1.06-.34-1.52-.11-.18-.28-.34-.47-.45-7.13-4.18-13.1-10.08-20.5-13.87-.75-.38-1.55-.84-1.58-1.89,1.67-.65,2.93.22,4.17,1.14,7.44,5.57,15.69,9.98,22.74,16.1.46.4,1.14.6,1.75.76.38.09.92.04,1.23-.18.81-.56.13-1.04-.2-1.53-.48-.69-1.19-1.31-.69-2.3l-.12.14c7.82,3.37,8.63,3.45,15.06,2.75,2.48-.27,1.65-1.97,1.77-3.3.8.66,1.53,1.4,2.39,1.96,2.28,1.49,2.7,1.35,4.85-1.28,3.64,2.36,7.58,1.51,11.47.99.55-.08.7-.53.45-.97-.21-.38-.38-.91-.71-1.05-.54-.24-1.43-.52-1.75-.26-.99.79-1.82,1.04-2.89.21-6.55-5.08-14.06-8.76-20.5-14.02-1.82-1.48-4.04-2.52-6.18-3.53-.64-.31-2.01-.11-2.43.38-.75.87.37,1.41,1,1.87,4.6,3.29,9.52,6.21,13.73,9.94,2.61,2.3,6.38,3.18,7.99,6.57-2.33.04-4.05-1.19-5.79-2.55-4.09-3.16-8.21-6.29-12.9-8.54-.07-.21-.09-.48-.23-.62-2.23-2.34-5.51-3.51-7.14-6.53-.13-.24-.85-.35-1.21-.23-.55.18-1.1.53-1.51.94-.12.11.15.93.4,1.05,2.06.94,3.48,2.65,5.13,4.07,1.18,1.02,2.46,1.86,4.13,1.73.38,1.89,1.95,2.64,3.34,3.64,2.9,2.07,5.72,4.27,8.58,6.43-1.1.64-2.14.34-3.06-.32-1.41-1.03-2.71-2.21-4.12-3.24-5.95-4.35-12.97-7.2-17.99-12.84-.14-.16-.33-.32-.53-.38-1.08-.33-2.35-.55-3.12.28-1.09,1.18.18,1.84.99,2.47.35.27.8.4,1.12.68.47.42.95.87,1.26,1.41.2.36-1.72.39-2.39-.17-1.16-.99-2.33-1.99-3.38-3.09-.61-.63-1.09-1.51-2.03-1.48-3.7.15-7.48-.53-11.05,1.02-.93.4-1.14,1.25-1.44,2.05-2.05-2.73-4.87-2.17-7.42-1.33-1.47.48-.6,1.55.45,2.09.38.43.76.87,1.14,1.29.98,1.52,1.95,1.05,2.93,0Zm121.31,6.57c.09,1.73,1.37,2.45,2.69,3.08.28.13.87.09,1.02-.11.16-.21.11-.9-.07-1.03-1.17-.77-2.06-2.16-3.76-1.81.06-1.59-1.09-2.14-2.29-2.55-.31-.11-.84.05-1.06.28-.16.15-.08.75.11.98.87,1.06,2,1.48,3.37,1.15Zm-132.77,8.63c.05-3.93.04-3.92-3.25-5.13-.48-.17-.93-.23-1.06.27-.09.32.14.89.42,1.12,1.39,1.17,3.82,1.23,3.91,3.75,1.29.12,2.57.23,3.86.35.23,2.24,1.41,3.49,3.72,3.38,3.23-.16,6.46-.38,9.68-.66,1.02-.09,1.33-.89,1.24-1.85-.06-.64-.1-1.29-.14-1.92.59.64,1.28,1.22,1.77,1.93,1.09,1.59,2.5,1.51,4.03.89.38-.16.69-.45,1.04-.67-.21-.28-.35-.61-.61-.83-1.83-1.6-4.27-.3-6.23-1.29-1.9.74-4.54-.45-5.73,2.31-.16.38-1.58.44-2.35.31-2.21-.38-4.4-.94-6.62-1.41-1.06-1.29-2.43-.53-3.68-.53Zm212.56-10.42c.06-.41.33-.97.16-1.21-1.58-2.22-3.27-4.37-6.26-4.75-.1-.4-.08-.93-.33-1.2-2.36-2.58-4.76-5.13-7.18-7.65-.61-.64-1.37-1.2-.59-2.13.84-.99,1.55-.34,2.13.34,4.27,5.08,9.53,9.03,14.67,13.13,1.3,1.04,3.17,1.36,3.37,3.6.06.8,1.41.82,2.29.6.4-.1.92-.3,1.06-.6.14-.31,0-.92-.24-1.19-.74-.8-1.5-1.61-2.39-2.22-4.9-3.37-9.24-7.39-13.54-11.47-.6-.58-1.03-1.36-1.49-2.07-.09-.13-.05-.5.05-.57.34-.21.74-.45,1.1-.45.4.01.86.22,1.17.49,5.64,4.85,11.29,9.71,16.9,14.6,1.33,1.16,2.58,2.41,4.37,2.77.28.06.69-.31.97-.56.09-.08.01-.49-.11-.61-.96-.89-1.94-1.75-2.93-2.61-4.15-3.57-8.3-7.13-12.44-10.71-.65-.56-1.41-1.09-1.34-2.11.01-.21.06-.42.13-.61.2-.53.6-.74,1.05-.43.7.48,1.38,1.02,1.99,1.62,5.48,5.4,11.59,10.04,17.71,14.68.55.41,1.25.6,1.8.14.8-.68-.11-1.19-.46-1.43-4.97-3.32-9.01-7.64-13.02-11.98-1.45-1.58-2.42-4-4.17-4.78-1.8-.8-4.28-.05-6.46-.02-5.04.08-10.08.03-15.04,1.11-1.31.29-1.81,1.38-.87,2.34,3.64,3.69,6.96,7.8,11.96,9.83-.13.94.41,1.59,1.07,2.11,1.65,1.29,3.32,2.54,5.03,3.75.18.06.36.18.55.18.31,0,.62-.05.93-.08-.07-.15-.1-.36-.22-.45-.13-.1-.39-.16-.5-.1-.32.18-.6.45-.89.67Zm68.94-81.76c-3.22-1.04-6.5-.43-9.76-.4-.44,0-.89.24-1.33.36.43.09.84.24,1.27.23,3.27-.05,6.55-.13,9.82-.21,1.33-.84,2.78-.94,4.34-.94,3.66.02,7.32-.13,10.98-.26.48-.02.95-.28,1.43-.42-.42-.06-.83-.16-1.25-.17-4.74-.12-9.49-.39-14.19.41-.49.08-.86.91-1.31,1.38ZM44.16,63.3c.74,4.1,4.77,5.24,7.12,7.89.11.13.55.18.6.11.23-.34.44-.72.55-1.11.23-.89-.11-1.66-.55-2.44-1.57-2.85-4.15-4.25-7.14-5.08-.38-1.09-1.2-1.76-2.25-2.08-.35-.11-.83.03-1.2.17-.39.16-.35.59.13.91.88.58,1.82,1.09,2.73,1.63Zm203.08,96.76c-.62.82-.5,1.56.28,2.21,3.46,2.9,6.9,5.82,10.39,8.7.48.4,1.11.7,1.72.88.32.11.89,0,1.1-.23.49-.55.3-1.28-.18-1.7-.62-.56-1.46-.88-2.12-1.41-3.63-2.97-8.24-4.63-11.2-8.47-1.55-.11-3.1-.21-4.64-.32,1.53-3.44,1.73-3.61,3.97-2.18,2.95,1.87,5.74,3.98,8.67,5.88,3.65,2.36,6.77,5.52,10.81,7.3.63.27,1.28.53,1.79-.01.59-.62.01-1.25-.41-1.56-2.8-2.04-5.63-4.05-8.51-5.99-4.13-2.78-8.52-5.25-11.98-8.92-1.14-1.21-2.33-1.87-4-1.75-1.75.12-3.5.09-5.25.21-.3.02-.73.48-.8.8-.08.35.06.95.33,1.16,1.38,1.06,2.81,2.06,4.27,3.01.79.52,1.33,1.08,1.19,2.09,1.53.11,3.05.22,4.57.33Zm62.78,5.3c.97-1.66.24-2.95-.99-4.04-2.95-2.61-5.91-5.19-8.49-8.19-.83-.97-2.01-1.65-3.01-2.48-.48-.4-.8-.33-.99.27-.06.19-.13.45-.06.61.39.76.68,1.66,1.29,2.2,3.26,2.9,6.6,5.69,9.91,8.53.99.84,2.14,1.57,2.45,2.95,1.63.28,2.18,1.96,3.44,2.7.72.42,1.52.69,2.3.99.14.05.4-.04.53-.16.13-.11.28-.36.25-.5-.31-1.41-1.58-1.88-2.58-2.63-1.33-.98-2.63-1.32-4.05-.23Zm36.29-.67c-.18-.59-.18-1.36-.57-1.74-4.96-4.88-9.98-9.71-15.01-14.5-.18-.18-.87-.11-1.06.09-.23.24-.39.92-.23,1.12,3.64,4.35,7.68,8.31,12.07,11.89,1.48,1.2,2.79,2.82,4.93,2.99-.02.71.3,1.09,1.02.97.13-.01.34-.36.3-.43-.35-.56-.84-.74-1.45-.4Zm6.59-.02c.21-1-.39-1.64-1.01-2.26-3.42-3.39-6.85-6.78-10.27-10.17-.77-.76-2.05-1.52-1.68-2.63.91-2.69-.85-2.3-2.31-2.22-.84.04-2.01.11-2.41.65-.5.68.25,1.58.87,2.2,4.47,4.52,9,8.99,14.11,12.81.87.65,1.62,1.5,2.83,1.48-.04.99.81,1.32,1.43,1.78.2.15.62,0,.94,0-.1-.35-.1-.8-.33-1.04-.57-.62-1.3-.92-2.17-.6ZM39.26,39.14c.06.62-.11,1.55.23,1.82,2.38,1.87,4.49,4.08,6.84,5.9,3.78,2.9,7.5,5.81,10.96,9.12,2.03,1.93,4.29,3.66,6.32,5.62.61.59,1.45.97,2.24,1.3.3.13.94-.02,1.14-.28.16-.21.04-.91-.19-1.11-1.16-.98-2.62-1.67-3.56-2.8-5.75-6.93-13.62-11.44-19.94-17.72-1.09-1.08-2.62-1.51-4.17-1.72.03-1.19-.56-2.19-1.43-2.83-4.91-3.56-9.06-8.08-14.26-11.25-1.72-1.04-3.1-2.39-4-4.23-.26-.54-.77-.97-1.24-1.38-.45-.4-2.45-.09-2.41.34.05.6.15,1.38.55,1.75,6.01,5.62,12.98,10.14,18.76,16.05.97.99,2.46,1.87,4.17,1.41Zm247.32,111.28c5.91,5.11,11.81,10.24,17.74,15.33.64.55,1.45.94,2.24,1.26.31.13.87-.07,1.15-.31.13-.12.02-.83-.19-1.02-4.1-3.59-8.26-7.11-11.89-11.21-1.15-1.3-1.91-3.32-3.2-3.88-1.63-.72-3.85-.11-5.82-.09-1.51.22-3.02.4-4.52.67-.36.07-.89.36-.96.65-.08.31.18.85.46,1.09,5.78,4.96,11.57,9.89,17.39,14.79.99.84,2.13,1.51,3.26,2.15.26.15.81-.11,1.18-.28.43-.21.43-.61.1-1.07-.51-.7-.85-1.73-1.53-2.07-3.19-1.6-5.36-4.43-8.06-6.61-3.14-2.53-6.41-5.15-7.33-9.4Zm-19.52,4.79c2.39-.04,4.15,1.41,5.61,2.9,4.11,4.24,9.05,7.38,13.72,10.88,1.02.77,2.17,1.52,3.56,1.22.27-.06.6-.64.59-.97,0-.35-.28-.82-.59-1.04-6.61-4.91-13.33-9.67-19.2-15.48-.45-.45-1.01-.92-1.6-1.08-.56-.14-1.31-.04-1.83.23-.7.38-.31,1.09-.2,1.71.11.6.1,1.24.14,1.85-1.92-.53-3.52-1.65-5.08-2.83-.75-.56-1.58-.71-2.46-.44-.4.12-.82.29-1.13.56-.44.38-.33.73.06,1.07,1.63,1.43,3.12,3.06,4.88,4.31,4.59,3.27,9.29,6.39,13.97,9.52,1.44.96,2.31,2.72,4.13,3.09.55.11,1.19-.26,1.78-.41-.14-.39-.18-.92-.45-1.14-4.75-3.76-9.54-7.48-14.29-11.23-.88-.69-1.53-1.55-1.63-2.71Zm126.19-117.79c-1.6-1.32-3.37-3.32-5.41-2.12-1.31.76-.16,3.16-.33,4.81-.06.63-.02,1.28.04,1.92.18,1.8-1.04,2.63-2.34,3.41-.12-3.27-.45-6.56-.29-9.81.09-1.75-.68-2.33-1.95-2.87-3.64-1.52-7.27-3.05-10.91-4.58-2.46-1.03-3.37-.58-3.42,1.86-.04,2.41.08,4.83.22,7.23.04.84.18,1.89,1.32,1.95,1.23.06,1.21-.94,1.21-1.8-.01-1.75-.09-3.49-.04-5.23,0-.21.64-.56.97-.55.37,0,1.01.32,1.04.58.31,1.94.48,3.89.75,5.84.14,1.07.17,2.28.71,3.14.35.57,1.5.8,2.31.87.67.05,1.06-.62,1.06-1.34.01-1.75-.05-3.51.06-5.25.04-.53.29-1.41,1.23-1.02.33.14.76.54.79.86.19,1.74.31,3.49.39,5.24.1,2.02,1.06,3.23,3.06,3.71.58.14,1.06.67,1.63.97,2.14,1.65,4.58,1.98,7.22,1.87,5.73-.24,5.62-.18,5.26-5.83-.13-2.12-.96-3.14-2.9-3.51-.63-.12-1.26-.28-1.88-.43l.17.09Zm-187.83,125.72l-.13.13c2.41-.16,4.04,1.36,5.82,2.61,3.78,2.62,7.58,5.2,11.4,7.74.52.34,1.22.4,1.85.53.13.03.38-.23.49-.4.1-.16.18-.45.11-.58-.32-.54-.59-1.23-1.08-1.53-8.19-5.06-15.9-10.78-23.49-16.69-.73-.57-1.49-.9-2.39-.86-2.63.15-5.25.29-7.87.51-.36.03-.82.38-1,.71-.36.68.1,1.16.65,1.56,7.58,5.55,15.21,11.03,22.67,16.74,1.6,1.22,3.07,1.48,4.85,1.3.64-.06,1.43-.18,1.35-1-.06-.57-.4-1.31-.85-1.61-3.3-2.14-6.67-4.17-10-6.25-1.11-.7-2.28-1.36-2.36-2.9Zm-30.25-4.05l-.4.37c-1.6-.68-3.19-1.36-4.3-2.82-.55-.72-1.41-1.02-2.32-.93-.41.04-.92.17-1.15.45-.18.23-.14.86.06,1.11,2.05,2.64,5.02,4.1,7.67,6,4.76,3.42,9.44,6.96,14.24,10.32,2.55,1.79,5.4,2.69,8.65,2.31,3.24-.39,6.53-.43,9.8-.7.76-.06,1.95.31,2.04-.95.03-.45-.61-1.04-1.06-1.43-1.84-1.53-3.71-3-5.67-4.39-5.45-3.88-11.72-6.62-16.36-11.66-1.08-1.17-2.61-1.67-4.16-1.69-2.39-.04-4.8.04-7.19.27-1.38.14-.87,1.11-.49,1.92.28.58.44,1.21.65,1.81Zm114.87-102.09c1.98-1.58,4.38-2.02,6.76-1.9,10.45.56,20.79-.98,31.18-1.48,3.64-.18,7.35.5,10.92-.74l-.06-.09c-1.12,1.52-2.66,1.97-4.5,2.01-3.86.07-7.72.29-11.59.43-1.41.06-2.51.49-2.93,1.97-1.84-.69-3.71-1.11-5.71-1-3.45.19-6.91.23-10.36.38-.62.03-1.24.26-1.86.4.58.16,1.15.46,1.72.45,5.4-.05,10.8-.15,16.19-.23,8.99-.23,17.97-.41,26.94-.7,2.63-.08,5.25-.47,7.87-.63,2.29-.15-1.57-2.55.68-2.12,3.67.7,7.43-.55,11.05.84.94.36,2.17.01,3.25-.09,2.61-.23,5.22-.49,7.82-.8,2.61-.31,5.2-.75,7.82-1,2.55-.24,5.42.34,7.6-.65,2.59-1.18,5.13-.81,7.65-1.26.38-.06.72-.33,1.09-.5-.37-.09-.74-.21-1.11-.27-.21-.04-.44,0-.66,0-8.56-.04-17.12-.28-25.67-.06-15.11.38-30.22,1-45.32,1.62-7.67.31-15.32.82-22.98,1.29-3.06.18-6.13.83-9.17.67-8.79-.45-17.54.3-26.31.39-7.23.08-14.46.26-21.68.46-8.99.26-17.98.57-26.97.88-.4.01-.8.28-1.21.43.51.25,1,.57,1.54.73.4.12.87.05,1.31.06,8.11.11,16.22.11,24.32.36,9.61.3,19.28-1,28.83,1,1.81.38,3.46-.26,5.18-.57,2.78-.51,5.56-1.42,8.39-.23.4-.06.8-.15,1.21-.17.2,0,.44.19.6.13.82-.33.45.75.38-.13,0-.03-.65-.01-1,0-.4.02-.81.06-1.21.1Zm45.7-44.4c-2.69-1.25-3.68-1.04-3.76.9-.11,2.84-.01,5.69-.02,8.53-.03,5.69-.06,11.39-.13,17.08,0,.26-.41.53-.62.79-.13-.18-.33-.35-.36-.55-.08-.65-.11-1.3-.15-1.96-.35-6.99-.67-13.99-1.09-20.97-.09-1.41.71-3.15-.97-4.15-.85-.5-1.8,1.58-1.87,4.34-.04,1.31.07,2.63.05,3.95-.13,6.57-.27,13.13-.4,19.7-.01.56-.31.92-.8.77-.35-.1-.75-.39-.92-.71-.19-.35-.2-.84-.19-1.27.11-7.87.25-15.75.34-23.62,0-.62-.24-1.24-.42-1.85-.06-.17-.31-.42-.45-.4-.36.04-.97.15-1.02.35-.26,1.04-.55,2.14-.52,3.19.28,8.12-.82,16.18-1.01,24.27-.04,1.75-.08,3.5-.09,5.25,0,2.17.69,3.11,3.29,3.04,4.15-.1,8.29-.44,12.44-.75,2.51-.18,3.56-1.23,3.43-3.74-.49-9.62-1.1-19.23-1.63-28.84-.11-2.15-1.48-3.01-3.28-3.53l.15.16Zm-79.55,14.24h-.01c.71.65,1.56.65,2.45.53,4.34-.55,8.7-1.05,13.04-1.67,10.19-1.46,20.36-2.96,30.72-2.46,5.53.26,6.32-.67,6.84-6.31.02-.22.03-.44.04-.66.22-5.1-.81-6.13-5.87-5.86-1.75.09-3.51,0-5.24.24-13.26,1.81-26.7,1.53-39.97,3.29-1.88.25-3.91.68-5.82-.2,1.7-1.67,3.93-.91,5.89-1.12,4.57-.5,9.17-.6,13.76-.86,1.97-.11,3.96-.07,5.91-.34,9.12-1.26,18.24-2.57,27.47-2.8.65-.01,1.33-.03,1.94-.21.33-.11.7-.54.79-.89.2-.85-.48-1.14-1.12-1.13-1.53.02-3.05.17-4.58.28-2.18.15-4.37.4-6.55.45-8.34.23-16.67.06-24.97,1.2-3.68.5-7.44.65-11.15.58-9.91-.18-19.71.99-29.51,2.12-6.97.81-13.95,1.66-20.95,1.97-5.47.24-10.93.43-16.39.94-7.2.68-14.45,1.38-21.67,1.33-18.3-.11-22.41,0-41.14,2.76-.87.13-1.75.11-2.63.13-10.73.22-21.46.18-32.18.75-5.47.29-11.01-.16-16.4.59-6.33.89-12.55.7-18.84.28-.84-.06-1.73.1-2.56.3-6.66,1.58-13.47,1.8-20.26,2.2-1.31.08-2.62.14-3.9.39-1.08.21-1.39,1.26-.97,2.04.72,1.29,1.59,2.61,2.72,3.51.94.75,1.94-.13,2.88-.82.58-.43,1.63-.28,2.46-.28,4.61.06,9.22.13,13.82.26,1.6.05,2.85-.01,3.57-1.93.3-.78,1.99-.83,2.76.18.29.39-.16,1.36.84,1.33,2.19-.06,4.47.18,6.52-.37,3.34-.89,6.5.43,9.76.23.11,0,.31.29.35.48.04.16-.05.5-.15.53-.6.16-1.22.35-1.84.38-11.62.64-23.23,1.25-34.84,1.89-1.02.05-2.31-.17-2.58,1.32-.21,1.08,1.17,2.34,2.57,2.4.65.03,1.33.09,1.97-.04,6.03-1.24,12.17-1.43,18.27-1.8,4.35-.26,8.77-.9,13.07.49.33.11.56.55.84.84-.34.16-.67.45-1.02.45-3.29.09-6.58.22-9.88.18-6.6-.09-13.13.75-19.67,1.48-.92.11-1.33,1.16-.85,1.97,1.71,2.86,3.71,4.92,7.44,3.17.75-.35,1.73-.19,2.61-.21,6.13-.13,12.25-.77,18.38-1.04,8.53-.37,17.01-1.62,25.5-2.57,1.94-.21,3.88-.12,5.81-.87,4.44-1.72,8.46-2.02,12.56-.21,4.63,2.06,9.28,2.33,14.15,1.9,13.99-1.22,28.02-2.02,42.07-2.38,2.41-.06,4.83-.23,7.23-.41,9.84-.74,19.67-1.54,29.52-2.24,7.66-.53,15.33-.89,22.99-1.41,6.13-.41,12.23-1.04,18.36-1.38,2.44-.13,4.13-1.21,5.62-2.93ZM19.3,52.87h.06c-.88-.51-2.12-.62-2.22-2.04-.19-2.85-.4-5.69-.65-8.53-.07-.84-.06-2.2-.5-2.4-2.45-1.11-1.81-3.23-1.93-5.08-.15-2.18-.17-4.37-.21-6.55-.03-2.22-.48-4.35-1.53-6.28-.27-.48-1.1-.97-1.62-.92-.48.05-1.21.75-1.28,1.26-.26,1.72-.43,3.48-.38,5.22.23,7.89.4,15.79.85,23.66.65,11.38.17,22.77,1.04,34.17.89,11.52.5,23.13,1.53,34.68.48,5.45.19,10.96.35,16.43.13,4.61.3,9.21.61,13.8.28,4.06,1.79,7.55,4.82,10.49,2.82,2.71,5.3,5.86,7.56,8.97,2.56,3.54,5.88,6.41,8.15,10.23,1.85,3.12,4.57,5.84,7.26,8.34,2.88,2.68,5.04,5.97,8.08,8.53,1.75,1.48,2.58,4.03,5.03,4.96,2.76,1.04,2.43,4.62,4.85,6,2.2,1.25,2.73,3.93,4.52,5.52.43.38,1.29.58,1.82.43.5-.13,1.09-.8,1.2-1.31.21-1.05.16-2.17.16-3.26,0-10.96-.15-21.93.02-32.89.18-11.84.87-23.66.97-35.49.11-12.72-.18-25.45-.37-38.18-.06-4.16-.38-8.33-.62-12.49-.02-.41-.26-.82-.39-1.23-.5.34-1.08.62-1.49,1.04-.82.85-.88,1.97-.89,3.08-.01,1.31,0,2.62-.09,3.93-.02.36-.38.7-.6,1.04-.16-.33-.43-.65-.48-.99-.11-.87-.14-1.75-.14-2.63.03-5.92.13-11.84.09-17.77-.01-2.63-.28-5.25-.44-7.87-.03-.35-.16-.68-.25-1.02-.08.61-.08,1.25-.25,1.83-.17.6-.39,1.53-.79,1.65-1.3.39-1.05-.91-1.31-1.57-.39-1.01-.61-2.09-1.04-3.08-.11-.25-.76-.43-1.11-.36-.35.06-.89.48-.91.75-.26,5.08-2.35,10.66,3.73,14.09.58.32.79,1.06.31,1.64-.21.24-.8.3-1.18.23-1.04-.2-2.06-.51-3.09-.77-.23,1.04-.45,2.09-.7,3.15-.35,1.52-1.49,2.05-2.9,2.19-1.36.13-2.49-.38-3.69-1.05-4-2.24-7.96-4.71-12.22-6.3-2.91-1.09-4.91-3.68-8.16-4.08-2.3-.28-3.15-2.13-3.08-4.37.21-6.13.21-12.3.72-18.41.22-2.56-.22-4.56-2.44-5.47-2.08-.84-2.47-2.24-2.53-4.06-.12-3.73-.17-7.46-.32-11.2-.04-1.07-.33-2.14-.55-3.2-.02-.11-.38-.21-.59-.22-.13,0-.38.16-.39.26-.13,1.74-.29,3.47-.32,5.21-.11,6.08.81,12.18-.11,18.26Zm378.97,143.29c-.42.13-1.07.9-1.02-.28.01-.26.65-.12.87.35,2.36,1.46,4.68.58,6.9-.27.8-.31.92-1.39.72-2.31-.17-.77-.76-1.12-1.4-1.03-4.34.65-8.68,1.24-13.08,1.46-8.75.45-17.5,1.21-26.26,1.63-6.79.32-13.6.31-20.4.42-.5,0-1.16.14-1.31-.61,0-.04.76-.33,1.17-.33,5.5-.05,10.91-1.28,16.36-1.51,12.28-.51,24.46-2.07,36.69-3.06,2.58-.21,5.11-1.08,7.62-1.8.38-.11.8-1.09.72-1.6-.07-.52-.65-1.24-1.14-1.38-2.39-.66-4.8,0-7.19.21-12.23,1.04-24.46,2.2-36.69,3.24-1.73.15-3.49-.12-5.23-.19,1.32-1.33,3.12-.35,4.59-.96,2.07-.85,4.3-.77,6.44-1.14,5.63-.99,11.32-1.24,16.98-1.8,5.89-.58,11.75-1.41,17.61-2.14,1.31-.17,2.62-.35,3.88-.7.86-.23,1.51-.93,1.48-1.92-.04-1.06-.82-1.48-1.75-1.48-1.97-.02-3.95-.07-5.92.08-9.4.72-18.8,1.53-28.21,2.23-2.83.21-5.69.16-8.54.21-.43,0-.86-.09-1.29-.14.21-.92,1.02-.59,1.58-.73.43-.11.87-.15,1.3-.21,7.6-.95,15.18-1.97,22.78-2.83,6.3-.72,12.62-1.22,18.91-1.92.38-.04.77-.94.92-1.5.06-.2-.51-.67-.88-.87-.36-.18-.83-.28-1.24-.24-5.25.43-10.49.85-15.73,1.33-10.05.93-20.09,1.89-30.2,2.05-.42,0-.85-.12-1.26-.26-.19-.06-.34-.26-.51-.4.16-.14.29-.31.47-.42,1.19-.7,2.45-.77,3.8-.61,3.7.43,7.38.65,10.97-.82,1.16-.48,2.63.13,3.78-.72-1.19-1.26-2.72-.64-4.05-.57-2.17.11-4.32.61-6.49.9-2.38.33-4.74,1.05-7.17.52-3.48-.76-6.97-.53-10.48-.27-7.65.58-15.3,1.09-22.95,1.66-1.01.07-2.93-.27-2.7.92.41,2.06,1.99.23,3.07.23,7.87-.04,15.75-.58,23.62.03.43.04.84.14,1.27.21-.28.73-.93.5-1.45.55-16.83,1.39-33.67,2.37-50.55,3-2.38.09-4.84-.33-7.09.9l.07.11c.36-1.43,1.16-2.22,2.75-2.22,5.03-.04,10.07-.24,15.02-1.21,2.78-.55,5.69.56,8.37-.8-2.8-1.36-5.8-.45-8.7-.61-3.05-.17-6.13.06-9.19.29-9.61.7-19.2,1.53-28.8,2.21-8.31.58-16.66.65-24.92,1.57-12.41,1.38-24.85,2.3-37.28,3.35-7.41.62-14.82,1.31-22.23,1.92-1.42.11-2.56.5-3.23,1.83-2.06-1.07-4.27-.76-6.43-.61-5.23.35-10.45.8-15.68,1.17-2.39.17-4.79.22-7.19.34-.53.02-.83.38-.64.9.12.35.44.78.76.87.6.18,1.33.33,1.9.16,1.46-.44,2.87-1.02,4.44-.94,7.69.38,15.2-1.32,22.8-1.92,5.42-.97,10.91-.84,16.39-.77.43,0,1.39-.04,1.09.91-.09.3-.65.59-1.03.62-5.46.49-10.95.76-16.39,1.42-17,2.07-34.07,2.98-51.15,3.92-7.65.43-15.36.35-22.92,1.9-1.68.34-3-.01-4.31-.96-.23-.17-1.03-.06-1.09.1-.28.8-.48,1.64-.55,2.48-.09.98.4,1.71,1.41,1.83,1.31.15,2.63.25,3.95.23,9.88-.11,19.67-1.51,29.5-2.36,6.99-.61,13.94-1.58,20.92-2.26,2.17-.21,4.38-.01,6.57.06.4.01.8.31,1.21.47-.33.16-.65.42-.99.48-.87.14-1.75.21-2.62.28-3.93.33-7.86.67-11.79.97-10.28.8-20.41,2.85-30.73,3.37-5.25.27-10.48.97-15.7,1.55-1.29.15-1.74,1.18-1.7,2.4.04,1.18.37,2.17,1.78,2.26.87.06,1.77.23,2.63.09,6.96-1.14,14.01-.77,21-1.28,3.71-.27,7.43-.4,11.15-.5.5-.01,1.03.58,1.55.88-.33.16-.65.44-.99.48-1.53.14-3.07.33-4.6.31-7.72-.13-15.29,1.41-22.95,1.9-1.95.12-3.85.78-5.77,1.22-.4.09-.77.33-1.16.5.4.09.79.26,1.18.25,2.41-.06,4.88.17,7.2-.34,3.51-.77,6.99-.44,10.49-.55.29,0,.6.35.9.53-.33.25-.62.66-.98.72-2.15.4-4.31.79-6.48,1.05-2.83.33-5.72.35-8.5.89-1.67.32-3.56-.05-5.01,1.24,1.65,1.51,3.59.66,5.4.57,1.74-.09,3.46-.59,5.2-.75,1.07-.1,2.17.01,3.24.18.28.04.54.61.72.98.23.47-.04.72-.63.8-4.34.58-8.68,1.15-13,1.77-.62.09-1.33.25-1.77.63-.72.61-.7,1.59-.51,2.45.07.33.53.8.82.8.62,0,1.78-.29,1.77-.38-.23-2.73,1.8-2.44,3.42-2.59,5.23-.48,10.47-.79,15.68-1.39,8.7-1.02,17.38-2.19,26.06-3.32,2.61-.33,5.21-.7,7.82-1.05,1.11-.16,2.72-.21,2.91.77.3,1.55-1.38,1.19-2.35,1.31-4.13.52-8.26.97-12.39,1.49-.37.04-.7.37-1.06.56.35.14.7.41,1.04.4,7.43-.24,14.87-.34,22.29-.84,4.81-.33,9.57-1.09,14.43-.5,1.5.18,3.06-.09,4.59-.18.65-.04,1.29-.18,1.92-.28-.57-.15-1.13-.4-1.7-.42-2.85-.06-5.69-.04-8.54-.11-.38,0-.75-.37-1.13-.57.31-.23.6-.6.95-.68.85-.2,1.73-.3,2.61-.38,10.7-.94,21.4-1.91,32.1-2.8,16.17-1.33,32.23-3.9,48.51-3.99,2.38-.01,4.71-.51,6.71,1.65,1.19,1.28,3.19,1.26,5,1.11,3.94-.33,7.87-.85,11.82-.91,15.38-.22,30.66-1.98,45.99-3,6.35-.43,12.69-.91,19.03-1.55,6.11-.62,12.2-1.47,18.29-2.24,3.48-.44,6.95-.92,10.42-1.41.55-.08,1.24-.08,1.32-.82,0-.09-.76-.39-1.16-.38-2.19.02-4.39.01-6.58.19-8.31.7-16.61,1.58-24.92,2.19-14.45,1.06-28.9,1.97-43.34,2.97-.87.06-1.72.33-2.58.5l.11.06c.39-1.65,1.69-1.8,3.05-1.82,4.83-.12,9.63-.4,14.41-1.2,3.66-.61,7.4-.95,11.11-1.11,7.01-.3,13.97-1.02,20.92-1.98,7.36-1.03,14.77-1.81,22.18-2.39,5.86-.45,11.79.08,17.59-1.59,2.16-.62,4.85-1.02,6.57,1.49Zm-198.87-74.6c-1.73-.23-3.45-.68-5.18-.69-17.32-.06-34.51,2-51.76,3.13-.62.04-1.3.18-1.11,1,.04.21.72.4,1.1.38,8.28-.39,16.57-.69,24.84-1.26,10.69-.75,21.35-1.73,32.03-2.61,5.62-1.34,11.3-.54,16.96-.44.62,0,.88.36.55.76-.24.28-.67.53-1.03.56-15.01,1.26-30.02,2.52-45.03,3.75-4.35.35-8.71.67-13.08.94-10.01.61-20.03,1.22-30.05,1.77-3.71.21-7.42.23-11.13.36-.97.04-1.58.55-1.71,1.54-.38-.21-.75-.48-1.15-.6-.8-.26-1.94-.29-2.09-1.23-.18-1.16,1.02-1.2,1.8-1.37,3.85-.82,7.72-1.48,11.69-1.4,2.84.06,5.69-.13,8.53-.25.74-.04,1.61.33,2.14-.56-.62-.09-1.25-.26-1.87-.27-3.5-.01-7.01-.16-10.5.06-6.09.38-12.17.97-18.25,1.54-.94.09-1.4.96-1.55,1.87-.36,2.19.66,3.54,2.76,3.33,2.81-.28,5.6-.8,8.41-1.22,2.85-.11,5.71-.23,8.56-.31,4.17-.12,8.34-.24,12.51-.28.71,0,1.74-.16,1.91.91.02.15-1.06.64-1.65.69-5.91.46-11.84.79-17.74,1.3-4.37.38-8.73.92-13.08,1.5-.48.07-.99.76-1.29,1.27-.31.54.85,1.79,1.6,1.7,3.46-.41,6.94-.73,10.37-1.36,5.44-.99,10.95-.64,16.42-1.02.23-.02.67.46.72.77.1.53-.28.75-.83.78-1.31.07-2.63.17-3.94.31-7.63.82-15.26,1.66-22.9,2.47-1.33.14-1.95.96-2.04,2.14-.1,1.29.62,2.02,1.94,2.1,1.96.12,3.91.24,5.86.37-1.7,1.65-3.98,1.36-6.03,1.84-1.58.36-2.11,1.38-2,3.59.08,1.58.74,2.23,2.54,2.24,2.63,0,5.28.02,7.9-.15,14.87-.97,29.75-2.03,44.63-2.97,3.49-.22,7-.36,10.47.31.19.04.5.29.48.4-.06.35-.2.93-.41.98-1.28.29-2.57.59-3.88.66-10.52.56-21.06,1.01-31.58,1.62-8.77.51-17.52,1.19-26.28,1.84-.84.06-1.66.44-2.48.72-.15.05-.23.33-.33.51-.28.5-.13.84.48.92.87.1,1.74.23,2.6.18,6.56-.38,13.11-.81,19.67-1.2,3.5-.21,7.02-.22,10.51-.59,8.95-.94,17.88-2.02,26.9-2.1,3.73-.03,7.45-.32,11.18-.51.84-.04,1.7.09,2.29-.84,1.33-2.07,3.53-2.34,5.71-2.48,2.41-.16,4.83-.09,7.23-.35,13.53-1.46,27.09-2.33,40.7-2.38,14.27-.05,28.48-1.28,42.73-2.07,6.79-.38,13.59-.51,20.38-.72.55-.02,1.34-.09,1.29.79-.02.28-.56.68-.91.75-2.38.4-4.76.91-7.15,1.04-10.96.56-21.92,1.01-32.87,1.49-1.98.09-3.95.13-5.93.25-.5.03-1.17-.14-1.38.62.41.1.82.28,1.24.29,3.95.06,7.92.26,11.86.09,8.77-.37,17.52-.92,26.28-1.41,7.67-.43,15.34-.87,23-1.36,2.4-.15,4.84-.23,7.1-1.24,2.07-.93,4.2-1.11,6.44-.82,1.07.14,2.26.23,3.27-.06,5.13-1.51,10.37-1.5,15.64-1.76,12.92-.65,25.82-1.69,38.74-2.44,4.6-.26,9.22-.09,13.83-.23,2.17-.07,4.34-.38,6.48-.75.42-.07.87-.9,1.01-1.46.21-.8-.53-1.1-1.15-1.28-.4-.12-.87-.09-1.31-.05-11.13,1.19-22.27,2.34-33.48,2.55-.62,0-1.24.35-1.87.54h.01c.77-1.6,2.22-1.88,3.8-2.03,9.39-.92,18.77-1.87,28.15-2.84,1.74-.18,3.51-.31,5.18-.77,1.53-.43,1.62-1.92,1.49-3.27-.13-1.29-.99-1.91-2.22-1.95-1.1-.03-2.19.08-3.29.12-4.82.18-9.65.36-14.47.51-.55.01-1.47.28-1.3-.82.03-.18.76-.33,1.18-.38,3.92-.46,7.83-.9,11.75-1.33,1.75-.18,3.51-.26,5.24-.53,2.02-.31,2.83-1.09,2.61-2.26-.26-1.47-1.49-1.38-2.52-1.53-.87-.11-1.75-.11-2.63-.08-8.11.35-16.21.72-24.31,1.06-.28.01-.57-.39-.85-.6.33-.26.62-.71.97-.75,5.65-.62,11.31-1.22,16.98-1.74,3.71-.34,7.43-.53,11.14-.79.76-.05,1.27-.55,1.31-1.18.08-1.03-.67-1.55-1.63-1.63-1.09-.08-2.19-.13-3.29-.07-8.76.5-17.52,1.09-26.29,1.51-3.14.14-6.51,1.65-9.35-1.25-.42-.43-1.68-.07-2.56,0-2.41.19-4.81.46-7.21.62-8.55.54-17.12.72-25.62,1.65-6.79.75-13.57.73-20.36.98-.48.01-1.22.23-1.24-.62,0-.11.76-.36,1.15-.34,5.96.31,11.79-.84,17.67-1.39,12.23-1.16,24.44-2.51,36.68-3.29,5.97-.38,12.18-2.14,18.01,1.19.63.36,1.7,0,2.58-.08,3.05-.27,6.11-.56,9.17-.84,3.7-.33,7.41-.65,11.1-1.02.26-.03.61-.5.67-.81.12-.55-.24-.8-.82-.77-.43.01-.87-.08-1.31-.06-2.19.09-4.39.16-6.58.29-1.97.11-3.95.25-5.91.42-4.93.44-4.9.43-5.83-.4-1.64-1.46-1.66-1.51-5.01-1.41-14.48.44-28.97.85-43.44,1.42-6.57.26-13.15.14-19.72.84-8.29.89-16.63,1.19-24.96,1.68-3.07.18-6.15.1-9.22.33-13.78,1.03-27.55,2.2-41.34,3.17-11.59.82-23.2,1.44-34.8,2.12-1.55.09-3.12-.03-4.1,1.53Zm179.6-60.49c.07-1.4.99-1.77,2.19-1.87,7-.6,13.99-1.21,20.99-1.83.54-.04,1.21.09,1.33-.67.01-.07-.75-.4-1.15-.4-5.06.05-10.11-.03-15.15.23-9.63.51-19.25,1.33-28.89,1.81-10.96.55-21.94.87-32.92,1.24-1.32.05-2.78-.31-3.82.58-3.14,2.66-6.89,2.52-10.62,2.71-2.85.14-5.69.37-8.54.55-11.18.67-22.34,1.7-33.53,1.92-16.02.31-32.07-.03-48.07,1.41-1.74.16-3.51.06-5.26.03-.42,0-1.2-.18-1.2-.3-.01-.8.72-.69,1.2-.74,5.44-.62,10.88-1.66,16.32-1.65,4.2,0,8.17-1.31,12.39-1.07,5.22.29,10.4,1.97,15.69.55.58-.15,1.29.22,1.94.33,2.61.42,5.22.13,7.84,0,10.94-.51,21.73-2.76,32.7-2.7.87,0,1.75-.11,2.62-.17-.8-.07-1.6-.2-2.4-.22-4.39-.11-8.79-.35-13.18-.25-13.82.33-27.63.84-41.45,1.22-10.1.28-20.19.43-30.27,1.36-3.26.3-6.57.73-9.8.43-4-.36-7.87.58-11.82.42-.82-.03-1.74.39-1.14,1.66.5,1.05-.08,1.64-1.04,1.87-.64.16-1.31.18-1.96.22-18.2,1-36.41,1.85-54.59,3.05-9.85.65-19.67,1.85-29.5,2.85-.86.09-1.72.35-2.53.67-.33.12-.63.55-.75.89-.37,1.07.67,1.02,1.14,1.07,1.3.16,2.62.11,3.93.14,7.93.18,15.73-1.19,23.58-2.02,5.47-.58,10.94-.92,16.43-.8.64.01,2.04-.44,1.75,1.06-.21,1.08-1.32.87-2.15.92-10.51.68-21.03,1.32-31.54,2.05-3.94.28-7.86.75-11.79,1.16-.42.04-.82.26-1.22.43-.75.3-.87,1.05-.75,1.63.11.56.54,1.33,1.01,1.49,2.36.8,4.86.52,7.16.02,3.71-.79,7.41-.82,11.13-.83,3.3-.01,6.58-.06,9.82-.76.43-.09.87-.09,1.31-.06.17.01.39.18.46.33.06.12-.03.45-.12.48-.82.3-1.63.72-2.48.79-6.99.62-13.99,1.17-20.98,1.74-1.75.14-3.51.25-5.26.42-.9.09-1.68.45-1.91,1.43-.2.84,1,1.59,2.46,1.5.87-.06,1.73-.31,2.61-.33,6.59-.18,13.17-.33,19.76-.45.52,0,1.24.03,1.31.78.01.1-.74.38-1.14.4-1.97.12-3.96.1-5.92.28-5.9.57-11.79,1.19-17.68,1.85-.31.04-.57.55-.85.85.29.25.6.72.88.72,5.05-.13,10.09-.34,15.13-.5,1.73-.06,3.49-.51,5.2.12-1.22,2.04-3.45,1.1-5.15,1.53-2.51.65-5.23.63-7.85.66-2.91.03-5.58.99-8.32,1.7-.23.06-.47.78-.38,1.09.1.31.62.7.94.68.87-.06,1.72-.33,2.58-.47,3.67-.59,7.39-1.84,10.99-1.56,5.1.39,10.06-.06,15.07-.55,7.42-.71,14.82-1.64,22.25-2.21,8.53-.66,17.08-.97,25.62-1.53,11.13-.73,22.24-1.7,33.38-2.26,3.66-.19,7.38-.92,11.05,0,.08.02.08.34.11.53-3.46.26-6.94.49-10.41.8-2.61.23-5.22.66-7.83.87-8.31.66-16.63,1.28-24.96,1.86-1.56.11-3.56.05-4.3,1.22-1.79,2.81-4.37,2.36-6.92,2.46-1.31.05-2.63.06-3.95.09-.43,0-.87-.04-1.31-.03-.57.03-1.21.02-1.31.76,0,.08.76.39,1.16.38,8.77-.28,17.54-.53,26.3-.89,10.53-.44,21.05-1.03,31.58-1.45,7.02-.27,14.06-.29,21.08-.53,8.55-.29,17.1-1.02,25.64-.97,16.28.1,32.48-.8,48.67-2.37,7.85-.76,15.63-2.34,23.57-1.97.44.02.88,0,1.31-.06.21-.03.38-.21.58-.32-.17-.11-.33-.31-.51-.33-.65-.05-1.31-.06-1.97-.05-7.46.09-14.91.51-22.36.89-9.42.48-18.86.61-28.28,1.25-7,.47-14.04.31-21.07.39-.47,0-1.33.4-1.21-.65.02-.17.73-.35,1.13-.38,2.85-.18,5.7-.3,8.55-.49,10.73-.72,21.46-1.6,32.19-2.17,14.02-.75,28.06-1.25,42.09-1.86.22,0,.44-.02.66-.04,17.51-1.32,35.02-2.63,52.54-3.98.85-.06,1.7-.32,2.5-.6.83-.29-.06.27.13-.59.05-.21.09-.62.09-.62-.87-.25-1.7-.61-2.54-.6-8.12.06-16.26,0-24.37.32-12.07.48-24.13,1.02-36.22.65-.66-.01-1.32.05-1.97,0-.4-.02-.78-.16-1.17-.26.43-.08.85-.17,1.28-.23.22-.03.44.02.66.01,6.81-.18,13.55-1.19,20.32-1.66,11.15-.78,22.33-.98,33.5-1.53,3.27-.16,6.54-.64,9.8-1.04.33-.04.62-.52.92-.8-.35-.18-.7-.5-1.06-.52-.87-.04-1.75.05-2.63.11-4.82.3-9.64.66-14.46.88-6.13.28-12.28.09-18.4.99-2.16.32-4.38.23-6.58.27-.25,0-.5-.36-.75-.55.15-.15.28-.38.45-.42,1.49-.34,2.98-.79,4.5-.93,7.42-.68,14.85-1.27,22.28-1.92,5.47-.47,10.94-.95,16.41-1.49.59-.06,1.28-.48.96-1.3-.13-.33-.56-.77-.87-.77-2.41-.06-4.83-.21-7.22.02-9.2.89-18.44.67-27.65.93-1.32.04-2.64-.05-3.95-.15-.34-.03-.67-.29-1.01-.45.4-.16.78-.43,1.19-.46,4.37-.38,8.75-.74,13.12-1.06,5.03-.38,10.09-.57,15.09-1.15,2.12-.25,4.41,0,6.36-1.25-2.13-1.31-4.48-.73-6.73-.69-12.95.25-25.9.58-38.85.87-.66.02-1.32.02-1.97-.01-.19,0-.37-.16-.55-.24.16-.14.3-.33.49-.42.19-.09.43-.08.65-.09,6.31-.46,12.62-1.02,18.94-1.35,10.29-.54,20.58-.94,30.88-1.4.21,0,.45-.02.65-.09.6-.22,1.31-.43,1-1.27-.12-.33-.58-.75-.89-.77-2.41-.11-4.83-.26-7.24-.16-5.69.24-11.39.58-17.08.94-1.97.13-3.92.45-5.87.69l.09.06ZM87.2,42.25c-9.39-.6-19.44,1.03-29.54.85-1.31-.02-2.62.27-3.93.44-.67.09-1.31.35-1.34,1.09-.02.34.33.8.65,1.04,4.48,3.46,9.33,6.55,13.39,10.45,4.32,4.16,8.54,5.66,14.68,4.4,7.03-1.44,14.4-1.16,21.58-1.94,8.49-.93,17.08-.25,25.52-1.64,5.24,1.13,10.47.23,15.7-.04,12.7-.65,25.41-1.13,38.11-1.8,11.15-.6,22.27-1.55,33.42-2.17,15.55-.87,31.12-1.29,46.69-1.81,7.01-.23,14.03-.24,21.05-.31,3.93-.04,7.83-.6,11.81-.28,3.23.26,6.54-.39,9.81-.65.9-.07,1.84-.34,1.9-1.38.33-5.47.75-10.96.23-16.44-.16-1.79-1.26-2.74-3-2.93-5.25-.56-10.51-.59-15.78-.07-11.79,1.15-23.58,2.29-35.36,3.42-4.59.44-9.17.95-13.77,1.26-9.85.67-19.71,1.09-29.55,1.86-17.5,1.36-35,2.71-52.55,3.35-5.48.2-10.98.33-16.44.79-17.5,1.46-35.04,2-53.31,2.5Zm-12.33,113.31h.23c0,4.17.15,8.34-.04,12.5-.26,5.69.61,11.35.13,17.06-1.08,12.92-.45,25.88-.46,38.81,0,.66.03,1.32.1,1.97.18,1.81,1.26,2.35,3.28,1.95,1.75-.35,1.83-1.59,2-2.93.04-.38.33-.72.5-1.08.19.37.5.72.55,1.11.13,1.12.26,2.47,1.65,2.37,4.36-.33,8.71-.87,13.06-1.38,1.77-.21,2.6-1.26,2.63-3.12.17-11.62.48-23.24.58-34.87.08-8.51-.55-17.05.93-25.49.72-4.13.89-8.27.96-12.44.17-9.22,0-18.45.62-27.63.75-11.18-.55-22.36.43-33.53.14-1.6-.12-3.06-1.97-3.7-1.15-.4-1.14-1.15-.13-1.74.97-.57,1.95-1.08,1.89-2.39-.15-2.84-.31-5.69-.53-8.53-.07-.98-.75-1.58-1.71-1.63-1.31-.06-2.63-.06-3.94.04-4.37.32-8.75,1.06-13.11.94-4.88-.13-4.67.13-6.24,4.79-.48,1.43-.53,3.02-.6,4.54-.3,7.01-.72,14.03-.76,21.04-.11,17.77-.04,35.54-.04,53.32Zm334.96,1.95c.08,0,.16,0,.24,0,0,7.01-.01,14.04.01,21.06,0,.47.28.93.43,1.4.09-.43.22-.84.23-1.27.04-2.41.18-4.83.05-7.24-.4-7.72.64-15.34,1.46-22.98.02-.21.01-.45.1-.65.16-.39.31-1.03.56-1.09.92-.18.8.66.8,1.14,0,7.46-.06,14.92-.09,22.39-.01,4.61-.16,9.19-.89,13.77-.65,4.12-.45,8.33.26,12.47.16.89.77,1.53,1.85,1.36.78-.13,1.19-.76,1.21-1.36.16-4.39.33-8.78.33-13.18,0-8.34.24-16.68.97-24.99.06-.64.26-1.26.43-1.88.04-.13.28-.29.42-.29.21,0,.47.09.6.23.8.84,1.14,1.87,1.07,2.99-.11,1.97-.28,3.92-.44,5.88-.59,7.21-.06,14.48-1.18,21.68-.4,2.58-.4,5.25-.39,7.88,0,2.19.71,2.85,2.75,2.66,3.27-.31,6.55-.72,9.8-1.21,2.16-.32,3.07-1.5,2.83-3.61-.23-1.94-.93-3.85-.98-5.79-.14-5.49-.16-10.98-.05-16.46.12-5.71-.09-11.49.82-17.08.84-5.09-1.6-10.75,2.44-15.3-.09-2.39.67-4.79-.37-7.16-1.09-2.48-.92-5.15-.87-7.79.13-6.36.22-12.72.33-19.08.06-3.07.12-6.14.23-9.21.01-.4.35-1.11.52-1.11.74.02.8.68.82,1.27.12,5.04.22,10.09.34,15.14,0,.43.13.86.2,1.29.16-.45.46-.89.44-1.33-.31-6.38.55-12.7,1.02-19.04.11-1.53.14-3.13-.71-4.49-1.26-2-1.19-4.16-1.06-6.37.32-5.91.6-11.84.9-17.76.13-2.6-.02-5.28,2.55-7.04.32-.22.32-1.35.05-1.82-.24-.43-1.21-.92-1.58-.75-2.51,1.17-5.19.64-7.77.96-3.05.37-6.11.63-9.17.94-1.53.16-2.45.88-2.14,2.55.48,2.63.38,5.3-.15,7.87-1.06,5.2-1.11,10.47-1.45,15.7-.42,6.35-.33,12.72.23,19.08.06.66.04,1.35.26,1.95.29.82-.7.4.16.6,0,0,.36-.57.4-.89.16-1.31.3-2.62.38-3.93.48-7.67.89-15.34,1.43-23,.21-2.8.56-5.62,1.63-8.29,1.44,2.78.45,5.67.28,8.49-.61,10.07-1.24,20.13-2.02,30.18-.74,9.41-1.68,18.8-2.56,28.2-.06.63-.26,1.25-.47,1.85-.05.15-.36.28-.56.29-.1,0-.31-.27-.31-.43-.09-1.3-.27-2.61-.18-3.9.43-5.91.99-11.81,1.41-17.72.12-1.74.01-3.49-.09-5.24-.04-.64-.43-.62-.91-.24-.42.33-1.35,2.96-1.44.34-.29-8.33-.33-16.72.33-25.02.7-8.77.66-17.53,1-26.28.01-.4-.31-1.15-.44-1.14-.68.06-1.11.51-1.15,1.25-.48,8.32-.8,16.66-1.48,24.96-1.15,13.78-2.06,27.58-2.31,41.41-.06,3.29-.28,6.58-.41,9.88-.33,8.11-.65,16.22-.97,24.33Zm-234.56-57.54c0,.09,0,.17,0,.26-3.95,0-7.91-.23-11.84.04-17.05,1.19-34.1,2.53-51.14,3.83-10.56.81-8.3.08-8.58,9.42-.09,3.19.53,3.68,3.94,3.46,7.22-.47,14.43-1.03,21.65-1.53,10.49-.73,20.97-1.53,31.46-2.15,11.59-.69,23.21-1.19,34.81-1.82,13.79-.77,27.59-1.6,41.38-2.38,4.16-.23,8.34-.26,12.49-.53,17.94-1.19,35.88-2.51,53.82-3.61,6.74-.42,6.35-.42,6.04-6.92-.01-.22-.03-.44-.05-.66-.13-1.55-1.03-2.48-2.53-2.44-3.29.09-6.57.34-9.84.57-12.5.86-25.01.35-37.52.59-7.01.13-13.98.98-21.02,1.11-13.82.24-27.62,1.01-41.43,1.62-7.22.32-14.44.77-21.66,1.16ZM28.08,68.99c-.21,1.9.23,2.93,1.58,3.7,5.68,3.27,11.58,6.08,17.63,8.56,3.39,1.39,4.62.4,4.28-3.29-.23-2.53-1.6-4.38-3.44-6.1-3.32-3.08-6.5-6.33-9.61-9.62-1.81-1.91-3.84-3.37-6.33-4.21-1.14,2.07-2.49,4.07-3.35,6.25-.62,1.58-.58,3.44-.76,4.7Zm125.77-9.49c0,.13,0,.26,0,.39-4.16,0-8.34-.25-12.47.06-5.85.43-11.75-.26-17.57,1.32-1.85.5-3.58,1.62-5.6,1.59-1.48-.02-3.07-.6-4.37.65,1.33,1.6,3.06.51,4.59.66,3.91.39,7.84.69,11.76.98,1.08.09,2.17.12,3.24.04,9.38-.69,18.69-2.29,28.13-2.31.87,0,1.75-.14,2.61-.26,7.84-1.05,15.73-1.35,23.61-1.11,5.06.15,9.98-.38,14.89-1.46.38-.09.73-.35,1.1-.53-.39-.11-.79-.32-1.17-.31-5.02.24-10.07-.42-15.08.53-3.02.57-6.09.88-8.87-1.09-.93-.66-2.05-.57-3.17-.5-7.21.47-14.43.89-21.63,1.33Zm238.42,40.67v-.33c2.4,0,4.81.04,7.21-.01,3.61-.09,3.59-.12,3.95-3.6.18-1.73.46-3.46.65-5.19.13-1.25-.5-2.2-1.65-2.48-3.07-.74-6.22-.48-8.96.87-1.65.81-.72,3.24-1.26,4.86-.06.21-.11.43-.2.62-.29.61-.72,1.17-1.43,1.04-.26-.05-.55-.65-.58-1.02-.09-1.3-.04-2.61-.07-3.92-.03-1.02-.56-1.58-1.59-1.63-1.29-.05-2.05.49-2.09,1.85-.04,1.74-.04,3.49-.18,5.22-.06.68-.66,1.12-1.37.85-.35-.13-.7-.55-.85-.92-.75-1.78.15-3.42.55-5.09.26-1.05-.18-1.69-1.25-1.77-.87-.06-1.75-.1-2.61-.02-1.97.18-2.76.84-2.92,2.84-.16,2.17-.01,4.35.01,6.52,0,.21.1.43.18.62.24.58.4,1.31,1.25,1.21.8-.09.95-.63.84-1.37-.31-2.15-.86-4.33.23-6.41.16-.3.67-.45,1.04-.58.45-.15.76.13.86.68.04.21.1.42.13.63.31,2.14-.87,4.83.64,6.34,1.77,1.77,4.55-.11,6.88.38.82.17,1.73-.13,2.59-.22Zm-179.78,53.62c0,.09,0,.17,0,.26-.87-.05-1.73-.13-2.6-.13-1.48-.01-3.06-.57-4.37.55-.77.65.38,2.27,2.7,3.99,6.99,5.2,14.69,9.44,21.27,15.24.48.42,1.29.38,1.72-.26.16-.26.12-.84-.08-1.1-.52-.7-1.09-1.41-1.79-1.91-4.76-3.48-9.57-6.9-14.36-10.34-.88-.64-1.83-1.2-2.63-1.94-.56-.52-1.54-1.15-.77-2.08.48-.58,1.14-.03,1.69.3,3.93,2.38,7.53,5.18,11.18,7.97,4.15,3.19,8.46,6.16,12.77,9.14.38.27,1.21-.09,1.82-.16-.16-.33-.25-.73-.5-.96-3.72-3.4-7.79-6.35-12-9.11-2.73-1.8-5.41-3.68-8.06-5.59-.47-.33-.87-1.06-.18-1.61.24-.19.86-.18,1.15,0,1.5.9,2.96,1.86,4.4,2.85,3.24,2.22,6.43,4.5,9.68,6.7.48.33,1.24.6,1.76-.06.53-.67.04-1.23-.45-1.57-3.74-2.59-7.67-4.94-11.22-7.77-2.42-1.93-4.93-2.58-7.85-2.4-1.09.06-2.19.01-3.28.01Zm176.16,1.24h-.3c0-2.61.01-5.23,0-7.83,0-.6-.33-.7-.88-.66-.5.04-.8.15-.94.69-.9,3.44-.48,6.94-.45,10.42,0,.84-.16,1.7-.38,2.51-.04.15-.89.32-1.04.16-.42-.44-.89-1.02-.94-1.59-.21-2.17-.29-4.35-.38-6.54-.06-1.52-.04-3.05-.06-4.58,0-.58-.25-.77-.74-.79-.49-.01-.88.13-.91.68-.13,3.04-.23,6.09-.33,9.14-.02.71-.32,1.29-.99,1.47-1.11.29-1.66-.55-1.85-1.38-.28-1.26-.35-2.58-.39-3.88-.04-1.31.09-2.62.09-3.93,0-.55-.04-1.25-.8-1.28-.15,0-.47.71-.48,1.1-.04,1.74.06,3.49,0,5.23,0,.33-.51.98-.64.94-.58-.16-1.46-.4-1.58-.81-.35-1.24-.4-2.56-.56-3.84-.08-.64-.14-1.29-.26-1.92-.03-.17-.23-.31-.34-.47-.16.15-.44.29-.46.45-.23,2.37-.55,4.75-.55,7.13,0,.67.8,1.6,1.48,2,3.56,2.06,7.42,3.55,10.5,6.5,1.45,1.38,4.05-.23,4.14-2.38.09-2.18.02-4.37.02-6.55Zm-159.95-2.04c-.45.04-.7,0-.89.08-.58.24-1.34.38-1.69.82-.89,1.14.4,1.43.98,1.87,5.53,4.24,11.07,8.48,16.66,12.64,1.91,1.42,3.96,2.66,5.97,3.95,1.51.98,4.15.87,4.63-.42.63-1.67-.99-2.04-2.13-2.58-.39-.18-.75-.45-1.09-.72-5.4-4.37-10.78-8.75-16.19-13.11-1.88-1.51-3.81-3.01-6.25-2.54Zm129.33-104.84c6.43-1.4,12.78-.49,19.06-1.01.52-.05,1.38.25,1.3-.74-.02-.25-.59-.52-.95-.66-4.24-1.7-8.45-3.46-12.73-5.03-2.44-.9-4.92-1.79-7.61-1.65-.93.05-1.73.43-2.15,1.22-.92,1.75-1.47,3.64-1.57,5.62-.04.63.23,1.28,1,1.45,1.27.28,2.54.56,3.65.8Zm33.27,106.6h-.07c0,.87-.06,1.76,0,2.63.16,1.72-.45,3.54.54,5.14.15.25.7.29,1.08.35.15.02.44-.15.48-.28.23-.82.57-1.66.58-2.49.02-3.29-.11-6.59-.07-9.88.01-.82.45-1.65.73-2.46.04-.12.35-.14.55-.21.53-.19.94-.07,1.03.4.16.84.3,1.7.33,2.55.09,3.51.11,7.02.24,10.53.04.98.81,1.61,1.75,1.56.87-.05,1.63-.58,1.95-1.51.45-1.29.46-2.56,0-3.86-1.27-3.64-1.91-7.16,1.34-10.26.64-.6-.07-1.91-.97-1.89-2.4.06-4.81.12-7.2.38-1.45.16-2.31,1.1-2.31,2.68.01,2.19,0,4.39,0,6.59ZM51.12,58.02c-.04-.43-.09-.87-.13-1.31-.18-2.47-.76-1.68-1.8-.33-.8,1.04-1.99.74-2.83-.18-1.48-1.6-2.81-3.34-5.27-3.56-.53-.04-1.12-.67-1.46-1.19-.55-.82-.9-1.76-1.34-2.66-1.66,1.32-2.03-.98-3.22-1.16-1.61-.25-1.71-1.73-1.9-3.05-.05-.33-.53-.58-.82-.87-.18.38-.35.76-.54,1.12-.84,1.58-1.75,1.8-2.7.65-.27-.32-.43-.74-.6-1.13-.23-.5-.04-1.41-.98-1.19-.23.05-.4.75-.42,1.16-.14,2.63.7,4.66,3.3,5.81,2.58,1.14,5.35,2.14,7.56,3.82,3.36,2.57,7.19,4.03,10.98,5.65,1.77.77,2.23.39,2.17-1.56Zm371.77-11.2c-3,.16-6.25.28-9.48.55-.47.04-1.16.74-1.25,1.22-.1.53.21,1.36.62,1.73,1.36,1.2,3.09,1.6,4.84,1.5,4.76-.29,9.52-.69,14.28-1.09.62-.06,1.26-.31,1.82-.6.35-.18.74-.61.77-.96.03-.31-.36-.71-.65-.99-1.16-1.14-2.61-1.41-4.19-1.36-2.17.06-4.34.01-6.77.01Zm-169.37,105.32c-.96.04-1.65-.06-2.26.13-.55.18-1.4.65-1.41,1.02-.02.53.47,1.26.96,1.59,3.94,2.71,7.91,5.37,11.64,8.4,3.36,2.73,7.1,5.01,10.69,7.45.97.65,3.71.54,3.68-.07-.06-1.01-.96-1.38-1.61-1.91-2.04-1.64-4.22-3.07-6.46-4.45-4.97-3.08-10.04-6.14-13.25-11.33-.55-.89-1.4-.89-1.98-.82Zm64.16-121.89h-.1c-.05,2.63-.09,5.28-.04,7.91.05,2.63.19,5.26.31,7.89,0,.21.16.4.25.6.31-.23.73-.4.89-.72.4-.75,1.12-1.71.93-2.36-1.18-3.95.01-7.85,0-11.76-.02-4.39-.02-8.78-.09-13.18-.02-1.09-.22-2.19-.43-3.26-.06-.33-.38-.84-.64-.87-.86-.11-1.06.63-1.06,1.26-.04,4.83-.02,9.66-.02,14.49Zm-231.55,37.93c2.63,0,5.25.03,7.88,0,1.11-.01,1.92-.82,1.54-1.38-.46-.68-1.12-.75-1.72-.56-2.14.67-4.34.62-6.52.53-2.16-.09-4.36.62-6.48-.28,2.05-1.31,4.44-.85,6.65-1.29.84-.16,1.66-.45,2.47-.73.1-.03.1-.4.1-.6,0-.18-.06-.5-.13-.52-.84-.18-1.73-.51-2.56-.43-4.13.4-8.26.92-12.38,1.42-.42.05-.88.19-1.22.43-.89.64-1.75,1.34-1.43,2.66.26,1.09,1.21,1.32,2.01,1.24,3.93-.39,7.85-.53,11.78-.48Zm122.41,82.78c8.2-.4,14.75-.71,21.3-1.06.62-.04,1.22-.35,1.82-.54-.52-.22-1.04-.6-1.57-.62-1.96-.11-3.93-.08-5.9-.14-10.74-.36-21.36,1.47-32.06,1.84-.22,0-.45-.04-.66,0-.53.09-1.06.22-1.59.34.43.06.85.16,1.28.2.43.03.87-.01,1.31-.01h16.06ZM351.8,29.13c0-2.38-.03-3.68,0-4.99.04-1.3.23-2.62.1-3.9-.04-.4-.91-.97-1.43-1.01-.6-.05-1.13.5-1.02,1.28.12.86.35,1.71.38,2.58.25,6.06.92,12.15-2.66,17.71-1.19,1.84-1.02,4.17-.5,6.33.16.7,1.69,1.03,2.22.45.42-.45.98-.97,1.05-1.51.75-5.99,3.2-11.81,1.85-16.93Zm-56.08,140.91c.37-.16.61-.2.74-.34.88-.96,0-1.73-.55-2.14-6.5-4.72-12.55-9.99-18.54-15.33-.46-.41-1.13-.75-1.73-.8-.58-.06-1.43.11-1.71.51-.23.34-.04,1.41.32,1.68,6.84,4.98,13.49,10.18,19.9,15.69.45.39,1.13.53,1.58.73Zm30.4-160.85c1.75-.09,3.72-.16,5.69-.3.38-.03.75-.33,1.11-.52-.21-.37-.32-.89-.63-1.09-2.64-1.65-5.46-2.75-8.63-2.68-1.31.03-2.66-.06-3.9.23-1.41.33-2.17,1.59-2.15,2.96.01,1.46,1.4,1.35,2.43,1.58,1.97.43,3.93.24,6.09-.19Zm39.21,28.12c.23.06.64-.11.65-.61.07-3.47.17-6.94.1-10.41-.02-.85-4.42-3.01-5.03-2.41-1.29,1.28,1,1.85,1.01,3.06,0,1.3.27,2.61.37,3.91.11,1.53.11,3.06.25,4.58.13,1.37,1.26,1.58,2.66,1.88Zm-238.94,61.53c0-.07,0-.14-.01-.21-6.3.49-12.62.97-18.92,1.48-.41.04-.81.29-1.21.45.35.16.71.45,1.08.46,2.39.07,4.8.25,7.19.09,6.09-.43,12.18-1.02,18.27-1.55.65-.06,1.31-.12,1.96-.18-.6-.18-1.19-.49-1.8-.5-2.19-.06-4.37-.02-6.55-.02Zm34.43-33.39c-3.86.39-9.26.92-14.65,1.53-.55.06-1.05.51-1.58.78.62.15,1.23.36,1.85.42.65.06,1.31,0,1.95-.06,4.94-.37,9.88-.72,14.82-1.13,1.89-.16,3.91.71,5.64-.71-1.65-2.18-3.9-.6-5.85-.95-.21-.04-.43.02-2.19.12Zm175.43,33.18c-.3-2.16.38-3.97-.84-5.5-2.53,1.05-.6,3.51-1.58,5.07-.22.35-.16.86-.34,1.24-.18.36-.49.93-.76.94-.74.03-.89-.65-.97-1.24-.17-1.25-.31-2.5-.46-3.75-1.06,1.19-.36,2.61-.47,3.9-.09,1.07-.05,2.17.07,3.23.04.32.48.7.82.85,2.21.96,4.5-.39,4.53-2.63.01-.87,0-1.73,0-2.12Zm64.28-56.34c-.08,4.2,1.21,5.28,4.98,4.14,1.02-.31,2.01-.78,2.96-1.29.33-.18.65-.64.7-1.01.04-.28-.3-.77-.59-.89-1.97-.87-3.96-1.73-5.99-2.48-1.31-.48-2.04.13-2.07,1.53ZM123.23,223.75c4.32-.46,8.69-.87,13.03-1.42,2.17-.27,4.31-.76,6.45-1.18.64-.13,1.26-.35,1.89-.54-.79-.13-1.64-.53-2.34-.36-4.52,1.11-9.12.86-13.69,1.09-1.95.1-3.9.36-5.84.64-.34.05-.78.48-.88.82-.15.51.21.82.7.86.21.02.43.06.68.09Zm232.63-126.53h-.11c0,1.09-.04,2.19.01,3.29.05.97.5,1.65,1.6,1.55,1.26-.11,2.81.93,3.69-.26.44-.59-.23-1.97-.31-3-.08-1.09.04-2.19-.06-3.28-.06-.75-.34-1.49-.52-2.24-.13.64-.3,1.28-.36,1.92-.13,1.53-.13,3.07-.33,4.58-.08.55-.36,1.38-1.28,1.04-.35-.13-.83-.48-.87-.78-.26-2.17-.4-4.35-.63-6.52-.03-.28-.35-.54-.54-.82-.11.19-.3.38-.3.58-.03,1.31-.01,2.63-.01,3.94Zm-1.65-69.2c.11,1.67.21,3.83.45,5.98.07.6.72,1.11,1.44.94.33-.07.83-.45.86-.74.42-3.9.53-7.78-1.02-11.5-.13-.33-.63-.5-.97-.75-.16.34-.44.67-.47,1.02-.13,1.51-.19,3.03-.31,5.04Zm-8.71,119.77c.05.38-.05.9.16,1.11,3.46,3.24,6.94,6.47,10.45,9.66.44.4,1.13.82,1.64.06.12-.18-.12-.76-.35-1-3.02-3.09-6.04-6.16-9.11-9.19-.43-.43-1.06-.75-1.65-.93-.32-.1-.75.18-1.14.3Zm-188.26-29.48c3.46-.3,6.05-.5,8.63-.76.32-.03.9-.48.87-.55-.26-.72-1.02-.99-1.58-.79-3.77,1.38-7.67.94-11.55.99-.48,0-1.24-.11-1.2.71,0,.15.74.36,1.14.38,1.51.04,3.03.02,3.68.02Zm184.2-18.89c-.16-4.49-1.42-7.71-2.24-6.67-1.59,2.02-.38,4.51-.72,6.77-.04.21-.02.43,0,.64.1,1-.18,2.16,1.12,2.65.92.34,1.9-1.08,1.88-2.74,0-.22-.02-.43-.04-.65ZM37.71,17.86v-.18c1.09,0,2.17.01,3.26,0,1.52-.02,3.04-.08,4.56-.11-1.49-.77-3.07-.18-4.6-.29-3.24-.25-6.49-.82-9.76-.3-.41.06-.8.29-1.2.44.4.16.8.43,1.21.44,2.17.04,4.35.01,6.53.01Zm-14.35,15.82c-.03,4.47,1.76,10.07,2.34,8.81,1.32-2.86.66-5.88.18-8.83-.09-.56-.54-1.11-.96-1.55-.15-.16-.89-.06-1.01.14-.32.51-.45,1.14-.55,1.42Zm349.62,62.07c.23,1.56-.5,3.34.73,4.76.75.86,1.24-.87,1.09-4.86-.05-1.41.48-3-.84-4.15-.8-.69-.99.09-.98,4.25Zm-120.75,113.53v.33c-2.17,0-4.32-.03-6.49.04-.27,0-.52.48-.79.74.17.14.33.4.5.4,4.31-.11,8.63-.23,12.93-.39.29-.01.57-.4.85-.6-.39-.17-.77-.48-1.16-.48-1.95-.05-3.9-.03-5.84-.03Zm-70.49-143.94s0,.11,0,.16c2.16-.12,4.33-.23,6.5-.36.43-.03.85-.13,1.29-.19-.4-.07-.8-.21-1.19-.21-3.9-.05-7.8-.08-11.7-.09-.16,0-.31.28-.47.43.33.17.68.49,1.02.48,1.52-.03,3.04-.15,4.56-.23Zm137.29,35.04c.11.76.16,1.63.39,2.45.09.31.57.65.91.7.29.04.92-.33.92-.5-.02-2.56-.12-5.11-.23-7.67,0-.12-.35-.31-.53-.31-.17,0-.47.17-.5.31-.33,1.64-.63,3.29-.96,5.03Zm-212.45,82.68s1.02-.05,2.05-.23c.92-.16.82-.87.42-1.4-.52-.66-1.14-1.28-1.83-1.75-.73-.5-2.22-.55-2.31-.09-.28,1.35-.84,2.15-2.04,2.76-.3.15.13.75.72.72.63-.03,1.26,0,3,0Zm221.55-81.75c-.13-1.27-.23-2.55-.38-3.81-.04-.36-.21-.71-.31-1.06-.16.33-.42.67-.44,1.01-.12,1.98-.58,3.73-2.75,4.42.18.57.2,1.43.58,1.65,1.71.94,3.37-.23,3.31-2.21Zm21.07-2.88c.04.84.04,2.12.21,3.37.1.75.84.89,1.48.87.4,0,.9-.11,1.18-.37.55-.5.38-1.11-.2-1.5-1.98-1.34-1.63-3.28-1.45-5.22.06-.57-.08-1.22-.82-1.29-.1,0-.36.73-.39,1.14-.06.85-.01,1.71-.01,3ZM13.86,14.08c-1.06-.06-1.51-.18-1.92-.1-.4.09-.75.37-1.11.57.24.27.44.71.73.77,2.09.47,4.33,0,6.36,1.02.21.1.69-.34,1.04-.53-.21-.33-.36-.9-.62-.96-1.68-.35-3.39-.6-4.47-.78Zm154.95,79.45c-1.09,0-2.19-.04-3.28.03-.35.03-.67.38-1.02.59.4.12.8.33,1.21.35,1.09.09,2.19.18,3.27.11,1.51-.1,3.02-.35,4.53-.55-1.49-.8-3.13-.6-4.72-.54Zm201.39,57.45c-.23-1.04-.44-2.28-.8-3.47-.09-.31-.6-.62-.95-.67-.23-.04-.73.33-.79.59-.4,1.92-.09,3.78.67,5.55.11.26.67.37,1.04.48.06.02.29-.26.34-.44.17-.6.29-1.21.48-2.04Zm-226.38,38.59c-1.07.06-1.95.06-2.8.18-.28.04-.51.41-.77.63.18.12.34.32.53.35,1.72.35,3.44.4,5.14-.16.41-.13.84-.22,1.26-.33-.33-.15-.64-.38-.97-.43-.86-.13-1.73-.19-2.39-.26Zm225.1-93.45h.09c0,1.09-.05,2.19.02,3.27.03.4.34.77.53,1.15.21-.3.61-.6.61-.91,0-2.19-.06-4.37-.16-6.55,0-.27-.38-.53-.6-.79-.11.18-.32.36-.33.55-.08,1.09-.11,2.19-.16,3.28Zm-218.81-.55v.09c.43,0,.87.04,1.29-.01.41-.04.82-.18,1.24-.28-.36-.18-.72-.49-1.09-.5-1.07-.04-2.16.02-3.23.1-.26.02-.73.36-.71.4.33.82-.28-.02.57.18.62.14,1.29.02,1.94.02Zm245.85,46.11v-.06c.65-.03,1.3-.07,1.94-.02.82.06.88-.19.14-.28-1.28-.15-2.58-.09-3.87-.01-.33.01-.16.33.5.37.43.02.87,0,1.29,0Zm9.4-10.98c.04.66.03,1.11.11,1.53.12.66.43,1.26,1.18,1.28.77.02,1.14-.55,1.31-1.21.28-1.06.49-2.17-.3-3.1-.45-.55-1.19-.69-1.66-.07-.38.48-.48,1.17-.64,1.58Zm-268.74,87.43c.77-.06,1.42-.11,2.07-.15-.7-.11-1.38-.25-2.08-.3-.41-.04-.84.07-1.26.11.31.77.92.28,1.27.33Zm-23.52,6.47v.05c.4,0,.81.02,1.22,0,.39-.03.78-.11,1.18-.16-.35-.06-.7-.16-1.06-.17-.4-.02-.81.04-1.21.08-.45.06-.9.13-1.35.21h1.22Zm294.37-86.26c-.04-.42.02-.87-.11-1.24-.18-.53-.32-1.33-1.21-.99-.35.13-.82.44-.89.74-.16.79-.26,1.64-.14,2.43.09.57.5,1.24,1.29,1.02.32-.09.65-.43.82-.75.18-.35.17-.81.24-1.21Zm-33.45,24.52c.14.36.18.84.45,1.07.58.53,1.2,1.13,2.11.86.12-.03.26-.35.22-.5-.29-1.19-1.42-1.33-2.32-1.72-.09-.04-.3.18-.45.28Zm-9.06-75.44c-.3-.06-.67-.18-1.04-.21-.61-.03-1.23,0-1.85.01.37.11.73.31,1.1.32.62.01,1.24-.09,1.79-.13Zm-125.2,61.85c-.16-.09-.33-.26-.5-.26-.41,0-.83.07-1.25.11.16.1.33.29.49.29.42,0,.84-.09,1.26-.15Zm157.49,17.57c.73-.01,1.36.21,1.7-.48-.56-.11-1.11-.28-1.68-.3-.38-.02-.77.17-1.15.26.43.19.86.38,1.13.51Zm-244.92-68.88c.41.05.82.12,1.24.13.19.01.4-.08.6-.12-.48-.1-.96-.23-1.44-.28-.11-.02-.26.17-.39.27Zm-27.97,121.31c-.14-.1-.28-.28-.43-.28-.38,0-.76.07-1.14.11.18.11.35.31.53.31.35.01.7-.09,1.04-.13Zm83.46-41.09c-.44,0-.87,0-1.3.02-.04,0-.06.23-.1.35.43,0,.86.01,1.29,0,.04,0,.07-.21.11-.37Zm-102.07-17.05c-.38-.16-.75-.46-1.11-.45-.67,0-1.33.32-1.38,1.06-.03.45.44.46.97.21.53-.24,1.33.04,1.52-.82ZM343.04,28.75c.02.18.04.38.06.56.06-.23.16-.45.18-.69.01-.12-.08-.26-.12-.38-.04.17-.08.34-.12.51Zm1.46,71.48c.26-.22.52-.35.51-.47,0-.62.06-1.31-.16-1.86-.15-.38-.65-.16-.65.43,0,.61.18,1.21.3,1.9ZM59.95,61.92c-.13-.74-.55-1.2-1.31-1.1-.51.06-.66.5-.56,1.01.14.74.58,1.2,1.31,1.1.23-.04.38-.66.57-1.01Zm328.93,136.34c-.12-.11-.24-.31-.38-.33-.42-.05-.89-.15-1.25,0-.43.18-.24.53.4.54.41,0,.82-.14,1.24-.22ZM55.2,60.62c.12.37.24.75.36,1.11.17-.34.48-.69.47-1.03,0-.43.28-1.14-.52-1.19-.08,0-.2.72-.31,1.1Zm306.09,101.73c.5.47.87.84,1.27,1.19.41.35.73.21.64-.33-.06-.33-.35-.73-.65-.89-.27-.14-.69,0-1.26.04Zm3.28-13.2c-.2-.27-.39-.55-.59-.82-.28.26-.55.53-.83.8.26.27.53.54.79.8.21-.26.42-.52.63-.78Zm1.01-50.98c-.03.17-.11.35-.08.51.12.5.24.43.26-.19,0-.1-.11-.21-.18-.32ZM23.1,20.66c-.01.75.42,1.16,1.08,1.22.34.03.71-.25,1.07-.38-.4-.43-.75-.94-1.22-1.27-.4-.28-.78-.04-.93.43Zm383.63,104.28c.8.12,1.35-.4,1.41-.97.05-.52-.28-1.26-.7-1.6-.58-.49-1.63.34-1.68,1.24-.04.73.32,1.15.97,1.34Zm.13-8.51c-.6.3-.97.88-.72,1.44.24.57.97.75,1.54.44.26-.14.5-.67.45-.97-.1-.64-.51-1.06-1.26-.91Zm2.24,79.55c.16.09.33.17.5.26.08-.34.19-.67.21-1.02,0-.09-.31-.18-.47-.28-.08.34-.16.69-.23,1.03Zm1.23-7.85l.12-.37-.09-.08-.04.45ZM145.03,98.13h.62c-.01-.16,0-.45-.04-.45-.2-.04-.4,0-.61,0,0,.16.02.32.03.45Zm-17.08,93.7c.16-.06.32-.11.48-.16-.22-.12-.43-.26-.67-.33-.07-.01-.2.19-.31.3.16.06.33.13.49.2Zm7.55-.26c-.11-.11-.2-.29-.33-.34-.18-.06-.45-.09-.57,0-.38.3-.23.52.35.53.18,0,.36-.12.55-.19ZM343.04,48.2c.26-.18.77-.4.75-.56-.06-.57-.3-1.11-.47-1.68-.24.23-.6.41-.7.69-.18.56-.27,1.18.41,1.55Zm56.92,54.85c-.2,0-.51-.09-.59.01-.3.38-.09.55.53.41.05-.01.04-.27.06-.43Zm8.24,9.19c-.15-.75-.65-1-1.27-.75-.28.11-.64.59-.6.86.09.71.76.82,1.31.7.25-.06.4-.56.56-.82ZM27.15,36.71c.16.33.32.96.5.97.7.02.89-.58.86-1.16-.03-.35-.3-.98-.45-.98-.68,0-.84.58-.9,1.17Zm135.01,120.75l.02-.35-.41.15.39.2Zm4.88,3.87c.16.06.33.13.49.15,0,0,.09-.25.13-.38-.16-.05-.32-.13-.48-.12-.05,0-.1.23-.14.35Zm5.87,3.86c-.29-.04-.58-.09-.87-.13.13.1.26.27.4.29.15.02.32-.11.48-.16Zm23.81,48.8l-.39-.23-.05.37.44-.14Zm6.42.04c-.12-.1-.23-.26-.36-.28-.13-.01-.3.09-.45.14.12.1.23.26.36.28.14.02.3-.09.45-.14Zm167.73-48.43c.32-.16.63-.32.95-.48-.15-.13-.27-.3-.43-.38-.47-.24-.81-.09-.88.43-.02.12.23.29.36.43Zm-.67-5.91l-.05.43.58-.15-.53-.28Zm-3.58,1.38l-.41.16.4.19v-.35Zm-26.57-16.85l.04-.32-.43.13.39.18Zm-233.63,20.8c-.16-.06-.35-.21-.49-.16-.56.18-.58.45-.02.67.13.06.36-.04.5-.13.06-.04,0-.25,0-.39Zm4.46-2.94c-.13.16-.27.31-.4.47.35.16.67.35,1.04.45.09.02.27-.27.41-.43-.35-.16-.7-.33-1.04-.49Zm2.59,8.39l-.38-.22-.05.33.43-.11Zm4.93,4.51c.45.25.84.13.89-.37.02-.23-.33-.69-.53-.7-.32-.02-.65.24-.98.39.21.23.41.45.62.68Zm-.67-7.18c.33.13.64.31.98.38.09.02.24-.25.37-.38-.32-.13-.64-.31-.97-.38-.09-.02-.25.25-.38.38Zm5.3,3.91c.11.15.19.38.33.43.18.06.48.06.61-.06.37-.35.21-.63-.42-.66-.17-.01-.35.18-.53.29Zm.31-3.64c.18.04.4.16.52.09.46-.25.4-.51-.14-.64-.14-.04-.34.08-.48.17-.04.03.06.25.1.38Zm1.21,7.91c.19-.05.55-.09.55-.16.06-.47-.22-.58-.72-.27,0,0,.11.28.16.43ZM36.08,44.58l-.38-.06.13.5.24-.44Z"/><path class="cls-1" d="m115.66,161.85c.16-1.01.74-1.49,1.75-1.18,1.26.38,2.44.9,2.19,2.59l.13-.13c-.98,0-1.95,0-2.93,0-.38-.43-.77-.86-1.14-1.29Z"/><path class="cls-1" d="m222.75,71.92c-8.01-.08-14.77.09-21.48,1.21-1.71.28-3.49.14-5.25.13-.4,0-.81-.25-1.22-.38.35-.18.67-.48,1.04-.53,3.68-.5,7.36-1.19,11.05-1.38,10.02-.52,20.04-1.47,30.09-1.26,1.31.03,2.63-.03,3.94.04.62.04,1.22.28,1.83.43-.32.72-.99.81-1.63.84-6.53.33-13.06.65-18.37.91Z"/><path class="cls-1" d="m272.72,70.55c-1.94,0-3.88.01-5.81-.01-.38,0-.75-.2-1.13-.31.41-.09.82-.24,1.23-.25,4.1-.03,8.19-.04,12.29-.04.38,0,.77.18,1.15.28-.42.09-.84.24-1.25.25-2.16.02-4.32.01-6.48.01v.06Z"/><path class="cls-1" d="m326.53,80.42c.92.09,2.22.22,3.51.35-1.27.06-2.55.15-3.82.2-1.07.04-2.14.08-3.21.07-.18,0-.38-.2-.56-.31.17-.1.33-.29.5-.3,1.06-.02,2.14-.01,3.58-.01Z"/><path class="cls-1" d="m366.09,61.5c.13.01-.5-.02-1.11-.1-.19-.02-.35-.18-.53-.28.25-.17.48-.47.75-.5.82-.08,1.65-.11,2.46-.04.33.02.62.33.94.52-.38.13-.76.28-1.14.39-.2.05-.41,0-1.36,0Z"/><path class="cls-1" d="m378.9,61c-1.48.13-2.97.26-4.45.4-.55.05-.96-.18-.82-.63.08-.26.62-.45.98-.53,1.53-.31,2.94.23,4.36.79l-.06-.04Z"/><path class="cls-1" d="m252.37,70.4c.14-.13.26-.33.38-.33.4,0,.78.09,1.17.14-.11.12-.23.35-.33.34-.39,0-.78-.09-1.21-.16Z"/><path class="cls-1" d="m315.53,81.09c-.18-.09-.36-.16-.55-.25.12-.12.23-.31.37-.34.55-.15.84.02.72.41-.04.11-.35.12-.54.18Z"/><polygon class="cls-1" points="257.9 70.03 257.93 70.46 257.38 70.28 257.9 70.03"/><path class="cls-1" d="m214.53,140.4c7.55-.23,15.84-.5,24.14-.74.86-.03,1.73.14,2.58.26.15.02.41.3.38.33-.19.37-.38.92-.68,1.02-.82.23-1.68.32-2.54.37-20.35,1.09-40.7,2.18-61.05,3.27-.22,0-.44-.02-.66-.02-2.36.03-4.67,1.88-7.06.14,1.99-1.97,4.57-.99,6.88-1.41,12.33-2.22,24.84-2.14,38.01-3.21Z"/><path class="cls-1" d="m303.6,136.46c-1.53,0-3.07.03-4.6-.01-.62-.02-1.24-.19-1.85-.3.5-.14,1-.32,1.51-.43,4.7-1.02,9.45-1.38,14.27-1.49,6.77-.16,13.53-.89,20.3-1.28,8.96-.51,17.92-.94,26.89-1.38,1.09-.05,2.19.01,3.29.06.2,0,.4.18.59.27-.23.22-.45.61-.7.65-3.48.41-6.96.94-10.45,1.13-10.74.56-21.42,1.82-32.19,1.88-5.68.03-11.37.5-17.05.77,0,.04,0,.09,0,.13Z"/><path class="cls-1" d="m273.67,129.62c.33-1.21,1.11-1.71,2.37-1.81,3.92-.3,7.83-.85,11.76-1.04,14.88-.69,29.66-2.92,44.57-3.15,2.85-.04,5.71-.04,8.56.01.62,0,1.24.34,1.87.53-.56.21-1.1.58-1.67.62-5.03.33-10.07.62-15.1.91-11.62.66-23.26.94-34.81,2.14-5.86.61-11.86.12-17.61,1.77h.06Z"/><path class="cls-1" d="m123.28,145.75c-1.1,0-2.19.01-3.29-.01-.43,0-.87-.12-1.3-.18.48-.25.93-.59,1.44-.73,1.26-.36,2.53-.82,3.82-.9,9.61-.66,19.2-1.25,28.81-1.82.86-.05,1.75.11,2.58.31.29.06.57.52.7.85.23.54-.03.85-.59.93-.43.06-.85.23-1.28.22-9.45-.09-18.86.55-28.26,1.38-.87.08-1.75,0-2.63,0v-.05Z"/><path class="cls-1" d="m364.71,138.94c-5.17.22-10.33.61-15.51.06-.77-.09-1.55-.13-2.33-.2.85-.09,1.7-.2,2.55-.25,2.8-.17,5.63-.1,8.39-.55,2.48-.4,4.66.2,6.91.94h0Z"/><path class="cls-1" d="m282.65,121.62c.75-1.22,1.88-1.66,3.27-1.67,2.58-.02,5.16-.11,7.75-.11.52,0,1.04.33,1.56.5-.6.13-1.21.36-1.81.37-3.65.05-7.33-.28-10.89.84l.12.06Z"/><path class="cls-1" d="m282.53,121.56c-3.87.26-7.74.53-11.61.75-.38.02-1.12-.26-1.11-.38.02-.81.75-.62,1.24-.66,3.86-.33,7.71-.23,11.58.33l-.09-.05Z"/><path class="cls-1" d="m273.61,129.61c-2.58.11-5.17.24-7.75.33-.39.01-1.15-.19-1.14-.26.06-.88.8-.44,1.21-.48,2.58-.2,5.17-.35,7.72.41h-.04Z"/><polygon class="cls-1" points="367.96 122.93 367.48 123.06 367.55 122.68 367.96 122.93"/><polygon class="cls-1" points="264.74 123.14 264.72 122.8 265.17 122.95 264.74 123.14"/><path class="cls-1" d="m224.63,203.26c1.01-1.39,2.48-1.53,4.06-1.7,17.83-1.82,35.63-3.93,53.6-4.55,10.47-.35,20.89-1.82,31.33-2.78,1.09-.11,2.19-.19,3.27-.18.22,0,.48.46.63.76.05.1-.18.46-.33.5-1.04.28-2.09.63-3.16.72-17.45,1.39-34.85,3.45-52.35,4.24-6.99.32-13.93,1.35-20.9,1.91-4.15.33-8.31.4-12.47.55-1.3.05-2.64-.2-3.78.7l.09-.17Z"/><path class="cls-1" d="m290.61,181.26c-6.35.23-12.72.11-19.04,1.13-5.42.87-10.93.73-16.39,1.36-14.36,1.68-28.78,2.9-43.17,4.29-.22.02-.45.04-.66,0-.41-.09-.82-.23-1.24-.35.38-.2.74-.49,1.14-.58,1.92-.46,3.83-1.02,5.77-1.26,4.14-.5,8.29-.83,12.43-1.23,13.32-1.29,26.63-2.61,39.95-3.83,5.46-.5,10.94-.73,16.41-1.21,1.95-.17,3.34.8,4.85,1.75.03.04-.04-.07-.04-.07Z"/><path class="cls-1" d="m234.42,190.72c-2.19,0-4.38.02-6.57-.03-.33,0-.65-.35-.99-.53.4-.16.78-.43,1.18-.46,8.09-.51,16.17-.97,24.25-1.49,8.73-.57,17.46-1.14,26.18-1.82,6.32-.49,12.62-1.19,18.94-1.74,1.52-.13,3.06-.03,4.59,0,.43,0,.86.13,1.29.19-.49.27-.96.68-1.48.78-2.36.43-4.73.98-7.12,1.11-16.83.87-33.58,3.14-50.45,3.34-3.27.04-6.54.58-9.8.89,0-.07,0-.15-.01-.22Z"/><path class="cls-1" d="m302.33,204.69c-6.13.26-12.27.53-18.4.77-.41.02-1.2-.18-1.19-.25.05-.85.8-.7,1.32-.74,6.12-.5,12.23-.96,18.35.26l-.08-.04Z"/><path class="cls-1" d="m334.34,197.13c-1.48,0-2.33,0-3.18-.01-.16,0-.31-.14-.47-.22.16-.13.3-.36.47-.38,1.9-.18,3.8-.33,5.7-.45.11,0,.33.26.35.42.01.13-.18.4-.3.41-1.06.12-2.12.19-2.57.23Z"/><path class="cls-1" d="m351.68,182.37c-.43.04-.87.11-1.3.1-.17,0-.34-.18-.51-.28.21-.04.42-.12.62-.09.4.06.79.18,1.19.27Z"/><path class="cls-1" d="m224.54,203.43c-.2-.51-.49-.66-.89-.44.13.13.23.36.38.39.18.04.39-.09.6-.13l-.09.18Z"/><path class="cls-1" d="m20.33,88.1c.17-2.62.26-5.25.55-7.86.27-2.41,1.52-2.87,3.54-1.29,4.62,3.62,9.17,7.33,13.77,10.98,3.06,2.44,6.16,4.82,9.25,7.22.17.13.41.18.58.31,6.97,4.94,7.37,5.84,6.23,14.16-.14,1.02-.93,1.97-.06,3.09,1.43,1.84.22,3.3-.92,4.65-.94,1.1-1.97,1.46-3.37.4-5.36-4.1-10.76-8.14-16.41-11.84-3.27-2.14-6.12-4.88-9.3-7.15-2.16-1.54-3.24-3.53-3.37-6.06-.11-2.19-.02-4.38-.02-6.57-.16,0-.31,0-.45-.01Zm30.48,20.61c.15-2.91-.05-4.82-1.78-6.25-2.7-2.21-5.43-4.38-8-6.73-4.83-4.42-10.8-7.4-15.33-12.2-.63-.67-1.54-1.04-2.31-.36-.65.57-1.24,1.66-.71,2.36,2.34,3.12,3.72,6.92,6.89,9.5,3.37,2.73,6.45,5.83,9.8,8.6,2.85,2.36,5.83,4.58,8.86,6.7,1.55,1.08,2.51.53,2.59-1.19.02-.44,0-.88,0-.43Z"/><path class="cls-1" d="m16.08,57.35c1.43,1.34,2.8,2.51,2.53,4.95-.48,4.32.49,8.69-.18,13.05-.18,1.21.48,2.52.56,3.8.18,2.57.9,5.1-.56,7.68-1.14,1.98-.15,4.27.11,6.42,1.11,8.92,1.16,17.88.84,26.86-.01.55-.31.91-.77.8-.35-.08-.89-.39-.92-.63-.26-3.05-.53-6.11-.64-9.17-.54-15.29-1.04-30.6-1.53-45.9-.08-2.61-.36-5.26.71-7.77.02.01-.17-.09-.17-.09Z"/><path class="cls-1" d="m57.7,117.45c0-7.87-.02-15.73.01-23.59,0-1.28-.28-2.66.55-3.8.19-.26.7-.31,1.09-.39.15-.03.47.1.5.22.24.81.62,1.64.61,2.46-.11,10.05-.21,20.11-.46,30.15-.15,6.09-.55,12.18-.82,18.27-.04.65-.03,1.31-.06,1.97-.04.84-.16,2-1.11,1.86-.82-.13-.9-1.36-.89-2.24.03-2.41.08-4.81.09-7.21.01-5.9,0-11.8,0-17.7h.48Z"/><path class="cls-1" d="m61.57,149.96c0-13.16,0-26.31,0-39.47,0-1.53.12-3.07.16-4.6.01-.6.31-.94.8-.67.32.17.47.71.62,1.11.14.4.35.85.27,1.24-1.37,7.19-.6,14.44-.66,21.65-.14,15.12.06,30.25.06,45.38,0,6.57-.14,13.15-.25,19.73-.01.63-.21,1.26-.33,1.9-.77-.59-.52-1.44-.53-2.2-.04-14.25-.62-28.5.04-42.75.02-.43,0-.87,0-1.31h-.2Z"/><path class="cls-1" d="m56.5,162.39c0-4.35-.01-8.69.03-13.04,0-.33.36-.88.65-.94.7-.18,1.22.31,1.49.91.26.59.58,1.24.56,1.85-.09,3.01.42,6.28-.57,8.98-1.7,4.69-1.27,9.39-1.43,14.12-.02.43.09.9-.04,1.3-.27.84.63.28-.19.58,0,0-.33-.45-.35-.72-.07-.65-.06-1.3-.06-1.95,0-3.7,0-7.39,0-11.09h-.08Z"/><path class="cls-1" d="m45.51,143.82c0-4.58-.01-9.16.02-13.74,0-.38.35-1.09.52-1.09.68.01,1.06.54,1.15,1.21.99,7.31.61,14.64.18,21.96-.12,2.17-.39,4.32-.65,6.48-.04.36-.36.7-.55,1.05-.21-.28-.58-.55-.6-.84-.14-1.96-.26-3.92-.29-5.88-.04-3.05-.01-6.1-.01-9.14.08,0,.16,0,.23,0Z"/><path class="cls-1" d="m32.86,142.1c0-3.93,0-7.85.01-11.77,0-.41.21-.82.32-1.23.2.48.56.97.56,1.46,0,2.83-.13,5.67-.14,8.5-.04,5.01-.01,10.02-.04,15.03,0,.64-.15,1.29-.23,1.93-.11-.72-.33-1.43-.33-2.15-.04-3.92-.01-7.85-.01-11.76h-.13Z"/><path class="cls-1" d="m39.36,153.74c.06-1.5.11-3,.21-4.5.04-.55.19-1.09.29-1.63.06.63.16,1.27.17,1.9.07,2.57.13,5.15.15,7.72,0,.57.14,1.24-.55,1.6-.11-.62-.3-1.24-.33-1.86-.06-1.07-.01-2.14-.01-3.22h.08Z"/><path class="cls-1" d="m26.14,138.97c-.58,1.5.43,3.53-.78,5.21-.11-1.72-.27-3.44-.33-5.16-.04-1.3,0-2.61.09-3.9.04-.62.22-1.23.34-1.84.94.5.6,1.42.66,2.17.09,1.08.02,2.17.02,3.53Z"/><path class="cls-1" d="m49.87,143.2c.05-.36.07-1,.23-1.6.23-.84-.63-.21.16-.59.03-.01.34.35.37.55.12.84.23,1.68.23,2.52,0,.38-.3.75-.45,1.13-.14-.37-.3-.73-.43-1.11-.06-.2-.05-.42-.11-.9Z"/><path class="cls-1" d="m25.24,123.65c0-.16-.02-.58.01-.98,0-.18.12-.36.19-.54.13.28.33.54.38.83.09.6.16,1.22.12,1.82-.02.29-.33.57-.5.85-.09-.17-.26-.34-.26-.53-.02-.4.03-.81.06-1.46Z"/><path class="cls-1" d="m39.67,136.65c-.65-.42-.71-1.06-.59-1.72.11-.56.53-.79.83-.45.26.28.38.8.33,1.18-.04.35-.38.67-.57.99Z"/><path class="cls-1" d="m19.3,52.87c-.09.38-.25.77-.26,1.16q-.06,2.69-2.95,3.34s.18.1.16.09c1.29-1.34,1.43-3.46,3.09-4.57h-.04Z"/><path class="cls-1" d="m25.48,152.49c-.12-.08-.31-.13-.34-.24-.05-.17-.08-.41,0-.55.26-.42.49-.31.55.28.01.16-.13.34-.21.51Z"/><path class="cls-1" d="m44.81,170.41c.1-.16.19-.32.29-.48.14.28.33.55.4.84.04.13-.17.32-.27.48-.14-.28-.28-.56-.43-.84Z"/><polygon class="cls-1" points="50.55 153.34 50.42 153.81 50.28 153.42 50.55 153.34"/><path class="cls-1" d="m256.19,26.84c-15.26,1.4-30.53,2.81-45.8,4.18-2.18.2-4.38.28-6.57.3-4.38.04-8.73.21-13.1.72-4.98.58-10.07.29-15.11.35-.43,0-.86-.13-1.29-.21.17-.8.85-.49,1.29-.53,17.46-1.49,34.9-3.17,52.38-4.31,6.11-.4,12.15-1.6,18.35-1.26,3.28.18,6.55.43,9.83.74h.01Z"/><path class="cls-1" d="m229.53,12.91c1.53,0,3.07-.04,4.59.02.4.02.8.31,1.19.48-.35.21-.67.58-1.04.61-5.01.48-10.02.94-15.04,1.33-13.55,1.06-27.1,2.02-40.65,3.12-7.19.59-14.38,1.41-21.56,2.1-.65.06-1.32.09-1.97.05-.42-.03-.83-.21-1.24-.33.25-.22.47-.56.76-.65,1.46-.45,2.94-1.17,4.41-1.17,7.46,0,14.75-1.72,22.23-1.91,8.71-.23,17.49-.33,26.12-2.05,1.7-.34,3.49-.42,5.23-.45,3.71-.07,7.4.09,11.07-1.03,1.81-.55,3.92-.09,5.89-.09v-.04Z"/><path class="cls-1" d="m142.93,32.74c-4.8.31-9.6.64-14.4.9-2.84.16-5.69.23-8.53.29-.41,0-1.16-.18-1.18-.35-.1-.89.7-.67,1.19-.73,3.46-.4,6.94-.84,10.42-1.12,7.39-.57,14.8-1,22.19-1.57,6.11-.47,12.2-1.1,18.31-1.54,2.17-.16,4.37.02,6.55.09.41.01.82.25,1.23.38-.35.17-.7.44-1.06.48-4.98.6-9.96,1.14-14.94,1.74-3.81.46-7.62-.08-11.42,1.7-2.31,1.07-5.53.2-8.34.2,0-.16,0-.32-.01-.48Z"/><path class="cls-1" d="m269.21,17.77c-.21.01-.43.06-.65.04-1.73-.18-3.56.71-5.2-.46,1.64-.81,3.41-.33,5.11-.49,8.23-.77,16.45-1.61,24.69-2.17,2.56-.17,5.34-1.45,7.75.65-2.41,1.29-5.04.92-7.6,1.03-8.04.35-16.08.68-24.1,1.4Z"/><path class="cls-1" d="m282.4,22.03c-2.02,0-3.99.01-5.96-.01-.19,0-.36-.23-.55-.35.14-.15.26-.35.44-.45.18-.11.42-.14.64-.16,8.07-.97,16.17-1.73,24.32-1.51.4.01.79.28,1.19.43-.37.2-.75.58-1.11.58-6.39-.04-12.61,1.95-18.97,1.46Z"/><path class="cls-1" d="m76.88,24.59c-1.31,0-2.62.03-3.93-.03-.35-.01-.7-.31-1.06-.47.4-.14.8-.39,1.21-.4,2.62-.07,5.25-.11,7.87-.11.37,0,.73.28,1.1.44-.42.11-.83.31-1.25.33-1.31.04-2.62.01-3.93.01v.22Z"/><path class="cls-1" d="m161.1,32.75c1.09,0,2.19-.04,3.27.03.38.02.75.33,1.13.5-.18.09-.36.26-.54.26-2.39.02-4.77.02-7.16,0-.17,0-.33-.26-.5-.4.18-.12.36-.34.55-.35,1.08-.04,2.17-.01,3.24-.01v-.03Z"/><path class="cls-1" d="m50.99,24.98c.51.04.94.05,1.34.14.17.04.3.28.44.42-.18.09-.38.26-.56.26-1.05,0-2.12.06-3.14-.11-.85-.15-.26.67-.57-.16,0-.03.44-.31.7-.35.62-.11,1.25-.14,1.79-.2Z"/><path class="cls-1" d="m244.08,15.14c-.79-.04-1.58-.09-2.36-.14,0,0,0-.22,0-.34.79-.02,1.58-.04,2.37-.06v.55Z"/><path class="cls-1" d="m270.4,22.88c.02-.13.02-.35.06-.35.19-.03.4,0,.6,0-.02.13-.02.35-.06.36-.2.03-.4,0-.6,0Z"/><path class="cls-1" d="m95.8,177.18c0,2.95.01,8.41,0,13.88,0,1.29.12,2.66-.72,3.78-.21.29-.7.54-1.05.53-.31,0-.72-.35-.89-.65-.21-.35-.31-.83-.3-1.25.14-5.89-.07-11.84.58-17.68.72-6.52,1.48-13.01,1.6-19.57,0-.41.2-1.18.3-1.18.84.01.71.79.74,1.29.33,6.11.52,12.23-.23,20.86Z"/><path class="cls-1" d="m84.21,101.21c0-7.02,0-14.05,0-21.07,0-.43.06-.87.14-1.29.04-.19.21-.36.32-.54.11.19.29.38.31.58.07.65.11,1.3.11,1.95-.07,13.39-.14,26.78-.22,40.17,0,.66.06,1.33,0,1.97-.09.8-.31.78-.39-.04-.06-.65,0-1.32,0-1.97v-19.75h-.28Z"/><path class="cls-1" d="m90.89,213.42c0,3.25.02,6.5-.04,9.76,0,.25-.58.72-.81.67-.34-.06-.85-.47-.89-.77-.75-6.03-1.22-12.09-.7-18.15.15-1.72-.03-3.83,1.75-5.1.24,1.71.62,3.42.7,5.13.11,2.82.03,5.64.03,8.46h-.05Z"/><path class="cls-1" d="m96.3,136.87c0-3.04-.02-6.08.01-9.12.01-.75.21-1.51.33-2.26.06.65.17,1.29.17,1.94.03,6.08.05,12.15.04,18.23,0,.62-.24,1.24-.37,1.86-.79-.59-.5-1.44-.51-2.19-.02-2.82,0-5.64,0-8.46h.33Z"/><path class="cls-1" d="m91.58,99.58c0,1.53.03,3.05-.01,4.57-.01.65-.17,1.29-.26,1.93-.12-.62-.33-1.25-.33-1.88-.02-3.48.01-6.96.03-10.43,0-.22-.03-.45.01-.65.07-.42.19-.83.29-1.25.11.4.31.8.31,1.19.04,2.18.01,4.35.01,6.52h-.04Z"/><path class="cls-1" d="m79.24,208.11c-.06-1.04-.14-1.68-.11-2.31.02-.4.23-.79.35-1.18.18.31.5.61.51.92.04,1.49.01,2.99-.04,4.47-.01.4-.18.8-.28,1.21-.18-.32-.5-.63-.53-.96-.04-.84.06-1.7.09-2.15Z"/><path class="cls-1" d="m84.94,133.36c-.08.58-.13.98-.18,1.38-.09-.46-.28-.92-.27-1.38.01-.55.18-1.09.29-1.63.06.6.11,1.21.16,1.63Z"/><path class="cls-1" d="m91.46,115.79c0,.43.01.86-.01,1.29,0,.09-.19.16-.3.23-.09-.62-.23-1.25-.24-1.88,0-.28.25-.57.38-.85.07.19.17.38.2.58.04.21,0,.43,0,.64h-.03Z"/><path class="cls-1" d="m90.52,166.44c.14-.5.23-1.17.36-1.18.84-.06.67.67.7,1.16.05.57.16,1.22-.52,1.57-.2-.55-.39-1.11-.55-1.55Z"/><path class="cls-1" d="m81.2,78.07c-.02.21,0,.44-.07.64-.12.4-.29.79-.44,1.18-.19-.34-.4-.67-.56-1.04-.08-.18-.11-.43-.06-.63.15-.6.35-1.18.52-1.76.72.34.6,1,.61,1.61Z"/><path class="cls-1" d="m81.06,132.35c-.16.43.26,1.15-.58,1.26-.04,0-.29-.75-.26-1.14.03-.48-.27-1.19.55-1.3.04,0,.18.75.28,1.17Z"/><path class="cls-1" d="m80.49,85.31c-.09-.37-.2-.74-.24-1.11,0-.06.28-.16.43-.23.09.38.19.75.24,1.12,0,.06-.28.16-.43.23Z"/><path class="cls-1" d="m433.74,83.48c0,3.93-.15,7.88.04,11.81.38,8.16-1.48,16.12-1.95,24.2-.51,8.95-1.32,17.9-2.03,26.84-.11,1.3-.31,2.6-.59,3.88-.06.27-.69.65-.98.59-.28-.06-.63-.58-.67-.94-.07-.64.11-1.31.11-1.96.19-10.73,1.26-21.41,2.42-32.06,1.41-12.86,1.98-25.75,2.31-38.67.11-3.93-.12-7.88.7-11.77.27-1.29-1.46-2.98.8-3.86,1.06,1.07.46,2.44.43,3.59-.18,6.12-.69,12.23-.6,18.37Z"/><path class="cls-1" d="m428.47,176.47c0-4.15.01-8.3,0-12.45,0-1.55.11-3.07,1.03-4.38.23-.32.58-.54.88-.81.04.21.13.43.13.64.09,5.02.22,10.04.23,15.06,0,3.03-.22,6.06-.23,9.08,0,1.53.4,3.17-.42,4.5-.9,1.43.82,3.65-1.5,4.53-1.09-1.54-.97-3.32-.91-5.05.13-3.71.35-7.41.55-11.12.08,0,.16,0,.24,0Z"/><path class="cls-1" d="m335.59,12.45c.13,6.33.28,12.67.38,18.99,0,.41-.23.82-.35,1.23-.19-.23-.55-.45-.56-.68-.06-6.12-.11-12.24-.09-18.37,0-.33.51-.67.77-1.01l-.16-.16Z"/><path class="cls-1" d="m338.89,52.88c3.02-.13,6.05-.29,9.07-.39.38,0,.78.27,1.17.41-.23.18-.47.51-.7.5-3.19-.13-6.46,1.19-9.58-.59l.04.06Z"/><path class="cls-1" d="m151.42,174.92c-1.65.54-3.1-.28-4.16-1.18-3.56-3.01-8.03-4.95-10.66-9.04l.33-.37c4.46,3.03,8.93,6.06,13.35,9.14.48.33.68,1.05,1.01,1.59l.12-.14Z"/><path class="cls-1" d="m145.43,165.52c.04-.15.04-.35.13-.44.15-.13.4-.32.53-.27,1,.39,2.07.7,2.95,1.28,2.16,1.41,4.24,2.95,6.31,4.48.22.16.18.65.26,1-.39.04-.9.26-1.16.1-2.9-1.84-5.77-3.74-8.63-5.64-.17-.11-.26-.33-.39-.51Z"/><path class="cls-1" d="m136.6,164.7c-.38-.05-.79-.03-1.14-.16-.55-.21-1.04-.6-.66-1.24.11-.19.7-.21,1.02-.13.58.13,1.09.44,1.11,1.17l-.33.37Z"/><path class="cls-1" d="m175.17,159.09c1.81.88,3.63,1.76,5.44,2.64l-.21-.23c3.39,2.63,6.78,5.25,10.16,7.89.67.53,1.31,1.09,1.94,1.67.13.12.16.35.24.53-.38.13-.76.38-1.14.36-.4-.02-.84-.22-1.19-.45-4.48-2.96-8.97-5.91-13.4-8.95-1.06-.72-1.92-1.74-2.23-3.09l.4-.37Z"/><path class="cls-1" d="m180.39,161.5l.21.23c.01-.21-.02-.46.06-.65.35-.77-.41-2.55,1.58-1.88,4.01,1.36,6.74,4.71,10.37,6.7,1.7.92,3.19,2.24,4.71,3.46.33.26,1.4.67.45,1.3-.41.28-1.35.21-1.8-.09-2.91-1.92-5.83-3.83-8.58-5.95-2.12-1.63-4.25-3.02-7.01-3.12Z"/><path class="cls-1" d="m395.99,93.91c.2-.71.34-1.33.56-1.92.04-.13.37-.19.57-.2.16,0,.41.06.5.18.95,1.4.68,2.89.19,4.35-.09.26-.65.4-1.01.51-.08.03-.35-.28-.39-.48-.17-.82-.28-1.66-.41-2.44Z"/><path class="cls-1" d="m205.41,163.13c-2.93.11-4.83-1.74-6.63-3.65-.88-.93-3.56-1.26-1.97-3.14.73-.87,2.02,1.04,3.01,1.76,1.41,1.02,2.88,1.97,4.26,3.02.67.51,1.35,1.11,1.21,2.14l.13-.13Z"/><path class="cls-1" d="m393.08,37.33c2.34,1.9,1.86,4.58,1.91,7.09,0,.31-.39.84-.67.89-.7.13-1.26-.38-1.41-.99-.55-2.31-.77-4.63.36-6.87-.03-.02-.2-.11-.2-.11Z"/></g></svg>