<?xml version="1.0" encoding="UTF-8"?><svg id="Layer_1" xmlns="http://www.w3.org/2000/svg" viewBox="0 0 654.01 659.92"><defs><style>.cls-1,.cls-2{fill:#fff;}.cls-2{fill-rule:evenodd;}.cls-3{opacity:.15;}</style></defs><g class="cls-3"><path class="cls-2" d="m340.01,1.55c1.63,8.21.36,20.78,4.37,28.05,3.79.36,8.05.26,10.57,1.87,2.52-8.95,4.24-18.65,7.5-26.82,6.18-.79,12.02,1.73,19.94,2.51,1,8.54-1.83,21.92-.62,27.42,2.45,1.49,6.05,1.85,8.74,3.12,6.65-7.28,8.41-19.44,13.72-28.06,1.83.46,3.57,4.68,3.75,0,4.73,3.7,11.4,4.67,16.2,6.86-1.21,9.19-2.36,18.41-3.75,27.43,2.7,1.24,5.4,2.5,8.1,3.75,6.4-7.34,9.57-17.87,16.22-24.93,4.71,2.58,9.46,6.99,15.59,6.22,2.59,11.9-13.58,26.79,0,33.67,7.96-6.39,10.97-17.7,19.34-23.7,4.71,2.56,6.98,7.57,13.7,8.11.54,9.44-5.42,17.31-8.1,25.56,1.9,2.87,6.36,3.21,8.72,5.61,7.12-5.58,10.97-14.39,18.72-19.33,4.06,2.64,12.23,6.43,14.34,13.09-4.89,5.73-8.1,13.12-11.85,19.95,8.43,16.95,18-6.57,26.79-9.98,4.89,4.25,9.41,8.86,14.97,12.46-4.42,9.71-12.29,15.96-18.07,24.31,1.07,2.67,2.83,4.65,4.35,6.87,2.48-3.36,7.54-5.67,12.47-8.73,3.41-2.12,9.88-7.85,13.09-7.48,3.59.41,4.39,5.62,6.87,8.72,2.05,2.64,4.75,2.92,4.98,6.24-5.67,7.01-12.72,12.64-18.69,19.33,1.2,3.58,4.4,5.15,5.6,8.73,8.63-3.02,16.73-6.56,23.07-11.85,1.96.6,1.99,2.65,4.37,1.26,1.2,6.28,7.25,7.69,7.47,14.96-2.77,5.63-17.49,10.27-18.07,16.84-.33,3.81,3.48,4.34,4.35,8.73,9.19-2.24,15.93-6.94,24.94-9.35,1.36,6.33,7.43,11.29,8.12,16.2-6.18,6.11-13.74,10.79-19.97,16.84.07,3.08,1.05,5.19,2.5,6.85,6.56-1.58,16.22-5.37,24.94-6.85,2.86,6.51,8.39,13.64,8.74,20.58-6.85,5.41-15.79,8.74-24.34,12.46.6,3.98,2.41,6.74,3.15,10.6,4.46-.37,14.55,3.55,15.57-1.24,3.3,2.64,8.32,2.13,11.85,1.86,1.36,6.77,4.73,17.42,2.5,23.68-7.41-2.53-17.33.73-24.34,2.5-2.41,16.14,18.25,9.2,28.69,12.47-.85,6.82,2.63,17.73,1.25,23.07-.94.93-3.21.06-3.1-1.88-3.64,5.3-14.9,2.97-21.21,5.62-1.47,3.76-.85,6.63-1.23,10.6,7.63,4.01,17,4,24.92,4.99,2.37,4.92.83,13.74,1.25,20.57-4.35,7.9-18.65,5.87-28.06,8.73-1.54.95-.76,4.22-1.87,5.62,8.01,2.49,17.11,8.8,25.59,6.86,4.62,6.47-.62,18.58-.62,24.32-8.34-2.84-19.96.19-26.81-3.12-2.48,1.89-2.19,6.55-3.75,9.35,7.94,3.69,14.21,9.05,24.32,10.6,1.4,7.27-2.65,14.34-4.37,20.57-9.68.39-17.27-2.43-27.44-3.11-2.34,2.43-2.34,7.21-3.73,10.6,7.43,3.77,13.94,8.5,21.82,11.85.47,8.15-3.86,20.09-9.97,25.55-7.34-4.29-16.66-6.61-24.94-9.97-4.1.06-1.65,6.66-6.85,5.62,7.49,6.01,15.7,11.31,24.94,15.58-2.32,7.25-5.62,13.5-9.99,18.7-6.83-2.97-17.06-7.85-25.54-11.2-2.83,1.53-3.28,5.46-5.62,7.46,5.62,6.65,11.87,12.65,18.09,18.7-2.86,8.38-7.67,14.79-13.72,19.97-7.63-5.06-14.9-10.46-23.69-14.35-2.86,1.51-3.5,5.23-6.25,6.86,3.15,9.13,7.16,17.37,13.72,23.07-3.64,6.56-9.28,11.09-14.97,15.58-6.71-5.53-12.49-12.01-19.94-16.83-4.02,1.8-7.47,4.17-9.99,7.48,3.93,8.58,9.5,15.46,13.74,23.7-6.31,3.46-10.08,9.47-16.84,12.47-6.96-5.73-10.84-14.52-16.84-21.2-4.08.9-6.18,3.8-10.6,4.36-.29,10.76,8.23,17.92,10.6,28.07-4.26-.84-12.4,11.2-18.69,9.98-3.84-.75-4.93-7.94-6.87-11.86-2.36-4.81-5.67-7.67-6.85-11.85-4.8.83-9.19,2.03-12.47,4.37.25,9.7,4.28,18.84,6.85,28.05-4.28,5.06-14.01,4.66-18.69,9.35.45-1.81-3.46.66-5.6-1.26,3.21-7.83-4.51-18.56-9.37-24.3-3.23.72-6.45,1.45-9.37,2.5-1.76-.09-1.07-2.65-3.1-2.5,1.2,6.33,1.81,21.13,4.37,29.93-7.05,3.13-14.88,5.51-24.32,6.22,2.14-7.02-4.71-16.49-6.25-25.55-5.35-.71-10.93.2-16.22,2.52.76,7.33.51,16.88,1.9,26.16-5.93,2.59-13.54,3.52-21.22,4.36-4.37-6.87-3.39-22.73-8.1-31.16-6.36.65-8.75-2.02-13.72,0-3.77,7.66-1.9,21.36-3.75,29.3-3.52,1.3-15.75.64-21.79.64-5.09-6.78-.87-22.84-3.12-32.44-4.04-.25-9.48-2.01-12.49-1.24-2.25,10.45-3.77,20.39-6.85,28.69-5.06,1.74-13.41-3.8-16.84,0-7.74-6.8-1.41-23.37-3.1-33.67-4.06-1.16-7.94-.55-11.22-1.25-1.43,6.98-11.42,13.63-8.1,19.32-3.48,1.53-4.77,5.23-6.87,8.11-6.89-3.08-15.33-4.62-21.19-8.72,4.75-7.73,6.83-18.09,9.95-27.43-2.41-1.73-5.8-2.5-8.08-4.37-8.19,6.4-14.05,15.05-19.96,23.71-7.5-.84-9.15-7.52-17.47-7.5.56-2-.96-1.94-1.23-3.12,4.89-7.17,8.03-16.07,12.47-23.7-2.01-3.38-6.85-3.95-9.35-6.84-8.46,5.49-13.94,13.91-17.47,24.31-8.72-1-9.9-11.61-19.32-9.98.29-3.52-1.47-3.11-2.52-6.24.82-.9,3.55-.9,4.39,0,2.45-7.91,8.99-11.78,11.2-19.94-1.34-4.47-7.36-4.29-8.72-8.74-8.45,5.06-14.79,12.22-20.57,19.95-7.78-3.23-12.94-9.1-17.46-15.59,7.89-3.22,12.37-14.44,18.08-21.83-1.25-3.95-4.1-6.28-7.49-8.1-9.8,4.11-16.14,11.71-23.7,18.08-5.37-5-11.85-8.92-14.95-16.2,10.17-3.75,12.97-14.88,19.95-21.82-1.68-2.88-5.2-3.94-6.24-7.48-10.19,1.2-17.2,16.06-26.18,13.72-6.66-1.73-8.87-11.84-13.71-17.46,6.32-8.02,15.19-13.5,23.07-19.95-1.33-4.48-4.81-6.83-5.61-11.83-11.47-.12-22.86,7.6-32.42,9.34,1.73-6.96-7.12-11.25-7.49-19.95,8.66-4.85,18.26-8.75,26.19-14.33-1.18-3.2-2.21-6.53-3.12-9.99-11.92-.02-21.83-1.49-29.3,5.62-5.96-2.77-4.92-12.54-8.1-18.08,6.55-6.53,17.23-8.96,26.18-13.09-.9-4.74-1.18-6.27-1.87-11.22-10.66-1.62-20.29,2-27.43,3.12-4.77-3.93-4.82-15.29-4.99-21.83,8.08-3.15,15.73-6.72,24.94-8.73.55-2.4-.35-8.24-.62-11.84-7.88-1.01-19.45-4.14-28.68-2.5-2.72-6.02-2.6-15.45-1.87-21.83,8.77,4.97,18.63-2.75,28.05-3.1.35-4.05.68-7.5,0-11.23-7.76-1.8-15.22-3.9-25.56-3.12-3.58-6.75-4.38-15.26-1.87-23.69,9.43-.28,20.89-4,29.3-1.24-.42-4.38,1.06-6.84.63-11.23-8.05-4.71-18.77-5.13-28.06-6.24-1.18-7.01.13-14.2,1.87-19.33,7.43-2.62,22.49-.67,29.93-1.24,1.67-2.49,1.8-6.51,3.12-9.36-9.19-4.94-19.91-8.35-27.43-14.96,1.54-7.39,4.27-13.59,6.85-19.96,8.19,2.29,19.07,4.83,28.05,8.11,1.96-3.23,4.47-5.92,6.24-9.36-6.45-8.1-17.11-12-26.19-17.45,2.86-6.08,6.65-11.23,8.73-18.08,9.3,2.54,17.4,6.28,26.18,9.35,3.17-1.81,4.16-5.82,6.23-8.72-6.16-7.13-14.08-12.52-21.19-18.71,1.43-4.76,5.98-11.37,9.35-16.21,9.94,2.74,16.55,8.79,24.33,13.71,3.14-3.07,5.55-6.92,8.73-9.97-5.33-7.57-11.23-14.55-19.96-18.71,1.6-6.95,8.32-14.1,14.34-18.7,5.77,7.32,13.81,12.36,21.2,18.09,3.44-2.38,5.1-6.53,8.11-9.36-5.03-8.69-12.35-15.08-18.09-23.07,4.76-3.98,8.15-9.29,13.08-13.09,8.04,5.69,13.71,13.74,21.83,19.32,4.17-2.07,6.63-5.86,11.24-7.47-4.1-9.64-13.94-16.82-16.84-25.57,5.84-4.12,10.66-9.26,17.44-12.46,6.31,7.61,13.21,14.65,19.96,21.82,4.55-1.26,6.05-5.59,10.57-6.86-3.15-9.1-9.95-14.54-13.07-23.68,4.75-5.43,12.29-8.07,17.44-13.11,3.99,10.16,10.49,17.8,16.84,25.57,2.54-2.03,5.96-3.19,8.72-4.99-1.47-10.18-6.96-16.31-7.47-27.43,6.98.66,13.9-9.76,21.19-6.24,2.39,1.15,2.68,5.72,4.37,9.36,2.7,5.75,7,8.5,6.85,14.33,3.7-1.91,8.41-2.82,12.49-4.37-1.14-9.74-5.73-19.14-6.25-27.42,9.03.12,13.52-7.02,22.44-4.99,2.7,8.3,6.85,15.16,8.72,24.32,4.73.33,6.49-3.39,10.6-1.87.25-9.81.62-18.14-.62-27.43,5.38.25,15.48-2,19.96-2.5,5.29,5.93,6.05,16.39,7.5,26.19,4.22.34,9.86-.74,13.07.62,2.3-10.36,1.54-23.8,6.25-31.79,6.85.19,14.68-1.39,19.94,1.25Zm-16.84,4.99c3.19-.31,10.6-1.59,11.24,2.49-3.35,2.12-9.19-1.81-11.87,1.25.27,8.56-1.99,14.63-1.25,23.68,6.16.21,15.44-.52,18.72.63.6-2.48-3.5-.26-3.1-2.49.6-8.19-.4-19.89-1.9-28.06-4.37-.55-10.37-1.43-11.85,2.5Zm-44.88,6.24c2.14,1.55,9.28-2.67,11.22.61-.74.14-.38.7,0,1.26-3.59,1.19-8.48,1.09-11.22,3.12.13,7.13.96,13.58,1.87,19.95,6.4-.05,10.62-2.28,17.45-1.87-2.83-8.16-4.8-17.21-6.85-26.19-4.35.85-10.93-.54-12.47,3.12Zm81.04,23.07c5.33,1.12,11.8,1.1,16.84,2.49,1.54-7.6,2.54-15.74,2.5-24.94-6.07-.06-8.48-2.25-13.72-1.86-.62,9.35-4.22,15.73-5.62,24.31Zm-120.33-12.46c4.17-1.46,10.15-1.08,12.47-4.37-2.92-2.02-11.04.8-12.47,4.37Zm175.83,23.07c-.25-6.47,1.58-16.27,3.1-23.07-4.44-.85-11.13-2.48-13.7-3.12-1.9,7.88-5.87,13.66-7.5,21.82,5.73,1.33,13.09,4.37,18.09,4.37Zm-175.83-18.08c2.21,4.92,3.66,13.01,3.75,18.08,4.8-1.86,10.51-2.82,15.59-4.37-1.81-6.92-2.63-14.85-6.87-19.32-4.26,1.75-9.57,2.47-12.47,5.61Zm-39.89,9.35c4.4-1.22,8.5-2.72,12.47-4.37-1.81-6.26-10.93.71-12.47,4.37Zm233.16,15.58c5.47,2.02,10.42,4.57,16.22,6.24,1.76-7.79,3.99-15.11,6.22-22.44-5.93.75-8.12-2.27-11.22-4.36-3.26,7.32-8.19,13-11.22,20.56Zm-232.54-11.22c3.01,5.08,4.97,11.23,6.85,17.46,4.69-2.18,10.31-3.41,14.34-6.24-3.26-5.48-4.77-12.69-8.72-17.45-4.31,1.93-9.68,2.8-12.47,6.24Zm283.04,38.65c-1.79-1.3-3.97-2.77-5.6-3.74-26.12-15.45-59.25-28.49-93.51-34.91-66.28-12.41-133.02-.56-180.83,22.45-49.79,23.96-90.35,59.19-119.08,101.62-38.63,57.06-61.87,144.4-41.15,233.8,17.91,77.27,65.21,137.85,123.47,175.19-.36,1.3,2.43,1.33.62.62-20.21-15.12-35.8-34.87-54.25-51.73-.4-2.31-1-4.41-1.87-6.25-26.12-29.26-47.47-67.15-59.86-110.97-12.92-45.78-12.76-102.43-.63-148.39,23.62-89.41,80.3-150.66,154-188.29,36.03-14.29,76.56-26.6,119.73-26.81,34.51-.16,65.56,6.01,94.12,14.96,12.2,3.81,23.4,9.24,34.31,11.23,7.36,2.82,14.59,8.38,21.82,9.34,1.74,1.86,9.7,9.45,11.22,5.62,1.61-1.81-1.92-3.31-2.5-3.74Zm-168.96-34.29c-44.28-.01-81.56,15.53-113.48,29.3-32.23,13.9-59.76,38.38-81.67,61.73-43.71,46.62-80.97,120.29-74.81,206.98,3.05,42.85,12.49,80.21,28.69,112.85,15.48,31.2,36.31,60.16,61.1,82.31,49.61,44.33,119.3,80.79,207.62,76.68,43.1-2.01,80.02-14.57,112.21-29.3,32.41-14.82,58.54-38,81.69-61.73,46.38-47.5,79.08-118.48,76.67-205.12-1.14-41.68-12.87-81.21-28.04-113.46-15.28-32.51-34.67-59.53-60.48-82.94-6.11-5.52-13.45-9.88-19.94-15.57-43.21-37.85-109.29-65.5-188.3-61.73-.42.02-.83,0-1.25,0Zm-149.62,5.62c1.54.08.16,2.1,0,2.48,3.52-.83,5.22-3.5,8.72-4.36-.38-1.69-1.25-2.92-2.5-3.74-1.41,2.55-4.15,3.74-6.22,5.62Zm312.98-3.13c-3.66,6.53-10.66,9.72-12.47,18.09,3.46,3.8,9.53,5.03,13.72,8.1-.94-2.25.31-5.29,3.1-5.61.51-6.35,2.88-10.85,4.37-16.22-2.83-1.52-5.49-3.22-8.72-4.36Zm-311.1,9.35c2.94,5.77,6.74,10.71,8.7,17.46,4.86-1.38,7.63-4.85,12.49-6.24-2.61-7.57-8.16-12.19-12.49-18.08-2.7,2.49-6.71,3.66-8.7,6.85Zm-37.43,16.21c.27,1.2,2.43.49,1.87,2.49,3.64-2.17,6.65-5,9.37-8.1-2.01-.09-1.85-2.3-3.75-2.5-2.05,3.16-6.18,4.2-7.49,8.11Zm365.98,11.23c4.24,2.42,7.94,5.37,11.85,8.1,3.52-7.29,10.93-10.67,11.85-20.58-3.99-.36-4.93-3.79-8.72-4.36-4.4,6.19-11.62,9.59-14.97,16.84Zm-352.87-13.72c-3.15,2.26-6.2,4.61-9.37,6.85,3.17,7.24,9.97,10.81,13.12,18.1,2.86-4.39,8.28-6.25,11.85-9.98-6.8-3.39-8.14-12.25-15.59-14.96Zm371.56,31.18c2.05,2.6,6.31,6.08,9.99,9.35,1.63,1.45,10.15,9.29,7.47,5.6-2.41-1.94-4.66-4.05-6.87-6.23-9.03-8.42-19.03-15.87-29.29-23.07.16.49.02,1.23.62,1.25,6.07,4.32,10.91,9.89,18.07,13.1Zm-395.27,16.83c3.06-3.18,7.07-5.41,9.35-9.35-4.3-5.46-9.46-10.05-15.57-13.71-3.21,1.38-5.54,6.91-9.36,5.61,1.47-3.92,5.67-5.15,6.86-9.35-5.3-3.46-7.4,4.36-9.98,7.48,7.05,5.62,11.43,13.94,18.71,19.32Zm405.87-13.09c3.03,2.48,5.89,10.12,9.37,9.97,4.35-.18,11.53-16.88,14.97-17.46-4.24-1.36-5.64-5.59-9.35-7.47-4.44,5.54-10.42,9.53-14.99,14.96Zm38.06,11.21c-5.51,3.63-10.31,8-16.22,11.22,3.32,2.79,5.38,9.68,9.35,9.98,5.6.42,10.37-10.1,15.59-12.46-3.1-2.72-5.15-6.5-8.72-8.73Zm-488.81,13.1c7.18,5.29,12,12.94,19.32,18.07,2.66-3.57,6.3-6.18,8.11-10.6-5.53-3.4-10.18-7.69-14.96-11.85-3.83.47-4.51,6.96-8.73,4.99,1.18-3.19,3.99-4.73,5-8.12-1.3-.36-2.02-1.29-3.12-1.86-1.85,3.14-4.52,5.45-5.61,9.35Zm466.99-2.5c-.27-1.82-2.97-4.49-3.75-3.74,1.69.8,1.78,3.19,3.75,3.74Zm14.32,16.84c-1.92-5.77-9.01-11.77-13.7-16.84,3.93,6.26,10.24,10.11,13.7,16.84Zm14.34,12.47c1.72,4.1,4.84,6.78,6.87,10.6,4.33-2.5,15.37-6.6,15.57-11.23.04-.91-6.25-7.68-6.85-8.73-4.93,3.37-12.22,4.42-15.59,9.36Zm-518.1,4.99c.5,3.45,5.13,4.13,8.1,6.86,6.36,5.82,8.06,11.16,13.73,9.97.94-4.68,5.02-6.19,5.6-11.21-6.79-2.36-10.7-7.59-17.46-9.97-1.37,3.19-2.44,6.7-6.24,7.47-1.04-3.56,2.67-6.58,3.75-9.98-1.93.06-2.97-.75-4.37-1.25.79,2.62-3.57,4.98-3.12,8.11Zm553.64,16.83c-5.49,3.03-12.47,4.57-16.2,9.35,1.99,4.43,4.55,8.31,6.22,13.1,7.74-2.01,13.47-6.07,18.07-11.23-2.83-3.6-4.19-8.66-8.1-11.22ZM31.39,199.18c8.09,3.76,13.74,9.94,21.82,13.71,5.2-2.48,5.64-9.72,8.72-14.33-6.66-1.85-12.47-4.56-19.33-6.23-1.52,3.26-2.97,6.58-6.23,8.1-.74-2.61,2.3-6.3,3.11-9.36-1.56-.52-2.45-1.69-4.36-1.87-.91,3.68-3.16,5.99-3.74,9.98Zm589.81,14.33c-5.38,2.94-13.14,3.49-18.72,6.24,1.92,5.77,4.33,11.06,6.25,16.84,8.16-1.6,14.57-4.96,19.96-9.35-3.46-3.64-3.9-10.25-7.49-13.72ZM15.18,237.84c7.4,5.23,16.92,11.12,26.81,11.84,1.44-4.79,3.38-9.09,4.36-14.34-6.26-3.3-13.27-5.84-21.2-7.48-1.29,3.49-.97,8.59-4.98,9.35.01-3.93,1.86-6.04,1.87-9.97-1.96.3-2.44-.89-3.75-1.24-1.37,3.6-2.66,7.3-3.11,11.85Zm602.89,16.83c.09,1.54-.31,2.58-1.23,3.12-2.01.54-1.32-1.62-2.52-1.87,1.38,4.65,1.76,10.28,3.75,14.33.09-1.15,2.1-.37,2.5-1.24,4.04,4.56,10.4-.57,15.59-1.86-.31-4.27-.47-8.69-1.27-12.47-4.57-.66-10.97-.88-16.82,0ZM6.45,278.99c6.58,4.62,18.25,3.6,26.18,8.11.41-.84,1.33-1.16,2.5-1.25.55-3.93,1.54-10.81,2.48-16.21-8.28-.33-14.24,1.77-22.43,0-2.02,2.98-1.2,8.79-4.36,10.6-2.67-1.79.6-6.88.61-9.98-1.65,0-3.56.24-4.36-.62-.71,3.4-.17,6.21-.62,9.35Zm617.22,31.17c3.81-2.75,13.96-.36,18.72-3.74.22-5.21-1.58-8.38-1.25-13.71-7.52-1.07-12.78-1.22-19.94-3.12.54,7.14,1.03,14.36,2.48,20.57ZM10.82,322.63c-1.99-3.42-2.59-8.23-2.5-13.71H3.33c.6,4.47.22,10.16,3.12,13.71,8.64-1.24,16.42,5.26,24.94,1.87.99-5.45.37-12.52,1.24-18.09-7.11.58-14,1.38-21.2,1.87-1.17,5.19,2.27,11.48-.61,14.34Zm614.1,29.3c5.64,1.23,11.91-1.07,18.09-1.24.58-6.38-1.38-11.46,0-16.83-5.8-2.1-13.5-2.3-19.34-4.37.87,9.2-2.08,17.51,1.25,22.45Zm-613.49-.62c-.8,3.4,2.4,7.66-.61,9.35-2.63-1.33-.89-7.02-3.75-8.1-4.11-.34-2.18,5.69-1.87,8.1,11.73,1.44,15.78.75,27.43,3.12,1.63-4.44-1.14-11.51,0-15.58-6.91-1.25-14.3,2.26-21.2,3.11Zm607.26,34.91c4.69,3.42,13.61,2.6,19.97,4.36,1.38-5.16,2.28-7.56,2.48-14.34-5.87-3.08-13.76-4.1-19.94-6.85-.38,6.06-1.92,10.96-2.5,16.83Zm-601.02,4.99c-.69,4.85,2.48,9.13,1.24,12.47-5.27-.34-1.79-9.45-6.23-10.6-4.13,2.16.23,9.47.62,13.08,8.61-.54,15.8-2.48,24.95-2.48,3.2-4.47-.53-10.35-1.24-16.21-6.27-.74-12.94,2.6-19.33,3.74Zm591.05,34.29c6.65,1.46,14.3,1.92,21.19,3.11.71-5.08,3.52-8.1,4.37-13.09-7.21-2.55-11.91-7.64-20.59-8.72-.74,7.14-3.95,11.81-4.97,18.69Zm-581.7,8.73c.41,2.11,2.44,5.84.62,8.11-2.98-.55-2.53-4.55-3.74-6.87-1.92-.46-1.2,1.71-3.12,1.25-.36,3.47,1.86,4.37,1.87,7.47,10.78-2.8,19.47-3.69,29.31-3.74-1.77-6.13-3.41-12.39-6.24-17.46-4.75,5.23-14.31,5.64-18.71,11.22Zm575.46,0c.45-1.86,3.35-7.14,1.87-6.86-.31,2.21-2.99,5.3-1.87,6.86Zm-8.1,26.18c4.42,4.92,12.51,6.19,19.32,8.73,1.81-5.26,4.26-9.87,6.25-14.96-5.31-4.05-10.82-7.88-18.72-9.36-2.43,5.06-4.75,10.19-6.85,15.59Zm-534.94-1.86c-4.41,5.76-13.18,7.18-17.45,13.09,2.29,3.87.73,7.93,4.99,9.36,7.18-2.16,12.88-5.82,21.19-6.86-2.57-5.54-4.87-11.34-8.73-15.59Zm-23.69,15.59c1.06,4.23,3.3,8.11,6.85,8.1-1.5-3.28-2.15-7.4-4.99-9.35-.25.79-.79,1.28-1.86,1.25Zm540.54,19.33c6.04.61,13.21,4.36,20.59,5.6.71-3.85,3.28-5.87,4.35-9.35-5.84-3.5-10.31-8.38-16.82-11.21-1.99,5.34-7.56,10.25-8.12,14.97Zm-505.62,29.92c7.56-3.67,12.85-9.6,21.19-12.47-3.31-5.41-6.71-10.75-10.6-15.59-6.07,5.36-13.38,9.48-18.08,16.21,2.44,3.77,7.11,8.03,7.48,11.85Zm493.17-13.73c-3.19,4.1-6.49,8.08-9.37,12.48,5.06,3.89,10.8,7.08,16.22,10.6,3.52-2.52,5.55-6.5,8.72-9.35-3.01-6.77-10.24-9.31-15.57-13.73Zm-495.05,13.73c-2.73-3.29-5.65-6.41-8.1-9.98-1.99-.36-1.92,1.18-3.11,0,2.32,4.32,5.89,12.67,11.21,9.98Zm18.09,22.44c-.54.92-.93,1.99-2.5,1.88,1.87,3.74,6.01,5.21,8.72,8.1,6.75-6.34,13.85-12.34,22.47-16.83-2.66-5.68-7.4-9.25-11.86-13.09-4.73,5.65-10.22,10.56-13.71,17.46,1.52,3.66,5.48,4.91,6.86,8.72-4.07,1.05-6.89-4.24-9.98-6.24Zm454.5-5.61c-6.63.66-10.57,6.59-14.95,11.23,5.76,4.23,9.77,10.18,16.2,13.71,1.78-3.82,5.84-5.38,7.49-9.35-3.86-4.25-4.57-11.64-8.74-15.59Zm-427.68,36.17c2.59,2.8,5.55,5.24,9.35,6.85,1.85-5.1-7.92-6.35-6.87-10.6,4.73.89,6.8,4.43,10.62,6.24,4.77-6.25,12.2-9.84,16.2-16.84-4.22-2.23-6.89-5.97-11.2-8.1-6.36,7.17-13.32,13.71-18.09,22.45Zm382.18-1.88c4.46,6.13,8.95,12.25,14.97,16.83,2.86-2.33,4.62-5.77,9.35-6.24-2.9-7.49-8.34-12.43-10.6-20.57-3.73,4.17-8.57,7.21-13.72,9.97Zm-349.14,23.07c4.73,1.3,7.96,4.08,12.47,5.61,4.73-5.22,7.72-12.23,13.07-16.83-.02-1.08.16-1.94.65-2.49-4.3-2.16-7.76-5.14-11.85-7.47-3.72,8.11-10.35,13.32-14.34,21.19Zm317.97-3.74c3.41,7.18,8.74,12.45,12.47,19.33,2.68-2.28,6.38-3.61,9.97-4.99-2.05-7.73-6.6-12.94-8.12-21.2-6,1.04-9.32,4.79-14.32,6.86Zm-281.19,23.07c4.15.22,6.4,2.34,9.97,3.12,4.64-5.57,9.84-10.52,13.09-17.46-4.28-2.57-8.3-5.41-13.72-6.87-3.15,7.03-7.45,12.92-9.35,21.2Zm-26.17-9.98c-2.79-3.86-7.38-5.92-11.85-8.09,2.21,4.07,8.1,7.58,11.85,8.09Zm286.77-3.74c-4.57,3.1-11.22,4.14-16.2,6.87,4.17,6.64,6.6,14.99,11.85,20.55,4.4-.15,5.49-3.66,9.97-3.73-2.16-8.35-2.81-15.35-5.62-23.69Zm-223.84,29.94c5.8-.07,8.79,2.73,13.12,2.49,3.15-6,6.71-11.56,9.35-18.07-2.32-.09-1.56-.93-1.27-2.5-5.15-1.07-9.35-3.1-13.68-4.99-1.27,8.92-6.22,14.14-7.52,23.07Zm166.48-10.61c3.64,5.94,4.93,14.19,8.74,19.94,4.35-1.77,10.51-3.22,13.7-4.36-1.61-7-1.72-14.86-3.1-20.56-6.51,1.6-14.3,1.91-19.34,4.98Zm-205.74-1.89c3.3,1,6.98,3.77,9.97,3.15-1.99-3.02-6.45-3.52-9.35-5.62.13,1.17-.69,1.36-.62,2.48Zm84.17.65c-1.2,7.09-2.1,14.51-1.87,23.05,4.26-.48,7.52.87,13.09,1.25,1.14-7.59,4.75-12.7,4.37-21.81-5.47-.56-9.68-2.39-15.59-2.5Zm81.67,5.6c2.07,7.28,3.08,15.66,5,23.08,4.42-.38,8.05-1.52,12.47-1.87.16-7.24-.76-13.91,0-21.83-5.73-1.28-11.89,1.58-17.47.62Zm-40.51,22.44c2.05-.8,8.39-.59,13.09-.62.04-7.26,2.74-14.35,1.85-20.57-4.84-.96-11.29-.35-16.2-1.25.22,7.67-.74,16.54,1.25,22.44Zm-88.54-11.83c3.23,1.55,7.05,2.51,10.62,3.74.07-1.8,2.65-1.08,2.48-3.12-4.39-.8-8.08-2.31-11.22-4.35,0,1.85-1.61,2.11-1.87,3.74Zm45.51,11.83c5.38-.94,9.03,3.88,11.85-.62-5.24.47-7.38-2.19-11.85-2.49v3.11Zm42.41,3.11c1.16.1.38,2.12,1.25,2.51,3.93-.66,10.53,1.39,12.47-1.24-3.46-.96-10.71-3.93-13.72-1.27Z"/><path class="cls-2" d="m322.54,70.75c1.9-7.46,6.02-12.67,12.47-15.59,24.49,2.16,44.95,3.68,69.22,12.48,21.95,7.95,43.17,6.6,48.61,28.05,11.64-8.09,24.11,3.63,34.31,11.23,12.47,9.33,21.55,17.88,33.04,28.05,4.53,4,9.68,7.2,13.09,10.6,7.61,7.58,15.53,26.46,8.72,38.03,13.38-.45,20.61,4.14,26.19,14.34,3.08,5.59,6.87,13.47,10.6,21.19,9.93,20.49,19.18,46.32,22.44,74.83,1.81,15.78-5.58,32.14-19.92,33.04,7.09,4.48,15.21,12.37,16.82,21.81,1.76,10.51-3.99,33.95-7.5,46.14-4.33,15.04-9.86,30.5-13.07,42.4-1.81,6.64-1.94,11.67-5,16.84-2.99,5.01-9.46,9.28-12.47,12.46-3.68.9-5.4,3.75-10.6,3.12,2.34,4.51,5.71,8.01,5.6,14.96-1.67,1.93-2.36-1.63-3.73,0-8.12,14.34-19.47,29.8-33.66,42.4-6.2,5.49-13.76,11.01-20.59,17.47-9.01,8.51-18.94,19.45-33.68,15.58-1.58,1.11.42,5.82-1.23,6.86-10.4,16.11-34.89,20.09-56.75,27.44-16.26,5.46-33.48,7.99-48.61,11.84-9.66-2.25-24.29-3.64-26.81-14.97-2.1,7.02-5.4,15.14-11.85,16.84-5.84,1.53-14.19-1.07-20.59-1.87-6.54-.82-14.1-.94-19.94-1.86-29.63-4.73-63.49-17.03-82.29-29.32-1.25-3.93-4.75-5.63-5-10.59-12.43-.75-20.88-8.47-29.92-15.59-20.48-16.12-39.11-35.95-56.74-53.63-.8-8.28-4.64-18.3,1.23-24.93-7.65.51-13.86-3.17-18.06-8.72-9.69-12.82-15.33-32.8-22.44-53.62-3.34-9.73-6.54-19.65-8.73-29.3-2.65-11.58-8.7-26.74-4.99-37.42,1.78-5.11,8.74-8.72,13.09-11.85-11.78-1.09-14.07-11.8-13.72-24.3,1.07-36.92,17.56-79.18,31.18-104.13,3.1-.42,4.89-2.16,8.12-2.49-.27-2.01-1.2-3.37-1.24-5.6,3.34-19.57,13.5-30.59,26.18-45.51,7.56-8.93,14.88-18.71,21.82-24.94,3.64-3.27,9.41-6.51,14.34-10.6,8.86-7.38,22.2-18.12,32.39-4.36.85-4.24-2.07-11.47,1.9-16.21,2.57-3.06,11.71-6.8,18.69-9.98,13.54-6.18,25.94-10.66,41.78-15.59,7.54-2.35,15.15-5.2,21.19-6.86,9.39-2.57,20.06-2.22,29.29-3.12,13.65-1.32,24.03,4,26.81,14.96Zm-48.63-4.99c4.1-.9,11.2-.35,17.47-1.24,1.67-.23,3.1-1.26,4.98-1.26,12.74.02,19.01,12.78,19.96,24.32,1.27,15.43,1.43,33.84,1.87,52.99.4,17.58,1.25,36.43.6,54.25-1.07,30.4.18,61.4-3.1,84.17,3.15-1.77,4.69-2.67,6.85-4.36,2.54-31.35-.8-84.03,0-128.44.45-24.67,5.47-61.54-4.98-79.18-7.83-13.19-30.07-7.89-43.66-3.75,3.84.36,8.9-3.51,11.22-.61-2.79,2.08-9.19,2.12-11.22,3.11Zm35.54,206.37c5.35-3.1,4.1-12.45,4.37-21.82,1.11-37.61,2.59-75.81.62-119.08-1.12-24.31,2.48-54.09-11.85-62.98-3.7-.85-9.28.13-11.85-1.87-37.32,6.12-72.43,14.44-92.27,38.03,5.22,16.21,14.57,30.75,23.04,44.89,8.61,14.28,17.49,28.16,25.59,42.4,8.1,14.24,18.32,27.09,26.79,41.16,8.5,14.07,15.44,29.64,27.44,41.14.85-2.78,5.49-.32,8.1-1.86Zm-49.86-202.63c1.76-1.34,5.09-1.14,6.85-2.49-2.05.65-8.77-.07-6.85,2.49Zm180.18,27.44c-.18,4.31-5.02,12.58-7.49,18.07-2.88,6.42-6.13,12.53-8.72,17.47-17.8,33.71-39.33,70.06-53.61,100.99.89-2.15,2.97-4.46,4.35-1.24,11.02-19.36,22.66-40.86,34.91-62.98,8.7-15.69,19.21-31.64,26.81-46.75,2.9-5.76,4.28-12.48,7.47-17.46,2.07-3.2,6.22-5,6.25-9.36.04-7.16-7.74-10.32-11.85-14.33-1.67-.59-3.61-.09-5.62-.62-13.14-3.56-29.31-12.63-42.39-11.85,4.33,2.11,10.44,2.44,14.34,4.98.96,2.23-2.12.38-1.87,1.88,9.88,2.16,19.77,4.33,26.81,9.35-28.91-4.98-50.39-17.37-85.44-16.21-2.45,1.04-3.32,3.46-5.6,3.12-3.44,11.08-1.79,20.91-1.23,34.29,2.34,59.29.49,116.86.62,165.23,7.9.64,10.04-7.38,13.05-12.48,9.75-16.27,19.83-31.8,28.09-48.63,17.42-35.55,36.34-65.66,52.38-102.24,1.81-4.15,5.71-9.47,5.6-11.85-.16-3.25-5.49-5.57-3.75-8.73,4.84-1.37,7.05,4.91,6.87,9.36Zm-243.78,16.83c-2.41-5.03-1.14-10.8,0-15.58-2.74.16-1.56,4.27-3.12,5.62-2.83-.82-1.67-3.22-5.6-1.87-2.63,9.65,5.62,12.79,8.72,18.7-.78-5.71-8.92-9.84-5-16.21,2.63,2.16,2.36,7.21,5,9.35Zm293.03,2.5c-6.11-2.65-10.8-9.99-16.84-10.6,6,2.72,11.27,9.51,16.84,10.6Zm9.97,15.58c-10.04-7.67-18.81-16.08-27.44-21.2-14.99-8.9-23.58,12.11-29.31,23.69-18.23,36.94-40.29,71.28-59.23,105.99-8.17,15.04-17.29,29.29-21.19,44.89,4.64,1.63,7.78-2.22,11.22-4.37,11.71-7.33,22.73-13.21,33.68-20.57,14.41-9.71,29.34-19.36,43.64-29.31,14.23-9.89,27.82-21.05,42.38-30.54,7.12-4.65,14.77-9.55,21.82-14.34,7.09-4.81,16.4-8.81,18.72-18.08-8.57-15.38-19.27-24.69-34.29-36.16Zm-226.96,135.3c-3.12-5.64-6.49-11.5-9.97-16.84-23.09-35.52-46.18-73.8-69.82-107.86-6.94-10.01-13.03-20.82-22.44-28.06-11.56.58-16.98,7.12-24.29,13.71-11.67,10.51-20.59,18.73-29.34,31.79-3.57,5.35-10.99,15.3-10.61,20.57.45,5.73,11.5,11.83,18.1,15.59,22.11,12.58,41.4,27.81,61.73,39.9,14.79,8.81,28.87,16.71,42.41,25.56,14.12,9.27,29.27,16.69,43.61,24.32.51-2.19,5.09.81,8.12-.62-.45-6.4-4.42-12.58-7.49-18.08Zm6.25-5.62c-3.57-5.7-7.09-11.67-10.6-17.46-21.13-34.8-45.24-72.41-64.22-106-3.64-6.44-10.17-15.38-12.47-18.07.42,1.24,2.14,2.67,0,3.11-3.01-1.35-3.93-4.79-6.22-6.85-1.81,3.74-3.5-2.48-6.22-1.87,1.56,2.58,3.88,4.42,5.6,6.86,5.29,15.35,16.42,26.9,25.56,41.77,15.15,24.68,33.42,50.41,48.01,74.19,8.05,13.11,15.21,25.76,23.69,37.41,4.13,5.68,6.2,15.38.62,18.69,3.73-3.3,5.11-3.06,6.85-7.47.22,1.46.65,2.68,1.87,3.12,2.14-12.9-7.27-19.12-12.47-27.43Zm218.84-135.92c15.66,13.45,33.26,24.93,41.16,46.14-1.32,1.63-2.43.53-3.75,1.26-10.26,13.79-27.59,20.46-41.78,29.92-16.89,11.27-32.17,24.81-49.26,36.16-25.54,16.99-51.71,35.7-77.92,51.12-2.5.2-3.12-1.44-5.62-1.25.4,2.1,1.81,3.2,1.25,6.24-2.74.47-4.08.97-6.25,3.12,3.75,1.88,7.56,3.67,13.74,3.12,25.18-20.92,54.59-37.67,80.42-57.99,19.54-12.71,42.88-27.78,61.1-42.4,6.67-5.35,13.83-11.2,20.57-14.33,2.43-1.15,5-.78,6.87-2.5,2.68-2.48,3.52-6.3,3.73-9.98,1.12-18.44-10.51-24.81-20.57-34.29-5.73-5.38-10.95-11.39-14.34-13.71-1.47-1.02-2.01.2-3.75-.63-2.79-1.34-4.26-6.5-7.47-5.61,1.61,2.16,1.16,2.89,1.87,5.61Zm-170.21,5.62c-.94-.76-.16-6.44-1.25-4.99.51,1.56-1.21,5.36,1.25,4.99Zm-.62,67.95c.2,2.2,1.67-2.2,1.87,0,1.47.63-.22,7.67,1.23,6.24.04-8.19-.16-13.04,1.25-19.33,2.41,5.89,1.9,14.75,4.37,20.58.13-20.09-.38-36.77-1.23-57.99-1.4,4.9-1.16,8.7-3.75,14.34-3.61-8.01-.74-22.52-4.37-30.54-.16,23.27-1.09,42.46.62,66.71Zm49.88,117.2c3.84,8.66,20.34,7.89,27.44,11.23,4.57-.33,6.11.11,9.35-1.25,1.14.68,1.56,3.45,3.12,1.88,54.1-2.99,110.07-4.46,157.11-3.12,3.15-3.27,8.14-1.24,13.09-3.12,7.78-2.94,12.18-14.76,11.85-25.56-.8-25.56-13.25-61.81-24.32-81.05-8.21-14.26-15.13-32.01-34.31-28.06.42,2.02,8.43-.79,8.12,3.74-2.48,1.72-7.14-1.52-8.12,3.74,13.76-3.35,23.56,13.97,28.69,24.94,8.63,18.44,21.13,44.23,22.44,61.73.54,6.93-.45,19.76-3.75,24.32-1.54,2.14-4.8,2.22-8.1,4.36-2.5,1.62-3.17,3.57-4.97,4.36-3.9,1.73-8.68,1.19-14.99,1.25-35.78.41-82.72,7.16-122.8,6.24-10.44-.24-21.44,2.13-30.56,1.88-10.35-.3-19.38-3.08-26.17-7.5-.36-.89-.98-1.51-1.87-1.87,0-.33-.51-.7-.62,0,1.2-.24.91,2.86-.62,1.87Zm26.19-115.34c.2-1.95,4.22-5.82,2.5-5.61-.56,1.76-3.97,3.9-2.5,5.61Zm172.69,43.02c-6.07-12.9-9.19-24.34-14.95-33.04-3.06-4.62-10.46-11.75-14.97-13.09-7.41-2.2-19.5,8.76-25.54,13.09-6.6,4.68-12.67,10.14-18.74,14.33-31.48,21.78-65.85,44.66-97.86,67.34-7,4.96-17.67,9.25-18.09,14.97-.42,5.88,3.5,5.76,3.12,9.98,13.79,4.42,28.73,1.9,43.63,1.24,36.94-1.62,71.3-3.04,107.86-5.6,14.68-1.04,34.55,3.43,39.91-9.98,2.72-.32,1.34,1.91,3.75.61,8.54-19.1.42-41.7-8.12-59.85ZM58.2,325.12c7.48,3.04,19.49,3.66,31.18,3.12,8.37-.4,18.35-1.04,28.04-1.25,19.85-.44,41.85,1.02,62.35,1.88,31.3,1.28,60.23-1.62,84.79-1.26.94-1.37,1.2-3.36,2.52-4.36,5.91-1.18,8.28-9.79,6.2-15.59-1.32-3.71-9.33-9.3-14.34-12.47-5.62-3.58-11.47-7.56-16.2-10.61-32.97-21.23-68.13-44.11-98.51-62.96-2.16-.51-2.63,1.16-3.75,0-13.76-8.89-29.36-15.94-44.25-23.69-.26,1.9,1.63,3.17-.63,3.74-6.19-.07-11.59,1.38-14.96,6.85,1.49-.45,2.74,2.46,2.49,3.75,7.67-7.46,21.2-1.92,29.31.61-1.05-.65-4.23-2.36-2.5-3.74,25.1,11.34,48.18,28.28,72.32,43.03,18.36,11.22,37.63,20.99,55.48,31.79,5.76,3.49,12.94,6.57,16.84,12.47-49.05-24.54-92.98-57.48-140.27-81.67,47.09,28.33,93.74,57.13,141.52,84.79-.07,2.32-2.43.04-2.52,1.24,3.55,2.09,5.04,6.22,6.89,9.97-.04-1.86,1.83-3.15,3.1-1.86-.16,4.19.67,9.39-3.1,9.97-.2-2.26.09-4.05.6-5.6-4.75,9.01-18.34,6.76-33.02,6.84-26.55.15-50.97.27-73.57-.62-15.59-.6-29.89-.13-42.41-.62-10.65-.42-28.4,3.51-39.28,0-2.23-.71-4.52-4.31-8.1-4.37-.16,3.28,5.43.81,4.99,4.37-3.53,3.84-8.61-4.04-11.23-3.12.93,5.11,10.47,4.92,9.35,9.98-4.82.78-9.09-4.14-12.48-6.86.94,2.95,4.51,4.34,3.12,6.24Zm308.6-66.71c.98-.9,2.45-1.31,3.77-1.87,10.37-17.68,19.61-36.5,30.52-53.62.27-.67.76-1.49,0-.62-2.16,2.13-2.21-1.43-3.1-2.5-2.39,8.2-8.74,12.45-11.22,20.57h-2.5c-7.43,10.54-12.6,24.82-19.94,38.04-4.6,8.3-15.64,21.44-14.34,28.05,3.55-11.4,12.45-17.48,16.82-28.05Zm-274.32-38.04c-1.05,1.2-3.08.87-4.34,1.88-1.15.89-1.61,2.15-2.5,3.74-4.97,8.69-9.78,24.12-13.73,38.65-2.98,11.01-9.64,35-4.36,44.27,1.66,2.9,6.73,3.59,8.73,6.85,47.01-.87,93.88,2.83,139.67,1.26,8.74-.31,36.54,1.86,39.26-3.74,3.44-7.12-9.59-13.96-13.74-16.84-7.47-5.26-13.99-9.05-19.94-12.47-28.11-16.28-53.23-32.95-81.04-48.63-11.6-6.55-29.49-18.71-44.25-21.2-2.73.04-3.75,6.24-3.76,6.24Zm-11.84,8.11c1.14-5.29,6.57-9.64,6.86-13.71-2.04,4.41-7.52,8.69-6.86,13.71Zm245.64,8.73c1.38-1.33.27-10.54.62-14.96.36,0,.71-.51,0-.62-1.38,4.02-.27,10.55-.62,15.58Zm-129.05,13.72c-4.64-4.35,2.99-.64,3.1-2.49-12.74-9.56-27.66-14.71-39.26-24.33-1.87.01-2.12,1.63-3.72,1.88-1.14-1.59-3.1-2.35-5.02-3.13,13.09,10.42,32.97,20.66,44.91,28.06Zm163.96,5.61c3.15-8.28,10.02-16.2,11.85-23.69-4.66,6.75-10.15,16.03-11.85,23.69Zm73.59,10.6c.74-1.36,5.71-4.31,4.35-3.74-1.63.69-5.62,2.25-4.35,3.74Zm-175.85,16.21c4.97,3.23-6.92-4.91-6.22-3.12,2.12,1,3.35,2.91,6.22,3.12Zm107.26,21.19c-11.62.84-21.73-6.89-21.19-18.07-8.34,3.35-18.96,1.31-21.84-6.86-4.93,7.75-22.89,8.54-28.66,4.37,1.56,12.44-9.59,17.38-21.21,18.71,10.19,7.79.74,23.3-6.2,28.06,10.73,1.94,13.96,13.95,12.45,26.18,13.63-.33,17.27,9.33,17.47,22.45,5.89-7.06,19.5-4.96,26.81,1.87,2.12-3.77,5.89-7.97,10.6-8.73,6.98-1.13,10.89,4.14,15.57,6.86-1.67-12.48,5.62-21.24,18.09-18.71-5.98-13.16-.71-23.11,7.47-29.92-9.79-1.86-12.47-10.8-13.09-21.82-2.59,2.32,1.2-3.4,3.75-4.37Zm-24.94-21.19c1.58-.07,2.41-.9,2.48-2.5-1.56.08-2.41.91-2.48,2.5Zm-74.82,13.71c1.29,1.37,2.34,1.29,3.12-.62-.8-.85-3.06-.97-3.12.62Zm317.98,42.4c-3.08-1.17-7.94-6.88-10.6-4.36,1.09,3.36,3.43,2.16,5.6,3.74,5.02,7.91,8.43,16.52,6.87,30.56-1.23,10.74-5.06,25.78-8.72,39.9-4.86,18.6-8.39,34.55-19.97,42.41-2.5-1.79-5.24,1.77-8.1,1.86-5.84.18-14.63-5.63-21.82-9.98-7.27-4.38-14.26-8.37-19.97-11.85-14.46-8.79-30.23-13.68-43.63-20.57-13.85-7.11-26.77-16.37-39.91-23.69-14.26-7.95-29.74-13.85-40.51-23.7-3.15-2.86-4.22-7.41-8.74-6.24-1.05,5.29,6.13,7.51,7.47,12.46,54.65,32.03,108.17,65.17,162.73,97.27,2.68-1.42,3.7-.73,7.47-.63,8.3-3.35,13.34-9.94,18.72-16.21,4.84-22.99,16.2-50.11,20.57-74.81,1.49-8.39,3.99-20.11,2.5-27.43-1.52-7.52-10.02-16.79-15.59-17.46,1.76,2.72,6.96,4.94,5.62,8.72Zm-397.77-4.36c2.97.15,7-.8,7.47,1.87-16.35,3.86-41.38-1.09-56.13,3.12,29.58-1.02,58.89-1.22,86.06-.63-1.99-2.72-5.49-.29-7.49-2.49.42-1.45,2.83-.91,3.12-2.49-4.37-.28-9.64,1.4-12.47.62-2.03-1.07,2.43-2.45-.62-2.49-6.58,1.3-16.26-2.59-19.94,2.49Zm-44.28,1.26c1.18-.06,10.13-.8,8.12-1.26-18.63.59-38.99-.41-54.24,1.87,17.1-.55,28.52.2,46.12-.62Zm43.66-1.87c-9.17.41-19.94-.83-28.06.62,4.1.36,23.78,1.84,28.06-.62Zm36.79,1.24c8.43-.92,3.7-2.14-2.52-.62,1.09-.05,1.96.13,2.52.62Zm351.01,74.19c4.15-14.39,8.32-29.55,9.35-43.01,1.07-14.05-2.16-22.56-10.6-26.8-10.15-5.1-25.92-1.29-38.66-1.26-17.73.06-32.59.43-54.23.62-26.08.25-47.25,4.34-69.22,4.99-12.38.37-22.53.99-25.56,5.62-6.27,9.58,7.59,17.05,15.59,21.82,7.76,4.63,15.15,7.92,21.19,11.22,15.1,8.25,28.42,15.87,41.76,23.06,14.05,7.56,29.87,12.8,43.68,21.2,5.71,3.5,11.87,8,19.94,12.47,5.8,3.22,15.97,11.16,21.82,10.6,1.9-.17,4.19-2.52,5.6-3.11,2.32-.99,1.2-1.15,4.35-.62,8.63-8.75,10.98-22.92,14.99-36.8Zm-321.72-46.75c-19.14,14.02-38.26,24.13-56.1,37.4-15.86,11.81-30.45,21.4-45.51,31.81-2.99,2.05-5.67,4.89-8.72,6.84-6.45,4.14-13.92,6.66-20.57,10.61-5.02,2.96-10.28,9.69-16.25,10.6-18.01,2.75-16.55-18.1-22.43-28.05-.38-.64-2.28-1-2.49-1.26-2.4-2.64-2.01-6.22-4.37-8.1.64,3.65,2.78,6.18.62,9.36,6.06,10.02,9.15,27.82,19.96,33.04,5.76,2.78,10.37.02,17.46,1.24,48.94-33.12,98.06-66.13,145.89-100.37,6.09-2.22,10.57-6.05,16.2-8.73.16-2.75,1-4.82.62-8.11-3.41.61-3.88-1.17-6.85-.62-.31-3.65-1.61-6.29-4.37-7.47,8.72,10.64-4.04,15.2-13.09,21.82Zm-3.75-20.57c-32.7.05-64.54,2.4-94.12,2.49-27.04.08-43.19-.18-65.47.62-6.55.24-19.8-.28-22.45,3.74-3.85,5.83-.18,18.53,1.87,28.69,4.02,19.86,9.87,34.56,16.84,52.99,2.92,7.77,6.23,21.4,11.85,24.32,9.42,4.9,19-6.46,26.81-10.61,39.4-20.86,65.65-44.6,102.24-67.95,10.26-6.56,20.59-14.09,30.56-20.57,12.02-7.8,8.48-14.77-6.85-13.72-.42.02-.85,0-1.27,0Zm31.19,20.57c1.54-.08,7.32,1,8.75,3.12-2.28.95-2.54,2.05-5.02,3.74-1.09-2.09-3.39-3.13-4.97-1.86,1.56,2.18,3.59,3.89,4.97,6.22,1.45,7.18-5.62,14.81-10.6,24.32-4.15,7.93-7.61,15.16-11.22,21.19-20.41,34.35-37.94,72.47-58.6,104.74-6.8,10.65-12.45,33.26-29.92,23.7,0-2.09-2.03-2.12-1.9-4.36-23.89-13.09-41.67-32.28-57.96-53-.09,3.39,3.19,6.12,1.25,9.36-3.17-2.87-4.98-7.08-5-13.09-3.13-2.76-3.63-5.12-1.86-9.36-8.54,14.05,11.28,27.45,19.33,35.54,16.06,16.17,39.17,42.2,61.7,47.39,1.9-1.67,3.08-4,5.62-4.99,10.98-19.82,22.15-39.69,33.68-60.48,5.09-9.2,10.93-17.87,15.57-27.42,4.64-9.6,9.19-19.56,14.34-28.69,6.58-11.68,16.22-26.33,23.69-39.27,4.71-8.16,9.37-17.82,8.72-26.17,1.25-2.32,2.9,3.31,3.12,0-.07-1.81-2.65-1.09-2.5-3.13-.18-1.64,2.43-.5,1.87-2.48-1.61-3.55-10.33-8.73-13.09-5Zm-7.49,11.84c-12.25,7.91-24.34,17.49-38.04,25.56-25.59,15.1-51.53,33.24-76.65,50.5-5.64,3.87-11.94,8.04-18.74,13.11-6.2,4.62-15.37,9.29-18.07,14.33-6.47,12.02,6.27,24.42,12.47,31.16,9.55,10.41,19.68,19.05,31.81,26.81,4.28,2.75,13.12,11.42,19.32,9.98,4.46-1.05,10.33-13.73,13.72-19.33,13.01-21.47,24.36-44.15,36.14-64.22,8.5-14.42,15.84-29.03,23.71-43.02,3.97-7.06,8.16-14.54,11.85-21.81,3.64-7.22,9.75-14.42,9.35-23.08-1.56-2.63-5.84-.64-6.87,0Zm236.93,83.55c-6.29-4.04-13.41-7.1-19.94-11.23-12.25-7.7-25.23-16.13-38.66-24.32-12.89-7.86-27.06-12.98-39.91-21.82-5.71-3.94-10.97-9.96-17.47-13.71-8.54-4.99-19.54-11.97-28.04-9.36,2.95,15.33,12.98,23.6,19.94,34.92,11.49,23.38,27.97,43.58,39.91,66.09,6.07,11.42,13.7,21.38,21.19,31.79,7.43,10.31,11.65,22.71,20.59,31.8,3.75.62,7.45,1.26,11.2,1.87,10.22-4.32,19.88-14.58,29.94-24.32,11.67-11.3,32.26-27.98,24.94-46.76-8.14-3.15-15.28-9.54-23.69-14.96Zm-163.96-75.45c.45,1.91-.65,2.27-.62,3.74,6.65,2.21,6.78,8.97,9.95,14.35,15.26,25.71,35.11,49.6,46.15,78.55,3.01,2.74,4.89,5.27,6.87,8.73,10.55,18.68,21.22,33.43,32.41,51.75,4.77,7.86,11.62,16.76,8.1,24.94-13.27,12.84-38.01,18.29-60.48,23.08-11.53,2.45-23.2,5.35-31.16,4.99-3.3-.16-15.06-4.49-6.25,1.25-.98,5.13-7.36,1.82-9.97,3.11,12.05,7.04,29.11,3.66,45.51,0,9.01-2.01,18.09-5.99,26.79-8.72,15.24-4.77,57.62-12.48,44.28-35.53-4.04-7-10.62-12.79-14.95-19.96-26.35-43.44-52.18-89.54-80.44-130.29-5.69-8.23-9.75-17.46-14.34-21.2-1.45-1.2-2.88-3.46-6.85-1.25-.71,1.82,3.95.68,5,2.5Zm-146.52,188.91c10.08,9.78,22.89,12.93,38.04,18.08,24.36,8.29,50.82,14.87,81.04,14.96,11.87-6.18,8.3-21.47,7.5-34.92-1.41-23.09,1.85-53.63.6-81.04-1.45-32.19-3.3-67.97-5.6-99.74-1.5-.56-1.7.37-4.37,1.23-1.38-2.36-3.28-4.22-5.62-5.6,10.22,21.01,4.73,53.75,6.25,88.53,1.18,27.66.89,55.54,1.87,77.93.74,16.74,5.4,38.34-5.62,45.51-.91-.74-.83-2.96-2.5-1.25-35.56,1.43-67.59-9.09-94.12-20.57-2.83-1.16-.87,2.49-3.15,1.88-4.91-2.56-9.66-8.63-14.32-9.36,1.81,1.27,3.77,5.82,0,4.37Zm210.72-182.67c3.23,2.99-3.77-4.21-4.97-2.51,1.94.54,2.61,2.36,4.97,2.51Zm-72.3,0c-4.13,6.1-1.27,26.31-.65,36.78,1.87,31.57,1.74,53.04,2.5,84.79.42,17.15,1.43,34.49,1.87,50.5.22,8.68-.4,18.22,4.37,25.56,13.74,3.94,27.82,1.92,46.13-2.5,18.05-4.35,42.39-8.87,51.11-20.57,1.23-1.62,2.48-3.32,3.12-4.37-6.02-19.1-20.35-34.46-31.16-51.75-13.61-21.75-25.16-45.84-38.03-67.95-7.79-13.37-18.16-24.76-24.94-37.4-3.21-5.98-4.35-13.85-12.47-14.34-.74.3-1.41.66-1.85,1.26Zm-23.09,133.41c-.45-21.01.02-47.47,0-73.58-.02-20.63.91-42.03-5-57.97-.02-.39-.09-.75-.62-.63-.02-.37-.07-.74-.6-.62-.04.79-.83.86-.62,1.87-2.5,1.83-1.7-2.36-3.75-.62-10.24,11.27-17.09,25.77-25.56,39.9-8.05,13.44-15.39,28.3-23.07,43.03-10.8,20.7-24.67,41.58-36.16,62.96-3.1,5.78-10.37,17.46-9.95,23.07.22,3.48,6.36,6.6,1.23,8.73,25.16,10.91,57.2,25.41,92.89,24.33,5.31-.18,7.67-1.74,12.47-3.75,2.34-20.17-.71-42.11-1.25-66.71Zm-30.56-106.62c.8-2.11,2.23-3.6,3.15-5.6-1.79.72-3.88,4.42-3.15,5.6Zm102.26,11.23c-1.92-.99-2.19-3.63-3.75-4.98.69,1.84,2.19,6.1,3.75,4.98Zm-55.48,13.09c.69,8.47.42-8.53-.65-4.99.07-.18.8,6.8.65,4.99Zm112.83,86.04c.16,1.17-.69,1.37-.62,2.49,6.16,9.85,14.12,17.9,19.97,28.06,14.97,4.18,24.85-7.78,34.91-16.22,14.95-12.49,26.28-23.1,38.64-38.02,4.71-5.67,15.39-17.69,14.99-23.69-.4-5.81-8.68-10.54-13.09-12.48.87,1.98-3.52,2.88-4.37,3.12,11.24,9.26,4.06,21.81-3.12,30.56-11.4,13.88-26.19,28.96-37.41,39.28-7.96,4.29-13.68,10.91-26.17,7.47-5.87-4-7.43-6.78-14.34-7.47-20.88-34.39-40.51-70.06-62.35-103.5,16.95,30.83,35.34,60.25,52.98,90.4Zm57.38-77.32c-6.36-3.42-12.38-10.49-18.72-11.84,6.2,3.57,12.87,9.99,18.72,11.84Zm-8.72-9.98c5.76,2.77,11.58,8.79,17.44,9.36-6.02-2.13-13.85-8.95-17.44-9.36Zm-39.28,87.3c-1.99-1.89-5.33-8.65-5.6-8.1,1.03,3.12,3.59,8.01,5.6,8.1Zm-256.25,42.39c-1.07-3.61,0-7.99-.62-9.35-1.99,2.16-1.45,7.69.62,9.35Z"/><path class="cls-2" d="m335.63,370.64c-12,.81-22.78,2.45-33.04-3.12-2.68-1.45-10.31-8.95-12.47-11.85-7.54-10.12-12.8-32.11-6.25-46.13,2.05-4.37,3.55-7.49,7.49-10.61,13.12-10.27,27.95-9.67,44.26-6.84,5.13.88,8.03,6.02,11.85,9.97,5,5.18,9.66,7.77,12.47,14.97,5.73,14.59.76,31.61-6.85,40.52-5.2,6.07-10.73,7.38-17.47,13.09Zm-1.85-59.22c-1.47-4.22-2.05-12.14-1.25-14.97-1.52.27-1.36-1.14-3.15-.62,1.83,5.62-2.43,15.81,4.39,15.59Zm-14.34-2.5h2.48c.94-4.14-.07-7.21-.62-12.47h-1.85c-.56,3.51-.27,8.73,0,12.47Zm-5,1.24c1.18.16,1.38-.7,2.5-.62-.22-2.34-.87-11.62-1.87-11.84.85,5.31-.6,7.62-.62,12.46Zm9.97-1.24h3.12c-.74-3.64-.71-8.02-1.25-11.85h-1.87c1.23,2.86-.02,6.96,0,11.85Zm13.72,6.85c1.05-7.43-2.92-13.52.62-18.07-6.07-1.94-4.84,16.87-.62,18.07Zm-28.06-3.74c3.46-2.34,2.92-9.23,1.27-12.47-.09,3.63-1.23,7.27-1.27,12.47Zm-4.35,2.48c2.54-1.7,3.81-11.01,1.25-13.71-.62,2.95-1,8.67-1.25,13.71Zm37.39,9.37c-1.34-8.25,1.83-17.89-3.1-23.08,2.1,6.64-1.67,19.12,3.1,23.08Zm-41.76-1.88c3.86-3.24,2.54-12.97,1.25-18.09-2.05,3.98-1.12,14.26-1.25,18.09Zm45.51,35.54c8.88-10.52,1.67-32.76.62-46.77-.07-2.14,2.14-2,2.5-3.74-1.69-1.82-2.83-.13-3.73-.62,3.68-.97-2.7-2.52.6-1.24-2.72,16.41-.96,36.52,0,52.37Zm-51.13-26.81c6.18-2.99,2.1-14.15,3.12-19.96-.11-.47-.51-.71-1.25-.62-.71,6.12-.22,13.93-1.87,20.59Zm13.09-11.85c-3.81,7.67-3.17,16.59,1.25,23.07,3.97,1.43,6.6,4.94,10.6,5.62,9.97,1.68,13.74-5.44,18.72-10.6,2.39-19.54-18.76-31.01-30.56-18.09Zm-18.69,3.74c-.78-2.67,2.43-4.59.62-6.24.07,1.97-2.32,4.71-.62,6.24Zm62.97,27.44c6.47-7.27,4.51-23.98,1.23-32.42.96,13.8-.65,21.59-1.23,32.42Zm-59.23-9.98c-.47-6.54,1.69-15.62,0-21.2-.89,6.75-3.41,17.2,0,21.2Zm8.1,12.47c-.42-7.02,1.03-14.97-1.23-18.71.2,6.16-3.44,15.43,1.23,18.71Zm36.16,10.6c2.72.23,3.21-1.78,5.6-1.88-.42-6.98,1.07-18.1-.62-24.92-4.06,6.52-6.02,15.14-4.97,26.8Zm-29.94-2.5c-1.27-4.86.56-14.59-3.1-18.71-.78,4.47-2.65,21.29,3.1,18.71Zm3.15,2.5c3.5-2.69.11-12.38.6-14.96-.78-.04-.87-.8-1.87-.63.13,6.51-.38,11.82,1.27,15.59Zm21.19,2.49c2.1.01,3.28-.86,4.37-1.87-2.54-3.5.45-12.52-2.5-15.58-2.63,5.09-1.43,10.17-1.87,17.45Zm-6.25-13.72c.62,6.14-.18,9.05.62,14.96h3.72c.29-6.88-.71-8.75-.6-15.58-1.9-.45-1.83,1.07-3.75.62Zm-9.35,13.72c1.43-3.33.22-9.34.62-13.72h-1.87c.05,2.83-2.16,11.23,1.25,13.72Zm3.12,1.87h4.35c.51-6.11-1.18-11.96-1.25-15.59h-1.87c-1.56,4.02-1.23,9.99-1.23,15.59Z"/><path class="cls-2" d="m268.31,321.39c.31-3.53.11-3.73,0-7.48-2.54-.26-.33,4.24-2.5,4.36-3.57-1.68-.16-6.43-1.87-9.98,6.98-8.34,10.13,10.08,4.37,13.09Z"/><path class="cls-1" d="m449.74,120.48c-5.29-4-10.55-8.01-15.84-11.99-.27.52-.56,1.04-.87,1.57,5.2,3.95,10.42,7.87,15.62,11.82.36-.48.71-.93,1.09-1.39Z"/><path class="cls-1" d="m527.12,179.06c-.42.02-.83-.02-1.23-.08-.29.16-.58.33-.87.5-.02.07-.07.13-.11.21,27.3,20.71,54.61,41.44,81.94,62.1.38-.26.8-.5,1.27-.71.2-.08.38-.18.56-.26-27.15-20.62-54.36-41.17-81.56-61.75Z"/><path class="cls-1" d="m385.49,71.95c-22.2-16.75-44.37-33.51-66.59-50.25-.04.49-.09.98-.13,1.46,21.17,16.14,42.38,32.25,63.6,48.35,1.03.15,2.08.29,3.12.44Z"/><path class="cls-1" d="m646.69,271.32c.09-.47.18-.91.4-1.34-8.14-6.18-16.31-12.4-24.45-18.58-.89.1-1.78.19-2.68.29,8.7,6.57,17.4,13.13,26.1,19.69.2-.02.4-.05.62-.07Z"/><path class="cls-1" d="m339.54,25.31c-6.67-5.03-13.34-10.07-20.03-15.09-.04.5-.09,1-.11,1.49,6.87,5.23,13.72,10.45,20.59,15.68-.27-.68-.42-1.38-.45-2.09Z"/><path class="cls-1" d="m406.68,76.01c-19.52-14.75-39.02-29.5-58.56-44.22-.94-.07-1.9-.22-2.86-.37,19.12,14.55,38.23,29.06,57.35,43.59,1.36.31,2.7.64,4.06,1Z"/><path class="cls-1" d="m455.85,113.17c-6.27-4.73-12.54-9.48-18.78-14.22-.09.66-.2,1.31-.36,1.96,5.98,4.53,11.98,9.05,17.96,13.58.38-.45.78-.89,1.18-1.33Z"/><path class="cls-1" d="m534.17,172.47c-.07.7-.25,1.34-.47,1.95,27.46,20.81,54.9,41.67,82.41,62.44.58-.33,1.16-.7,1.74-1.05-27.88-21.15-55.79-42.23-83.68-63.34Z"/><path class="cls-1" d="m638.75,251.69c-1.32-.26-2.61-.47-3.93-.68,3.66,2.77,7.34,5.52,10.97,8.28-.22-.91-.42-1.83-.67-2.74-2.12-1.62-4.28-3.24-6.38-4.86Z"/><path class="cls-1" d="m339.83,13.62c-5.15-3.87-10.28-7.76-15.44-11.64-.65.03-1.27.07-1.92.12,5.76,4.4,11.56,8.77,17.31,13.17.02-.55.04-1.09.04-1.65Z"/><path class="cls-1" d="m596.17,207.43c-23.49-17.82-47-35.61-70.51-53.41.11.13.22.27.33.42.91,1.43,1.87,2.88,2.81,4.35,22.44,17.02,44.86,34.06,67.33,51.06-.11-.8-.09-1.62.04-2.41Z"/><path class="cls-1" d="m461.81,108c.76-.3,1.52-.48,2.28-.56-35.36-26.76-70.76-53.49-106.18-80.18-.2.44-.4.9-.6,1.34,24.78,18.88,49.59,37.72,74.42,56.57,1.61.37,3.08,1.33,3.99,3.03,8.7,6.61,17.4,13.19,26.1,19.8Z"/><path class="cls-1" d="m626.68,230.59c-6.67-5.06-13.34-10.16-20.01-15.22-1.03.08-2.03.13-3.06.13,7.09,5.36,14.21,10.71,21.28,16.08.6-.33,1.18-.68,1.79-.99Z"/><path class="cls-1" d="m616.71,213.46c5.38,4.08,10.78,8.18,16.2,12.26-.13-.47-.25-.99-.29-1.54-.02-.37-.11-.79-.18-1.18-4.48-3.41-8.99-6.82-13.5-10.22-.74.24-1.49.46-2.23.68Z"/><path class="cls-1" d="m602.32,202.52h.25c.54-.36,1.14-.65,1.76-.81-71.16-53.97-142.37-107.87-213.69-161.65-.69.21-1.4.32-2.16.31,71.18,54.16,142.46,108.2,213.78,162.16.02.02.04,0,.07,0Z"/><path class="cls-1" d="m379.74,31.82c-5.96-4.5-11.91-9-17.87-13.5-.22.46-.38.92-.6,1.38,6.34,4.82,12.72,9.63,19.05,14.45-.27-.74-.45-1.52-.58-2.33Z"/><path class="cls-1" d="m613.12,196.73c.07-.05.13-.1.22-.15-6.16-4.65-12.29-9.3-18.43-13.95-.29.09-.58.18-.87.27-.16.37-.33.73-.56,1.06,6.05,4.57,12.05,9.12,18.09,13.7.51-.32,1.05-.62,1.54-.93Z"/><path class="cls-1" d="m582.6,173.3c-61.75-46.8-123.52-93.54-185.4-140.19-.22.47-.47.94-.71,1.38,61.64,46.89,123.36,93.7,185.11,140.45.22-.6.56-1.16,1-1.64Z"/><path class="cls-1" d="m379.62,19.84c-4.66-3.51-9.32-7.04-13.99-10.57-.18.46-.36.9-.54,1.36,4.8,3.66,9.61,7.31,14.43,10.97.02-.58.07-1.17.09-1.76Z"/><path class="cls-1" d="m589.23,166.37c-5.35-4.05-10.71-8.1-16.08-12.17-.56.36-1.16.7-1.74,1.1,5.51,4.18,11.04,8.36,16.55,12.55.42-.49.85-.99,1.27-1.48Z"/><path class="cls-1" d="m616.13,186.73c-3.59-2.74-7.2-5.47-10.82-8.2-.71.3-1.41.6-2.1.89,5.11,3.86,10.19,7.74,15.3,11.59-.78-1.43-1.58-2.86-2.39-4.28Z"/><path class="cls-1" d="m560.52,144.64c-43.17-32.67-86.31-65.36-129.52-97.98-.45.39-.91.74-1.38,1.1,43.21,32.85,86.46,65.61,129.74,98.39.27-.52.67-1.02,1.16-1.52Z"/><path class="cls-1" d="m400.46,23.6c-.13.56-.29,1.11-.42,1.68,5.58,4.24,11.15,8.48,16.73,12.72.02-.15.02-.28.04-.42.09-.47.22-.93.33-1.38-5.56-4.19-11.13-8.39-16.69-12.59Z"/><path class="cls-1" d="m483.44,74.36c-6.09-4.6-12.14-9.19-18.2-13.78-.36.49-.74.97-1.05,1.47,0,.01-.02.01-.02.01,6.45,4.91,12.92,9.8,19.39,14.69-.18-.73-.2-1.54-.11-2.4Z"/><path class="cls-1" d="m596.05,159.54c-4.37-3.3-8.7-6.57-13.05-9.85-.74.26-1.49.54-2.23.84,4.57,3.47,9.15,6.94,13.72,10.4.51-.46,1.03-.94,1.56-1.38Z"/><path class="cls-1" d="m567.23,137.76c-6.05-4.57-12.09-9.15-18.11-13.72-.58.42-1.18.78-1.83,1.09,6.22,4.71,12.43,9.42,18.65,14.13.42-.49.87-1,1.29-1.5Z"/><path class="cls-1" d="m538.05,115.67c-15.12-11.43-30.23-22.87-45.35-34.3-.71.36-1.5.57-2.28.61,15.64,11.87,31.25,23.72,46.91,35.59.18-.68.42-1.29.71-1.91Z"/><path class="cls-1" d="m453.82,51.96c-5.51-4.17-11-8.34-16.51-12.5-.36.49-.67.99-1.05,1.46,5.67,4.29,11.35,8.59,17.02,12.89.18-.61.36-1.23.54-1.85Z"/><path class="cls-1" d="m403.63,14.02c-.2.54-.4,1.09-.62,1.62,5.38,4.08,10.73,8.16,16.13,12.24.09-.64.2-1.28.31-1.9-5.29-3.99-10.55-7.98-15.82-11.96Z"/><path class="cls-1" d="m544.32,108.49c-5-3.78-9.99-7.57-14.99-11.34-.49.41-1.05.79-1.65,1.17,5,3.8,10.04,7.61,15.06,11.42.49-.44,1.05-.84,1.58-1.24Z"/><path class="cls-1" d="m573.52,130.56c-5.67-4.3-11.36-8.59-17.04-12.89-.22.14-.45.3-.67.42-.45.24-.89.42-1.32.57,5.89,4.46,11.76,8.93,17.65,13.4.47-.5.91-1.01,1.38-1.49Z"/><path class="cls-1" d="m515.75,88.85c.2-.49.47-.97.69-1.46-5.31-4-10.62-8.03-15.93-12.04-.4.48-.78.97-1.16,1.46,5.4,4.13,10.84,8.24,16.28,12.38.04-.11.07-.23.11-.34Z"/><path class="cls-1" d="m485.76,64.19c-4.95-3.74-9.88-7.48-14.84-11.21-.38.47-.76.95-1.11,1.42,5.11,3.9,10.26,7.79,15.39,11.69.18-.64.36-1.26.56-1.9Z"/><path class="cls-1" d="m456.7,42.21c-4.86-3.67-9.73-7.37-14.61-11.04-.27.54-.54,1.06-.8,1.59,4.98,3.78,9.93,7.53,14.88,11.3.2-.61.36-1.23.53-1.85Z"/><path class="cls-1" d="m549.12,100.22c-4.75-3.6-9.5-7.19-14.25-10.79-.45.45-.91.89-1.34,1.34,4.93,3.74,9.86,7.46,14.77,11.2.29-.62.56-1.2.82-1.76Z"/><path class="cls-1" d="m520.74,78.75c-4.69-3.54-9.37-7.08-14.03-10.62-.42.46-.83.92-1.25,1.38,4.82,3.63,9.59,7.26,14.39,10.91.29-.57.6-1.12.89-1.67Z"/><path class="cls-1" d="m489.58,55.17c-.76-.57-1.52-1.15-2.28-1.73-3.95-1.86-7.87-4.12-11.02-6.89-.13.16-.27.33-.42.5,4.28,3.25,8.57,6.49,12.85,9.74.27-.55.58-1.1.87-1.62Z"/><path class="cls-1" d="m459.26,32.22c-3.21-2.43-6.42-4.85-9.64-7.28-.87.08-1.74.18-2.61.24,3.95,2.99,7.87,5.97,11.8,8.96.18-.64.29-1.28.45-1.91Z"/><path class="cls-1" d="m84.87,225.58c-16.75-12.6-33.47-25.24-50.24-37.83-.15.26-.29.53-.45.8,16.67,12.71,33.35,25.4,50.03,38.1.22-.36.44-.7.66-1.07Z"/><path class="cls-1" d="m386.76,456.16c15.01,11.37,30.07,22.73,45.08,34.09-.78-1.04-1.61-2.06-2.5-3.08-.76-.86-1.49-1.74-2.23-2.6-14.3-10.86-28.6-21.7-42.9-32.55.87,1.37,1.7,2.76,2.54,4.15Z"/><path class="cls-1" d="m233.91,338.1c-9.08-6.88-18.18-13.78-27.28-20.66-1.09-.06-2.19-.13-3.32-.18,9.44,7.14,18.87,14.27,28.29,21.42.78-.21,1.54-.4,2.32-.59Z"/><path class="cls-1" d="m258.72,356.87c-.62.31-1.25.62-1.87.93,6.74,5.1,13.47,10.22,20.19,15.31.13.09.25.17.36.27,6.27,4.75,12.54,9.5,18.78,14.24.56-.43,1.09-.8,1.61-1.15-13.03-9.86-26.03-19.73-39.06-29.6Z"/><path class="cls-1" d="m312.68,397.74c.04.16.13.32.18.5.25.81.4,1.66.6,2.48,6.98,5.29,13.99,10.61,20.97,15.9.25-.21.49-.39.74-.55.04-.41.04-.84.07-1.26-7.54-5.71-15.04-11.39-22.55-17.07Z"/><path class="cls-1" d="m493.06,535.41c-.18.2-.4.41-.6.6,8.39,6.34,16.78,12.68,25.19,19,.49-.22,1-.4,1.54-.49-8.52-6.48-17.04-12.95-25.56-19.42-.2.1-.36.21-.56.31Z"/><path class="cls-1" d="m90.2,217.71c-10.95-8.25-21.9-16.51-32.85-24.75-1.24-.42-2.46-.9-3.63-1.49,11.92,9.09,23.85,18.16,35.77,27.24.24-.33.47-.68.72-1Z"/><path class="cls-1" d="m370.9,432.28c13.72,10.36,27.42,20.73,41.11,31.1-.91-1.46-1.81-2.89-2.74-4.35-14.01-10.63-28.02-21.21-42.03-31.83,1.25,1.68,2.45,3.39,3.66,5.09Z"/><path class="cls-1" d="m265.79,352.68c23,17.43,46,34.88,69.02,52.29-.13-.92-.31-1.83-.51-2.73-22.53-17.11-45.11-34.18-67.66-51.27-.16.6-.42,1.18-.85,1.71Z"/><path class="cls-1" d="m247.18,336.23c-7.83-5.92-15.66-11.88-23.51-17.81-.6.13-1.23.2-1.92.16-.36-.04-.71-.06-1.07-.09,7.85,5.96,15.7,11.91,23.56,17.86.98-.07,1.96-.11,2.94-.11Z"/><path class="cls-1" d="m501.49,529.16c-.33.31-.71.63-1.07.94,15.82,11.94,31.61,23.88,47.43,35.8.33-.26.65-.52.96-.77-15.75-11.99-31.52-23.98-47.32-35.97Z"/><path class="cls-1" d="m507.51,523.53c15.93,12.03,31.88,24.09,47.81,36.1-.49-.88-1-1.78-1.49-2.68-15.1-11.49-30.21-22.95-45.31-34.42-.33.33-.67.66-1,.99Z"/><path class="cls-1" d="m353.99,407.48c13.94,10.57,27.88,21.14,41.85,31.72-1.2-1.7-2.43-3.38-3.64-5.06-13.52-10.25-27.06-20.47-40.6-30.72.74,1.39,1.54,2.75,2.39,4.07Z"/><path class="cls-1" d="m331.84,388.44c-30.92-23.43-61.86-46.89-92.82-70.29-.89.06-1.81.12-2.7.15,31.59,23.96,63.2,47.88,94.76,71.82.16-.61.45-1.17.76-1.68Z"/><path class="cls-1" d="m101.79,214.55c-11.5-8.66-22.99-17.34-34.5-25.99-.05.15-.07.29-.13.44-.07.2-.16.37-.24.56,10.97,8.37,21.98,16.7,32.93,25.07.65-.05,1.29-.08,1.94-.08Z"/><path class="cls-1" d="m250.11,316.95c14.59,11.05,29.16,22.15,43.77,33.21-.83-1.34-1.56-2.75-2.23-4.22-13.03-9.87-26.08-19.71-39.11-29.56-.76.36-1.58.56-2.43.57Z"/><path class="cls-1" d="m145.97,235.9c-32.19-24.27-64.39-48.54-96.61-72.75-.13.26-.25.53-.41.75,28.65,21.87,57.33,43.69,86,65.52,3.68,2.15,7.34,4.29,11.02,6.48Z"/><path class="cls-1" d="m372.75,407.48c-17.82-13.51-35.6-27.06-53.4-40.55-1.5-.17-2.97-.45-4.42-.84,20.21,15.34,40.51,30.6,60.74,45.91-1.03-1.47-2.01-2.98-2.92-4.52Z"/><path class="cls-1" d="m514.85,515.41c-.29.36-.58.71-.87,1.08,8.74,6.61,17.49,13.23,26.26,19.85,0-.5.07-1.01.18-1.51-8.5-6.47-17.02-12.96-25.56-19.42Z"/><path class="cls-1" d="m364.08,388.94c-10.24-7.75-20.43-15.53-30.65-23.28-.83.26-1.63.47-2.45.67,11.4,8.64,22.84,17.24,34.26,25.87-.42-1.09-.8-2.17-1.16-3.26Z"/><path class="cls-1" d="m520.85,508.02c-.29.37-.58.74-.87,1.09,8.7,6.58,17.4,13.16,26.12,19.74.42-.27.87-.46,1.36-.65-8.88-6.73-17.73-13.45-26.61-20.19Z"/><path class="cls-1" d="m229.25,286.85c-58.62-44.3-117.27-88.56-176.04-132.72-.16.24-.3.48-.45.7,54.6,41.69,109.29,83.29,164.01,124.86,4.02,2.33,8.25,4.7,12.47,7.16Z"/><path class="cls-1" d="m256.66,309.98c10.86,8.24,21.71,16.5,32.59,24.74-.38-1.07-.69-2.16-.96-3.26-10.84-8.19-21.68-16.36-32.5-24.55.6,1,.85,2.04.87,3.06Z"/><path class="cls-1" d="m361.6,375.08c-6.22-4.69-12.43-9.41-18.63-14.11-.58.4-1.18.8-1.76,1.19,6.71,5.09,13.45,10.14,20.14,15.24-.04-.8.02-1.56.25-2.31Z"/><path class="cls-1" d="m526.83,500.62c-.29.37-.58.73-.87,1.09,16.89,12.75,33.77,25.54,50.71,38.29.18-.35.38-.7.58-1.06-16.8-12.78-33.62-25.53-50.41-38.31Z"/><path class="cls-1" d="m102.48,179.37c-7.45-5.63-14.91-11.26-22.36-16.88-.47.12-.93.18-1.39.17,7.89,6.02,15.79,12.03,23.69,18.05-.02-.46-.02-.9.07-1.33Z"/><path class="cls-1" d="m286.76,318.41c-42.79-32.37-85.62-64.66-128.47-96.97-2.05-.93-4.06-1.88-6.07-2.88,44.79,34.12,89.61,68.22,134.47,102.25,0-.14-.02-.3-.02-.45-.02-.63.02-1.28.09-1.95Z"/><path class="cls-1" d="m106.14,170.23c-6.38-4.82-12.8-9.65-19.21-14.48-.16.28-.32.55-.47.82,6.4,4.89,12.83,9.77,19.23,14.65.16-.33.29-.67.45-1Z"/><path class="cls-1" d="m255.41,282.85c-3.52-1.87-7.03-3.75-10.46-5.72,14.77,11.2,29.51,22.45,44.28,33.65.31-.56.62-1.12,1-1.64-11.6-8.78-23.22-17.51-34.82-26.28Z"/><path class="cls-1" d="m370.57,369.95c-6.83-5.15-13.61-10.33-20.43-15.5-.45.52-.91,1.02-1.36,1.5,6.07,4.58,12.11,9.16,18.18,13.75,1.2-.35,2.48-.29,3.61.25Z"/><path class="cls-1" d="m373.89,374.43h.02v.03c.11.24.18.47.29.7,1.14.89,2.3,1.76,3.46,2.63.49.11.98.24,1.47.4.45-.29.89-.51,1.36-.69-2.79-2.14-5.62-4.28-8.43-6.4.45.48.85,1.04,1.18,1.78.25.53.45,1.04.65,1.56Z"/><path class="cls-1" d="m533.19,493.49c-.33.35-.67.68-1,1.02,16.62,12.54,33.24,25.11,49.86,37.64.24-.32.51-.64.76-.94-16.51-12.59-33.08-25.15-49.61-37.72Z"/><path class="cls-1" d="m111.24,162.15c-13.48-10.15-26.94-20.3-40.42-30.44-.16.2-.32.41-.49.61.46.35.91.7,1.37,1.05,1.09.69,2.11,1.48,3.08,2.34,11.92,9.11,23.89,18.2,35.83,27.29.2-.28.42-.57.62-.86Z"/><path class="cls-1" d="m280.33,289.71c-.49.45-1.07.82-1.67,1.11,5.62,4.26,11.2,8.54,16.82,12.79.49-.46.98-.9,1.5-1.34-5.53-4.18-11.11-8.37-16.64-12.56Z"/><path class="cls-1" d="m442.11,412.37c-28.87-21.93-57.71-43.9-86.62-65.81-.29.6-.65,1.19-.98,1.79,26.17,19.82,52.42,39.59,78.61,59.4,3.08,1.43,6.07,2.99,8.99,4.62Z"/><path class="cls-1" d="m537.7,484.98c.16.6.18,1.23.13,1.85,16.84,12.73,33.68,25.46,50.53,38.17.2-.37.38-.74.56-1.11-17.06-12.99-34.15-25.95-51.22-38.92Z"/><path class="cls-1" d="m380.96,354.45c-.04-.18-.07-.35-.11-.54-7.38-5.6-14.75-11.21-22.13-16.81-.13.71-.29,1.44-.45,2.16,7.92,6,15.84,11.97,23.76,17.97-.4-.9-.78-1.82-1.07-2.78Z"/><path class="cls-1" d="m418.28,382.34c-2.03-.79-4.19-1.64-6.4-2.57,35.11,26.56,70.27,53.1,105.43,79.64,2.28,1.47,4.44,3.08,6.51,4.94,14.41,10.88,28.8,21.78,43.23,32.66.38-.31.76-.59,1.16-.81-49.92-38.01-99.92-75.93-149.93-113.86Z"/><path class="cls-1" d="m117.35,154.85c-13.53-10.18-27.05-20.38-40.59-30.55-.16.19-.31.39-.48.6,13.44,10.26,26.91,20.5,40.35,30.75.25-.27.49-.54.71-.8Z"/><path class="cls-1" d="m280.24,277.74c.42,1.06.8,2.14,1.16,3.22,7.43,5.65,14.86,11.32,22.29,16.96.49-.23.94-.48,1.4-.7.25-.09.45-.15.65-.23-8.48-6.43-17-12.82-25.5-19.25Z"/><path class="cls-1" d="m123.98,147.93c-6.69-5.03-13.36-10.07-20.04-15.1-.6-.02-1.2-.08-1.83-.19,7.06,5.35,14.09,10.7,21.11,16.06.27-.26.49-.52.76-.77Z"/><path class="cls-1" d="m267.73,256.4c1.12,1.56,2.21,3.12,3.3,4.69,14.68,11.15,29.33,22.34,44.01,33.47.98-.12,1.94-.19,2.92-.24-16.73-12.65-33.51-25.26-50.24-37.92Z"/><path class="cls-1" d="m474.9,413.28c-3.41-1.74-6.78-3.54-10.11-5.38,41.63,31.47,83.27,62.9,124.95,94.31.91.18,1.85.34,2.79.51-39.19-29.84-78.41-59.66-117.63-89.44Z"/><path class="cls-1" d="m382.3,343.05c-7.94-6.02-15.88-12.07-23.83-18.07.22.95.36,1.91.49,2.88,7.43,5.65,14.9,11.27,22.35,16.92.27-.6.6-1.18.98-1.73Z"/><path class="cls-1" d="m388.1,337.93c.69-.4,1.36-.66,2.03-.87-26.39-19.97-52.74-39.96-79.13-59.92-.67.42-1.41.67-2.1.8,8.52,6.49,17.09,12.99,25.63,19.49,6.6,2.77,12.4,7.23,16.75,12.71,12.27,9.28,24.52,18.54,36.79,27.81t.02-.02Z"/><path class="cls-1" d="m534.71,446.81c-9.64-5.03-18.05-12.77-27.46-18.73,32.06,24.2,64.11,48.4,96.19,72.57.16-.25.31-.48.47-.73.07-.12.13-.22.2-.35-23.13-17.61-46.27-35.16-69.4-52.76Z"/><path class="cls-1" d="m253.58,235.91c10.53,7.99,21.04,16.01,31.54,23.98-.49-.72-.98-1.47-1.45-2.13-.45-.65-.76-1.32-.91-1.96-10.6-8.02-21.26-16.01-31.88-24.04.91,1.39,1.81,2.77,2.7,4.15Z"/><path class="cls-1" d="m130.6,141.04c-6.09-4.58-12.18-9.18-18.27-13.76-.13.29-.29.55-.45.81,6,4.58,12,9.15,18,13.72.25-.26.51-.52.71-.77Z"/><path class="cls-1" d="m239.24,213.08c10.53,7.99,21.01,16.01,31.57,24-.83-1.33-1.61-2.67-2.37-4.03-10.51-7.95-21.06-15.88-31.56-23.83.78,1.29,1.58,2.57,2.36,3.86Z"/><path class="cls-1" d="m136.74,133.72c-14.37-10.81-28.74-21.64-43.1-32.44-.17.18-.35.37-.51.55,14.29,10.91,28.63,21.82,42.93,32.72.25-.27.45-.56.69-.84Z"/><path class="cls-1" d="m554.4,451.73c11.42,8.61,22.82,17.24,34.26,25.86-.4-.72-.65-1.48-.74-2.28-10.64-8.09-21.28-16.16-31.9-24.25-.49.3-1.03.51-1.63.67Z"/><path class="cls-1" d="m412.22,341.92c-31.92-24.21-63.82-48.44-95.77-72.62-.22.65-.47,1.29-.74,1.91,31.21,23.67,62.46,47.26,93.69,70.89.94-.07,1.87-.13,2.81-.18Z"/><path class="cls-1" d="m608.97,491.33s-.04-.04-.07-.07c-3.88-2.46-7.81-4.81-11.71-7.23,3.7,2.78,7.41,5.57,11.09,8.36.22-.35.45-.71.69-1.05Z"/><path class="cls-1" d="m381.07,306.44v-.18c-13.14-9.95-26.32-19.89-39.49-29.85-.89.29-1.85.38-2.81.33,14.19,10.75,28.33,21.52,42.54,32.26-.13-.88-.22-1.72-.24-2.56Z"/><path class="cls-1" d="m318.17,258.71c-.02.77-.07,1.52-.13,2.28,5.09,3.84,10.15,7.71,15.24,11.57-.18-.62-.27-1.29-.25-2.05v-.57c-4.93-3.75-9.88-7.49-14.86-11.23Z"/><path class="cls-1" d="m224.99,190.27c11.47,8.7,22.89,17.42,34.33,26.11-.71-1.23-1.4-2.48-2.12-3.72-11.51-8.7-23.07-17.37-34.58-26.08.8,1.22,1.58,2.45,2.36,3.69Z"/><path class="cls-1" d="m142.69,126.31c-14.19-10.67-28.38-21.36-42.55-32.02-.18.18-.36.36-.51.54,14.13,10.78,28.25,21.53,42.37,32.29.22-.27.45-.53.69-.8Z"/><path class="cls-1" d="m426.83,341c-8.7-6.6-17.4-13.24-26.1-19.84-.89.25-1.81.41-2.74.46,8.63,6.53,17.29,13.03,25.9,19.56.98-.07,1.96-.13,2.94-.18Z"/><path class="cls-1" d="m561.97,443.67c-.33.36-.65.74-.98,1.09,10.28,7.77,20.57,15.56,30.87,23.32.54-.23,1.07-.4,1.63-.45-10.49-8.01-21.01-15.97-31.52-23.96Z"/><path class="cls-1" d="m209.7,166.69c12.78,9.74,25.59,19.49,38.37,29.21-.65-1.18-1.27-2.35-1.94-3.52-12.92-9.74-25.86-19.49-38.77-29.22.78,1.17,1.56,2.35,2.34,3.53Z"/><path class="cls-1" d="m149.16,119.31c-5.73-4.31-11.44-8.63-17.18-12.94-.36.13-.76.22-1.14.28,5.84,4.46,11.71,8.9,17.56,13.37.24-.25.49-.47.76-.71Z"/><path class="cls-1" d="m317.88,246.56c.04.82.11,1.65.16,2.51,5.13,3.89,10.26,7.78,15.37,11.67.02-.8.07-1.57.09-2.37-5.2-3.95-10.42-7.87-15.61-11.81Z"/><path class="cls-1" d="m357.27,276.34c-3.08-2.34-6.18-4.67-9.26-7-.38.55-.85,1.03-1.38,1.44,3.17,2.41,6.36,4.82,9.53,7.23.27-.61.65-1.16,1.12-1.67Z"/><path class="cls-1" d="m386.63,300.22c.38-.26.76-.55,1.18-.79-6.25-4.73-12.49-9.44-18.74-14.17-.76.27-1.54.54-2.32.79,6.31,4.78,12.6,9.56,18.89,14.34.33-.07.65-.13.98-.17Z"/><path class="cls-1" d="m441.59,340.26c-8.81-6.67-17.58-13.37-26.37-20.04-1.09.03-2.14.07-3.21.1,8.86,6.7,17.74,13.37,26.57,20.07,1-.04,2.01-.09,3.01-.13Z"/><path class="cls-1" d="m567.32,435.8c-.2.46-.38.92-.58,1.39,17.58,13.26,35.14,26.56,52.74,39.8.16-.05.29-.12.49-.16.25-.06.53-.23.78-.45-17.78-13.55-35.63-27.06-53.43-40.59Z"/><path class="cls-1" d="m191.39,139.72c.56.75,1.07,1.52,1.58,2.27,13.81,10.54,27.64,21.08,41.45,31.59-.96-1.39-1.94-2.77-2.94-4.17-13.56-10.23-27.15-20.47-40.73-30.7.22.33.42.68.65,1Z"/><path class="cls-1" d="m156.93,113.26c-5.87-4.42-11.69-8.83-17.56-13.23-.16.26-.31.5-.53.74,5.71,4.36,11.44,8.71,17.18,13.07.31-.2.6-.4.91-.58Z"/><path class="cls-1" d="m317.01,234c.04.68.02,1.36.07,2.04,0,.12.02.24.02.35,5.58,4.26,11.18,8.51,16.77,12.75.04-.77.07-1.55.09-2.34-5.64-4.26-11.31-8.53-16.95-12.8Z"/><path class="cls-1" d="m363.05,268.82c-3.9-2.96-7.81-5.94-11.71-8.89-.31.61-.53,1.23-.8,1.84,3.79,2.88,7.59,5.74,11.4,8.63.33-.55.71-1.07,1.11-1.58Z"/><path class="cls-1" d="m397.02,294.57c-5.96-4.51-11.93-9.04-17.89-13.55-.62.32-1.27.62-1.94.94,6,4.56,12.05,9.11,18.05,13.67.6-.37,1.18-.72,1.78-1.05Z"/><path class="cls-1" d="m456.54,339.95h.33c-8.92-6.75-17.82-13.51-26.73-20.27-.98.04-1.99.08-2.97.11,8.9,6.73,17.8,13.45,26.7,20.19.89-.01,1.76-.04,2.65-.04Z"/><path class="cls-1" d="m570.44,426.18s-.02.09-.04.14c.09.56.09,1.16,0,1.76,17.89,13.51,35.78,27.02,53.67,40.51.13-.45.27-.9.4-1.35-18-13.7-36-27.36-54.03-41.06Z"/><path class="cls-1" d="m176.58,117.58c13.76,10.5,27.51,20.99,41.29,31.47-.56-1.02-1.14-2.05-1.69-3.1-14.41-10.87-28.84-21.73-43.28-32.58.2.49.33,1.02.45,1.55,1.14.79,2.21,1.67,3.23,2.67Z"/><path class="cls-1" d="m166.09,109.59c.6-.1,1.16-.13,1.69-.08-12.02-9.03-24-18.07-36-27.1.58.77,1.16,1.57,1.74,2.35,10.84,8.28,21.71,16.54,32.57,24.83Z"/><path class="cls-1" d="m316.72,221.84c0,.78,0,1.58.02,2.36,5.87,4.46,11.73,8.92,17.6,13.37.02-.79.07-1.56.09-2.34-5.91-4.47-11.82-8.93-17.71-13.38Z"/><path class="cls-1" d="m368.65,262.74c.22-.37.45-.76.65-1.14-4.46-3.36-8.9-6.75-13.36-10.12-.33.56-.67,1.14-1,1.72,4.42,3.34,8.86,6.68,13.23,10.01.18-.15.33-.31.49-.46Z"/><path class="cls-1" d="m405.77,289.24c-5.89-4.46-11.78-8.92-17.67-13.39-.58.38-1.16.77-1.74,1.13,6.09,4.6,12.16,9.2,18.23,13.81.36-.54.78-1.03,1.18-1.55Z"/><path class="cls-1" d="m472.4,339.82c-9.12-6.93-18.23-13.85-27.35-20.76-.98.04-1.94.07-2.92.12,9.12,6.9,18.25,13.79,27.39,20.7.94-.01,1.92-.04,2.88-.06Z"/><path class="cls-1" d="m599,435.91c-8.41-6.41-16.86-12.8-25.3-19.2-.16.51-.33,1.02-.51,1.54,8.59,6.45,17.13,12.94,25.68,19.41-.04-.6,0-1.19.13-1.75Z"/><path class="cls-1" d="m627.78,457.8c-3.57-2.7-7.14-5.41-10.69-8.13-.38-.16-.76-.32-1.16-.46-1.12-.41-2.23-.81-3.35-1.21,4.91,3.7,9.79,7.39,14.68,11.07.18-.41.33-.84.51-1.27Z"/><path class="cls-1" d="m210.29,129.79c-26.88-20.26-53.76-40.51-80.69-60.73-.18.16-.4.32-.6.47,27.24,20.8,54.48,41.57,81.76,62.32-.18-.68-.31-1.37-.47-2.06Z"/><path class="cls-1" d="m316.83,210.18c-.02.77-.02,1.54-.05,2.3,6.05,4.56,12.02,9.13,18.03,13.68.04-.77.04-1.56.09-2.34-6.02-4.55-12.05-9.09-18.07-13.64Z"/><path class="cls-1" d="m373.94,253.36c-4.35-3.27-8.66-6.56-13.01-9.84-.36.55-.71,1.1-1.07,1.67,4.37,3.3,8.72,6.59,13.09,9.89.31-.57.65-1.15.98-1.72Z"/><path class="cls-1" d="m412.01,282.23c-5.33-4.05-10.68-8.11-16.04-12.16-.53.41-1.07.81-1.61,1.24,5.42,4.1,10.86,8.2,16.26,12.31.45-.46.94-.93,1.38-1.38Z"/><path class="cls-1" d="m487.17,339.28c-9.17-6.96-18.34-13.95-27.51-20.9-.96.04-1.92.09-2.9.13,9.24,6.99,18.47,13.94,27.68,20.92.91-.04,1.83-.1,2.72-.16Z"/><path class="cls-1" d="m576.31,406.93c-.09.56-.22,1.11-.36,1.67,9.35,7.06,18.69,14.15,28.06,21.2.33-.37.71-.7,1.11-1-9.59-7.29-19.21-14.57-28.82-21.87Z"/><path class="cls-1" d="m146.33,69.73c-3.06-2.28-6.07-4.58-9.12-6.86-.2.16-.42.33-.6.5,3.59,2.76,7.23,5.5,10.84,8.26-.38-.62-.74-1.27-1.12-1.9Z"/><path class="cls-1" d="m316.78,198.26c.02.76.05,1.52.07,2.28,6.13,4.67,12.27,9.35,18.45,14.02.02-.75.04-1.5.09-2.26-6.18-4.68-12.4-9.35-18.61-14.03Z"/><path class="cls-1" d="m200.29,110.38c-12.22-9.22-24.49-18.47-36.76-27.69-.47.09-.94.13-1.41.14,12.92,9.84,25.83,19.67,38.73,29.5-.2-.65-.4-1.29-.56-1.95Z"/><path class="cls-1" d="m378.66,245.06c-4.24-3.22-8.5-6.45-12.76-9.66-.31.55-.62,1.1-.96,1.66,4.26,3.22,8.52,6.44,12.76,9.66.33-.56.62-1.11.96-1.66Z"/><path class="cls-1" d="m501.38,338.1c-8.97-6.8-17.91-13.61-26.88-20.39-.94.03-1.9.08-2.86.13,9.06,6.85,18.14,13.7,27.19,20.55.87-.08,1.69-.18,2.54-.28Z"/><path class="cls-1" d="m578.19,396.43c-.11.55-.22,1.12-.33,1.67,15.21,11.49,30.43,23.01,45.66,34.49.71-.01,1.47-.03,2.19-.08-15.82-12.03-31.68-24.04-47.51-36.07Z"/><path class="cls-1" d="m419.38,275.92c-5.15-3.92-10.31-7.83-15.48-11.73-.51.37-1.07.77-1.61,1.16,5.2,3.94,10.39,7.86,15.59,11.8.51-.41.98-.82,1.5-1.22Z"/><path class="cls-1" d="m201.63,99.52c-10.19-7.67-20.34-15.37-30.54-23.03-.09.32-.2.65-.31.94,10.11,7.72,20.26,15.42,30.38,23.12.13-.35.29-.7.47-1.03Z"/><path class="cls-1" d="m316.29,185.96c.04.76.07,1.52.11,2.28,6.47,4.92,12.94,9.86,19.41,14.77.04-.75.07-1.48.11-2.24-6.56-4.94-13.09-9.86-19.63-14.81Z"/><path class="cls-1" d="m383.5,236.79c-4.39-3.31-8.77-6.63-13.14-9.95-.27.56-.54,1.11-.8,1.68,0,.02-.02.04-.04.06,4.35,3.29,8.68,6.57,13.03,9.85.31-.54.65-1.09.96-1.64Z"/><path class="cls-1" d="m427.38,270.05c-5.09-3.85-10.15-7.7-15.24-11.56-.56.38-1.12.74-1.67,1.11,5.11,3.87,10.22,7.72,15.3,11.58.54-.38,1.09-.75,1.61-1.13Z"/><path class="cls-1" d="m580.73,386.41c-.04.12-.09.23-.13.33-.11.42-.22.82-.33,1.25,18.52,13.98,37.01,28,55.55,41.97.07-.51.18-1.01.29-1.52-18.45-14.04-36.92-28.03-55.37-42.04Z"/><path class="cls-1" d="m514.61,336.19c-8.39-6.37-16.8-12.76-25.21-19.13-.94.04-1.9.08-2.86.13,8.57,6.48,17.13,12.94,25.7,19.41.78-.13,1.54-.25,2.37-.4Z"/><path class="cls-1" d="m207.63,92.08c-15.33-11.54-30.65-23.09-46-34.62.09.16.18.31.27.45.31.5.62,1,.91,1.51,14.63,11.16,29.27,22.31,43.92,33.46.27-.27.58-.53.89-.8Z"/><path class="cls-1" d="m315.58,173.49c.04.76.09,1.54.13,2.3,6.87,5.23,13.74,10.47,20.63,15.69.02-.75.07-1.5.09-2.25-6.94-5.25-13.9-10.5-20.86-15.75Z"/><path class="cls-1" d="m583.34,376.43l-.4,1.67c10.22,7.75,20.43,15.5,30.67,23.22-.16-.68-.2-1.35-.11-2.03-10.06-7.63-20.12-15.24-30.16-22.86Z"/><path class="cls-1" d="m527.5,334.04c-7.7-5.84-15.39-11.69-23.09-17.52-.09.01-.18.01-.29.02-.85.02-1.67.06-2.52.08,7.83,5.92,15.68,11.85,23.51,17.77.78-.12,1.58-.24,2.39-.36Z"/><path class="cls-1" d="m435.57,264.29c-5.02-3.79-10.02-7.6-15.04-11.39-.58.37-1.14.75-1.72,1.12,5.06,3.81,10.08,7.62,15.13,11.43.53-.38,1.07-.76,1.63-1.15Z"/><path class="cls-1" d="m388.39,228.56c-4.57-3.47-9.17-6.95-13.76-10.42-.27.56-.58,1.15-.87,1.71,4.55,3.46,9.1,6.9,13.63,10.34.36-.54.69-1.1,1-1.64Z"/><path class="cls-1" d="m638.93,418.65c-1.83-1.39-3.66-2.79-5.49-4.18-2.5-1.26-5-2.54-7.47-3.84,4.15,3.13,8.32,6.27,12.45,9.4.16-.47.33-.92.51-1.38Z"/><path class="cls-1" d="m215.86,86.37c-16.98-12.77-33.95-25.55-50.91-38.31-.27.13-.54.27-.8.4,16.84,12.87,33.73,25.7,50.57,38.55.36-.21.76-.43,1.14-.64Z"/><path class="cls-1" d="m315.07,161.19c.02.76.04,1.49.07,2.23,7.27,5.51,14.5,11.02,21.75,16.52.02-.74.07-1.48.09-2.23-7.29-5.52-14.59-11.01-21.91-16.52Z"/><path class="cls-1" d="m393.36,220.39c-4.77-3.6-9.53-7.22-14.28-10.81-.31.56-.6,1.14-.91,1.69,4.73,3.59,9.46,7.16,14.19,10.75.33-.56.67-1.09,1-1.63Z"/><path class="cls-1" d="m443.58,258.42c-4.91-3.69-9.77-7.39-14.68-11.1-.54.37-1.12.76-1.65,1.13,4.91,3.72,9.84,7.43,14.72,11.15.54-.4,1.07-.79,1.61-1.18Z"/><path class="cls-1" d="m541.64,332.84c-7.43-5.66-14.88-11.3-22.33-16.95-.91.04-1.81.09-2.72.14,7.45,5.62,14.88,11.26,22.33,16.88.91-.04,1.83-.06,2.72-.07Z"/><path class="cls-1" d="m585.14,365.85c-.07.61-.11,1.23-.2,1.87,11.2,8.47,22.4,16.95,33.62,25.4.83-.17,1.74-.16,2.68.12-12.02-9.14-24.07-18.26-36.09-27.39Z"/><path class="cls-1" d="m225.43,81.71c-8.21-6.16-16.37-12.35-24.56-18.5-.09.12-.18.28-.29.39-.16.11-.29.23-.42.34,8.01,6.12,16.02,12.2,24.05,18.31.42-.18.82-.36,1.23-.54Z"/><path class="cls-1" d="m315.04,149.27c-.02.69-.02,1.38-.02,2.08,7.45,5.67,14.9,11.36,22.37,17.05.07-.73.09-1.46.11-2.17-7.49-5.66-14.99-11.3-22.46-16.95Z"/><path class="cls-1" d="m451.43,252.48c-4.75-3.6-9.5-7.22-14.28-10.82-.51.38-1.07.74-1.61,1.12,4.8,3.63,9.57,7.24,14.37,10.88.51-.4,1.03-.78,1.52-1.18Z"/><path class="cls-1" d="m561.41,336.97c.16-.24.27-.5.45-.7-9.28-7.04-18.56-14.09-27.84-21.13-.87.04-1.76.08-2.63.14,8.86,6.68,17.71,13.37,26.55,20.07,1.23.45,2.37,1,3.48,1.62Z"/><path class="cls-1" d="m584.45,353.41c.18.76.33,1.53.45,2.32,17.15,12.99,34.29,25.98,51.49,38.93.98.15,1.96.29,2.94.4-18.29-13.91-36.58-27.77-54.88-41.65Z"/><path class="cls-1" d="m397.92,211.93c-4.8-3.6-9.53-7.2-14.28-10.81-.31.55-.6,1.11-.89,1.65,4.82,3.66,9.66,7.32,14.46,10.97.22-.61.45-1.22.71-1.81Z"/><path class="cls-1" d="m315.22,139.56c7.47,5.69,14.97,11.39,22.44,17.09,0-.75-.02-1.5-.02-2.26-7.45-5.62-14.92-11.23-22.37-16.85-.02.67-.02,1.35-.04,2.02Z"/><path class="cls-1" d="m234.64,78.21c.45-.15.87-.31,1.32-.45-12.07-9.09-24.12-18.2-36.18-27.29.22.57.47,1.15.67,1.72,11.4,8.68,22.82,17.34,34.2,26.01Z"/><path class="cls-1" d="m402.27,203.28c-4.71-3.53-9.37-7.08-14.05-10.62l-.89,1.65c4.66,3.55,9.32,7.06,14.01,10.61.31-.55.62-1.09.94-1.63Z"/><path class="cls-1" d="m459.31,246.52c-4.69-3.56-9.39-7.14-14.1-10.7-.54.39-1.07.76-1.58,1.15,4.71,3.56,9.44,7.14,14.14,10.71.54-.39,1.05-.78,1.54-1.16Z"/><path class="cls-1" d="m548.94,314.49c-.94.03-1.87.06-2.79.09,33.95,25.69,67.93,51.36,101.92,77,.02-.59.07-1.18.09-1.78-33.06-25.15-66.16-50.21-99.22-75.31Z"/><path class="cls-1" d="m247.14,74.28c-17.31-13.03-34.58-26.09-51.87-39.11-.16.27-.33.51-.49.76,16.98,12.94,33.97,25.83,50.93,38.77.49-.15.98-.28,1.43-.42Z"/><path class="cls-1" d="m315.62,127.91c7.18,5.48,14.34,10.94,21.53,16.4-.07-.78-.11-1.56-.18-2.35-7.09-5.34-14.17-10.68-21.28-16.04-.02.67-.04,1.33-.07,1.99Z"/><path class="cls-1" d="m407.49,195.3c-4.91-3.73-9.84-7.45-14.75-11.16-.29.57-.58,1.12-.89,1.68,4.86,3.67,9.73,7.35,14.55,11.03.36-.52.71-1.03,1.09-1.55Z"/><path class="cls-1" d="m467.23,240.56c-4.71-3.56-9.39-7.13-14.1-10.69-.53.39-1.07.79-1.58,1.2,4.71,3.56,9.41,7.11,14.12,10.67.51-.39,1.03-.78,1.56-1.18Z"/><path class="cls-1" d="m563.68,313.72c-.82.11-1.65.2-2.5.28,20.43,15.46,40.87,30.94,61.3,46.38.25-.5.53-.97.87-1.42-19.88-15.1-39.77-30.17-59.67-45.25Z"/><path class="cls-1" d="m649.41,378.8l-2.65-2.01c-2.01-.85-3.99-1.79-6.11-2.7,2.86,2.14,5.69,4.28,8.52,6.41.09-.57.16-1.13.25-1.69Z"/><path class="cls-1" d="m316.05,116.31c6.65,5.07,13.3,10.15,19.99,15.22-.09-.8-.16-1.58-.25-2.37-6.56-4.95-13.12-9.88-19.67-14.83-.02.66-.05,1.32-.07,1.98Z"/><path class="cls-1" d="m258.49,70.89c-9.93-7.46-19.81-14.92-29.71-22.39-3.32-1.21-6.2-3.61-8.66-6.53-5.44-4.09-10.89-8.18-16.31-12.26-.4.04-.82.11-1.23.18,18.09,13.84,36.25,27.62,54.41,41.44.47-.15.96-.29,1.49-.45Z"/><path class="cls-1" d="m475.21,234.68c-4.77-3.6-9.5-7.21-14.28-10.81-.51.4-1.03.8-1.56,1.19,4.75,3.6,9.53,7.18,14.26,10.77.53-.37,1.05-.77,1.58-1.15Z"/><path class="cls-1" d="m574.77,310.19c-.56.31-1.11.61-1.69.87,20.06,15.16,40.06,30.36,60.12,45.48.56-.29,1.16-.52,1.85-.63-20.08-15.27-40.2-30.48-60.28-45.72Z"/><path class="cls-1" d="m411.06,186.09c-4.66-3.51-9.28-7.02-13.92-10.52-.27.56-.58,1.12-.85,1.67,4.64,3.52,9.26,7.03,13.9,10.54.27-.57.58-1.12.87-1.68Z"/><path class="cls-1" d="m316.38,104.6c6.07,4.64,12.18,9.29,18.29,13.93-.11-.78-.18-1.55-.25-2.31-6.02-4.54-12.02-9.07-18.05-13.6v1.98Z"/><path class="cls-1" d="m270.09,67.74c-9.86-7.41-19.68-14.84-29.51-22.26-.16.36-.31.7-.54,1.02,9.48,7.21,18.94,14.41,28.4,21.62.56-.12,1.09-.26,1.65-.38Z"/><path class="cls-1" d="m483.31,228.89c-4.84-3.68-9.73-7.38-14.59-11.07-.51.4-1.03.8-1.54,1.2,4.84,3.66,9.7,7.32,14.57,11,.51-.37,1.05-.76,1.56-1.13Z"/><path class="cls-1" d="m583.29,304.73c-.4.4-.8.79-1.25,1.19,21.44,16.2,42.85,32.44,64.29,48.63.65-.17,1.29-.33,1.92-.53-21.64-16.45-43.32-32.85-64.96-49.28Z"/><path class="cls-1" d="m415.58,177.6c-4.66-3.54-9.35-7.08-14.01-10.62-.31.55-.58,1.11-.87,1.67,4.66,3.54,9.32,7.08,13.99,10.61.31-.55.6-1.1.89-1.65Z"/><path class="cls-1" d="m316.31,92.6c5.71,4.36,11.42,8.71,17.13,13.05-.04-.74-.09-1.48-.13-2.22-5.73-4.31-11.42-8.59-17.13-12.88.07.7.11,1.38.13,2.05Z"/><path class="cls-1" d="m281.09,65.78c.67-.07,1.32-.13,1.96-.19-16.26-12.22-32.48-24.48-48.74-36.7.18.59.42,1.15.62,1.73,15.39,11.73,30.78,23.43,46.15,35.16Z"/><path class="cls-1" d="m491.68,223.26c-5.02-3.81-10.06-7.62-15.08-11.43-.53.4-1.09.76-1.63,1.17,5.02,3.8,10.04,7.57,15.04,11.38.58-.37,1.11-.75,1.67-1.12Z"/><path class="cls-1" d="m631.23,329.08c-.45-.12-.87-.22-1.27-.38-1.85-.75-3.46-2.22-4.37-3.92-12.49-9.48-25.01-18.93-37.48-28.4-.18.58-.38,1.18-.6,1.75,21.35,16.14,42.67,32.31,64.02,48.43.04-.65.04-1.31.09-1.96-6.8-5.17-13.59-10.34-20.39-15.52Z"/><path class="cls-1" d="m420.25,169.19c-4.73-3.59-9.46-7.18-14.19-10.76-.29.56-.6,1.11-.89,1.67,4.73,3.57,9.44,7.14,14.17,10.73.31-.56.62-1.1.91-1.64Z"/><path class="cls-1" d="m313.7,78.59c6.36,4.83,12.72,9.68,19.07,14.51-.02-.68,0-1.33-.02-1.99-6.8-5.15-13.63-10.26-20.43-15.4.54.89.96,1.87,1.38,2.88Z"/><path class="cls-1" d="m304.45,70.17c.25.05.47.1.69.15-22.8-17.19-45.62-34.38-68.44-51.55-.42.08-.87.15-1.32.23,20.99,16.04,42.05,32.02,63.09,48,2.16.74,4.15,1.81,5.98,3.17Z"/><path class="cls-1" d="m500.29,217.85c-5.18-3.92-10.35-7.85-15.53-11.77-.56.37-1.12.75-1.67,1.12,5.18,3.92,10.33,7.81,15.48,11.72.58-.34,1.14-.72,1.72-1.06Z"/><path class="cls-1" d="m588.65,284.85c.11.82.2,1.64.25,2.46,12.43,9.41,24.83,18.82,37.23,28.19.45-.45.98-.81,1.61-1.02-13.03-9.9-26.06-19.76-39.08-29.64Z"/><path class="cls-1" d="m425.06,160.88c-4.84-3.64-9.66-7.3-14.5-10.95-.27.53-.58,1.08-.85,1.62,4.8,3.65,9.59,7.28,14.41,10.92.29-.53.6-1.05.94-1.59Z"/><path class="cls-1" d="m255.93,21.35c-2.14-1.62-4.33-3.25-6.49-4.87-.42.09-.87.2-1.29.28,2.68,2.05,5.38,4.09,8.05,6.14-.09-.51-.16-1.02-.27-1.54Z"/><path class="cls-1" d="m333.02,79.51c-19.5-14.7-38.97-29.45-58.51-44.15-.18.35-.38.68-.6,1,19.63,14.97,39.33,29.89,58.98,44.85.04-.57.11-1.14.13-1.71Z"/><path class="cls-1" d="m429.97,152.76c-4.95-3.76-9.93-7.51-14.9-11.26-.25.51-.51,1.02-.8,1.53,4.91,3.74,9.86,7.47,14.77,11.2.31-.49.62-.99.94-1.47Z"/><path class="cls-1" d="m585.97,270.92c.13.82.25,1.65.33,2.48,17.6,13.33,35.2,26.69,52.82,40,.85-.07,1.69-.15,2.57-.25-18.56-14.1-37.14-28.15-55.72-42.22Z"/><path class="cls-1" d="m508.9,212.48c-5.29-3.98-10.55-7.99-15.84-11.98-.53.36-1.07.72-1.61,1.09,5.24,3.98,10.53,7.95,15.77,11.93.54-.33,1.09-.67,1.67-1.04Z"/><path class="cls-1" d="m334.12,69.18c.02-.23.09-.44.16-.64-19.16-14.45-38.3-28.94-57.47-43.38-.02.46-.07.91-.11,1.37,19.07,14.54,38.21,29.03,57.29,43.56.04-.3.09-.61.13-.92Z"/><path class="cls-1" d="m435.08,144.71c-5.15-3.91-10.33-7.81-15.48-11.72-.27.51-.51,1.02-.8,1.53,5.11,3.88,10.22,7.75,15.33,11.63.31-.49.67-.96.96-1.44Z"/><path class="cls-1" d="m517.64,207.23c-5.49-4.16-10.98-8.32-16.46-12.48-.2.15-.42.28-.6.41-.31.24-.65.45-.96.68,5.44,4.12,10.91,8.24,16.33,12.35.56-.32,1.14-.64,1.7-.96Z"/><path class="cls-1" d="m621.31,285.74c-.4-.11-.83-.2-1.23-.32-2.14-.67-3.43-2.05-4.06-3.68-11.44-8.69-22.91-17.36-34.38-26.03.49,1.02.94,2.1,1.34,3.22,23.11,17.51,46.22,35.03,69.36,52.5.07-.02.13-.05.22-.07.47-.31.98-.53,1.45-.8-10.91-8.29-21.82-16.54-32.7-24.82Z"/><path class="cls-1" d="m344.11,64.07c-22.35-16.88-44.73-33.79-67.1-50.62,0,.46,0,.92.02,1.39,21.88,16.66,43.77,33.27,65.65,49.92.45-.27.94-.5,1.43-.69Z"/><path class="cls-1" d="m527.01,202.37c-5.8-4.38-11.58-8.77-17.38-13.16-.51.34-1.07.68-1.56,1.01,5.71,4.33,11.44,8.67,17.13,12.99.62-.27,1.2-.56,1.81-.84Z"/><path class="cls-1" d="m573.9,237.89c.36.99.69,1.99,1.03,2.98,14.41,10.95,28.84,21.89,43.28,32.8.53-.39,1.11-.68,1.76-.86-15.35-11.66-30.72-23.28-46.07-34.91Z"/><path class="cls-1" d="m439.48,136.05c-5.11-3.87-10.22-7.74-15.35-11.61-.29.51-.56,1.03-.83,1.54,5.09,3.88,10.22,7.75,15.33,11.63.27-.52.56-1.04.85-1.56Z"/><path class="cls-1" d="m651.78,296.92c-3.59-2.72-7.14-5.41-10.73-8.12-1.05-.08-2.1-.15-3.17-.24,4.73,3.57,9.46,7.16,14.19,10.74-.04-.39-.09-.77-.11-1.16-.07-.42-.13-.8-.18-1.22Z"/><path class="cls-1" d="m294.97,15.06c-2.77-2.07-5.51-4.16-8.28-6.23-.54.06-1.07.11-1.61.17,3.39,2.59,6.8,5.18,10.22,7.78-.11-.57-.22-1.14-.33-1.72Z"/><path class="cls-1" d="m361.96,65.61c-15.21-11.47-30.38-22.96-45.6-34.42-.29.35-.58.66-.91.93,14.14,10.77,28.29,21.52,42.45,32.27,1.34.37,2.7.77,4.06,1.23Z"/><path class="cls-1" d="m444.41,127.87c-5.09-3.83-10.15-7.67-15.24-11.51-.31.49-.62.98-.96,1.47,5.06,3.84,10.13,7.68,15.19,11.52.31-.5.67-.99,1-1.48Z"/><path class="cls-1" d="m537.63,198.49c-6.36-4.8-12.69-9.61-19.05-14.43-.58.3-1.2.58-1.78.9,6.22,4.71,12.45,9.43,18.67,14.14.74-.22,1.45-.42,2.16-.6Z"/><path class="cls-1" d="m567.01,220.73c.47,1.12.94,2.23,1.4,3.32,20.79,15.78,41.58,31.55,62.42,47.29,1,0,2.01.02,3.03.04-22.26-16.91-44.57-33.79-66.86-50.66Z"/><path class="cls-1" d="m121.75,588.32c.31.23.6.46.89.69.49-.46.96-.93,1.4-1.44-2.61-1.97-5.22-3.94-7.85-5.92,1.61,2.42,3.48,4.62,5.56,6.68Z"/><path class="cls-1" d="m138.05,599.58c3.23,2.48,6.34,5.14,9.3,7.96,2.48,1.53,5.06,2.96,7.63,4.32.13-.18.29-.35.4-.51-5.55-4.23-11.11-8.44-16.66-12.65-.22.3-.45.6-.67.89Z"/><path class="cls-1" d="m178.18,619.12c4.24,3.19,8.45,6.38,12.65,9.57.47-.46.94-.9,1.41-1.34-4.35-3.31-8.77-6.64-13.12-9.95-.31.56-.62,1.15-.94,1.72Z"/><path class="cls-1" d="m144.1,590.84c-.38.56-.71,1.1-1.09,1.66,5.76,4.36,11.51,8.71,17.27,13.07.45-.49.87-.99,1.34-1.47-5.84-4.42-11.69-8.83-17.51-13.26Z"/><path class="cls-1" d="m113.47,570.11c5.02,3.8,10.04,7.63,15.08,11.42.36-.54.74-1.09,1.11-1.63-4.97-3.75-9.93-7.5-14.9-11.26-.42.51-.87.99-1.29,1.47Z"/><path class="cls-1" d="m78.86,543.86c5.82,4.42,11.62,8.83,17.45,13.24.46-.46.9-.94,1.37-1.39-5.73-4.35-11.49-8.67-17.22-13.02-.53.39-1.05.81-1.6,1.18Z"/><path class="cls-1" d="m119.52,562.75c4.95,3.75,9.9,7.51,14.83,11.26.49-.48,1-.91,1.47-1.36-5.04-3.84-10.13-7.67-15.19-11.5-.38.52-.76,1.07-1.11,1.6Z"/><path class="cls-1" d="m53.63,510.53c-.37.4-.75.96-.97,1.23.08.15.15.29.23.44,5.82,4.42,11.62,8.83,17.44,13.24.49-.39.98-.81,1.47-1.23-6.05-4.56-12.09-9.14-18.14-13.71-.01.01-.01.02-.03.03Z"/><path class="cls-1" d="m87.71,536.24c-.45.46-.91.9-1.36,1.35,5.52,4.19,11.03,8.38,16.56,12.56.45-.46.89-.94,1.36-1.39-5.51-4.18-11.05-8.34-16.56-12.53Z"/><path class="cls-1" d="m150.21,583.56c-.45.46-.89.94-1.34,1.42,5.96,4.52,11.91,9.03,17.87,13.55.36-.56.74-1.08,1.09-1.63-5.87-4.46-11.76-8.9-17.62-13.34Z"/><path class="cls-1" d="m182.49,610.43c4.8,3.61,9.55,7.24,14.32,10.85.36-.54.74-1.06,1.09-1.56-4.86-3.7-9.75-7.39-14.61-11.08-.24.59-.51,1.18-.8,1.79Z"/><path class="cls-1" d="m214.06,631.97c-.29.56-.58,1.13-.85,1.69,5.98,4.53,11.98,9.06,17.98,13.59.31-.51.62-1.04.94-1.56-6.02-4.57-12.07-9.15-18.07-13.72Z"/><path class="cls-1" d="m217.85,622.94c-.2.6-.42,1.19-.65,1.8,6.34,4.76,12.65,9.56,18.98,14.33,0-.01.02-.02.02-.03.27-.52.51-1.06.76-1.58-6.36-4.84-12.74-9.67-19.12-14.51Z"/><path class="cls-1" d="m185.9,601.05c5.64,4.25,11.24,8.52,16.89,12.75.36-.48.76-.93,1.16-1.39-5.84-4.46-11.71-8.88-17.58-13.33-.13.66-.29,1.31-.47,1.97Z"/><path class="cls-1" d="m124.56,552.23c-.13.67-.29,1.34-.51,1.99,6.14,4.63,12.25,9.29,18.36,13.92.65-.31,1.25-.66,1.94-.93-6.58-5-13.18-9.97-19.79-14.98Z"/><path class="cls-1" d="m61.38,504.43c-.5.37-1,.75-1.51,1.1,5.93,4.51,11.86,9.01,17.78,13.51.53-.4,1.05-.76,1.58-1.11-5.95-4.51-11.9-9.01-17.85-13.51Z"/><path class="cls-1" d="m93.87,529.01c-.38.49-.77.97-1.15,1.46,5.91,4.46,11.8,8.95,17.7,13.41.58-.35,1.18-.68,1.81-.99-6.12-4.63-12.24-9.25-18.35-13.88Z"/><path class="cls-1" d="m156.1,576.11c-.31.57-.65,1.1-.98,1.62,5.73,4.34,11.47,8.71,17.2,13.04.38-.48.78-.98,1.2-1.47-5.8-4.4-11.62-8.79-17.42-13.2Z"/><path class="cls-1" d="m69.03,498.22c-.43.47-.9.92-1.39,1.34,6.56,4.99,13.12,9.99,19.7,14.95.95-.16,1.92-.24,2.92-.25-7.07-5.36-14.15-10.7-21.23-16.05Z"/><path class="cls-1" d="m29.84,469.48c.33.7.64,1.42.97,2.11,5.67,4.32,11.33,8.62,17.01,12.92.56-.38,1.13-.72,1.72-1.02-6.29-4.76-12.57-9.5-18.86-14.26-.28.08-.56.17-.84.25Z"/><path class="cls-1" d="m98.56,520.54c.04.79,0,1.57-.25,2.28,36.95,28.01,73.92,55.99,110.93,83.94h0c.2-.18.4-.33.6-.48.2-.29.4-.6.6-.9-37.28-28.31-74.57-56.59-111.88-84.85Z"/><path class="cls-1" d="m220.88,613.32c-.29.52-.6,1.05-.91,1.57,6.69,5.05,13.36,10.1,20.03,15.14.2-.58.38-1.18.56-1.79-6.56-5-13.09-9.95-19.67-14.92Z"/><path class="cls-1" d="m257.91,641.39c-.07.68-.11,1.36-.18,2.05,3.44,2.58,6.85,5.19,10.28,7.77,1.29.16,2.57.37,3.84.78-4.66-3.52-9.3-7.05-13.94-10.61Z"/><path class="cls-1" d="m41.24,465.26c-.66.3-1.3.59-1.96.88,6.15,4.67,12.31,9.35,18.45,14.01.71-.29,1.43-.57,2.15-.81-6.22-4.7-12.43-9.39-18.63-14.07Z"/><path class="cls-1" d="m73.15,489.38c-.03.73-.14,1.47-.33,2.2,48.88,37.06,97.78,74.09,146.7,111.06.49.28.96.63,1.36,1.02,7.52,5.67,14.99,11.34,22.51,17.01.29-.51.62-1,1-1.47-57.04-43.33-114.13-86.6-171.25-129.83Z"/><path class="cls-1" d="m258.63,630.03c-.02.71-.02,1.42-.07,2.12,6.67,5.02,13.32,10.07,19.99,15.1.13-.6.27-1.2.42-1.81-6.78-5.13-13.56-10.27-20.34-15.41Z"/><path class="cls-1" d="m17.7,435.54c.29.98.59,1.95.87,2.92,3.1,2.36,6.2,4.72,9.3,7.07.73-.23,1.47-.44,2.22-.64-4.13-3.13-8.26-6.24-12.39-9.35Z"/><path class="cls-1" d="m50.03,459.95c-.51.4-1.03.81-1.59,1.21,67.73,51.41,135.57,102.74,203.45,154,3.1-.09,5.84,1.66,6.54,4.96,7.41,5.59,14.79,11.18,22.17,16.75.07-.66.13-1.32.2-1.97-76.85-58.41-153.77-116.73-230.77-174.95Z"/><path class="cls-1" d="m299.2,648.89c-.02.21,0,.46-.02.66-.02.43-.04.87-.07,1.3,2.59,1.95,5.18,3.92,7.76,5.88.91,0,1.83.04,2.74.1-3.46-2.67-6.96-5.3-10.42-7.94Z"/><path class="cls-1" d="m24.18,428.51c-.6.32-1.19.6-1.79.92,6,4.54,11.98,9.1,17.98,13.65.93-.09,1.86-.17,2.8-.24-6.32-4.79-12.66-9.56-18.99-14.33Z"/><path class="cls-1" d="m209.15,568.57c-1.58-.29-2.99-1.15-3.79-2.88-7.16-5.43-14.32-10.86-21.5-16.29-.13.1-.25.24-.4.34-.42.35-.87.6-1.29.8,33.6,25.45,67.24,50.87,100.9,76.27.29-.5.62-.97.96-1.39-24.96-18.97-49.92-37.9-74.87-56.84Z"/><path class="cls-1" d="m136.89,513.8c-27.15-20.56-54.29-41.16-81.45-61.69-.11.68-.32,1.33-.59,1.99,30.91,23.46,61.85,46.9,92.77,70.31-3.86-3.26-7.47-6.73-10.73-10.61Z"/><path class="cls-1" d="m298.89,636.69c-.04.68-.07,1.36-.04,2.05,7.45,5.64,14.92,11.28,22.4,16.91.04-.64.11-1.26.13-1.86h0c-7.52-5.7-15.01-11.4-22.49-17.1Z"/><path class="cls-1" d="m251.38,588.7c-1.45-.33-2.9-.66-4.33-1.03,15.33,11.58,30.63,23.18,45.95,34.76,1.23.36,2.43.91,3.66,1.83,1.05.78,1.92,1.74,2.5,2.83,7.52,5.67,15.04,11.35,22.57,17.01,0-.65,0-1.32.02-1.97-23.45-17.82-46.91-35.61-70.38-53.42Z"/><path class="cls-1" d="m118.27,487.85s.02-.01.02-.02c-28.26-21.38-56.48-42.77-84.74-64.13-.6.28-1.2.56-1.81.86,28.92,21.97,57.88,43.87,86.83,65.82-.27-.76-.42-1.59-.31-2.53Z"/><path class="cls-1" d="m189.54,544.15c4.86,3.7,9.77,7.42,14.66,11.12.13-.68.29-1.35.47-2.03-4.59-3.5-9.21-6.99-13.83-10.47-.42.47-.87.92-1.29,1.37Z"/><path class="cls-1" d="m24.15,406.84c.93-.03,1.85-.05,2.76-.07-6.27-4.73-12.52-9.48-18.79-14.21.02.72.05,1.44.07,2.17,5.31,4.04,10.65,8.06,15.96,12.11Z"/><path class="cls-1" d="m271.72,592.21c-1.16-.14-2.3-.3-3.48-.46,18.09,13.67,36.16,27.35,54.23,40.98.16-.56.36-1.07.56-1.54-17.09-13-34.22-25.99-51.31-38.98Z"/><path class="cls-1" d="m120.99,477.97c-26.26-19.87-52.48-39.77-78.76-59.61-.26.53-.57,1.03-.96,1.47,26.29,19.98,52.64,39.9,78.96,59.85.22-.59.51-1.14.76-1.7Z"/><path class="cls-1" d="m195.58,536.79c4.06,3.1,8.14,6.19,12.22,9.29.31-.55.67-1.09.98-1.62-4.04-3.07-8.08-6.12-12.14-9.19-.36.52-.71,1.03-1.07,1.53Z"/><path class="cls-1" d="m356.74,656.78c-3.7-2.82-7.43-5.64-11.15-8.47.2.76.38,1.51.56,2.26,2.86,2.16,5.71,4.32,8.54,6.46.69-.13,1.38-.21,2.05-.26Z"/><path class="cls-1" d="m342.97,636.29c7.85,5.92,15.7,11.86,23.54,17.78-.02-.64-.04-1.25-.07-1.85-8.01-6.1-16.02-12.18-24.03-18.27.2.78.4,1.56.56,2.34Z"/><path class="cls-1" d="m88.61,441.51h0c-24.1-18.24-48.2-36.47-72.33-54.68-.69.18-1.37.37-2.06.51,25.11,19.11,50.25,38.16,75.39,57.24-.37-1.09-.69-2.12-.99-3.06Z"/><path class="cls-1" d="m105.96,456.98c6.35,4.8,12.66,9.62,19,14.42.4-.5.83-.99,1.25-1.47-5.93-4.5-11.89-8.97-17.83-13.46-.78.2-1.61.36-2.41.52Z"/><path class="cls-1" d="m200.78,528.79c4.15,3.16,8.28,6.3,12.45,9.44.4-.5.78-.99,1.14-1.48-4.19-3.2-8.43-6.4-12.65-9.6-.33.55-.62,1.11-.94,1.64Z"/><path class="cls-1" d="m289.61,593.85c-.98-.06-2.01-.12-3.06-.18,14.03,10.61,28.06,21.24,42.12,31.83.56-.25,1.2-.42,1.85-.59-13.63-10.35-27.28-20.7-40.91-31.05Z"/><path class="cls-1" d="m81.21,423.98c-17.95-13.56-35.88-27.15-53.83-40.69-.63.23-1.25.45-1.88.68,19.17,14.57,38.35,29.11,57.53,43.67-.64-1.18-1.25-2.39-1.82-3.66Z"/><path class="cls-1" d="m116.75,453.25c5.04,3.82,10.06,7.63,15.1,11.44.54-.41,1.03-.84,1.58-1.23-4.95-3.75-9.93-7.51-14.86-11.24-.6.34-1.2.7-1.83,1.02Z"/><path class="cls-1" d="m205.4,520.4c4.57,3.46,9.15,6.93,13.7,10.38.4-.52.76-1.03,1.14-1.55-4.64-3.52-9.3-7.04-13.92-10.57-.31.59-.6,1.16-.91,1.74Z"/><path class="cls-1" d="m302.84,594.06c21.1,15.93,42.18,31.88,63.31,47.81,0-.62-.02-1.24-.02-1.85-20.23-15.39-40.47-30.74-60.72-46.11-.76.06-1.63.11-2.57.15Z"/><path class="cls-1" d="m11.37,361.47c1.02.08,2.02.17,3.04.28-4.24-3.18-8.46-6.4-12.7-9.59.01.68.02,1.34.03,2.01,3.2,2.45,6.42,4.88,9.63,7.3Z"/><path class="cls-1" d="m75.45,407.92c-13.2-9.99-26.38-19.99-39.6-29.97-.24.51-.52.99-.9,1.42,13.77,10.47,27.57,20.91,41.36,31.37-.3-.97-.59-1.91-.86-2.82Z"/><path class="cls-1" d="m125.27,447.86c4.97,3.77,9.97,7.56,14.95,11.34.56-.34,1.11-.66,1.65-1-5.02-3.83-10.08-7.65-15.12-11.48-.49.4-.98.77-1.47,1.14Z"/><path class="cls-1" d="m209.7,511.9c4.91,3.69,9.75,7.4,14.63,11.09.36-.55.69-1.09,1-1.64-4.91-3.74-9.86-7.44-14.77-11.17-.29.56-.58,1.15-.87,1.72Z"/><path class="cls-1" d="m314.46,589.04c-.25.51-.58.95-.94,1.34,17.73,13.4,35.47,26.84,53.23,40.23.09-.55.18-1.13.25-1.7-17.49-13.31-35.02-26.59-52.53-39.88Z"/><path class="cls-1" d="m214.03,503.26c5.02,3.79,10.02,7.57,14.99,11.37.31-.59.6-1.16.91-1.74-5.02-3.79-10.04-7.59-15.04-11.37-.29.57-.6,1.16-.87,1.75Z"/><path class="cls-1" d="m70.28,392.06c-20.42-15.43-40.82-30.89-61.26-46.29-.83.05-1.67.08-2.53.07,21.61,16.44,43.25,32.83,64.87,49.24-.34-.94-.7-1.95-1.08-3.02Z"/><path class="cls-1" d="m132.85,441.75c5.33,4.06,10.69,8.11,16.04,12.17.58-.36,1.16-.75,1.74-1.11-5.42-4.1-10.86-8.21-16.31-12.33-.49.43-.98.85-1.47,1.27Z"/><path class="cls-1" d="m316.54,578.67c-.09.62-.16,1.25-.25,1.86,18.6,14.08,37.23,28.16,55.86,42.22.78-.13,1.58-.17,2.36-.07-19.32-14.7-38.64-29.34-57.98-44.02Z"/><path class="cls-1" d="m385.36,630.94c.2.79.47,1.56.74,2.33,5.96,4.48,11.91,8.99,17.89,13.48.6-.1,1.23-.18,1.83-.27-6.83-5.19-13.63-10.36-20.46-15.55Z"/><path class="cls-1" d="m218.36,494.63c4.97,3.77,9.97,7.55,14.92,11.3.31-.6.58-1.19.87-1.81-4.95-3.75-9.93-7.51-14.9-11.27-.29.59-.6,1.19-.89,1.77Z"/><path class="cls-1" d="m140.42,435.54c5.67,4.3,11.36,8.62,17.02,12.93.56-.38,1.14-.76,1.72-1.14-5.71-4.31-11.4-8.63-17.13-12.94-.54.38-1.09.75-1.61,1.15Z"/><path class="cls-1" d="m65.33,376.43c-14.56-11-29.11-22.02-43.67-33-.67.14-1.33.28-1.99.44,15.45,11.74,30.91,23.46,46.38,35.2-.25-.88-.49-1.76-.72-2.64Z"/><path class="cls-1" d="m317.72,567.6c-.04.68-.07,1.34-.13,2,31.1,23.49,62.15,47.01,93.27,70.47,0-.58,0-1.13.02-1.7-31.03-23.61-62.1-47.19-93.16-70.77Z"/><path class="cls-1" d="m12.47,326.43c.94.12,1.89.22,2.84.3-4.71-3.55-9.4-7.11-14.1-10.65.04.64.08,1.25.12,1.87,3.71,2.83,7.43,5.65,11.14,8.48Z"/><path class="cls-1" d="m318.14,558.09c6.25,4.71,12.45,9.43,18.69,14.12-.2-.8-.38-1.6-.51-2.43-6.07-4.59-12.09-9.17-18.16-13.76,0,.68,0,1.38-.02,2.07Z"/><path class="cls-1" d="m62.86,362.64c-10.17-7.68-20.32-15.38-30.5-23.05-.32.4-.71.77-1.13,1.11,10.6,8.06,21.24,16.09,31.84,24.15-.09-.75-.16-1.48-.22-2.22Z"/><path class="cls-1" d="m148.69,429.83c5.71,4.34,11.38,8.67,17.09,13,.54-.38,1.09-.75,1.63-1.13-5.71-4.32-11.42-8.63-17.11-12.94-.56.36-1.09.71-1.61,1.07Z"/><path class="cls-1" d="m222.84,486.01c4.86,3.68,9.73,7.37,14.59,11.05.27-.56.54-1.14.8-1.72-4.84-3.65-9.68-7.31-14.52-10.98-.29.55-.6,1.09-.87,1.65Z"/><path class="cls-1" d="m361.87,589.2c-.83.04-1.65.06-2.5.06,16.57,12.49,33.1,25.01,49.68,37.49-.16-.66-.27-1.34-.38-2.02-15.59-11.86-31.21-23.68-46.8-35.54Z"/><path class="cls-1" d="m63.81,351.42c-19.65-14.83-39.28-29.67-58.93-44.47-.64.09-1.28.18-1.92.26,20.11,15.33,40.25,30.62,60.39,45.93.13-.6.28-1.17.47-1.72Z"/><path class="cls-1" d="m157.26,424.4c5.53,4.19,11.06,8.4,16.6,12.6.54-.38,1.05-.8,1.54-1.19-5.47-4.17-10.97-8.3-16.46-12.47-.56.35-1.11.71-1.67,1.05Z"/><path class="cls-1" d="m227.46,477.6c4.71,3.59,9.41,7.14,14.14,10.73.29-.57.58-1.14.87-1.72-4.71-3.55-9.39-7.11-14.08-10.66-.33.56-.62,1.1-.94,1.65Z"/><path class="cls-1" d="m318.03,543.92c.04.76.04,1.52.07,2.28,5.91,4.45,11.82,8.93,17.73,13.4.04-.69.07-1.39.13-2.07-5.98-4.54-11.96-9.07-17.94-13.61Z"/><path class="cls-1" d="m373.62,587.83c-.11.01-.22.03-.36.04,11.67,8.79,23.29,17.59,34.96,26.36.18-.44.4-.85.71-1.25-11.15-8.49-22.33-16.96-33.48-25.45-.6.11-1.23.18-1.83.29Z"/><path class="cls-1" d="m432.58,630.96c.33.8.69,1.63,1.03,2.43,2.48,1.87,4.95,3.75,7.45,5.62.62-.06,1.23-.12,1.85-.18-3.44-2.63-6.89-5.25-10.33-7.88Z"/><path class="cls-1" d="m232.3,469.37c4.59,3.48,9.19,6.98,13.81,10.48.31-.56.65-1.13.98-1.69-4.62-3.49-9.21-6.97-13.83-10.46-.31.56-.62,1.13-.96,1.67Z"/><path class="cls-1" d="m165.8,418.98c5.29,4,10.57,8.01,15.86,12.02.51-.42,1.03-.82,1.56-1.21-5.26-3.98-10.53-7.96-15.77-11.93-.56.37-1.09.75-1.65,1.11Z"/><path class="cls-1" d="m69.58,343.86c-17.05-12.88-34.11-25.77-51.18-38.63-.86-.07-1.72-.12-2.54-.13,17.41,13.27,34.83,26.51,52.27,39.75.46-.36.94-.69,1.45-.99Z"/><path class="cls-1" d="m317.47,531.54c.02.8.09,1.59.11,2.38,6.67,5.02,13.27,10.06,19.92,15.06.16-.64.36-1.23.51-1.85-6.85-5.2-13.72-10.39-20.55-15.59Z"/><path class="cls-1" d="m388.73,585.66c-.76.11-1.47.21-2.21.32,21.55,16.25,43.08,32.51,64.65,48.74.38-.25.78-.46,1.16-.68-21.19-16.14-42.38-32.24-63.6-48.37Z"/><path class="cls-1" d="m399.68,583.98c17.02,12.84,34.02,25.69,51.06,38.53-.16-.65-.29-1.31-.42-1.96-16.17-12.31-32.37-24.61-48.56-36.92-.69.12-1.38.24-2.07.36Z"/><path class="cls-1" d="m236.99,460.99c4.64,3.51,9.3,7.05,13.97,10.57.31-.56.65-1.12,1-1.68-4.69-3.55-9.37-7.09-14.05-10.63-.31.57-.6,1.15-.91,1.74Z"/><path class="cls-1" d="m85.12,343.72c-17.76-13.41-35.5-26.87-53.29-40.27-.39.33-.79.64-1.24.89,17.48,13.32,34.98,26.6,52.48,39.9.68-.18,1.36-.34,2.05-.52Z"/><path class="cls-1" d="m175.4,412.12c-.47.37-.98.72-1.45,1.08,5.2,3.95,10.37,7.9,15.59,11.84.54-.41,1.07-.81,1.61-1.19-5.2-3.95-10.42-7.87-15.64-11.82-.04.02-.07.07-.11.09Z"/><path class="cls-1" d="m316.85,521.43c6.05,4.57,12.07,9.15,18.11,13.71-.11-.86-.24-1.72-.36-2.59-5.98-4.53-11.96-9.06-17.94-13.59.04.81.11,1.63.18,2.46Z"/><path class="cls-1" d="m414,580.98c-.62.16-1.25.31-1.87.47,11.8,8.93,23.65,17.85,35.47,26.78-.2-.7-.33-1.39-.49-2.09-11.04-8.39-22.06-16.78-33.1-25.16Z"/><path class="cls-1" d="m316.02,508.88c5.69,4.3,11.36,8.6,17.02,12.89-.16-.87-.27-1.75-.38-2.62-5.6-4.25-11.2-8.49-16.78-12.73.04.82.09,1.64.13,2.45Z"/><path class="cls-1" d="m95.13,341.47c.83-.12,1.65-.21,2.49-.28-20.57-15.53-41.15-31.07-61.74-46.59,0,.04.01.1,0,.16-.02.52-.11,1.03-.2,1.53,19.8,15.09,39.63,30.14,59.44,45.19Z"/><path class="cls-1" d="m181.8,407.24c5.26,3.98,10.51,7.97,15.77,11.96.56-.39,1.12-.8,1.67-1.17-5.29-4-10.55-7.97-15.82-11.96-.56.38-1.07.76-1.63,1.17Z"/><path class="cls-1" d="m241.27,452.32c4.89,3.67,9.75,7.36,14.59,11.04.33-.56.67-1.12,1-1.68-4.91-3.73-9.84-7.44-14.75-11.17-.29.6-.56,1.2-.85,1.81Z"/><path class="cls-1" d="m8.13,273.72c-.02.5-.04.99-.07,1.49,5.43,4.13,10.85,8.28,16.27,12.42,1.25.31,2.49.66,3.72,1.08-6.64-5-13.28-9.98-19.92-14.99Z"/><path class="cls-1" d="m471.02,613.98c2.36,1.8,4.73,3.57,7.09,5.34.36-.25.69-.49,1.05-.74-3.21-2.45-6.45-4.9-9.66-7.34.54.9,1.05,1.82,1.52,2.73Z"/><path class="cls-1" d="m61.72,302.24c-15.42-11.64-30.83-23.27-46.27-34.9-.82-.1-1.64-.23-2.46-.35,16.52,12.6,33.08,25.17,49.62,37.74-.34-.81-.64-1.64-.89-2.5Z"/><path class="cls-1" d="m245.38,443.42c5.13,3.88,10.24,7.75,15.35,11.63.31-.54.62-1.08.94-1.62-5.18-3.92-10.33-7.82-15.5-11.72-.25.56-.54,1.14-.78,1.71Z"/><path class="cls-1" d="m113.4,341.25c-11.48-8.65-22.92-17.33-34.37-25.97-.36-.03-.72-.05-1.07-.08-.38.16-.77.27-1.18.35,11.21,8.53,22.46,17.03,33.67,25.55.98.04,1.96.11,2.94.16Z"/><path class="cls-1" d="m189.99,401.44c5.29,3.99,10.53,7.98,15.77,11.97.56-.36,1.07-.74,1.61-1.11-5.27-3.99-10.55-7.96-15.79-11.94-.54.36-1.05.71-1.58,1.08Z"/><path class="cls-1" d="m315.33,494.15c.02.75.04,1.53.09,2.28,5.6,4.23,11.15,8.47,16.75,12.7.02-.72.02-1.45.04-2.17-5.64-4.28-11.24-8.54-16.89-12.8Z"/><path class="cls-1" d="m425,577.42c-.51.2-1.03.44-1.56.63,8.3,6.27,16.6,12.55,24.9,18.81.29-.37.58-.73.91-1.04-8.08-6.15-16.17-12.28-24.25-18.4Z"/><path class="cls-1" d="m60.8,289.6c-9.84-7.41-19.66-14.83-29.48-22.24-.57.13-1.14.24-1.73.32,10.36,7.91,20.75,15.78,31.12,23.68.03-.59.04-1.17.1-1.76Z"/><path class="cls-1" d="m315.2,484.37c5.64,4.27,11.29,8.53,16.91,12.81,0-.77-.04-1.55-.04-2.31-5.62-4.27-11.24-8.54-16.89-12.8.02.76.02,1.53.02,2.3Z"/><path class="cls-1" d="m249.5,434.63c5.27,3.98,10.53,7.96,15.79,11.95.27-.57.54-1.15.8-1.72-5.24-3.98-10.48-7.94-15.73-11.92-.29.56-.6,1.13-.87,1.69Z"/><path class="cls-1" d="m130.58,342.35c-11.6-8.77-23.17-17.56-34.77-26.31-.94-.05-1.86-.07-2.79-.12,11.51,8.77,23.06,17.48,34.59,26.24.98.06,1.99.13,2.97.19Z"/><path class="cls-1" d="m199.4,395.08c-.38.24-.74.49-1.09.74,5.22,3.95,10.42,7.93,15.64,11.87.54-.37,1.05-.73,1.56-1.1-5.15-3.91-10.35-7.81-15.5-11.73-.2.07-.4.16-.6.22Z"/><path class="cls-1" d="m434.55,572.74c-.42.26-.85.54-1.29.79,18.16,13.71,36.29,27.43,54.48,41.12.49-.13,1-.25,1.5-.37-18.2-13.86-36.43-27.68-54.68-41.54Z"/><path class="cls-1" d="m441.39,567.78c15.24,11.5,30.43,23.01,45.69,34.49-.31-.74-.58-1.48-.85-2.23-14.59-11.1-29.18-22.17-43.77-33.24-.36.32-.69.66-1.07.99Z"/><path class="cls-1" d="m315.2,472.44c5.58,4.22,11.13,8.44,16.73,12.67-.02-.76-.02-1.53-.02-2.3-5.58-4.22-11.13-8.44-16.71-12.65v2.29Z"/><path class="cls-1" d="m253.99,426.06c5.11,3.86,10.17,7.75,15.3,11.61.25-.59.49-1.17.74-1.76-5.06-3.83-10.11-7.64-15.15-11.47-.31.54-.6,1.09-.89,1.62Z"/><path class="cls-1" d="m206.69,390.19c5.13,3.9,10.28,7.81,15.41,11.71.51-.37,1-.74,1.52-1.09-5.13-3.89-10.28-7.77-15.41-11.67-.51.35-1,.7-1.52,1.05Z"/><path class="cls-1" d="m147.02,342.86c-11.65-8.8-23.27-17.62-34.93-26.42-.87-.01-1.76-.01-2.68-.03,11.6,8.81,23.2,17.6,34.8,26.39.94.02,1.87.07,2.81.07Z"/><path class="cls-1" d="m62.55,279.02c-7.67-5.77-15.31-11.55-22.97-17.32-.22.38-.46.74-.72,1.08,7.77,5.93,15.57,11.84,23.34,17.76.12-.51.23-1.02.35-1.52Z"/><path class="cls-1" d="m64.96,270.55c.13-.42.29-.85.42-1.27-16.98-12.8-33.95-25.61-50.93-38.39-.07.17-.13.34-.19.52,0,.2-.04.39-.06.6,16.9,12.89,33.82,25.74,50.72,38.63.01-.03.02-.07.03-.09Z"/><path class="cls-1" d="m447.66,560.6c11.15,8.41,22.29,16.84,33.42,25.24-.16-.64-.22-1.23-.16-1.8-10.97-8.34-21.95-16.66-32.9-25-.04.54-.16,1.04-.36,1.55Z"/><path class="cls-1" d="m162.9,342.95c-11.67-8.82-23.29-17.64-34.93-26.43-.89.01-1.79,0-2.68,0,11.6,8.82,23.25,17.62,34.84,26.43h2.77Z"/><path class="cls-1" d="m214.93,384.5c5.06,3.85,10.15,7.72,15.24,11.56.49-.36,1-.73,1.49-1.1-5.09-3.85-10.17-7.68-15.26-11.53-.49.36-.98.71-1.47,1.08Z"/><path class="cls-1" d="m258.81,417.79c4.73,3.6,9.48,7.19,14.23,10.79.25-.59.49-1.19.74-1.77-4.66-3.54-9.35-7.07-14.01-10.6-.33.53-.62,1.04-.96,1.57Z"/><path class="cls-1" d="m315.24,458.24v2.3c5.55,4.22,11.09,8.42,16.66,12.63,0-.76,0-1.53.02-2.29-5.58-4.21-11.11-8.42-16.69-12.63Z"/><path class="cls-1" d="m502.87,590.37c3.37,2.52,6.69,5.06,10.04,7.57.16-.09.27-.2.38-.31.27-.15.47-.25.69-.37-4.26-3.26-8.54-6.5-12.8-9.74.58.92,1.14,1.87,1.69,2.86Z"/><path class="cls-1" d="m68.68,259.86c-17.01-12.82-34-25.64-51.01-38.44-.1.35-.2.69-.31,1.04,16.94,12.92,33.9,25.8,50.85,38.72.15-.44.31-.87.47-1.31Z"/><path class="cls-1" d="m263.78,409.58c4.37,3.32,8.77,6.65,13.16,9.97.22-.53.47-1.08.74-1.67-4.33-3.28-8.66-6.55-12.98-9.83-.31.51-.62,1.02-.91,1.52Z"/><path class="cls-1" d="m178.65,342.96c-11.67-8.84-23.33-17.68-35.02-26.51-.89.01-1.79.01-2.65.01,11.62,8.84,23.29,17.65,34.91,26.47.94.01,1.85.01,2.77.02Z"/><path class="cls-1" d="m223.05,378.7c5.06,3.83,10.13,7.67,15.17,11.5.51-.36,1-.69,1.5-1.05-5.04-3.82-10.08-7.63-15.1-11.45-.53.34-1.05.66-1.56.99Z"/><path class="cls-1" d="m315.13,446.23c0,.77.04,1.55.04,2.32,5.6,4.26,11.2,8.52,16.82,12.75v-2.31c-5.62-4.26-11.24-8.51-16.87-12.75Z"/><path class="cls-1" d="m439.5,540.64c.51.97.98,1.94,1.4,2.93,15.46,11.66,30.87,23.35,46.33,35,.69-.09,1.43-.1,2.07,0,.07.01.11.03.2.05-16.66-12.67-33.35-25.33-50.01-37.98Z"/><path class="cls-1" d="m72.24,250.65c-9.05-6.82-18.09-13.65-27.13-20.46-.54.17-1.05.26-1.54.26,9.38,7.16,18.78,14.29,28.16,21.44.16-.41.33-.83.5-1.24Z"/><path class="cls-1" d="m269.56,399.77c-.31.54-.6,1.08-.91,1.62,4.08,3.1,8.19,6.2,12.27,9.3.27-.57.54-1.13.8-1.72-4.04-3.06-8.1-6.13-12.16-9.2Z"/><path class="cls-1" d="m194.74,343.15c-10.73-8.14-21.48-16.27-32.21-24.39-1.05-.11-2.1-.25-3.12-.42-.13-.04-.27-.06-.4-.08,10.95,8.3,21.88,16.58,32.84,24.88.96.01,1.94.01,2.9.01Z"/><path class="cls-1" d="m231.59,373.28c4.95,3.76,9.9,7.53,14.88,11.29.54-.35,1.07-.71,1.61-1.06-4.95-3.74-9.9-7.49-14.86-11.24-.56.34-1.09.67-1.63,1.01Z"/><path class="cls-1" d="m314.95,434.11c0,.81,0,1.6.02,2.4,5.67,4.31,11.38,8.63,17.09,12.97v-2.4c-5.69-4.32-11.42-8.64-17.11-12.97Z"/><path class="cls-1" d="m418.08,512.43c.27.54.54,1.09.78,1.63.78.93,1.61,1.85,2.39,2.77,33.24,25.1,66.46,50.2,99.72,75.26.22-.32.49-.62.71-.92-34.51-26.28-69.04-52.52-103.6-78.75Z"/><path class="cls-1" d="m76.17,241.69c-8.21-6.18-16.41-12.38-24.63-18.57-.1.38-.18.79-.35,1.17,8.14,6.21,16.28,12.39,24.41,18.59.19-.4.38-.8.57-1.19Z"/><path class="cls-1" d="m474.16,544.58c-.16-.01-.33-.06-.49-.08,15.04,11.33,30.03,22.7,45.04,34-.8-1.17-1.67-2.33-2.54-3.49-13.38-10.21-26.81-20.38-40.24-30.59-.53.12-1.11.2-1.76.17Z"/><path class="cls-1" d="m406.71,492.31c.78,1.06,1.5,2.17,2.21,3.28,14.41,10.88,28.82,21.78,43.23,32.65-.94-1.3-1.83-2.63-2.65-3.93-14.41-10.95-28.82-21.87-43.21-32.81.16.26.29.54.42.8Z"/><path class="cls-1" d="m315.13,424.68c5.13,3.9,10.26,7.78,15.41,11.67-.09-.85-.18-1.67-.22-2.52-5.04-3.83-10.11-7.65-15.15-11.47-.02.78-.02,1.54-.04,2.32Z"/><path class="cls-1" d="m240.31,367.97c4.98,3.78,9.93,7.55,14.92,11.32.58-.33,1.18-.63,1.76-.95-5-3.79-9.99-7.59-15.01-11.37-.56.33-1.11.68-1.67,1Z"/><path class="cls-1" d="m209.84,342.62c-10.71-8.1-21.42-16.22-32.12-24.32-.87.09-1.74.17-2.61.26,10.66,8.1,21.35,16.17,32.01,24.25.91-.05,1.83-.12,2.72-.19Z"/><path class="cls-1" d="m274.2,391.34c-.29.55-.58,1.09-.89,1.65,3.99,3.02,7.96,6.04,11.96,9.04.31-.54.6-1.07.91-1.61-3.97-3.02-7.99-6.04-11.98-9.07Z"/><path class="cls-1" d="m80.52,233.07c-16.8-12.65-33.58-25.32-50.39-37.96-.17.26-.35.51-.52.77,16.75,12.79,33.52,25.54,50.3,38.32.2-.38.41-.75.61-1.13Z"/><path class="cls-1" d="m485.3,541.36c8.7,6.57,17.4,13.16,26.12,19.72.11-.44.29-.85.47-1.28-8.41-6.4-16.84-12.79-25.25-19.2-.42.28-.89.52-1.34.76Z"/><path class="cls-1" d="m396.91,474.59c14.9,11.27,29.8,22.55,44.73,33.81-.42-1-.87-1.99-1.29-2.99-15.08-11.45-30.18-22.89-45.26-34.35.6,1.19,1.23,2.35,1.83,3.53Z"/><path class="cls-1" d="m249.12,362.75c5.22,3.94,10.44,7.9,15.66,11.86.65-.29,1.36-.54,2.03-.81-5.31-4.03-10.64-8.05-15.95-12.08-.6.34-1.16.68-1.74,1.03Z"/><path class="cls-1" d="m223.18,340.76c-10.39-7.86-20.81-15.77-31.23-23.63-.94.02-1.92.07-2.86.13,10.55,8,21.13,16,31.65,23.99.83-.15,1.65-.31,2.43-.49Z"/><path class="cls-1" d="m278.39,382.58c-.25.57-.51,1.17-.78,1.75,4.26,3.22,8.48,6.43,12.71,9.64.4-.5.78-.99,1.16-1.47-4.35-3.31-8.72-6.61-13.09-9.92Z"/><path class="cls-1" d="m314.91,410.22c.07.84.13,1.67.18,2.51,5.18,3.93,10.37,7.87,15.57,11.8.13-.7.29-1.38.47-2.03-5.4-4.1-10.82-8.19-16.22-12.29Z"/><path class="cls-1" d="m281.8,337.1c-.36-14.27.6-27.22,11.6-37.68,12.72-12.16,37.41-11.36,50.46-.81,1.92,1.54,4.26-.78,2.7-2.68-11.51-14.03-36.76-11.27-50.93-3.17-15.19,8.66-19.88,28.75-14.3,44.4.09.24.47.22.47-.06h0Z"/><path class="cls-1" d="m319.19,373.2c10.19,1.41,18.72.11,27.28-5.95,6.78-4.78,18.18-15.84,17-24.96-.18-1.48-2.23-1.97-2.7-.37-5.67,18.62-23.15,28.79-41.54,30.95-.16.02-.27.3-.04.33h0Z"/><path class="cls-1" d="m307.82,348.95c6.58,6.4,19.03,9.18,27.59,5.45,9.3-4.06,17.56-18.49,10.75-27.83-.47-.68-1.87-.8-2.03.28-.71,4.74-.04,9.26-1.43,14-1.52,5.09-5.62,8.57-10.44,10.28-8.01,2.88-16.4-.99-24.23-2.57-.22-.05-.4.22-.22.39h0Z"/><path class="cls-1" d="m301.79,321.68c2.86-6.22,7.05-10.46,13.72-12.47,3.15-.94,6.58-.66,9.75-.05,3.32.64,5.49,3.41,8.48,4.78,1.16.54,2.37-.54,1.74-1.72-7.94-15.46-31.99-5.03-34.33,9.2-.07.36.47.66.65.26h0Z"/></g></svg>