<?xml version="1.0" encoding="UTF-8"?><svg id="Layer_1" xmlns="http://www.w3.org/2000/svg" viewBox="0 0 209.24 209.21"><defs><style>.cls-1,.cls-2{fill:#fff;}.cls-2{fill-rule:evenodd;}.cls-3{opacity:.15;}</style></defs><g class="cls-3"><path class="cls-2" d="m111.6,1.6c.75,6.74,1.37,13.6,2.5,19.95,4.36-.41,7.33.56,11.22.62,4.19-3.69,3.65-12.15,6.85-16.83,7.87.03,11.28,4.53,16.84,6.85-.08,5.4-3.46,12.72-5.61,18.09,3.39,2.03,7.26,3.55,9.35,6.86,5.77-4,7.69-11.86,14.97-14.36,2.22,5.49,10.36,6.97,10.6,12.47.24,5.61-7.75,9.4-9.35,15.61,2.91,1.03,2.48,5.41,4.99,6.86,8.76-.5,12.73-9.94,21.2-6.86.91,5.73,3.88,9.41,5.6,14.33-3.7,5.87-10.39,8.72-16.83,11.86.41,3.86,4.2,7.26,2.49,11.21,6.65.6,14.48-.01,21.82,1.25,1.1,6.83,1.54,11.36,0,17.47-6.2,3.11-15.2,3.25-21.2,4.98-1.96,2.19-2.28,6.03-3.73,8.73,6.98,3.63,14.23,6.97,21.82,9.97-.57,7.76-5.18,14.6-9.35,20.59-7.4-1.34-14.18-3.27-19.33-6.87-3.53,1.45-4.48,5.51-7.47,7.48,4.74,7.53,12.57,11.93,17.46,19.32-4.37,3.95-9.54,7.09-12.47,12.46-8.25.27-13.66-7.45-20.58-10.59-2.52,1.03-4.75,2.32-6.24,4.37.79,8.14,5.71,12.16,6.85,19.95-4.53,3.98-11.85,5.19-18.08,7.46-5.45-4.51-4.61-15.31-8.72-21.2-3.09-.09-5.49,1.42-8.1,0-3.95,7.48.57,16.38-1.26,24.96-5.67-1.27-18.8,3.49-21.82-2.49.63-6.9,1.01-10.33.62-19.33-2.25-2.14-5.3-3.45-9.35-3.76-3.93,5.86-6.56,12.99-8.74,20.58-6.27.25-11.48-3.18-16.83-5.61-.48-6.78,3.81-13.44,4.99-20.57-3.24-1.15-5.04-3.69-8.11-4.99-6.95,2.39-10.61,8.09-14.34,13.71-4.45.23-15.36-7.69-15.59-12.47-.32-6.73,10.59-9.72,12.47-16.21-3.49-1.51-4.52-5.44-6.85-8.11-7.34,1.59-11.67,6.2-18.71,8.11-2.54-4.65-9.27-10.45-8.73-15.58.76-7.14,13.61-7.56,18.71-12.47-2.63-2.58-1.63-8.77-3.75-11.85-7.67-.93-16.95,2.94-21.2-1.89.06-7.07-.53-12.75-.62-17.44,8.82-.54,15.54-3.15,23.69-4.37.07-3.03-.33-6.58.62-8.72-4.94-4.77-12.45-3.18-18.71-6.24-.08-6.25,2.33-15.02,6.24-19.32,5.93,1.74,13.05,2.32,18.7,4.35,1.16-4.25,3.52-7.29,6.24-9.97-2.53-6.2-10.26-7.19-13.72-12.47,3.29-4.63,7.29-13.77,12.47-14.33,6.93-.76,10.06,10.11,16.21,13.09,2.41-3.41,5.02-6.64,8.73-8.73-1.36-6.96-5.88-10.75-6.85-18.09.73-.93,1.79-1.52,1.87-3.11,7.91.42,10.1-7.8,16.21-5.6,5.84,2.06,5.96,13.04,10.6,18.68,3.4-.95,6.68-2.03,9.97-3.1.67-7.28-2.47-13.52-.62-19.96,8.41.55,14.64-1.8,19.95,1.25Zm-16.21,7.48c-.49,5.38,1,12.57-.62,18.71-3.73,1.1-6.81,4.12-9.98,3.75-6.94-.81-6.83-11.82-10.6-16.83-7.12-.27-11.42,2.31-14.34,6.24,2.52,6,4.88,12.16,8.72,16.83-6.32,1.56-9.21,6.57-14.95,8.72-4.59-2.89-7.74-7.22-11.85-10.61-2.29,3.32-4.44,6.78-7.48,9.36,2.97,4.72,7.5,7.9,10.6,12.48-2.62,3.81-5.4,7.47-7.48,11.84-6.81-1.09-11.52-4.28-19.34-4.36-.64,4.56-2.31,8.09-3.11,12.47,5.64,4.07,15.23.54,18.08,6.86-1.7,3.7-.76,10.06-3.12,13.09-7.32-.21-11.86,1.23-18.71,3.11-.5,4.1-.42,7.46,1.26,11.86-2.17,1.58-6.36,1.81-8.1-.64,3.33,5.74,15.69.84,22.44,1.87,5.14,3.35,3.01,11.29,5.61,16.22-5.92,2.38-10.94,5.69-16.83,8.11,2.16,3.86,4.4,7.65,6.23,11.84,5.36-1.92,8.51-6.04,14.34-7.47,4.1,4.27,11.11,8.97,9.98,14.33-1.03,4.81-7.44,6.16-8.73,11.85,2.5,2.49,3.13,6.85,8.1,6.86,6.91-3.35,5.53-11.85,13.72-13.09,1.72,6.59,11.4,5.22,12.47,12.47-2.18,4.06-3.06,9.41-4.37,14.33,3.12,2.5,6.58,4.65,10.6,6.25,2.17-6.34,4.22-12.82,8.1-17.47,4.42,2.24,11.61,1.7,14.97,4.99-.6,5.67-.89,11.27,0,16.84,4.78.41,7.72-1.03,11.84-1.25.83-7.79,1.98-10.98,0-17.46,5.63-1.42,10.89-.67,16.22-3.12,2.95,5.47,3.92,11.56,7.47,17.47,3.95-1.05,6.37-3.61,9.36-5.62-1.01-6.68-4.86-10.51-6.24-16.83,6.41-1.5,8.71-7.07,16.21-7.47,3.22,4.47,8.16,7.21,12.47,10.6,3.82-1.37,5.21-5.2,6.24-9.35-2.41-5.3-7.1-8.29-11.85-11.23.95-1.97.22-2.73,0-4.99,5.39-.65,6.79-7.87,11.23-11.22,4.85,0,10.29,4.61,17.46,4.37,2.16-3.24,3.54-7.28,3.74-12.48-5.68-2.43-11.41-4.81-16.21-8.1.83-5.41,2.09-10.4,4.37-14.33,6.95-1.27,12.05-2.03,18.08-3.13.61-4.47-1.47-10.19-3.75-13.72-5.99-.45-13.99,1.12-18.07-1.24.98-3.35-.94-8.82-1.87-13.71,4.63-3.07,9.5-5.89,14.33-8.73-1.65-4.37-3.75-8.29-6.24-11.86-5.23,3.09-10.67,5.94-17.46,7.48-.94-5.09-5.88-6.16-4.99-13.08,2.96-3.07,6.36-5.7,7.48-10.6-2.1-3.5-5.11-6.12-9.35-7.49-5.44,3.76-6.08,12.62-14.97,11.22-1.79-3.4-5.04-5.34-8.1-7.46.36-7.14,5.03-9.94,4.98-17.47-3.9-1.08-6.75-3.22-11.23-3.74-2.44,5.33-2.62,12.28-4.98,16.21-4.98-.88-10.25-3.3-14.34,0-3.79-5.24-1.94-14.77-4.36-22.45-4.13-1.4-8.58-.02-13.09,0Zm38.66,3.11c3.89.59,7.27,4.63,10.6,3.75-1.25-4.37-6.43-4.78-9.98-6.86.52,1.76-.87,1.62-.62,3.11Zm30.54,18.09c3.54,1.87,6.2,4.62,8.73,7.48,1.14-4.77-4.22-7.62-7.48-9.98-.01,1.25-1.71.8-1.25,2.5Zm30.56,35.54c3-3.63-3.55-6.82-3.12-11.85h-1.87c0,3.23,2.05,9.5,4.99,11.85Zm9.97,34.91c-.55-4.25.95-6.74-2.5-8.11.49,3.06-.02,7.09,2.5,8.11Zm-11.23,44.89c3.39-2.65,4.99-7.07,6.24-11.83h-1.87c-1.03,4.36-2.74,8.06-4.37,11.83Zm-21.19,33.04c1.4-2.73,4.72-3.6,5.61-6.86-.89-.15-1.06-1.03-1.87-1.24-.11,3.35-6.36,6.03-3.74,8.1Zm-34.92,18.72c-.11,1.55.96,1.93,1.87,2.49.86-1.51,7.96-3.59,6.85-6.86-2.36,2-5.13,3.59-8.73,4.37Zm-72.32-2.5c1.52,1.65,6.05,3.85,10.6,4.36-2.38-2.3-6.55-5.78-10.6-4.36Zm46.76,6.85c-2.3.4-6.21-.79-7.48.64,1.69.54,7.28,3.02,7.48-.64Z"/><path class="cls-2" d="m166.47,119.45c-2.73,6.41-6.11,12.16-8.1,19.33-5.74,6.1-12.26,11.43-16.84,18.69-11.07,2.66-21.3,9.16-36.16,9.36-14.94.18-29.56-5.67-39.9-14.34-5.94-4.99-14.21-12.09-16.22-16.83-.86-2.05-.05-3.81-.62-6.24-1.29-5.45-4.5-10.63-4.99-14.96-4.46-39.92,23.54-69.73,58.61-71.71,39.13-2.21,70.97,31.25,64.22,76.69ZM97.88,49.62c-5.67.46-12.97.41-13.71,3.74,13.04-1.85,29.28.17,39.28-3.11-6.27-.68-16.99-1.33-25.56-.62Zm-16.21,6.24c-3.34.4-7.13,1.72-9.97,3.75,8.86,1.58,17.18-3.11,24.93-3.13,9.6-.02,24.31,1.71,37.41-1.25-18.91-.65-34.78-1.51-52.38.64Zm30.56,4.36c7.68.94,21.42,1.8,28.67-1.26-7.04.68-21.71-1.51-28.67,1.26Zm-18.09.62,52.37,3.11c-7.48-2.72-16.94.28-25.56-1.24,3.71,5.59,17.28,1.75,25.56,1.24Zm-84.79,4.37c5.15-.47,12.06.82,13.71-3.12-6.61.36-11.12-1.03-13.71,3.12Zm64.22,0c4.24,3.22,16.59,1.09,21.82-.62-8.71.69-16.75-1.43-21.82.62Zm-70.45,5c5.28-.96,12.9.42,16.83-1.87-2.02-.7-14.33-1.1-16.83,1.87Zm21.82,14.95c16.71-2.74,37.57-2.72,54.24-3.11-.44-.91-1.21-3.03-2.49-3.75-5.29-2.89-29.36.91-38.66,1.26-1.81.06-6.31,2.9-6.24-1.26,13.64-2.29,27.68-.33,39.9-3.74-7.25-2.1-18,0-27.43-1.25,5.99-3.66,13.48-1.44,20.57-2.49-13.94-5.33-34.9.08-39.9,14.33Zm52.99-16.2c4.13,4.4,18.54,1.2,24.32-.62-9.79-.35-14.27.98-24.32.62Zm-72.94,4.99c3.98-.6,10.68,1.53,11.85-1.87-3.23.48-9.08-.61-11.85,1.87Zm75.44,0c5.49.66,16.47,1.1,21.82-1.26-7.79.34-17.48-.86-21.82,1.26Zm-74.2,3.1c2.38.28,6.54,1.38,8.11-.62-2.54-.01-5.79-.94-8.11.62Zm97.26-.62c-8.43.39-14.99-.64-21.82.62,5.67,2.7,16.05.64,21.82-.62Zm-105.99,5c4.32.5,11.54,2.73,14.96-.62-5.9-2.8-10.3,1.43-14.33-1.86.14,1.16-.7,1.37-.62,2.49Zm87.28,1.25c7.61-1.68,15.26.46,21.2-2.49-8.55,1-19.09-2.25-21.2,2.49Zm.62,4.99c6.6-1.07,17.97.51,23.7-3.11-9.1.48-20.1-2.76-23.7,3.11Zm-74.2-3.11c-7.47.08-8.52.46-14.96,0,2.86,3.2,14.05,2.6,14.96,0Zm71.7,2.48c-3.88-3.18-14.61-2.83-20.58-1.86,5.53,6.56,11.61,4.32,20.58,1.86Zm-59.86,0c-2.64,6.26-4.32,16.22-1.24,23.08,1.11-3.11,10.89-1.65,15.59-3.11.79-1.56-1.48-4.5-.62-8.11-5.08-1.24-11.38,2.61-14.34-.62,3.41-2.01,9.55-1.26,14.34-1.87.09-1.99,1.42-2.73,1.25-4.98-3.54-.4-8.72.81-11.23-.64,3.9-3.17,15.48,1.34,16.21-4.99-5.39.13-11.68,1.14-19.95,1.24Zm27.43,26.82c19.66,3.76,23.55-30.36,0-26.19-13.04,2.7-11.27,24.03,0,26.19Zm-55.49-24.95c1.73,2.94,13.02,2.67,15.59.62-2.32-2.21-12.03.76-15.59-.62Zm92.28,2.51c6.57.75,17.39,1.7,23.07-2.51-8.05.48-18.31-1.26-23.07,2.51Zm-17.46,0c-.41,2.28,1.36,2.38,1.25,4.36,3.37-.09,9.87-2.02,14.34-.62.18-2.46-.76-3.81-1.87-4.98-3.97,1-9.15.81-13.71,1.24Zm-75.44,4.36c5.06-.77,13.42,1.78,15.59-1.87-5.55-.42-9.97.48-15.59-.62v2.5Zm94.14,5.61c6.68-.8,15.35.37,19.97-2.5-5.87-1.64-16.76,3.52-19.34-1.25,5.69-1.8,15.59.62,19.34-3.11-5.45-.84-12.85.07-19.97.62-.41,3.03,1.11,4.13,0,6.24Zm-16.83-3.75v3.75c4.39.77,10.68-3.4,12.47.62-2.55,2.44-9.58.4-13.09,1.87.32,2.59-1.42,3.15-1.87,4.98,4.05-1.23,11.58-2.03,16.21-.62,1.02-3.78,1.25-7.84,0-11.85-3.75,2.38-7.28.38-13.72,1.25Zm-77.31,2.5c5.74-.35,11.63.38,16.83-1.25-6.44-.29-10.08-1.36-16.83,1.25Zm0,3.75c3.65,1.89,13.23.84,17.46-.62-5.1-1.01-14.68-1.1-17.46.62Zm94.77,1.24c6.27-.59,15.19,1.47,18.71-1.86-6.43.42-14.88-1.17-18.71,1.86Zm-94.15,4.37c4.98.52,14.36,1.63,18.71-1.26-5.63-1.72-12.21-1.9-18.71,1.26Zm92.9-.64c.2,1.45-.1,2.4-.62,3.11,5.34-3.08,13.9-.1,18.71-4.35-4.07.58-13.93-1.13-18.09,1.24Zm-66.09,1.87c.35,2.98,2.05,4.61,3.12,6.86,4.8.15,12.51-.28,18.71-.62.57-2.42-3.96-4.63-4.99-7.47-5.3,1.29-14.43.52-16.84,1.24Zm59.86,6.24c-18.53,1.04-35.66,2.31-54.87,3.12.88,2.86,3.3,4.19,4.99,6.24.23-2.72,1.08-1.87,2.49-2.5,7.44.15,14.69.61,21.82,0,7.72-.66,15.32-4.37,20.58-1.25-12.71,4.63-34.2,2.07-44.27,4.37,7.44,6.84,24.47,10,34.91,3.75-7.66-.73-15.5,2.58-22.44-.64,7.95.75,22.42-5.03,23.69.64,7.44-4.61,13.56-10.56,16.21-19.97-8.54-1.27-17.74-.89-21.82,5,7.7.66,14.38-2.42,18.71,0v1.24Zm-86.67-3.11c5.97.95,14.93,1.78,21.2-.62-5.02-.36-15.87-2-21.2.62Zm91.04,1.87c6.07.03,16.67,3.28,17.45-3.13-6.76-.46-12.37,2.44-17.45,3.13Zm-64.85,1.86c-9.31-1.34-14.4.73-24.93-.62,4.64,5.15,20.42,3.84,24.93.62Zm61.73,5.61c5.24-2.45,16.16.77,18.08-4.99-5.73.79-13.21,1.05-16.21,0,.26,2.17-3.56,3.46-1.87,4.99Zm-62.35-1.25c-6.03-.3-16.95.62-21.2,1.87,8.04,3.15,15.83,1.2,24.94,0,.12-2.52-2-1.78-3.75-1.87Zm57.36,6.24c5.25-.6,13.64.45,19.96-1.86-.81-1.56,1.83-2.59,0-3.12-7.25,3.19-16.92-.15-19.96,4.99Zm-76.68,0c6.07,4.04,17.7.6,27.43.64-7.21-2.79-19.33-.65-27.43-.64Zm69.2,5.61c5.83-.67,19.83,2.15,22.44-3.74-7.21,1.99-16.98-.78-22.44,3.74Zm-66.09-1.24c1.46,4.25,8.54,2.68,13.09,2.5,5.94-.27,13.22-.59,18.09-2.5-9.04-2.97-21.47,1.42-31.18,0Zm5.61,6.24c21.07,1.68,40.88-.31,61.72-1.25,5.08-.23,10.77,1.63,15.59-1.86-25.22,3.83-53.37-2.24-77.31,3.11Zm6.86,4.97c17.7.25,41.3,1.84,56.73,0,3.15-.37,6.21-1.94,8.11-3.74-20.17.82-47.9.9-64.84,3.74Zm68.58-1.87c2.4-.79,3.59.81,4.36-1.86-2.21.44-2.73.09-4.36,1.86Zm-54.86,6.26c13.35,1.82,29.54,1.17,38.65-2.52-13.6,1.64-30.16.49-38.65,2.52Zm35.54,6.85c-7.14.13-13.54,1.02-21.2.61,2.54.76,5.92,1.39,9.97,1.25,3.9-.13,11.84-.93,11.85-2.49-.04.37-.1.75-.62.62Zm-20.58,5.61c1.28-.38,4.33,1,3.75-1.25-1.66.01-3.67-.35-3.75,1.25Z"/><path class="cls-1" d="m26.14,129.92c30.12,22.85,60.24,45.71,90.38,68.51-.04-.87-.09-1.75-.18-2.63-29.66-22.5-59.35-44.96-89.05-67.46-.34.56-.72,1.09-1.15,1.58Z"/><path class="cls-1" d="m74.03,154.3c13.94,10.57,27.88,21.16,41.83,31.71.32-.58.73-1.12,1.19-1.61-11.43-8.66-22.87-17.3-34.3-25.96-3.01-1.17-5.94-2.55-8.72-4.15Z"/><path class="cls-1" d="m55.89,138.11c-16.44-12.44-32.86-24.88-49.3-37.32.02.79.03,1.61.05,2.4,5.85,4.44,11.7,8.88,17.54,13.31,1.54.4,2.93,1.51,3.81,2.9,11.24,8.51,22.49,17.03,33.72,25.56-2.14-2.11-4.08-4.42-5.83-6.85Z"/><path class="cls-1" d="m138.75,203.31c.74-.21,1.48-.45,2.22-.75-3.55-2.69-7.08-5.39-10.63-8.06.34,1.12.7,2.23,1.13,3.32,2.43,1.83,4.85,3.66,7.28,5.49Z"/><path class="cls-1" d="m47.84,120.08c-10.33-7.82-20.65-15.66-30.99-23.47-.93.08-1.88.19-2.86.27,11.53,8.76,23.08,17.48,34.63,26.23-.28-1-.55-2.01-.78-3.03Z"/><path class="cls-1" d="m100.84,162.67c16.05,12.15,32.07,24.32,48.13,36.45.76-.27,1.53-.5,2.3-.71-15.63-11.86-31.28-23.68-46.92-35.54-1.17-.02-2.34-.1-3.51-.2Z"/><path class="cls-1" d="m146.76,183.06c-9.41-7.14-18.83-14.27-28.25-21.41-.87.19-1.75.32-2.62.48,10.99,8.32,21.97,16.66,32.97,24.97-.6-1.31-1.22-2.6-1.92-3.88-.05-.07-.12-.1-.17-.17Z"/><path class="cls-1" d="m45.99,106.75c-6.08-4.62-12.15-9.22-18.24-13.82-.34.55-.77,1.05-1.25,1.48,6.68,5.06,13.38,10.14,20.07,15.2-.22-.96-.42-1.92-.57-2.87Z"/><path class="cls-1" d="m127.44,158.95c6.54,4.96,13.07,9.93,19.62,14.88.51-.46,1.14-.84,1.87-1.07-6.46-4.89-12.92-9.78-19.38-14.68-.7.32-1.4.6-2.11.87Z"/><path class="cls-1" d="m45.95,94.8c-11.6-8.78-23.2-17.59-34.8-26.36-.16.67-.31,1.34-.46,2.01,11.66,8.86,23.33,17.69,35,26.53.06-.74.16-1.45.26-2.19Z"/><path class="cls-1" d="m138.55,152.99c-.56.39-1.13.76-1.72,1.14,12.3,9.29,24.57,18.63,36.86,27.93.4-.52.8-1.03,1.22-1.53-12.11-9.19-24.24-18.36-36.37-27.54Z"/><path class="cls-1" d="m48.68,84.94c-9.41-7.13-18.81-14.25-28.23-21.38-1.31-.18-2.62-.35-3.92-.58,10.48,7.95,20.96,15.88,31.44,23.84.22-.64.46-1.26.71-1.87Z"/><path class="cls-1" d="m146.09,146.76c-.47.47-.97.9-1.45,1.35,11.9,9.01,23.79,18.05,35.7,27.06.5-.44.99-.88,1.5-1.33-11.92-9.04-23.85-18.05-35.75-27.08Z"/><path class="cls-1" d="m53.13,76.36c-5.64-4.27-11.26-8.53-16.89-12.79-.47.46-1.02.86-1.62,1.18,5.83,4.42,11.67,8.83,17.5,13.26.33-.56.66-1.12,1.02-1.65Z"/><path class="cls-1" d="m151.11,141.09c5.82,4.42,11.63,8.83,17.46,13.24-.48-.94-.61-1.92-.5-2.86-5.25-3.99-10.51-7.96-15.77-11.96-.38.53-.79,1.05-1.19,1.57Z"/><path class="cls-1" d="m58.85,68.78c-10.46-7.92-20.91-15.85-31.36-23.76,1.9,2,3.75,4.03,5.51,6.13.9.64,1.69,1.36,2.35,2.2,7.42,5.64,14.84,11.25,22.26,16.89.41-.5.82-.98,1.24-1.46Z"/><path class="cls-1" d="m157.28,131.36c-.3.6-.6,1.18-.94,1.77,5.14,3.88,10.24,7.76,15.38,11.64.74-.36,1.61-.54,2.62-.5-5.69-4.33-11.37-8.61-17.06-12.92Z"/><path class="cls-1" d="m65.67,62c-11.66-8.8-23.3-17.63-34.96-26.46-.39.49-.75,1-1.14,1.48,11.54,8.78,23.1,17.52,34.66,26.28.47-.44.96-.88,1.44-1.3Z"/><path class="cls-1" d="m161.07,122.31c-.22.66-.44,1.32-.67,1.94,11.25,8.53,22.49,17.06,33.75,25.59.45-.47.89-.96,1.33-1.45-11.46-8.7-22.95-17.37-34.42-26.08Z"/><path class="cls-1" d="m73.56,56.04c-7.49-5.67-14.99-11.34-22.48-17.02-5.42-2.78-10.3-6.62-14.63-10.92-.36.49-.73.95-1.08,1.42,12.16,9.24,24.35,18.44,36.52,27.67.55-.39,1.1-.77,1.67-1.15Z"/><path class="cls-1" d="m163.61,112.3c-.12.69-.23,1.39-.37,2.07,0,.02-.01.06-.02.09,12.31,9.31,24.62,18.67,36.94,28,.36-.56.72-1.13,1.05-1.68-12.52-9.49-25.07-18.97-37.6-28.48Z"/><path class="cls-1" d="m82.61,50.97c-6.64-5.01-13.26-10.05-19.9-15.07-.16.67-.38,1.29-.69,1.88,6.22,4.72,12.45,9.43,18.66,14.13.64-.32,1.28-.62,1.93-.95Z"/><path class="cls-1" d="m91.02,47.79c.77-.21,1.54-.41,2.32-.59-12.46-9.44-24.92-18.88-37.39-28.31.56,1.22,1.13,2.42,1.73,3.61,11.11,8.44,22.23,16.85,33.34,25.29Z"/><path class="cls-1" d="m164.37,100.95c.02.83.02,1.65.02,2.48,5.93,4.5,11.85,8.99,17.77,13.47.02-.71.16-1.45.48-2.12-6.08-4.62-12.18-9.21-18.27-13.83Z"/><path class="cls-1" d="m106.88,45.52c-15.49-11.73-30.98-23.47-46.48-35.19-.59.32-1.17.65-1.77.96,15.07,11.45,30.17,22.88,45.25,34.31,1-.04,2.01-.08,3.01-.08Z"/><path class="cls-1" d="m162.43,87.55c.27.98.51,1.99.71,2.99,8.92,6.76,17.83,13.54,26.76,20.29.15-.02.3-.01.45-.02.27-.08,1.52-.29,2.26-.44-10.06-7.62-20.13-15.21-30.18-22.82Z"/><path class="cls-1" d="m126.37,48.32c-11.45-8.66-22.89-17.33-34.34-25.99-.32.55-.73,1.04-1.19,1.45,10.25,7.77,20.49,15.54,30.74,23.31,1.6.36,3.2.76,4.79,1.23Z"/><path class="cls-1" d="m145.96,63.15c.44.62.87,1.24,1.3,1.87,1,.26,1.99.78,2.9,1.58,2.15,1.92,4.02,4.09,5.66,6.46,15.39,11.67,30.76,23.35,46.15,34.99.85-.21,1.69-.39,2.55-.58-19.51-14.79-39.04-29.55-58.57-44.33Z"/><path class="cls-1" d="m93.17,11.29c.01.78.02,1.54.01,2.3,29.14,22.12,58.26,44.24,87.42,66.31.23-.59.57-1.16,1.04-1.67-29.48-22.34-58.98-44.64-88.47-66.94Z"/><path class="cls-1" d="m193.15,89.41c5.01,3.79,10.01,7.6,15.02,11.4.07-.78.15-1.57.22-2.35-4.03-3.06-8.07-6.1-12.1-9.17-1.06.04-2.11.1-3.14.12Z"/><path class="cls-1" d="m99.49,4.16h-.03c-1.3-.08-2.57-.32-3.8-.64,5.37,4.08,10.74,8.17,16.11,12.25-.09-.84-.16-1.68-.26-2.53-4-3.01-8.01-6.05-12.02-9.08Z"/><path class="cls-1" d="m172.43,59.32c-2.62.03-4.5-1.71-5.3-4-14.19-10.75-28.4-21.47-42.6-32.21-.5.4-1.05.76-1.63,1.1,21.58,16.37,43.13,32.76,64.73,49.11.55-.41,1.12-.8,1.67-1.24-5.62-4.25-11.25-8.5-16.87-12.76Z"/><path class="cls-1" d="m130.02,15.51c-.25.58-.52,1.16-.81,1.73,4.94,3.73,9.86,7.48,14.79,11.22.04-.08.05-.15.08-.21.06-.65.16-1.29.25-1.92-4.76-3.6-9.54-7.22-14.31-10.82Z"/><path class="cls-1" d="m155.33,34.65c-.33.6-.73,1.1-1.15,1.53,4.99,3.78,9.97,7.59,14.97,11.38.03-.04.07-.06.1-.09.39-.44.85-.85,1.42-1.22-5.11-3.87-10.24-7.73-15.35-11.6Z"/><path class="cls-1" d="m181.67,54.95c-.11.12-.22.26-.34.39-.29.29-.58.55-.89.76,5.07,3.86,10.13,7.7,15.21,11.54.58-.39,1.18-.77,1.78-1.15-5.15-3.92-10.32-7.8-15.47-11.71-.09.06-.19.13-.29.17Z"/><path class="cls-1" d="m132.93,5.76c-.17.67-.33,1.34-.5,2,4.63,3.51,9.26,7.03,13.89,10.54.22-.64.43-1.27.67-1.91-4.68-3.55-9.37-7.08-14.06-10.63Z"/><path class="cls-1" d="m162.47,28.1c-.44.49-.88.96-1.33,1.44,4.91,3.74,9.8,7.45,14.71,11.18.33-.67.61-1.28.89-1.83-4.75-3.6-9.51-7.19-14.27-10.79Z"/><path class="cls-1" d="m33.01,167.36c-.57.37-1.15.75-1.73,1.14,5.28,4,10.55,8,15.83,12,.44-.49.87-.99,1.31-1.48-5.14-3.88-10.28-7.77-15.41-11.66Z"/><path class="cls-1" d="m62.91,189.97c-.23.67-.46,1.33-.7,1.97,5.22,3.97,10.44,7.93,15.66,11.89.18-.71.36-1.42.52-2.13-5.16-3.92-10.33-7.81-15.49-11.73Z"/><path class="cls-1" d="m10.08,138.24c-.11.69-.16,1.41-.17,2.1,4.48,3.41,8.97,6.82,13.45,10.21.74-.26,1.49-.51,2.23-.74-5.11-3.88-10.23-7.74-15.36-11.61-.04,0-.1.02-.15.04Z"/><path class="cls-1" d="m40.39,161c-.41.52-.84,1.02-1.29,1.5,4.9,3.7,9.78,7.41,14.67,11.12.51-.44,1.04-.86,1.6-1.28-5-3.77-9.99-7.56-14.98-11.33Z"/><path class="cls-1" d="m65.93,180.33c.07.74.06,1.51-.15,2.35,0,.01-.01.01-.01.03,4.89,3.7,9.77,7.41,14.65,11.11.22-.67.44-1.35.69-2.02-5.06-3.83-10.12-7.65-15.18-11.48Z"/><path class="cls-1" d="m20.66,134.15c-.64.35-1.28.65-1.94.96,22.02,16.71,44.04,33.42,66.09,50.11.11-.13.2-.28.31-.42.36-.4.74-.76,1.15-1.02-21.86-16.56-43.74-33.1-65.61-49.63Z"/><path class="cls-1" d="m115.91,206.28c-5.98-4.55-11.97-9.1-17.97-13.64.17.9.3,1.82.33,2.77,5.45,4.12,10.89,8.21,16.33,12.34.4-.51.85-.99,1.3-1.46Z"/><path class="cls-1" d="m76.48,103.17c2.88-26.44,39.54-35.95,53.88-12.93.61.98,1.98.3,1.78-.76-5.58-30.42-60.73-15.86-57.05,13.69.11.87,1.29.88,1.39,0h0Z"/><path class="cls-1" d="m88.65,113.18c3.92,8.99,15.97,13.52,25.07,11.48,11.37-2.53,17.46-18.74,12.42-28.59-.45-.87-1.9-.68-2.11.29-.93,4.29-.3,8.62-1.14,12.97-1.15,6.07-5.95,10.42-11.71,11.92-8.71,2.23-15.68-4.01-22.33-8.26-.14-.09-.26.09-.2.19h0Z"/><path class="cls-1" d="m85.64,137.09c14.04,7.47,31.42,7.57,44.54-1.87,11.44-8.22,19.86-30.57,11.51-43.01-.7-1.04-2.33-.39-2.03.87,3.7,15.57-1.58,33.1-15.52,41.78-11.54,7.19-25.96,4.74-38.35,1.9-.21-.06-.35.25-.15.33h0Z"/></g></svg>