<?xml version="1.0" encoding="UTF-8"?><svg id="Layer_1" xmlns="http://www.w3.org/2000/svg" viewBox="0 0 459.9 456.93"><defs><style>.cls-1,.cls-2{fill:#fff;}.cls-2{fill-rule:evenodd;}.cls-3{opacity:.15;}</style></defs><g class="cls-3"><path class="cls-2" d="m324.63,108.43c1.18,5.26-6.78,5.4-11.22,6.84-4.93,1.6-9.88,4.52-13.72,3.75,6.67-4.75,17.56-8.63,24.94-10.59Z"/><path class="cls-2" d="m381.35,258.06c-5.44.37-9.06-6.29-11.85-10.6-17.33-17.18-42.03-26.99-66.72-36.81v-1.86c.51-.11.65-.61,1.25-.61,25.21,8.88,49.37,19.81,66.7,36.77,4.04,3.92,9.17,7.81,10.62,13.11Z"/><path class="cls-2" d="m381.35,249.33c-4.33-1.71-5.82-6-9.35-8.74-10.86-8.49-24.83-13.61-34.93-23.05-1.09.18-1.27-.59-.6-.62.51-.42,1.69-.97,1.87,0,11.67,6.59,24.45,14.11,35.54,22.45,2.92,2.2,9.77,4.63,7.47,9.97Z"/><path class="cls-2" d="m288.44,297.96c1.03-.19,1.09.59,1.87.62,3.81,24.85,2.48,62.16-11.22,77.92-.76-7.05,3.84-12.65,5.62-18.71,1.94-6.53,3.99-13.6,4.98-21.18,1.5-11.45-3.08-25.84-1.25-38.66Z"/><path class="cls-2" d="m213.64,306.68c1.43,3.23-2.9,5.35-5,8.11-5.93,7.8-9.5,14.22-17.47,21.19-7.9,6.93-16.2,12.62-26.17,18.72-5.33,3.26-12.18,7.09-18.09,6.85,10.02-8.48,22.62-11.7,32.41-19.33,12.63-9.83,23.58-22.91,33.06-36.16.74-.1,1.12.13,1.25.62Z"/><path class="cls-2" d="m184.98,328.51c.49.32,1,.65,1.85.62-8.95,10.19-19.43,22.08-34.29,24.32,3.99-5.7,11.47-6.69,16.82-10.6,5.4-3.93,9.5-8.87,14.34-13.09.56-.27,1.12-.56,1.27-1.25Z"/><path class="cls-2" d="m294.69,335.36c.71-.09,1.11.13,1.25.61.71,12.78-1.25,26.18-5,37.42-4.51-2-.87-6.46,0-9.97,1.87-7.37,1.87-17.61,3.75-26.18v-1.88Z"/><path class="cls-2" d="m217.99,59.8c55.9-4.14,96.08,17.46,125.33,43.01,29.22,25.53,52.36,64.5,55.48,112.85,2.5,38.37-7.87,71.22-21.79,96.63-26.03,47.49-81.96,84.88-147.16,84.8-66.7-.09-117.65-36.15-145.25-83.55-13.85-23.77-23.02-53.04-24.34-89.14-.78-22.3,7.21-48.7,14.97-65.47,20.28-43.8,55.9-78.5,107.88-92.9,11.22-3.12,21.93-5.27,34.89-6.22Zm-34.29,104.72c-5.22-16.08-3.17-37.55-.6-55.47,2.43-17.28,10.53-26.5,15.57-37.42-21.77,6.89-44.44,12.93-61.1,24.94,18.47-7.07,16.51,13.33,17.47,24.93,1.9,23.04,7.67,43.15,12.45,65.47,2.81,13.05-5.29,24.03-6.22,36.8-.36,4.93.94,9.35-.62,13.71-3.57,5.62-11.49,4.94-18.07,2.49-10.75-3.98-24-16.06-34.93-17.46-9.9-7.64-21.01-16.71-27.42-27.44-12.67-21.17,6.31-47.45,18.69-61.72,10.93-12.57,21.21-25.4,31.19-33.04-14.28,8.43-25.74,17.94-34.91,30.54-7.09,9.74-13.94,20.71-18.72,31.79-29.49,68.55-1.58,151.06,41.16,187.06,4.33,3.65,7.76,8.13,11.85,11.21,20.08,15.18,47.27,27.74,76.69,31.79,61.84,8.58,111.32-16.21,142.75-48,39.6-40.02,62.89-114.14,35.56-178.32-1.87,1.77-1.74-2.79-4.37-4.97,4.84,11.88,6.78,19.14,9.97,33.05,1.85,7.99,6.2,30.8.62,34.91-4.82,3.53-11.27-1.15-13.7-2.51-3.15-1.75-7.25-3.58-9.99-5.61-2.28-1.68-3.79-4.83-5.6-6.24-4.95-3.79-12.45-7.26-18.09-9.96-15.86-7.63-37.99-10.9-54.23-11.86-4.15-.26-9.04-.16-11.87-1.24-4.73-1.83-8.21-9.72-14.95-13.09-2.97-1.5-9.35-.74-10.6-6.24-.85-3.7,1.9-9.29,3.75-11.85,3.48-4.91,10.49-9.26,16.2-12.48,18.45-10.4,39.89-18.16,61.73-23.07,9.41.21,19.41,5.05,26.79,6.87-14.05-16.08-31.28-32.32-49.23-42.41,2.3,15.96-13.9,17.37-26.19,23.7-19.09,9.81-37.7,25.88-50.5,41.15-4.22,5.04-7.25,11.54-13.09,12.48-8.72,1.37-22.26,7.36-27.42,6.24-3.7-.81-5.6-5.19-9.35-6.87-.24,4.34-2.65,6.51-3.77,9.98-1.03-5.62,4.59-7.89,3.12-11.86Zm31.79-92.26c-18.74,13.97-32.73,41.68-29.91,71.08-2.21,7.18.42,18.65,5.6,22.43,2.21,2.81,2.63-1.37,5.62-1.25,2.07,1.83-1.54,3.1,0,4.38,7.78-3.42,19.5-2.65,26.81-7.48,4.53-3.01,7.83-9.28,11.85-13.72,12.45-13.74,27.1-25.58,43.03-35.54,10.82-6.78,25.41-6.37,29.27-19.95-20.32-18.55-63.4-21.69-92.26-19.95Zm-100.36,53.62c-11.67,12.11-19.21,19.89-26.19,36.16-5.6,13.04-10.48,20.59-3.12,33.04,4.73,7.98,15.26,16.42,24.94,23.08,12.67,8.69,27.42,16.45,43.66,19.95,4.02-5.11,2.63-11.88,3.73-18.08,1.76-9.97,6.98-19.21,5.62-32.44-1.36-13.22-6.69-27.02-9.35-41.15-2.83-14.9-2.79-29.51-5-44.25-.62,0-.74-.52-1.25-.64-14.14,5.9-22.35,13.2-33.04,24.33Zm242.53-3.74c-5.15-6.47-11.6-15.01-18.09-18.08,7.2,4.85,11.85,12.26,18.09,18.08Zm30.54,94.76c-3.35-28.11-10.75-56.33-31.16-75.43-15.17-14.21-41.43-5.16-59.85,3.74-12.05,5.82-24.94,11.44-31.79,19.32-7.32,8.39-1.85,10.49,4.35,15.61,3.57,2.92,5.18,6.9,8.12,8.1,2.63,1.07,7.52.97,11.22,1.24,21.08,1.55,47.09,7.15,62.95,16.84,3.19,1.96,6.58,3.25,9.37,4.99,9.95,6.25,12.65,15.22,27.42,14.97.85-2.79-.22-6.2-.62-9.36Z"/><path class="cls-2" d="m242.33,1.81c.71,5.86.74,15.65,2.5,23.69,4.44-.13,4.53,1.62,9.97,1.25,5.67-5.98,4.75-18.51,10.6-24.32,8.54.26,15.13,2.62,19.94,4.99-.09,9.88-3.5,16.14-3.12,24.94,2.39,2.38,6.58,2.99,9.97,4.36,7.23-6.5,10.4-14.93,17.47-22.45,5.22,2.48,11.11,4.27,16.82,6.24-1.52,11.02-16.28,28.78,1.25,31.8,7.47-5.21,12.47-12.9,18.72-19.33,7.29,1.24,11.56,5.48,16.82,8.73-2.3,9.73-8.92,15.16-11.85,24.31,1.72,3.5,6.09,4.31,8.12,7.48,9.57-3.65,16.69-12.6,25.56-14.96,4.48,4.04,9.59,7.45,13.09,12.47-3.66,8.82-9.55,15.38-14.34,23.06.29,4.9,4.42,5.97,6.22,9.36,10.08-1.28,18.38-10.55,26.81-9.36-.42,3.13-4.04,3.03-6.22,4.38.87,1.42,4.33.23,6.22.61,1.61-.46-.47-4.6,1.87-4.36,3.32,4.36,6.58,8.8,9.35,13.73-5.58,8.12-14.99,12.42-20.57,20.56,1.81,4.42,5.18,7.3,6.87,11.84,11.24.48,15.99-5.6,26.17-6.22,2.16,6.35,4.53,12.5,6.22,19.34-7.27,3.09-15.66,5.09-21.8,9.33-.4,4.07.33,9.78,1.85,13.72,8.7.04,16.84-.93,23.69-2.5,2.1,6.45,3.66,13.4,4.37,21.19-6.6,2.98-17.18,3.1-23.07,4.99.04,5.16-.29,10.67.62,14.98,10.42,2.28,21.82-1.91,27.42,4.36-2.39,7.13.09,13.52-1.23,20.56-6.54-.55-15.57.56-23.69,2.51.07,4.65-1.29,6.73-1.25,12.46,5.55,3.81,14.1,4.61,23.69,4.37.83,6.06-.36,15.85-1.25,23.69-10.17,1.43-20.99-4.08-29.31.64-1.54,2.4-2.23,5.65-3.12,8.72,4.53,7.12,12.98,10.28,20.59,14.34-1.07,8.5-5,14.13-8.12,20.57-6.6-3.16-14.05-5.47-21.19-8.11-3.43,3.21-5.04,8.25-7.47,12.47,3.72,7.07,11.27,10.34,16.84,15.58-4.04,6.37-8.7,12.1-13.12,18.08-6.65-4.56-12.65-9.78-19.32-14.33-2.9,3.52-6.2,6.66-8.72,10.61.78,5.72,14.34,14.08,14.34,20.57-.02,5.91-8.45,8.98-11.87,13.71-8.28-3.36-12.56-10.71-19.94-14.96-3.84,3.63-7.78,7.17-11.82,10.6,2.16,8.42,8.97,12.21,11.82,19.94-3.68,4.44-9.97,6.25-13.07,11.23-6.69-2.71-12.16-11.95-18.72-16.83-5.15.25-7.36,3.45-11.85,4.36.6,10.21,3.46,18.16,5.6,26.8-5.13,3.79-10.89,6.99-18.07,8.73-3.3-8.56-5.98-17.74-11.85-23.69-3.66.48-6.69,1.64-9.97,2.5-.78,10.94-2.1,16.83.6,25.55-5.42,1.25-14.86,4.84-22.42,3.75,2.14-8.31-1.16-16.24-3.75-23.68-4.59.01-11.87-.68-12.49,4.35-.85,1.97,4.1,1.22,1.9,2.49.62,1.89-1.41,1.12-2.52,1.26.22,6.24-.16,11.87-1.85,16.21-10.17,2.98-14.88.96-22.44,1.86,2.01-8.72-1-15.97-1.87-24.93-2.72-2.26-8.81-1.16-12.47-2.5-4.55,5.63-2.99,17.39-6.22,24.33-7.54.07-15.37-.86-20.59-1.26,1-8.51-.51-18.69-.6-26.19-2.61-.44-5.93-3.52-9.99-4.36-5.96,6.34-7.38,17.13-13.09,23.69-7.52-.58-10.73-5.14-16.82-5.6,1.25-11.97,1-16.61,3.73-24.94-3.08-3.81-7.21-6.66-11.22-5.61-7.23,1.89-9.15,15.98-14.97,19.94-7.32-2.43-13.21-6.31-18.69-10.6,3.21-8.01,9.08-13.36,11.22-22.45-1.47-3.3-5.13-4.42-7.47-6.85-7.7,4.58-15.41,9.11-20.59,16.21-6.47-3.51-10.42-9.53-14.97-14.98,6.22-4.78,11.51-10.53,15.59-17.44-1.85-2.91-3.28-6.27-6.25-8.11-6.87,4.29-15.84,7.6-22.42,13.72-3.19-7.62-10.35-11.27-13.09-19.32,8.3-1.29,11.38-12.56,19.94-15.59-1.9-3.69-3.75-7.45-6.85-9.98-8.83,2.2-15.46,6.59-22.44,10.61-4.51-5.97-12.34-11.68-10.6-21.82,8.05-.87,15.28-6.85,21.79-11.23-1.07-4.53-3.26-7.96-4.97-11.84-8.16-.31-17.71,4.02-23.69,5.61-3.46-3.78-6.16-11.57-8.12-18.72,5.91-4.71,18.18-7.29,24.32-13.71-.29-4.05-1.54-7.16-3.1-9.97-8.86-1.36-14.88,2.46-24.32.61-2.14-7.83-2.81-10.63-4.37-19.34,8.23-1.31,20.08-4.5,27.44-6.84,1.03-3.37-.65-6.51-.62-10.61-8.88-1.14-18.34-2.04-28.06-3.75-1.05-6.64.31-12.18,0-19.93,8.03-3.02,20.59-3.75,28.06-3.75,2.72-2.24,3.06-6.93,3.12-11.86-8.43-2.73-17.09-10.66-25.56-9.34.04-5.14,2.07-13.17,3.72-18.71,9.01-.18,20.43,2.36,29.31,4.35,2.48-2.5,3.41-6.56,3.75-11.22-6.85-5.21-15.59-8.51-23.07-13.08,2.23-6.7,5.11-12.76,8.72-18.09,8.41,2.4,15.93,5.68,24.32,8.11,3.73-2.08,3.35-8.29,6.22-11.22-3.1-2.67-8.39-8.85-12.47-11.23-3.01-1.76-6.36-1.09-6.85-4.36-.38-2.66,10.04-14.35,12.47-14.97,7.61,1.53,11.47,6.82,19.34,8.1.47.55.65,1.42.62,2.51,4.35-1.86,6.96-5.5,8.72-9.99-3.55-7.69-11.13-11.31-15.59-18.08,4.55-4.58,8.81-9.47,14.32-13.08,5.2.4,10.24,8.17,14.99,11.21,6.22,4.01,8.48.31,13.7-4.36-1.81-4.03-4.64-8.62-7.47-12.47-1.56-2.14-4.95-4.41-5-6.87-.07-6.88,10.4-7.72,14.97-12.46,7.83,8.63,18.6,25.25,30.56,12.46-1.16-10.07-7.92-14.52-9.35-24.31,7.12-1.38,12.83-4.21,18.69-6.85,5.6,2.29,4.48,11.31,11.22,12.47-2.61,4.52,3.17,5.02,1.87,8.1,4.62-.99,8.37-2.86,13.09-3.74-.02-8.45-5.38-16.97-2.48-24.33,6.13.06,15.06-3.01,20.57-1.24,1.76,7.57,2.5,16.19,4.97,23.07,5.91-1.27,9.99-.7,16.2-1.86,3.37-7.86,3.52-18.67,6.25-25.56,6.38-1.19,14.46-.35,19.96,1.24Zm-6.25,5c-2.21,1.37-12.51-2.87-11.85,3.1h15.57c.16-2-1.09-2.62-.62-4.98-1.4-.27-4.39-2.2-5.6-.63,1.45.23,2.92.41,2.5,2.51Zm29.94,0c.49,2.77,5.56.48,6.85,0-2.05-.2-5.11-1.46-6.85,0Zm-1.87,6.24c6,.02,11.62.42,16.82,1.24.98-.5,1.18-7.4-.62-4.99-1.47,2.75-13.5-.93-16.19,3.75Zm-87.29-.64c5.22.63,12.2,1.64,16.2-.62-1.03-.01-.33-1.72-1.23-1.87-1.92,4.16-10.06.41-14.97,2.49Zm46.76.64c-.36,1.29-1.54,1.77-1.25,3.73,6.22-.31,14.05-.62,18.09-1.25-.98-.16-.45-1.35,0-1.86-4.8-2.39-8.83-.09-16.84-.62Zm-45.51,3.1c2.43,4.5,11.13.69,15.59,1.26-2.3-4.28-10.08.23-15.59-1.26Zm84.17,2.51c4.84.52,13.76.69,18.07-.63-4.37-2.35-15.35-3.54-18.07.63Zm-115.35,1.86c-.09-1.77,3.86.52,3.75-1.25-2.03.78-.49-2.02-2.5-1.24.31,1.24-3.44,1.42-1.25,2.49Zm74.2,2.49c8.19-1,10.86-1.02,19.34-1.25v-3.11c-5.33,2.57-17.82-2.03-19.34,4.36Zm-42.41-.62c3.48,2.73,12.65.67,16.24-.63-4.82-2.55-13.25.05-16.24.63Zm125.95,4.36c7.74-1.61,10.69-2.29,17.47-1.25v-3.11c-5.35-1.75-14.95-.48-17.47,4.36Zm-44.26-1.25c7.34.24,13.3-.46,19.32,0v-3.74c-6.47-.79-13.12,1.32-18.09,0-.18,1.46-.74,2.58-1.23,3.74Zm-124.07-2.49c1.4,5.46,11.04,3.13,18.72,3.74.33-2.42-1.61-2.58-1.87-4.36-5.93-.15-13.85,1.61-16.84.62Zm97.26,1.87c-5.27.02-11.29.54-12.47,3.12,7.94-.72,15.66,1.29,19.96-1.24.29-3.1-4.89-1.87-7.49-1.87Zm-53.63,3.75c6.13,1.26,9.77.03,15.62,0v-3.12c-4.77.55-11.07.32-15.62,3.12Zm71.09,1.25c-6.94,2.89-14.39.16-23.69.62-9.55.47-22.08,2.26-28.69,1.87-3.79-.23-16.95-2.28-17.47,1.86,27.71-.78,69.31-.99,97.89-5-11.04-3.62-18.03,2.23-28.04.64Zm51.11-.64c.83,1.56-1.83,2.59,0,3.14,6.87-1.76,11.24-1.96,17.47-1.26-.25-1.5,1.14-1.36.62-3.12-7.25-.91-11.89,3.03-18.09,1.24Zm-162.71,0c-.47,1.91,1.07,1.84.62,3.75,5.35-.78,12.31.14,18.69-1.25-3.75-6.26-12.45.33-19.32-2.5Zm108.48,6.24c8.34,1.66,22.6.56,30.56-1.87-13.21.32-21.57.62-30.56,1.87Zm50.48,0v3.13c5.38-1.36,19.25,1.94,19.96-4.37-8.01-2.16-12.83,1.67-19.96,1.24Zm-127.18,1.26c2.03-1.08,5.4-.85,7.47-1.88-1.81-.37-6.27-.19-7.47,1.88Zm-26.19,0c5.22-.41,12.07.83,16.22-.62-5.58-1.27-12.34-.73-16.22.62Zm72.34,1.25c.94-.86,3.73-1.26,4.35-.63.36-1.04,6.51-.68,1.87-1.24-3.41.34-11.51-.74-11.85.62,2.61-.32,4.24.34,5.62,1.25Zm-49.9,3.11c15.91-1.35,25.74-1.72,39.93-4.36-13.03,1.62-28.13-1-39.93,4.36Zm175.2,2.49c4.84-1.73,9.68-1.25,13.72-.62-2.21-2.58-4.93-4.62-8.1-6.24-1.96,1.79-5.53,5.26-5.62,6.85Zm-80.42-4.37c-1.27.16-9.21-.08-3.12.63,8.16,2.4,22.11-.31,30.54.62-5.64-4.19-19.21-2.21-27.42-1.25Zm-117.83,3.75c7.23-.54,13.3-1.76,19.94-1.24-3.9-3.74-15.86-1.48-20.57-2.51-.47,1.91,1.07,1.84.62,3.75Zm7.47,15.59c-22.08,10.62-40.02,23.17-55.48,38.65-29.74,29.71-55.23,77.63-53.63,133.41,1.67,58.03,25.05,100.36,56.73,131.57,30.56,30.05,79.95,55.14,134.05,52.99,57.35-2.3,98.93-24.35,130.32-56.74,30.14-31.14,54.57-75.31,52.98-132.8-.67-24.56-5.09-51.85-15.59-73.58-29.42-60.88-84.1-111.06-172.06-110.97-29.87.03-56.19,7.29-77.32,17.46Zm-50.51-14.34c4.91-1.66,10.4,1.13,14.97-.63-3.03-3.65-13.41-3.75-14.97.63Zm177.68,0c8.19,3.11,28.66-.11,36.79,1.24-.36-2.04.42-2.9.62-4.37-15.73-.35-24.47,2.14-37.41,3.12Zm-107.86,3.74c2.32-1.14,5.44-2.14,8.72-3.13,2.28-.66,9.84-1.38,5.62-1.86-7.12-.82-18.76.49-28.67,1.25-4.33.32-9.28.7-11.24,3.74,9.17-.12,18.11-3.18,25.56,0Zm167.71-2.5c0,2.08-2.01,2.13-1.87,4.36,8.41-1.62,13.07-.71,19.97-1.24.58-2.24,3.1-4.7,0-5.61-1.92,4.92-13.36,3.4-18.09,2.49Zm-237.53,2.5c1.76-.1,1.56,1.75,2.52,2.48,4.4-.61,12.09-1.23,17.45-1.24-2.39-4.87-17.36-2.12-19.97-1.24Zm192.65,1.24c7.81,3.34,14.57,2.61,23.07,1.86-2.63.38-1.92-2.62-3.1-3.74-7.67,2.29-12.67-.41-19.97,1.87Zm-158.99,4.99c9.19-.9,21.26-.03,28.69-4.37-6.29-2.18-18.07,4.4-21.82-1.24-1.81,2.34-5.13,3.19-6.87,5.62Zm198.9-1.26c.83,1.57-2.9,1.51-.62,2.5,4.17-1.95,17.91,1.08,21.21-3.74-8.59-.56-13.74,1.6-20.59,1.24Zm-228.19,0c4.02,4.81,15.46,2.05,20.57.64-5-3.43-15.79.51-20.57-.64Zm208.85,2.5c3.35-.41,8.32.81,10.62-.64-2.43-1.59-8.61-1.63-10.62.64Zm-205.12,4.37c10.98-.24,25.34,2.04,37.41-2.49.96-.17.09-1.04-.62-1.26-11.31,3.31-24.78-1.17-36.79,3.75Zm207.62-.64c6.07,3.74,22.62-.76,30.54-.62,1.4.02,2.07,1.36,3.12,0,.83-.01.8-1.72,0-1.88-14.21,2.19-20.43.68-33.66,2.5Zm59.87,8.11c3.32-1.03,8.48-.22,11.82-1.25-.47-2.44-3.32-2.5-3.73-5-2.1,2.69-6.02,3.56-8.1,6.25Zm-50.53-3.11c3.99,3.63,21.06,3.07,23.07-2.5-6.91,1.18-16.42-.02-23.07,2.5Zm-250.63,1.24c4.35-.27,6.47.28,8.75-1.24-2.34-2.15-8.03-2.84-8.75,1.24Zm36.79-1.24c4.51,2.58,18.07,1.75,23.69-1.88-6.87,1.15-15.91-.16-23.69,1.88Zm-24.32,2.48c-5.89,3.93-14.48-1.66-18.09,4.99,8.08,1.6,14.95.14,21.84-.62-.33-2.37-2.59-2.82-3.75-4.37Zm18.72,4.37c8.57-.32,16.8.78,20.57-3.12-7.54-.69-11.56,1.39-17.47,0-.02-.38-.09-.74-.62-.62.13,2.21-2.92,1.23-2.48,3.74Zm258.73,4.36c8.01-2.61,20.66-.55,27.44-4.36-.47-.99-1.99-.93-1.87-2.5-7.2,2.46-22.84-.17-25.56,6.86Zm-29.91-4.99c3.97,2.05,7.76.82,13.7,1.25-2.61-4.35-9.57-3.46-13.7-1.25Zm-261.85,4.99c6.29,5.93,19.12,1.69,25.54,1.24-4.06-6.47-18.34-.67-25.54-1.24Zm26.17,1.87c3.3-.06,10.62-1.77,16.22-.63-.09-2.15,3.17-.99,3.12-3.11-7.81,1.11-14.48-1.88-19.34,3.74Zm256.87-1.87c-1.36.12-1.99-.51-1.87-1.87-4.64,1.08-9.95.82-12.47,1.25,2.39,3.27,10.75,1.78,14.34.62Zm-7.5,4.98c2.01.5,2.74,2.27,4.4,3.13,11.56-1.96,25.1-3.29,35.51-3.13.25-2.44,2.74-2.66,3.12-4.98-14.14,2.08-29.67,2.01-43.03,4.98Zm-269.32.64c4.28,7.19,20.75-.27,28.67,1.24.45-1.63,2.86-1.32,3.12-3.11-13.03.61-19.9,1.53-31.79,1.87Zm276.82,4.98c4.35,6.91,21.77,1.04,28.06,1.26-.09-1.82,2.63-3.59,0-4.36-9.15,1.39-20.23,2.26-28.06,3.11Zm-271.84,1.26c1.34-.11.29,2.2.62,3.11,7.36-1.94,15.33.51,18.72-4.99-4.71.74-13.45.5-19.34,1.88Zm278.71,5.61c1.67,1.03,2.39,3,4.35,3.74,2.14-1.55,8.66-1.53,10.6-1.25-.6-2.67,1.74-2.4,1.87-4.36-6.89.81-11.31.17-16.82,1.88Zm-281.81,3.11c3.99-.6,9.44-3.07,11.85,0,.65-1.63,2.45-2.09,3.1-3.74-5.42,1.33-15.12-1.27-14.95,3.74Zm-34.29,2.51c5.42-.21,10.51-.71,14.32-2.51-3.23-2.24-14.57-4.03-14.32,2.51Zm29.89,3.74c2.41-1.85,8.03-1.4,11.24-.64.76-1.31,1.74-2.42,2.5-3.73-4.71-.32-7.63,1.1-12.47.63-.13,1.16-2.5,3.23-1.27,3.74Zm293.04-1.88c1.67,2.04,9.32-.38,11.87.62.09-1.55-.98-1.93-1.25-3.11-2.12,1.03-8.57-.3-10.62,2.49Zm-326.05,1.24c6.83,5.31,20.26,1.58,28.69.64-6.56-6.29-19.54-.25-28.69-.64Zm360.98-.62c-2.65,2.57-8.23,2.15-10.6,4.98,10.6-1.33,16.93-.27,26.19-2.48-2.1-3.56-11.91.78-15.59-2.5Zm-30.54,4.36c3.48,2.84,5.91.35,11.85,1.26.25-1.51-1.14-1.36-.65-3.12-4.3.04-8.81-.1-11.2,1.86Zm-322.97,2.49c1.92.6,1.96,3.04,4.35,3.12,5.69-4.49,28.44-.15,28.09-6.85-9.48,1.58-23.74,1.82-32.44,3.73Zm326.7,2.5c2.1.18,1.83,2.76,3.75,3.11,12.87-.17,22.69-1.38,34.29-2.49,2.32-.65.98,2.34,3.12,1.87,1.2-1.75,5.24-4.27,2.5-6.24-13.7,2.5-28.84,1.44-43.66,3.74Zm-321.08,2.49c4.77,5.36,18.29,2.44,21.19-1.87-8.39.63-14.55.3-21.19,1.87Zm327.32,4.98c9.44,1.44,29.54,4.14,32.41-3.74-8.74,1.08-24.2,1.71-32.41,3.74Zm-321.72.63c.54,2.41-1.52,2.21-1.85,3.74,4.33-.84,10.28-.08,11.22-4.37-3.28.06-5.64,1.04-9.37.63Zm324.82,4.36c3.64,6.26,18.92,5.26,21.21-1.25-8.41.4-14.25-.52-21.21,1.25Zm-328.55,6.24c1.05-1.42,4.75-.23,6.85-.62,0-1.86,1.61-2.13,1.87-3.74-4.53.51-5.53.66-8.72,0,0,1.1-1.7,3.63,0,4.36Zm-31.81,1.24c3.26-1.12,8.83.13,11.85-1.24-2.88-1.2-6.13-1.61-9.97-3.11-.85,1.24-1.18,2.97-1.87,4.36Zm366.61,2.5c4.22-.71,7.94,1.81,11.22,0-.85-5.29-7.12-1.89-12.47-3.12-.09,1.56.98,1.93,1.25,3.12Zm-368.46,0c.45,1.92-1.74,1.2-1.27,3.12,9.28-.91,19.83-.55,28.06-2.5-6.6-4.81-19.81,1.37-26.79-.62Zm.6,6.86c2.97,2.54,6,1.8,9.99,1.24,7.85-1.06,20.61-.76,24.32-4.98-9.19,1.32-24.67.89-34.31,3.74Zm371.6,0c3.26-1.11,8.32-.4,11.22-1.87-.78-.26-1.29-.8-1.27-1.87-4.48.74-4.77-.08-11.2,0-.16,1.83,1.41,1.92,1.25,3.74Zm38.64-1.87c-5.42,3.93-13.61,5.1-19.94,8.09,8.57-.74,14.81.22,23.07-1.23-.13-3.2-.96-5.71-3.12-6.86Zm-400.25,6.24c.6,2.5,3.55,2.67,5.6,3.74,2.41-4.25,13.21-.1,14.97-4.99-4.57-2.08-13.5.66-20.57,1.25Zm363.46-1.25c.02,1.85,1.63,2.11,1.87,3.72,3.75-.4,9.15.84,11.85-.62-1.45-.61-2.01-2.13-1.87-4.35-4.77.09-6.92.48-11.85,1.25Zm-352.86,8.72h5.6c-.51-1.76.87-1.62.62-3.12-2.79-.13-4.73,1.16-7.5,0-.09,1.55.98,1.95,1.27,3.12Zm355.99-1.26c1.09.16,1.43,1.09,1.25,2.5,2.39.31,1.27-2.88,4.37-1.87.38,1.07,1.87,1.04,2.48,1.87,10.55-.34,22.91,1.39,30.56-3.1-12.49-3.02-25.9-.16-38.66.6Zm-357.86,7.49c3.26-.07,6.31-.34,6.85-3.12-3.39-.04-6.83-.18-6.85,3.12Zm360.98-1.87c.2,1.45.76,2.58,1.25,3.75,7.65-1.71,20.03,1.32,23.67-4.36-6.74.55-16.86.82-24.92.61Zm-360.98,5c-.11,1-2.12,3.21-.62,3.72.07-1.36,2.63-.26,3.73-.62.16-.96,2.41-2.9.65-3.74-.09,1.38-2.65.28-3.75.64Zm363.48,1.85c1.09,1.99,9.1,3.08,10.57,0-2.65-.91-7.52.27-10.57,0Zm-397.17,3.12c-.58.54-1.32,3.98,0,4.35-.11-1.34.54-1.96,1.87-1.85,7.47.2,11.24-1.22,19.34-1.24-3.52-4.61-12.56-.19-21.21-1.26Zm-1.23,5.62v3.11c2.32.67,1.76-1.55,3.75-1.24,6.74-.36,16.06-.04,23.67-1.26,2.79-.44,9.24-.73,9.37-4.97-11.69,2.3-26.57,3.94-36.79,4.36Zm400.87-1.27c2.99-.74,6.65-.83,9.99-1.22-1.58-3.98-6.89-.48-10.6-1.87-.54,1.75.87,1.62.6,3.09Zm1.27,3.15c-.11,1.95-.02,3.74,1.23,4.35,1.52-1.81,5.53-1.11,8.74-1.24,1.61-7.22-6-2.72-9.97-3.11Zm-368.48,0c-9.37,2.77-18.76,1.4-27.44,3.74,7.18,4.38,18.56,8.28,26.19,6.86-.45-1.91.62-2.28.62-3.74-6.6-.55-10.22,1.71-16.22,0-.6-3.7,3.68-1.53,5.62-1.87,4.08-.77,9.21-3.03,11.85-1.87-.69-1.59,2.12-3.2-.62-3.11Zm371.58,13.71c1.18.15,1.38-.7,2.5-.62.11-2-2.72-1.03-2.5-3.11,1.56-1.77,5.96-.7,7.5-2.51-3.03-2.89-7.79.65-9.37-1.85.22,3.1,1.76,4.91,1.87,8.1Zm9.97-5.61c8.52-.61,15.91.57,22.44-2.49-6.89,1.39-16.48.13-22.44,2.49Zm-6.85,4.36c11.47-.29,22.24.38,29.29-3.11h-1.25c-7.85,2.54-20.95-.17-28.04,3.11Zm29.91.62c-10.91,2.05-21.35,2.7-32.41,3.11-.42,2.32,1.05,2.69.62,5.01,7.29-4.42,19.47-1.13,29.31-5.01,1.45.2.36,2.97,2.48,2.51.11-.73,1-.68,1.87-.64-.36-1.92.18-4.74-1.87-4.99Zm-413.96,5.62c3.35-.02,3.97-1.09,6.22,0-.51-2.16.91-2.41.62-4.38h-6.25c-.2,1.46-.98,2.33-.6,4.38Zm-.62,7.47c3.32,0,6.45-.2,5.6-4.37h-5.6c.51,2.24-1.43,3.02,0,4.37Zm385.28,6.86c.76-4.73.25-8.45-1.85-10.61.8,3.36.16,8.18,1.85,10.61Zm1.27-9.36c1.92,3.63,8.92.81,12.47-.61-4.55-.2-7.63,1.1-12.47.61Zm1.25,8.12c2.63-.57,4.4,1.63,6.22,0v-3.12c-1.18-1.11-4.1-.46-6.22-.62v3.75Zm-389.67-1.25c-9.68-1.76-19.59-.73-28.06,3.11,15.86-.34,20.72-.89,34.29-3.11-.85-2.01-6.22-2.33-6.22,0Zm-15.59,5.6c-5.35.3-13.23-1.78-13.09,3.75,4.33.69,10.22.42,16.22,0,6.58-.46,16.58-.85,18.69-4.99-5.49-1.07-14.34.81-21.82,1.24Zm404.64,20.57c-.29-7.61.65-16.45-1.9-21.81,1.07,4.02-.54,17.79,1.9,21.81Zm1.87-17.46c3.1.18,2.63.28,4.97.64,1.18-1.56-.51-2.46.62-4.37-2.25-.36-2.68-.65-6.22-.61-.36,2.02.42,2.9.62,4.35ZM3.53,218.15c.89,3.01,5.35,3.03,7.47,3.11,8.41.37,18.72-2.9,26.81-3.74-.36-1.09.76-3.67-.62-3.73-10.8,3.19-24.4.27-33.66,4.35Zm424.58-1.87c-.47-1.41-3.5-.23-4.97-.61-.98,2.42,5.29,2.86,4.97.61Zm-4.97,8.12c7.49-.25,12.65-1.1,18.07-1.27,5.09-.13,11.4,1.44,14.34-1.24-8.41-2.59-20.93-.42-31.81-1.25.09,1.54.09,3.01-.6,3.76Zm-395.92-1.27c3.15.2,3.99,2.68,6.22,3.75,1.99.31,2.45-.89,3.75-1.24v-3.12c-3.17-.47-5.58-.81-9.97.61Zm396.52,5c9.06,2.01,26.17.3,31.81-1.86-.13-.49-.02-1.24-.62-1.25-12.16,1.54-22.35.21-31.19,3.11Zm-390.3,6.86c1.92.46,1.85-1.07,3.75-.64v-4.36h-4.35c-.49,2.36.76,3,.6,5Zm394.67-1.86c-1.65,0-3.55-.25-4.37.61v3.75c7.18-.15,17.82-2.55,22.46-3.75,3.08-.77,8.92,1.25,9.35-2.49-5.76-.89-19.99-1.39-25.56,1.87,1.12.99-2.86,2.57-3.12,1.23.71-.11.98-.68,1.25-1.23Zm-77.32,142.15c38.1-30.3,70.16-80.63,69.22-141.53-3.32,66.92-32.26,108.25-69.22,141.53ZM17.25,244.32c4.97-.27,15.15-.59,20.57-2.48-1.85-.41.62-1.32,0-2.49-7.45-.02-12.23,4.07-20.57,4.96Zm405.89-1.86c2.97-.76,7.38-.08,8.08-3.1-2.72,1-7.25.21-8.08,3.1Zm.6,2.5c-1.85,1.39-.02,2.88-1.23,4.37,3.95-.04,6.63-.08,8.7-.61.04-1.47-1.07-1.84-.6-3.76-2.7-.85-5.06-.64-6.87,0Zm-414.61,1.24c-3.08.8-3.3,2.81-2.48,6.25,12.87-.8,19.23-.98,31.79-2.5-.2-2.7-.09-2.87-.62-4.36-10.11-.96-20.48,5.19-28.69.61Zm413.39,11.23c2.59-3,6.58.75,8.1-1.87v-2.49c-1.7-1.23-5.44-.38-8.1-.62-.67.65-1.29,4.46,0,4.99Zm-414.61-2.5c.42,1.84.18,4.42,1.85,5-.18-1.64.87-2.04,2.5-1.86,10.53-1.16,19.72,1.03,26.81-3.75-9.32-.75-22.8.65-31.16.61Zm413.36,7.49c6.36.54,10.15-1.48,16.22-1.25.27-1.73-3.41.49-3.12-1.25-2.5.26-8.86-.57-12.47-1.24-.04-.39-.09-.75-.62-.62.54,2.28-1.11,3.31,0,4.36Zm-386.55-2.5c-.13,1.19.69,1.38.6,2.5,2.86-.11,2.45-.52,5,0-1.2-1.85.85-3.08-1.25-3.74-.74,1.13-3.26.48-4.35,1.24Zm411.49,4.36c-4.89.06-9.77-.48-14.99,0-3.88.37-9.64.22-11.2,3.11,9.82.08,24.96.04,34.29-2.48-1.07-3.27-7.14-1.8-8.1-.64Zm-410.26,1.87c-.38,2.69,1.09,3.49,1.87,4.99h4.37c-.29-2.01-1.2-3.38-1.25-5.62-2.3-.44-2.68,1.07-5,.64Zm382.82,8.73c.04-.38.09-.74.6-.62,9.28.08,17.96-1.19,27.44-1.87,2.48-.18,6.16,1.71,7.49-1.87-8.74-3.28-27.62.37-35.54.62.6,1.67-1.38,5.2,0,3.75Zm-381.57-.62c-.36,4.22-5.35,3.78-7.47,6.25,4.53-.08,8.83-1.28,14.34-1.88-.09-1.76-1.14-2.59-1.25-4.36-2.48.54-4.6-.95-5.62,0Zm383.45,3.74c-1.52-.67-2.92-2.68-3.75-.62,10.93,2.25,23.69.67,36.16,2.49-.56-2.26,1.12-3.32,0-4.36-12.14-.39-20.32.67-32.41,2.5Zm-5,5.61c2.48-.22,5.98.58,7.5-.62-.31-3.06-7.88-2.55-7.5.62Zm-402.77,6.25c13.25.73,25.97-1,33.66-1.26-.22-2.24-.8-4.18-1.23-6.22-11.89,1.57-26.37-.91-32.44,7.48Zm397.17,11.2h9.32c-.33-4.46-3.81-.69-6.83-3.1v-1.87c1.78-.3,4.73-.3,6.22,0,.22-1.85.98-3.17,1.87-4.36-2.05-1.45-6.25,3-5.62-2.5,2.37-1.65,5.42.51,6.25-1.87-.91-2.94-4.15.3-6.25-1.24-1.38,5.28-3.43,9.86-4.97,14.95Zm-394.67-8.09c-1.43,1.44,1.14,2,.62,4.35,9.39-.95,19.72,2.42,24.32-3.73,2.07,2.09,5.69,2.62,9.35,3.11-.45-1.84-.71-3.86-1.85-4.99-11.47.46-20.59.99-32.44,1.25Zm406.51,8.09c-.29-1.72,3.39.5,3.12-1.23-.94-.32-1.58-.93-2.5-1.25.09.83-2.1,2.33-.62,2.48Zm-376.58-1.23c-.76,2.83,1.72,2.44,1.23,4.99,2.23-.05,3.61-.97,5.62-1.24-.09-4.82-2.25-4.09-6.85-3.75Zm385.3,3.1c-5.06,1.57-21.37-2.67-22.46,3.75,7.63-.09,15.01-.39,25.59-.62.22-2.33-3.01-1.15-3.12-3.12Zm-379.7,8.12c1.54-1.2,2.57.95,3.75-.62-2.01.13-1.52-2.23-2.5-3.11h-3.1c-.02,1.9,1.29,2.42,1.85,3.74Zm355.39-1.87c-.8,4.62-5.69,8.42-5,12.47,3.15-1.37,4.48-.84,8.74-1.26v-3.74c-2.79.21-4.24,2.24-5.62-.61,4.64-3.59,12.58-2.81,20.59-3.13,4.73-.16,11.91,2.01,14.95-3.11-8.7-3.19-24.49,1.09-33.66-.61Zm-363.48,9.35c5.11-.84,10.46-.48,16.19-1.87-2.25-4.45-14.19-2.87-16.19,1.87Zm372.83-2.49c3.26,1.2,16.55,8.76,20.57,4.35-2.83-.25-7.03.81-8.1-1.23,2.12-1.84,6.36-1.55,8.1-3.75-7.14.15-14.39.6-20.57.62Zm-377.83,4.99c-2.05,1.87-5.73,2.16-6.85,5,10.37-1.83,23.27,1.33,31.79-1.26-3.28-9.61-18-1.47-24.94-3.74Zm357.88,8.73c2.97-.37,5.76-.91,9.35-.62,1.16-1.76,2.03-3.79,3.1-5.62-3.93-.32-5.62,1.47-9.35,0-.82,2.29-2.36,3.86-3.1,6.25Zm-331.69-1.87c-8.88,1.64-27.75-.12-36.16,1.25.02,2.26,1.25,3.33,2.5,4.36,7.34-.5,21.97.3,28.66-4.36,1.36.51.54,3.21,1.9,3.74,1.27-1.31,4.93,1.13,6.22-1.25-.98-1.28-1.36-3.22-3.12-3.74Zm329.82,4.36c-.38,1.29-1.32,2.02-1.87,3.11,3.1.91,8.5.12,11.85-.61-1.07-.57-2.16-1.15-1.87-3.12-4.02-.5-5.04,1.74-8.1.62Zm-361.61,4.37c.74.93,1.81,1.52,1.87,3.11,3.61-.54,6.2-2.12,8.72-3.75-5.15.1-7.29-1.28-10.6.64Zm33.66,3.11c2.25-.25,4.17-.83,5.62-1.87-1.9-2.71-3.32-2.38-8.12-2.49.25,2.03,1.83,2.75,2.5,4.36Zm324.2-1.87c-.18,1.47-2.16,1.16-1.87,3.12,5.06.68,17.18.57,21.84-.62-3.15-4.67-12.83-.99-19.96-2.5Zm-320.47,8.11c-1.18,1.29-5.18-.21-4.98,2.5,5.22.55,8.28-.24,13.07-1.26-.11-3.81-6.25-4.94-9.32-3.74.83.41,1.14,1.34,1.23,2.5Zm316.73-2.5c-1.34.95-2.25,2.29-3.1,3.74,9.46-1.92,25.9,1.09,32.41-1.86-7.49-3.12-20.32-.2-29.31-1.87Zm11.87,8.11c7.63-1.77,16.15,1.18,20.57-2.49-7.52-.97-15.41.74-24.32-.62-.07,2.33,3.12,1.44,3.75,3.11Zm-19.97,3.12c3.17-.99,8.21.16,9.37-4.36-2.97-1.79-11.09.03-9.37,4.36Zm-317.33-4.36c-2.05,2.72-5.91,3.64-6.87,7.46,10.13.38,22.04-.1,31.16-2.49-3.55-8.25-17.89-1.54-24.29-4.97Zm354.74,3.11c-5.15,1.22-9.9-.73-14.34.61,1.81,3.48,12.78,3.4,14.34-.61Zm-44.91,8.73c3.52-1.72,10.26-.16,11.24-4.38-5.04-.97-9.41-.5-11.24,4.38Zm-320.45,1.24c1.63,3.84,11.11,3.13,16.84,2.49,4.51-.5,10.15-2.25,9.35-4.99-.16-.49-.02-1.22-.62-1.24-7.49,2.51-19.36-1.05-25.56,3.74Zm34.31,2.49c2.16-1.35,6.29-.76,8.72-1.86-3.17-4-5.87-4.55-13.09-4.36.31,3.21,3.44,3.6,4.37,6.22Zm279.94,1.87c5.98.68,10.73-.55,17.45-.62-3.06-3.7-14.59-4.9-17.45.62Zm-276.21.62c-.2,2.79,4.98,2.54,2.5,5.62,5.22-.16,5.22-.39,10.6-.64-.25-2.43-2.74-2.66-3.12-4.99-5.47.28-7.47-.9-9.97,0Zm-28.66,5.62c.22-3.09,3.97-2.68,4.97-5-3.12.4-7.87-.82-9.97.61,1.67,1.47,2.34,3.92,5,4.38Zm299.24-.64c8.52-.16,19.54,2.03,26.81-2.49-4.71-.59-21.44-1.89-26.81,2.49Zm26.81,3.11c-6.62-1.64-13.36,1.23-21.17-.61,4.53,4.05,17.04,2.58,25.54,1.87-.09-3.22-3.19-2.87-4.37-1.26Zm-298.01,0c-1.16,2.19-2.43,4.22-3.72,6.25,6.91-1.06,17.98-.93,26.17-2.51-1.63-7.42-15.93-2.03-22.44-3.74Zm226.34,22.45c13.65-6.08,25.43-14.04,36.14-23.07-11.69,8.03-23.53,15.94-36.14,23.07Zm38.66-19.32c4.48.32,12.02.39,9.95-3.75-3.06,1.55-9.24-2.28-9.95,3.75Zm-230.71,3.75c-1-.81-4.73-2.76-4.97-2.52,4.01,3.85,8.83,5.56,4.97,2.52Zm271.22-1.26c-5.76-2.73-13.32.3-21.82-1.88,1.47,6.54,17.71,5.36,21.82,1.88Zm-51.75,4.97c4.84,1.08,9.5-3.18,12.49,0,1.29-1.57,4.22-1.58,4.35-4.35-8.5-.11-14.08-1.17-16.84,4.35Zm-236.28-2.49c2.16,3.36,10.98,5.6,15.57,2.49-3.26-3.5-9.06-4.12-15.57-2.49Zm-24.94.62c-.45,2.29-2.36,3.04-3.12,4.99,9.39-.98,22.66,1.88,25.56-5.61-5.62-1.64-15.84,2.62-22.44.62Zm304.26,6.86c2.99-.32,3.64-3,5.6-4.36-4.84.56-6.94-1.64-11.22,0,1.43,1.9,4.37,2.26,5.62,4.36Zm-250.03-.62c-2.14.24-4.1-2.92-4.98-1.86,1.65.81,8.19,5.59,4.98,1.86Zm196.4,2.51c6.6-1.85,13.94.71,18.07-3.76-5.18.13-15.19-2.01-18.07,3.76Zm-216.34-1.89c3.39,4.36,12.47,2.37,17.47,1.89-4.93-3.77-9.7-3.37-17.47-1.89Zm-37.41,1.26c1.54,4.5,15.3,3.1,16.84-1.26-5.58,1.2-12.34.46-16.84,1.26Zm273.69,1.24c-10.13,3.56-26.17-1.55-31.79,5.6,11.58-.48,23.76-.36,34.29-1.86-.13-1.94-1.72-2.42-2.5-3.74Zm-233.78,2.5c-.29,1.6-2.52,4.5-1.25,5.6,8.14-2.98,19.45.88,27.44-2.5-6.2-4.96-18.09-1.72-26.19-3.1Zm-33.04,3.74c1.47-.39,2.9-.85,3.1-2.5-2.52.51-2.14.1-4.98,0-.56,2.01,1.61,1.29,1.87,2.5Zm123.45,15.59c37.5,7.54,80.71-3.55,105.98-17.47-27.97,13.6-69.8,23.22-105.98,17.47Zm127.8-14.35c1.99,6.44,18.76,3.6,21.82,1.87-5.33-4.58-13.47-.17-21.82-1.87Zm-18.72,1.25c-4.75-2.01-11.22,4.41-16.82,5.62,11.27-.58,22.64-1.04,29.29-6.25-4.55-.19-7.61,1.11-12.47.62Zm-180.8.62c-8.25-.09-15.3.31-22.44,1.87-.67,1.39-1.03,3.12-1.87,4.36,11.87.3,20.12-4.9,28.06-4.98,1.87,3.87,9.97,1.94,13.72.61-5.15-3.27-10.46-1.78-17.47-1.87Zm31.79,4.36c-1.32-2.33-9.08-4.45-9.35-3.73,3.41.94,6.13,2.6,9.35,3.73Zm173.96.64c2.12.78,2.37,3.46,5,3.74,2.5-2.03,10.15,0,14.97-2.5-3.93-3.73-13.52-1.72-19.97-1.24Zm-192.65,1.24c2.68-.58,1.7,2.46,3.75,2.5,6.22-.95,10.06-.5,15.57-1.87-6.13-2.71-11.62-1.87-19.32-.62Zm34.31,1.86c-3.44-.75-8.1-3.53-11.24-2.48,3.5.67,8.48,3.14,11.24,2.48Zm110.33-1.24c-6.36,3-14.79,3.92-21.19,6.86,15.42-2.01,32.48-1.27,45.51-7.48-8.79.4-18.87,3.75-24.32.62Zm-184.55,1.87c-.78,1.51-.8,3.78-1.85,4.99,7.05.2,11.69-2.01,18.69-1.88.78-1.91,2.12-3.27,3.12-4.98-6.8.2-13.56,3.28-19.97,1.87Zm97.89,3.75c-9.03-.4-16.46-3.46-22.42-3.75,6.42,1.86,15.28,4.65,22.42,3.75Zm-56.73,0c-.2,1.46-.76,2.57-1.25,3.74,13.67.75,26.55-1.68,38.66-3.74-11.4-2.8-26.26-2.5-37.41,0Zm197.63-1.25c1.85.87,2.39,3.03,5.02,3.11,1.63-.85,2.88-2.11,3.73-3.75-4.04.37-6.09-1.15-8.74.64Zm-29.92-.64c-6.58,1.87-12.02,1.16-18.07,3.12,2.03.23,1.25,3.31,3.75,3.12,5.04-1.41,11.13-1.75,16.2-3.12-.07-1.58-.11-3.21-1.87-3.12Zm-66.07,6.86c-15.21,1.64-40.31.28-57.98,3.12-3.61.58-7.92-.8-7.5,4.37,31.63-7.43,77.54.17,110.98-10.61-15.9,1.91-31.92,1.65-45.51,3.11Zm-141.54-.61c3.23,1.53,6.25,3.32,9.37,4.99,1.67-1.84,2.86-4.21,3.73-6.86-3.99.99-9.55.44-13.09,1.87Zm71.07,0c9.19,2.89,14.57.84,24.34-.62-9.68-1.39-15.28-.52-24.34.62Zm122.22,2.49c3.01,6.42,10.24.67,16.82,1.87.13-.49.02-1.23.62-1.25.13-1.18-.71-1.36-.62-2.5-5.82.54-13.38.82-16.82,1.87Zm-155.26,1.25c4.37,4.21,16.98,1.44,19.32-2.5-5.15,2.1-14.68-.15-19.32,2.5Zm115.98,1.86c1.52.36,1.38,2.35,1.87,3.75,6.76-.52,13.99-.56,18.07-3.75-4.44-3.22-12.67-.3-19.94,0Zm-116.6,3.12v3.12c6.22.52,10.22-2.88,16.84-1.26-.67-1.58,1.9-2.97,0-3.74-3.52.95-10.24,2.11-16.84,1.87Zm79.19,1.86c6-1.48,15.59,1.15,21.19-3.74-5.78,2.54-19.52-2.88-21.19,3.74Zm79.79-1.24c.91.11.58,1.51.62,2.5,5.26,1.24,10.53-.81,14.97-1.26v-3.1c-6.87.31-11.51-.76-15.59,1.86Zm-116.58,1.24c-1.23.11-3.73-2.45-3.12.64,3.88,2.62,16.75,1.96,19.34-2.5-3.84-.84-11.69,1.51-16.22,1.86Zm77.3,1.26c-1.43,1.44,1.16,2,.65,4.35,6.51.02,13.16-1.51,16.2-3.11-1.14.02,1.18-3.13-1.25-3.1-4.22,1.59-9.64,1.99-15.59,1.86Zm-40.51,3.1c4.39,3.77,18.65,2.35,20.57-2.49-8.14.31-16.73-.64-20.57,2.49Zm-79.82,1.25c3.37,2.04,7.09,3.73,11.85,4.37.89-2.26,4.35-5.19,3.12-7.48-5.44,1.84-11.42-.65-14.97,3.11Zm162.73-1.86c-.42,3.35,1.85,3.98,2.5,6.24,1.96.1,3.75.03,4.35-1.24-1.78.11-3.39.07-3.1-1.87,3.39-1.63,6.34-.17,9.97-1.87-.11-.74.09-1.77-.62-1.86-3.12,1.43-8.95.2-13.09.61Zm-122.83,2.49c4.13,3.59,12.25-2.03,17.47.64-.22-1.45.09-2.39.6-3.12-8.28,1.97-11.27-.64-18.07,2.49Zm82.29,1.89c.07,1.78-.33,4.08.62,4.99,5.58.37,9.82-.59,13.72-1.87v-4.36c-6.76.87-7.5,1.08-14.34,1.25Zm-41.16.62v3.73c5.53-1.46,15.75,2.18,18.09-4.97-5.96.81-14.12,2.05-18.09,1.25Zm-40.51,1.86v4.99c3.81-.35,9.9-2.76,15.57-1.86-.29-1.97,1.14-2.21.65-4.37-5.84,0-11.06.58-16.22,1.25Zm41.16,4.99c.56,1.1.2,3.12,1.23,3.75,3.01-2.19,13.34-.78,16.22-5-5.55-.26-11.09.4-17.45,1.25Zm41.76,0c-.42,2.29,1.36,2.39,1.25,4.36,4.33-1.48,10.35-1.28,12.47-4.99-4.46.42-10.17,1.13-13.72.62Zm-67.95,1.25c-5.98-.12-10.02.75-14.34.61,3.21.61,10.84,3.17,14.34-.61Zm27.42,3.75c1.49,3.02,13.87,1.52,14.34-1.25-3.77,1.27-10.53,2-14.34,1.25Z"/><path class="cls-2" d="m303.43,126.5c6.07-1.08,13.85-4.27,21.82-5.61,6.47-1.1,14.92-3.24,20.57,0-7.27,3.3-15.86,2.08-23.69,3.74-19.61,4.17-41.13,13.38-56.1,23.07-5.44,3.5-10.35,8.72-16.86,9.97-.31-3.7,4.19-4.15,6.27-5.62,6.09-4.34,12.69-10.26,20.57-13.7,1.83-.54-1.45-.93-.62-2.5,13.32-6.25,28.2-13.39,43.01-18.71,5.35-1.92,11.22-5.18,16.84-3.74-2.81,5.51-10.66,4.39-16.22,6.24-5.67,1.89-10.78,5.16-15.57,6.85Z"/><path class="cls-2" d="m156.92,90.34c.71-.1,1.11.15,1.23.62.2,11.77-.29,31.78,2.5,46.14.56-12.98-2.25-30.91,1.87-43.03,4.86,2.24.94,9.07.62,13.1-1.76,21.69,4.53,45.91,5.6,61.1-3.12-1.63-2.41-7.14-3.72-10.6-1.36,8.84,4.86,18.81,4.97,26.19-4.93-3.65-4.75-11.08-6.22-16.83-5.55-21.71-8.95-47.83-8.72-74.2.85-.62,1.23-1.67,1.87-2.5Zm8.1,66.72c-.69-1.84-.58-4.43-1.87-5.62.89,1.6-.4,5.4,1.87,5.62Z"/><path class="cls-2" d="m264.15,287.99c3.1-1.68,5.8-3.76,9.97-4.37,3.52,1.86,5.35,5.45,8.1,8.11,5.22,21.92,7.63,66.8-6.85,83.54-1.41,1.62-4.35,2.14-6.25,3.74-2.05,1.71-2.68,4.15-4.35,5-4.24,2.12-12.65,3.17-18.72,3.74-11.69,1.08-22.87-.27-34.91-1.87-13.9-1.84-30.18-2.2-41.16-9.36-4.57-2.99-11-9.64-9.35-14.96,1.83-5.92,11.58-8.28,17.47-12.46,6.54-4.67,11.47-9.5,16.22-14.34,4.26-4.36,9.86-9.18,14.95-15.58,3.81-4.82,8.68-15.56,13.09-17.47,4.73-2.04,10.37.58,15.57-1.86-15.82,1.83-35.65-.12-45.51-8.11.31,2.19.94,4.06.62,6.86-1.2,2.53-2.5,5-4.35,6.86-1.72,7.05-7.94,15.27-15.59,21.2-15.44,12-39.02,25.01-56.1,14.34-2.99-1.87-5.49-6.17-8.75-8.74-5.02-3.98-5.47-3.92-9.35-9.98-10.53-16.51-22.89-37.87-26.79-63.58-1.61-10.55-9.12-33.35,9.35-28.7,4.33,1.09,11.6,6.78,16.82,9.98,15.68,9.65,32.86,22.1,54.25,24.32-32.64-9.27-53.52-32.07-84.17-39.89-1.56-2.17.09-5.47,1.23-6.87,8.32,1.51,14.21,7.43,20.59,11.22,6.54,3.89,12.6,8.04,18.69,12.47-3.41-3.75-9.48-7.85-14.95-11.83-5.29-3.85-11.93-7.44-13.09-13.11,10.64,7.85,21.46,15.54,31.79,23.69,4.64,1.44,8.97,4.19,13.72,6.22,4.4,1.92,10.69,2.45,13.09,6.87-5.8-.42-10.08-2.39-14.34-4.35,7.07,6,20.79,10.79,33.66,13.07.29,1.95-.54,2.78-2.5,2.5,11.33,4.06,16.82,13.95,25.56,20.58-9.79-12.39-20.19-33.77-18.69-56.12.71-10.75,4.51-19.52,9.37-27.43,4.89-7.95,11.22-13.75,17.45-20.59,15.3-6.42,30.47-10.89,46.76-8.72,31.21,8.51,49.14,30.25,52.98,66.1,3.48-5.76.11-16.15,2.5-21.83,20.23-.23,34.85,10.46,51.13,16.21,15.86,12.68,41.29,27.15,36.16,51.77-1.96,9.36-8.08,20.78-13.72,29.29-10.89,16.41-26.05,31.15-36.79,42.4-5.2,3.34-10.17,6.87-18.07,7.48-8.3-7.17-3.93-19.8-3.15-30.55.89-11.53-1.74-29.71-4.97-41.78-3.68-13.76-11.8-25.24-15.57-36.16-5.31,13.41-13.85,23.57-23.07,33.06Zm-64.85-106.62c19.03-1.55,29.96-.97,48.63-.64-11.62-8.6-37.21-7.06-48.63.64Zm51.13,1.87c-14.7,1.47-43.57-2.38-56.1.62-2.74.64-5.06,3.09-6.25,5,23.89-2.64,53.81-.73,72.32-1.88-1.34-3.89-5.67-4.17-9.97-3.74Zm7.47,7.47c-15.57-.61-36.34-.85-50.48,0-7.96.49-21.39-.97-26.21,4.36,27.04,0,63.02-1.34,86.04-1.86-1.78-4.67-6.18-2.38-9.35-2.5Zm13.09,5.62c-17.02.76-54.25-.33-79.17,1.24-3.41.21-12.92-.08-13.12,0-1.63.79-2.32,3.57-3.1,4.99,30.76-.73,65.92-5.41,98.51-.61,1.2-1.99-2.28-3.73-3.12-5.61Zm-21.21,11.21c7.14-.62,21.01,1.41,27.44-1.86-9.88-2.44-21.71-2.3-30.54-3.12.13,2.58,3.46,1.95,3.1,4.99Zm-76.05-2.48c.16,2.23-1.87,2.28-1.87,4.35,7.61.16,18.72-1.27,29.94-1.87,6.13-.3,9.55.16,11.22-3.72-14.75-.32-26.9,3.51-39.28,1.25Zm31.16,34.29c1.14,3.1,5.67,8.01,7.49,10.59,5.04,7.18,19.07,7.94,28.69,3.75,4.55-2,10.42-8.57,11.85-12.47,7.65-21.16-5.55-36.61-24.32-36.77-18.2-.19-30.23,16.98-23.71,34.91Zm48.65-28.7c0,1.87,1.61,2.14,1.87,3.76,9.95.69,18.31-1.2,25.54,0-.49-2.01-1.29-3.69-2.48-5-6.78.87-16.66.46-24.94,1.24Zm-76.07,1.87c-2.39.2-8.19-2.12-7.5,2.5,9.95-1.07,33.73,3.29,34.91-4.97-6.07.09-18.45,1.81-27.42,2.48Zm79.79,5c-.2,2.29.69,3.47,1.25,4.99,7.14,1.18,19.3-2.65,22.44,2.5-6.09,1.67-13.52-1.63-21.19,1.86.82,3.63,5.35,2.39,7.47,2.51,4.6.21,9.57-1.27,16.84-.64-.54-4.64-1.43-8.96-3.75-11.85-5.15-.84-14.79.85-23.07.62Zm-89.16,1.86c.49,2.35-.74,3-.62,5.01,11.33-1.95,21.95-.69,31.19-2.51-.45-1.91,1.07-1.84.62-3.74-6.87-.54-20.52-.65-31.19,1.24Zm5.62,6.87c-2.34.28-7.76.52-6.85,3.73,7.67,1.37,16.55-.8,23.07-1.86,2.23-.37,6.85,1.16,6.85-2.49-4.66-.12-15.59-.27-23.07.62Zm122.2,33.66c13.18,27.03,16.62,63.05,16.84,95.39.6,2.26-3.28.52-1.25,2.49,2.3-.66,5.8-1.88,8.1-.62,5.49-2.1,9.46-7.22,13.09-10.6,1.29-1.22,3.88-1.96,4.97-3.11,1.72-1.76,2.9-5.16,5-7.49,6.38-7.06,12.09-14.22,17.45-21.79,6.2-8.72,17.53-25.4,16.22-36.17-.69-5.72-10.71-16.24-15.59-20.58-15.41-13.69-38.61-27.76-61.7-29.91,1.94,11.88-3.84,21.91-3.12,32.41Zm-129.05-24.32c.02.85-.29,1.36-.62,1.87,7.47,2.21,20.68.18,30.54-.61-1.41-.89-.22-4.35-.62-6.26-10.89.57-21.28,1.59-29.29,5Zm93.51-3.75v3.75c8.63.66,14.59-.37,23.69.62-.22-2.49,1.47-3.81-.62-4.99-7.45-.28-15.17,1.8-23.07.61Zm-1.25,8.72c3.75,3.31,16.04,1.28,24.32,1.87-.45-1.9.65-2.26.62-3.73-9.86.42-18.23-1.03-24.94,1.85Zm-80.44,0c-3.84.35-10.28.47-11.22,3.13,9.41,1.08,22.06.01,29.94-2.5-4.66-1.89-12.25-1.17-18.72-.64Zm-20.57,34.31c-26.55-4.67-53.36-22.89-80.44-33.05-5.8,9.49.36,20.31,3.77,31.18,4.53,14.5,10.02,29.26,16.82,40.52,3.64,5.98,8.01,12.7,11.85,16.84,14.54,15.66,35.22,10.03,51.75-.62,12.36-7.96,23.91-16.76,24.32-34.3-9.37-6.84-17.6-14.82-28.06-20.57Zm99.14-29.94c-.6,1.89-1.27,3.73-1.85,5.62,5.64-.39,11.64-1.71,16.82-1.25,1.94.17,7.61-.59,7.47,3.74-13.07-.26-30.23-1.29-36.16,8.11,8.01-.6,22.53-1.93,34.31-2.49,2.63-3.38,3.5-8.53,4.98-13.11-7.16-1.92-15.15-.02-25.56-.62Zm-88.54,3.76c.94.11.58,1.51.62,2.48,9.95,3.38,21.15-1.34,31.19-1.86-.11-1.77-1.16-2.61-1.25-4.37-10.15.51-21.55.6-30.56,3.76Zm33.69,3.1c-10.49,1-21.01,4.38-31.19,3.74-.02,3.68,4.55,3.17,7.47,3.13,8.01-.15,20.21-1.19,26.84-2.51-.27-2.23-1.58-3.41-3.12-4.36Zm-27.44,11.23c6.63,3.94,15.12-.15,26.17.61.16-1.56,3.19-3.42,1.87-4.35-8.1,2.14-18.34-.55-28.04,3.74Zm43.66,2.48c0,2.09-2.05,2.15-1.9,4.38,20.79.51,38.32-4.94,56.75-3.12.56-2.13,2.77-2.66,2.5-5.61-19.7,1.61-39.35,3.71-57.35,4.35Zm-40.53,1.87c2.57,6.74,10.71,1.82,19.32,3.12.02-1.46-1.07-1.83-.62-3.74-9.1-.83-10.69,2.05-18.69.61Zm37.39,5c-1.38,1.52-2.59,3.19-3.73,4.99,21.86,2.09,34.09-2.87,56.13-3.11.71-1.97,2.83-2.55,3.1-4.99-21.66.02-34.78,3.37-55.5,3.11Zm-31.79,1.25c2.88,7.93,17.18,2.16,20.59,4.36-2.97-6.16-12.27-5.01-20.59-4.36Zm6.85,7.47c10.62,9.66,30.85,3.93,49.26,3.13,4.82-.22,10.91.79,14.34,0,2.65-.64,8.77-5.21,7.47-6.87-22.55,4.02-48.77,2.57-71.07,3.74Zm18.72,7.48c7.63,4.67,26.32,4.05,35.56-1.25-8.75-.89-25.5,1.72-35.56,1.25Zm-3.73,45.51c-7.76,8.59-16.82,18.07-25.59,24.33-3.55,2.53-10.64,3.51-11.22,8.1-1.14,9.12,20.75,13.33,29.94,14.33,16.62,1.83,28.8,3.84,43.03,3.14,6.05-.31,16.53-1.61,22.44-4.36,15.35-7.16,17.09-28.06,18.69-46.77,1.61-18.64-.85-30.91-6.85-43.01-12.89,8.92-28.49,15.16-48.03,17.46-6.67,8.81-14.39,17.94-22.42,26.79Z"/><path class="cls-1" d="m118.79,75.94c-.51.33-1.03.68-1.52,1.02,22.26,16.9,44.48,33.81,66.77,50.7.13-.7.29-1.4.42-2.11-21.86-16.55-43.77-33.07-65.67-49.61Z"/><path class="cls-1" d="m228.88,159.18c-.54.44-1.05.86-1.58,1.28,9.41,7.16,18.85,14.3,28.29,21.45,5.13,2.81,9.84,6.31,13.9,10.52,16.42,12.41,32.81,24.84,49.23,37.23,2.14.53,4.1,1.28,5.98,2.17-31.92-24.25-63.87-48.44-95.81-72.66Z"/><path class="cls-1" d="m409.42,296.22c-12.43-9.46-24.85-18.88-37.25-28.32.51,1.06.96,2.12,1.36,3.15,11.78,8.91,23.56,17.83,35.36,26.71.16-.51.36-1.03.54-1.54Z"/><path class="cls-1" d="m234.72,153.68c-.09.09-.2.2-.29.29,8.32,6.31,16.64,12.63,24.96,18.92-.87-1.19-1.49-2.51-1.78-3.9-7.25-5.49-14.5-10.98-21.77-16.46-.38.38-.74.78-1.11,1.16Z"/><path class="cls-1" d="m127.09,70.31c-.49.35-1,.7-1.5,1.04,20.21,15.34,40.42,30.71,60.63,46.05.16-.7.29-1.39.42-2.09-19.83-15.01-39.71-29.99-59.56-45.01Z"/><path class="cls-1" d="m412.58,286.73c-41.74-31.72-83.45-63.48-125.24-95.17-1.34-.13-2.7-.31-4.01-.56,42.9,32.46,85.84,64.82,128.76,97.22.16-.5.31-.98.49-1.49Z"/><path class="cls-1" d="m415.46,276.97c-36.92-28.05-73.82-56.15-110.76-84.17-1.27-.16-2.52-.31-3.77-.44,37.99,28.77,76.07,57.44,114.1,86.16.16-.52.29-1.04.42-1.56Z"/><path class="cls-1" d="m134.36,66.06c18.02,13.71,36.07,27.42,54.12,41.11.11-.69.24-1.4.4-2.1-17.58-13.27-35.14-26.54-52.69-39.8-.62.26-1.23.54-1.83.8Z"/><path class="cls-1" d="m242.35,145.53c-.45.49-.89.98-1.34,1.51,6.22,4.73,12.49,9.47,18.72,14.19.36-.4.76-.8,1.18-1.16l.07-.04c.07-.07.18-.13.29-.2-6.29-4.78-12.6-9.53-18.92-14.29Z"/><path class="cls-1" d="m248.56,138.29c-.42.52-.87,1.03-1.29,1.53,6.76,5.12,13.5,10.25,20.26,15.37.49-.49,1.03-.91,1.56-1.37-6.85-5.19-13.68-10.36-20.52-15.53Z"/><path class="cls-1" d="m144.27,61.65c15.66,11.9,31.32,23.79,46.98,35.68.24-.6.51-1.2.76-1.78-15.28-11.58-30.61-23.13-45.91-34.71-.6.28-1.2.56-1.83.82Z"/><path class="cls-1" d="m417.96,266.9c-29.94-22.75-59.85-45.54-89.83-68.26-.85-.31-1.69-.59-2.57-.9-1.03-.37-2.1-.69-3.15-1.04,31.7,23.97,63.44,47.91,95.19,71.84.11-.55.25-1.08.36-1.64Z"/><path class="cls-1" d="m253.98,130.49c-.18.62-.45,1.23-.76,1.84,7.47,5.69,14.99,11.4,22.49,17.09.67-.36,1.34-.67,2.01-.98-7.92-5.99-15.82-11.96-23.74-17.95Z"/><path class="cls-1" d="m154.22,57.23c13.85,10.51,27.68,21.03,41.54,31.53.33-.53.67-1.05,1.03-1.55-13.58-10.27-27.17-20.52-40.73-30.78-.6.27-1.23.53-1.83.8Z"/><path class="cls-1" d="m419.9,256.34c-12.47-9.47-24.94-19-37.45-28.48-1.43.02-2.97-.31-4.51-1.16-.22-.12-.42-.27-.65-.39,14.1,10.64,28.2,21.26,42.3,31.89.11-.61.22-1.24.31-1.86Z"/><path class="cls-1" d="m260.49,125.95c8.48,6.46,16.98,12.9,25.47,19.34.45-.16.91-.31,1.34-.45.36-.11.65-.21.98-.31-8.66-6.57-17.33-13.11-25.99-19.67-.6.36-1.2.73-1.81,1.09Z"/><path class="cls-1" d="m164.3,52.96c12.45,9.46,24.9,18.93,37.34,28.37.45-.46.89-.9,1.36-1.33-12.27-9.29-24.54-18.55-36.81-27.82-.62.27-1.27.51-1.9.78Z"/><path class="cls-1" d="m421.04,245.28c-10.13-7.71-20.23-15.42-30.36-23.1-.25.57-.58,1.1-.94,1.63,10.39,7.83,20.79,15.65,31.19,23.5.02-.68.07-1.36.11-2.03Z"/><path class="cls-1" d="m174.74,48.95c11.44,8.69,22.89,17.39,34.33,26.08.56-.38,1.12-.76,1.67-1.11-11.33-8.57-22.66-17.12-34.02-25.69-.65.24-1.32.48-1.99.73Z"/><path class="cls-1" d="m271.06,119.55c-.62.37-1.25.73-1.85,1.08,9.26,7.04,18.52,14.07,27.77,21.08.8-.25,1.58-.51,2.36-.77-9.44-7.14-18.87-14.26-28.29-21.39Z"/><path class="cls-1" d="m421.57,233.72c-10.4-7.9-20.77-15.81-31.16-23.7-.05.35-.05.7-.09,1.04-.04.39-.18.71-.24,1.06,10.46,7.92,20.92,15.81,31.41,23.71.04-.71.07-1.39.09-2.11Z"/><path class="cls-1" d="m187.92,44.78c-.71.18-1.43.4-2.14.6,10.93,8.33,21.88,16.65,32.86,24.95.74-.23,1.52-.42,2.3-.61-11-8.33-22.02-16.64-33.02-24.94Z"/><path class="cls-1" d="m279.88,114.3c-.62.36-1.23.72-1.83,1.08,9.99,7.59,19.99,15.19,30,22.76.8-.26,1.58-.5,2.36-.73-10.17-7.72-20.34-15.41-30.54-23.12Z"/><path class="cls-1" d="m421.77,221.94c-10.66-8.11-21.3-16.23-31.97-24.33.16.91.31,1.81.42,2.7,10.51,7.95,21.06,15.87,31.59,23.83-.02-.73-.02-1.48-.05-2.2Z"/><path class="cls-1" d="m200.1,42.06c-.8.12-1.58.3-2.36.45,11.4,8.67,22.82,17.34,34.24,26.01,1.07-.01,2.16.03,3.23.07-11.69-8.85-23.42-17.68-35.11-26.53Z"/><path class="cls-1" d="m288.87,109.17c-.62.34-1.25.71-1.87,1.06,10.8,8.18,21.55,16.36,32.32,24.52.83-.23,1.63-.45,2.45-.68-10.95-8.3-21.93-16.6-32.9-24.89Z"/><path class="cls-1" d="m420.26,208.85c-11.64-8.84-23.27-17.7-34.89-26.52.42,1.1.85,2.2,1.23,3.31,11.4,8.61,22.8,17.19,34.18,25.79-.18-.85-.31-1.73-.51-2.58Z"/><path class="cls-1" d="m210.83,40.51c13.09,9.93,26.17,19.87,39.24,29.79,1.36.22,2.72.45,4.08.69-13.5-10.22-27.02-20.41-40.51-30.61-.91.04-1.85.09-2.81.13Z"/><path class="cls-1" d="m298.15,104.3c-.36.11-.71.25-1.09.36-.42.12-.87.23-1.29.28,12.63,9.55,25.21,19.13,37.81,28.68,1.11-.05,2.23-.04,3.35.01-12.92-9.8-25.86-19.56-38.77-29.34Z"/><path class="cls-1" d="m415.95,193.64c-13.07-9.92-26.12-19.88-39.2-29.79.69,1.32,1.36,2.64,2.05,3.99,12.6,9.53,25.23,19.04,37.86,28.55-.25-.91-.49-1.83-.71-2.75Z"/><path class="cls-1" d="m225.07,38.65c-.16.11-.33.21-.51.32,15.15,11.49,30.29,23,45.44,34.49,1.27.15,2.59.31,3.95.49-15.53-11.75-31.07-23.46-46.58-35.19-.78-.06-1.54-.09-2.3-.1Z"/><path class="cls-1" d="m413.5,179.79c-35.76-27.14-71.47-54.28-107.26-81.37-.36.55-.78,1.08-1.23,1.57,16.95,12.86,33.91,25.74,50.91,38.61,3.81,1.97,7.27,4.56,10.17,7.67,15.91,12.05,31.83,24.05,47.76,36.07-.07-.74-.13-1.48-.2-2.22-.04-.12-.11-.22-.16-.33Z"/><path class="cls-1" d="m241.71,40.12c16.2,12.3,32.37,24.61,48.59,36.9,2.54.75,4.95,1.67,7.18,2.82-17.4-13.17-34.82-26.32-52.22-39.48-1.18-.08-2.37-.16-3.55-.23Z"/><path class="cls-1" d="m406.83,162.78c-34.04-25.84-68.08-51.69-102.17-77.49,1.36,1.55,2.25,3.13,2.77,4.69,33.53,25.41,67.1,50.78,100.68,76.14-.42-1.1-.85-2.21-1.27-3.34Z"/><path class="cls-1" d="m259.75,41.84c47.07,35.71,94.16,71.41,141.3,107.02-.62-1.3-1.27-2.6-1.92-3.87-45.08-34.22-90.21-68.37-135.34-102.52-1.36-.22-2.7-.44-4.04-.63Z"/><path class="cls-1" d="m281.53,46.42c35.6,26.99,71.19,53.97,106.81,80.92-.8-1.37-1.56-2.75-2.25-4.17-33.04-25.07-66.12-50.09-99.2-75.12-1.79-.57-3.55-1.12-5.35-1.62Z"/><path class="cls-1" d="m313,58.3c20.03,15.21,40.09,30.43,60.16,45.6-1.45-2.01-3.01-4.02-4.69-6.02-14.08-10.68-28.17-21.35-42.27-32.04-3.81-2.3-7.56-4.74-11.09-7.37-.69.02-1.41-.02-2.12-.17Z"/><path class="cls-1" d="m153.95,402.46c2.5,1.08,4.98,2.29,7.5,3.39-29.34-22.27-58.67-44.56-88-66.81.98,1.55,1.92,3.14,2.83,4.71,25.88,19.59,51.78,39.15,77.68,58.71Z"/><path class="cls-1" d="m183.06,412.57c1.63.48,3.28.95,4.91,1.44-42.7-32.44-85.42-64.85-128.16-97.24.74,1.48,1.5,2.91,2.3,4.34,40.29,30.51,80.62,60.98,120.95,91.46Z"/><path class="cls-1" d="m208.2,417.49c-51.37-39.03-102.77-78.03-154.21-116.98.29,1.06.62,2.11.91,3.15,50.26,38.07,100.52,76.07,150.8,114.06.82-.08,1.67-.19,2.5-.22Z"/><path class="cls-1" d="m225.78,418.89c-58.49-44.43-116.98-88.84-175.52-133.17.22,1.01.47,2.02.69,3.02,57.09,43.25,114.22,86.44,171.35,129.6,1.16.16,2.32.36,3.48.55Z"/><path class="cls-1" d="m244.12,420.87c-16.89-12.83-33.75-25.68-50.66-38.5-1.36-.25-2.72-.51-4.08-.79,17.65,13.34,35.31,26.66,53,40.01.58-.25,1.14-.48,1.74-.71Z"/><path class="cls-1" d="m47.5,274.13c15.17,11.53,30.38,23.07,45.57,34.59-.56-1.22-1.09-2.44-1.58-3.68-14.92-11.31-29.85-22.58-44.77-33.86.24.99.53,1.96.78,2.96Z"/><path class="cls-1" d="m135.61,340.93c10.35,7.82,20.68,15.65,31.01,23.48.16-.64.4-1.27.71-1.9-9.61-7.29-19.25-14.6-28.89-21.91-.94.15-1.87.23-2.83.32Z"/><path class="cls-1" d="m40.67,255.38c0,.12.02.23.02.35.85.77,1.63,1.76,2.23,2.99,14.72,11.19,29.45,22.36,44.19,33.53-.33-1.07-.69-2.15-1.07-3.25-15.1-11.45-30.23-22.89-45.37-34.32v.7Z"/><path class="cls-1" d="m147.84,338.26c8.28,6.27,16.55,12.54,24.85,18.81.49-.42,1.05-.81,1.69-1.14-8.12-6.17-16.26-12.31-24.38-18.48-.71.29-1.43.56-2.16.81Z"/><path class="cls-1" d="m255.92,417.91c-14.5-11.02-28.96-22.05-43.46-33.06-1.16-.11-2.3-.22-3.48-.36,14.95,11.28,29.89,22.53,44.79,33.79.71-.15,1.43-.28,2.14-.37Z"/><path class="cls-1" d="m40.71,245.1c13.23,10.04,26.43,20.08,39.69,30.12-.54-1.22-1.07-2.42-1.54-3.64-12.72-9.64-25.48-19.26-38.19-28.88.02.79.04,1.58.04,2.4Z"/><path class="cls-1" d="m157.54,333.66c8.48,6.42,16.95,12.86,25.45,19.26.65-.3,1.32-.59,1.94-.93-8.54-6.49-17.09-12.96-25.61-19.43-.58.38-1.18.74-1.78,1.09Z"/><path class="cls-1" d="m270.26,416.84c-13.45-10.21-26.86-20.42-40.29-30.65-1.09-.06-2.16-.12-3.21-.2,13.63,10.31,27.28,20.57,40.91,30.87.87-.02,1.72-.03,2.59-.02Z"/><path class="cls-1" d="m40.02,232.71c11.91,9.05,23.83,18.1,35.78,27.15-.11-.88-.18-1.77-.2-2.69-11.98-9.06-23.96-18.11-35.94-27.17.13.89.25,1.82.36,2.71Z"/><path class="cls-1" d="m167.38,326.72c-.51.44-1.05.86-1.58,1.27,8.57,6.47,17.11,12.95,25.65,19.4.49-.41.96-.87,1.41-1.32-8.48-6.46-16.98-12.89-25.48-19.35Z"/><path class="cls-1" d="m282.57,414.27c-12.18-9.26-24.34-18.53-36.52-27.77-.87.06-1.79.09-2.68.1,12.43,9.41,24.9,18.81,37.32,28.19.65-.16,1.27-.33,1.87-.51Z"/><path class="cls-1" d="m39.67,220.52c11.09,8.4,22.15,16.82,33.24,25.21.16-.67.4-1.36.71-1.99-10.97-8.31-21.97-16.6-32.95-24.91-.29.61-.6,1.17-1,1.68Z"/><path class="cls-1" d="m174.63,320.3c-.47.46-.94.91-1.43,1.36,8.3,6.28,16.55,12.54,24.83,18.8.4-.5.83-1,1.23-1.51-8.23-6.22-16.42-12.45-24.63-18.66Z"/><path class="cls-1" d="m292.39,409.78c-11.18-8.51-22.35-17.01-33.53-25.5-.65.21-1.32.41-1.99.6,11.33,8.55,22.69,17.11,34.02,25.68.49-.26,1-.52,1.49-.78Z"/><path class="cls-1" d="m180.83,313.24c-.38.51-.78,1.04-1.2,1.55,8.01,6.05,15.99,12.09,23.96,18.12.38-.52.76-1.05,1.09-1.58-7.94-6.03-15.9-12.05-23.85-18.09Z"/><path class="cls-1" d="m41.36,210.03c12.54,9.51,25.07,19.05,37.63,28.55.85-.32,1.74-.5,2.65-.5-13.43-10.18-26.9-20.35-40.35-30.52.05.81.05,1.65.07,2.46Z"/><path class="cls-1" d="m301.94,405.27c-11.36-8.62-22.69-17.27-34.04-25.9-.45.37-.89.74-1.36,1.06,11.29,8.51,22.55,17.02,33.82,25.52.51-.23,1.05-.46,1.58-.68Z"/><path class="cls-1" d="m41.05,195.48c-.04.75-.09,1.51-.11,2.25,28.33,21.5,56.64,43.03,84.99,64.49.4.12.76.27,1.16.38,1.38.37,2.77.71,4.13,1.08-30.03-22.75-60.1-45.48-90.17-68.21Z"/><path class="cls-1" d="m185.36,304.73c-.2.64-.45,1.28-.71,1.92,8.05,6.11,16.13,12.22,24.2,18.3.33-.53.69-1.07,1.05-1.62-8.19-6.2-16.35-12.39-24.54-18.6Z"/><path class="cls-1" d="m312.09,401.03c-12.58-9.55-25.14-19.11-37.7-28.67-.33.44-.65.88-1,1.31,12.36,9.35,24.74,18.67,37.1,28.01.54-.22,1.07-.44,1.61-.65Z"/><path class="cls-1" d="m184.09,291.82c.74,1.23,1.29,2.46,1.63,3.71,9.46,7.16,18.92,14.32,28.4,21.48.36-.52.74-1.05,1.12-1.57-10.4-7.87-20.77-15.74-31.14-23.62Z"/><path class="cls-1" d="m42.32,184.52c-.11.7-.22,1.38-.33,2.08,38.95,29.56,77.92,59.13,116.91,88.65,2.86,1.05,5.58,2.28,8.21,3.71-41.56-31.53-83.19-62.99-124.79-94.44Z"/><path class="cls-1" d="m323.15,397.49h0c-14.66-11.14-29.31-22.3-43.97-33.44-.22.52-.47,1.04-.71,1.55,14.17,10.71,28.33,21.38,42.52,32.08.76-.16,1.47-.21,2.16-.19Z"/><path class="cls-1" d="m188.73,285.89c10.4,7.85,20.79,15.74,31.19,23.6.42-.5.87-.95,1.32-1.42-9.48-7.21-18.98-14.4-28.44-21.59-1.38.11-2.77-.03-4.06-.59Z"/><path class="cls-1" d="m46.98,176.47c-.16.54-.38,1.04-.6,1.52,46.36,35.18,92.69,70.35,139.09,105.43-.29-.33-.6-.68-.87-1.07-.8-1.32-1.63-2.61-2.43-3.92-45.02-34.13-90.06-68.19-135.12-102.25,0,.1-.05.2-.07.29Z"/><path class="cls-1" d="m331.07,391.57c-16.24-12.36-32.46-24.7-48.72-37.05-.13.59-.27,1.19-.42,1.77,15.97,12.06,31.92,24.1,47.9,36.15.42-.29.82-.59,1.25-.87Z"/><path class="cls-1" d="m214.76,293.66c4.64,3.51,9.28,7.02,13.92,10.52,1.05.02,2.07.28,3.06.68.25-.08.47-.18.69-.25-4.33-3.27-8.66-6.56-12.98-9.85-1.56-.29-3.12-.67-4.69-1.1Z"/><path class="cls-1" d="m135.08,233.3c12.65,9.58,25.27,19.2,37.94,28.78-.6-1.26-1.18-2.54-1.72-3.81-10.44-7.92-20.88-15.81-31.34-23.7-1.58-.46-3.3-.81-4.89-1.26Z"/><path class="cls-1" d="m49.35,168.25c11.76,8.92,23.49,17.86,35.25,26.77-.45-1.04-.8-2.11-1.09-3.19-11.2-8.48-22.42-16.92-33.6-25.39-.18.59-.38,1.2-.56,1.81Z"/><path class="cls-1" d="m339.37,385.92c-18.45-14.03-36.9-28.07-55.37-42.11-.04.68-.09,1.35-.18,2.02,18.09,13.64,36.18,27.28,54.25,40.92.42-.28.85-.57,1.29-.84Z"/><path class="cls-1" d="m284.29,332.08c.02.75.04,1.49.07,2.23,7.9,5.99,15.82,11.98,23.76,17.96-.11-.68-.16-1.39-.04-2.12-7.92-6.03-15.86-12.05-23.78-18.07Z"/><path class="cls-1" d="m155.78,237.07c3.77,2.86,7.54,5.72,11.29,8.57-.22-.97-.42-1.97-.6-2.98-3.08-2.31-6.13-4.65-9.21-6.96-.45.49-.94.96-1.47,1.37Z"/><path class="cls-1" d="m52.92,156.81c-.2.58-.4,1.17-.58,1.76,9.19,7,18.38,13.98,27.57,20.95.07-.38.18-.77.31-1.18.09-.26.18-.47.27-.71-9.19-6.95-18.38-13.87-27.57-20.81Z"/><path class="cls-1" d="m233.18,295.65c2.5,1.89,5,3.78,7.5,5.68.65-.3,1.29-.58,1.94-.88-2.21-1.68-4.42-3.35-6.63-5.03-.94.11-1.87.16-2.81.23Z"/><path class="cls-1" d="m346.62,379.46c-8.92-6.78-17.85-13.57-26.77-20.36-.78.18-1.56.27-2.34.25,9.3,7.02,18.65,14.05,27.95,21.08.38-.31.78-.65,1.16-.97Z"/><path class="cls-1" d="m56.26,147.4c-.22.58-.45,1.14-.67,1.73,9.24,7,18.45,14.03,27.68,21.02.27-.58.51-1.18.76-1.77-9.26-7-18.54-13.99-27.77-20.98Z"/><path class="cls-1" d="m156.98,223.54s-.07.07-.07.09c0,.02,0,.03-.02.06,1.34,1.33,2.08,2.74,2.45,4.17,2.03,1.54,4.06,3.09,6.09,4.62,0-.83-.02-1.66,0-2.51-2.81-2.15-5.64-4.28-8.45-6.42Z"/><path class="cls-1" d="m283.67,321.89c8.7,6.59,17.42,13.16,26.12,19.73v-2.14c-8.79-6.68-17.58-13.34-26.37-20,.11.79.18,1.6.24,2.41Z"/><path class="cls-1" d="m354.45,373.46c-8.99-6.83-17.98-13.69-26.97-20.52-.02.03-.04.03-.07.06-.33.4-.65.8-.96,1.22,8.9,6.73,17.82,13.46,26.75,20.19.42-.32.85-.64,1.25-.94Z"/><path class="cls-1" d="m282.17,308.82c9.15,6.93,18.31,13.86,27.48,20.78-.02-.74-.04-1.47-.07-2.22-9.26-7.03-18.52-14.04-27.77-21.07.11.84.22,1.67.36,2.51Z"/><path class="cls-1" d="m255.11,288.39c2.16,1.62,4.28,3.24,6.42,4.85.62-.28,1.38-.66,1.92-.87-2.23-1.68-4.44-3.38-6.65-5.05-.56.39-1.14.7-1.7,1.07Z"/><path class="cls-1" d="m60.1,138.37c-.27.55-.51,1.09-.76,1.64,9.3,7.07,18.6,14.17,27.95,21.23.27-.57.54-1.14.83-1.69-9.35-7.07-18.69-14.11-28.02-21.18Z"/><path class="cls-1" d="m362.33,367.5c-9.12-6.94-18.23-13.87-27.33-20.79-.4.37-.78.76-1.2,1.12,9.12,6.88,18.23,13.74,27.33,20.6.4-.3.8-.62,1.2-.93Z"/><path class="cls-1" d="m308.88,314.9c-14.88-11.31-29.8-22.62-44.68-33.93-.45.46-.91.88-1.36,1.32,3.39,2.55,6.76,5.13,10.15,7.68,3.26-.08,6.25,1.58,7.21,5.45,9.64,7.27,19.25,14.56,28.89,21.83-.07-.78-.11-1.57-.2-2.35Z"/><path class="cls-1" d="m64.76,129.99c-.33.51-.65.99-.96,1.48,9.35,7.1,18.69,14.22,28.04,21.32.33-.55.65-1.09.98-1.61-9.35-7.08-18.72-14.13-28.06-21.2Z"/><path class="cls-1" d="m162.34,203.73c-.13.74-.31,1.46-.45,2.2,2.52,1.93,5.06,3.85,7.61,5.76.27-.62.56-1.26.85-1.88-2.65-2.02-5.33-4.04-8.01-6.07Z"/><path class="cls-1" d="m368.77,360.44c-9.1-6.94-18.23-13.86-27.33-20.8-.33.44-.69.87-1.03,1.28,9.12,6.88,18.27,13.76,27.39,20.66.31-.38.62-.76.96-1.14Z"/><path class="cls-1" d="m374.84,353.11c-9.21-7.02-18.43-14.03-27.66-21.05-.4.38-.76.77-1.16,1.16,9.26,6.97,18.52,13.95,27.75,20.92.36-.33.71-.7,1.07-1.04Z"/><path class="cls-1" d="m269.23,275.21c12.8,9.67,25.59,19.36,38.39,29.02-.13-.86-.29-1.7-.45-2.56-12.25-9.32-24.54-18.63-36.81-27.94-.38.48-.74.97-1.14,1.47Z"/><path class="cls-1" d="m69.98,122.03c-.29.48-.62.97-.94,1.47,9.3,7.08,18.6,14.15,27.93,21.23.36-.51.69-1.03,1.05-1.54-9.32-7.06-18.67-14.11-28.04-21.16Z"/><path class="cls-1" d="m163.85,192.95c-.04.8-.11,1.58-.2,2.36,3.46,2.63,6.94,5.27,10.4,7.91.38-.58.76-1.15,1.14-1.72-3.79-2.86-7.56-5.68-11.33-8.55Z"/><path class="cls-1" d="m274.68,267.4c9.95,7.54,19.9,15.07,29.87,22.59-.29-.98-.6-1.96-.89-2.94-9.32-7.08-18.67-14.17-28.02-21.26-.31.56-.65,1.09-.96,1.62Z"/><path class="cls-1" d="m76.34,117.1c8.77,6.65,17.51,13.32,26.3,19.98.38-.49.78-.97,1.18-1.44-8.77-6.62-17.51-13.21-26.28-19.82-.36.47-.78.91-1.2,1.28Z"/><path class="cls-1" d="m163.45,180.73c.13.93.24,1.83.31,2.73,5.33,4.05,10.66,8.1,15.99,12.13.42-.5.87-1.03,1.34-1.52-5.87-4.45-11.76-8.89-17.65-13.34Z"/><path class="cls-1" d="m381.18,347.78c.33-.33.67-.7,1-1.06-9.44-7.17-18.87-14.37-28.35-21.56-.38.4-.74.8-1.11,1.2,9.48,7.15,18.96,14.3,28.42,21.45.02-.01.04-.02.04-.03Z"/><path class="cls-1" d="m82.72,108.06c-.29.44-.56.86-.85,1.31,9.01,6.84,18.02,13.7,27.04,20.53.42-.45.82-.92,1.27-1.37-9.1-6.89-18.23-13.75-27.33-20.63-.07.06-.11.1-.13.16Z"/><path class="cls-1" d="m160.22,166.38c.29,1.03.56,2.05.82,3.08,8.46,6.42,16.91,12.85,25.36,19.25.51-.46,1.03-.91,1.54-1.37-9.24-6.99-18.47-13.99-27.73-20.96Z"/><path class="cls-1" d="m279.16,258.89c6.29,4.74,12.56,9.49,18.85,14.24-.51-1.01-.76-2.03-.91-3-5.71-4.35-11.44-8.69-17.15-13.03-.25.59-.51,1.18-.78,1.79Z"/><path class="cls-1" d="m387.4,338.76c-9.08-6.93-18.16-13.84-27.26-20.75-.33.42-.69.84-1.05,1.27,9.17,6.9,18.34,13.81,27.48,20.71.27-.41.56-.84.83-1.24Z"/><path class="cls-1" d="m88.12,102.17c9.19,6.98,18.38,13.98,27.57,20.95.47-.44.91-.89,1.38-1.31-9.21-6.98-18.45-13.94-27.68-20.9-.42.41-.85.84-1.27,1.26Z"/><path class="cls-1" d="m156.62,151.7c.25,1.03.47,2.02.71,3.02,12.25,9.31,24.54,18.63,36.81,27.94.62-.4,1.27-.75,1.92-1.14-13.14-9.95-26.28-19.88-39.44-29.83Z"/><path class="cls-1" d="m282.6,249.58c4.28,3.25,8.57,6.49,12.85,9.74-.38-1.04-.69-2.11-.98-3.16-3.77-2.87-7.54-5.73-11.31-8.6-.18.68-.36,1.35-.56,2.02Z"/><path class="cls-1" d="m392.8,330.88c-8.99-6.82-17.96-13.64-26.95-20.47-.29.45-.6.9-.91,1.35,9.03,6.79,18.05,13.59,27.06,20.41.29-.42.54-.85.8-1.29Z"/><path class="cls-1" d="m398.06,322.95c-9.15-6.94-18.27-13.87-27.39-20.8-.24.48-.49.96-.74,1.45,9.08,6.85,18.16,13.71,27.24,20.56.27-.42.58-.8.89-1.2Z"/><path class="cls-1" d="m285.01,237.06c-.04.75-.13,1.48-.24,2.22,2.92,2.21,5.84,4.43,8.79,6.65.04-.75.11-1.5.2-2.23-2.9-2.22-5.82-4.42-8.75-6.64Z"/><path class="cls-1" d="m95.23,95.62c9.17,6.95,18.31,13.91,27.44,20.85.47-.42.89-.88,1.34-1.33-9.15-6.91-18.29-13.8-27.44-20.7-.45.39-.89.79-1.34,1.18Z"/><path class="cls-1" d="m193.97,168.04c-.42-.06-.87-.09-1.34-.18-2.81-.51-4.86-2.7-5.89-5.29-10.97-8.31-21.97-16.6-32.97-24.92.11.92.27,1.84.45,2.75,16.46,12.48,32.88,24.97,49.34,37.47.78-.31,1.58-.52,2.34-.81-3.97-2.99-7.96-6-11.94-9.01Z"/><path class="cls-1" d="m205.77,167.56c3.15,2.4,6.34,4.82,9.48,7.2.96-.15,1.92-.26,2.88-.37-3.28-2.48-6.54-4.94-9.82-7.43-.85.21-1.69.41-2.54.59Z"/><path class="cls-1" d="m152.88,127.43c9.82,7.43,19.59,14.88,29.38,22.3-.09-.87-.16-1.75-.22-2.62-9.75-7.39-19.52-14.76-29.27-22.14.02.81.07,1.63.11,2.46Z"/><path class="cls-1" d="m102.44,88.9c-.04.05-.07.08-.11.13,9.01,6.83,18.02,13.7,27.04,20.55.4-.46.82-.91,1.23-1.35-8.99-6.81-18-13.6-27.01-20.41-.38.36-.76.7-1.14,1.08Z"/><path class="cls-1" d="m284.94,225.04c.07.87.16,1.74.22,2.62,3.15,2.36,6.29,4.76,9.44,7.15.02-.13.02-.24.04-.37.07-.58.2-1.17.38-1.74-3.35-2.56-6.74-5.11-10.08-7.66Z"/><path class="cls-1" d="m402.75,314.54c-9.53-7.23-19.05-14.48-28.58-21.71-.13.57-.31,1.14-.49,1.68,9.5,7.18,19.01,14.35,28.49,21.53.2-.51.38-1,.58-1.51Z"/><path class="cls-1" d="m110.96,81.49c-.47.36-.96.69-1.41,1.07,8.9,6.75,17.78,13.52,26.68,20.26.47-.38.98-.76,1.52-1.12-8.92-6.74-17.85-13.48-26.79-20.22Z"/><path class="cls-1" d="m151.72,112.27c.11.85.22,1.71.31,2.57,10.13,7.68,20.26,15.38,30.36,23.05.09-.75.18-1.47.29-2.22-10.33-7.8-20.66-15.59-30.96-23.4Z"/><path class="cls-1" d="m218.19,165.04c4.04,3.08,8.1,6.16,12.16,9.24,1.36.12,2.7.32,4.04.51-4.59-3.48-9.19-6.95-13.79-10.43-.8.3-1.58.52-2.41.68Z"/><path class="cls-1" d="m281.24,210.33c.47,1.11.89,2.24,1.27,3.38,5.6,4.25,11.2,8.49,16.77,12.73.6-.41,1.25-.75,1.92-.98-6.63-5.05-13.32-10.09-19.96-15.12Z"/><path class="cls-1" d="m406.18,305.22c-10.15-7.73-20.3-15.44-30.47-23.17-.02.68-.02,1.36-.07,2.03,9.99,7.55,19.99,15.1,29.98,22.65.18-.5.38-1.02.56-1.52Z"/><path class="cls-1" d="m170.66,237.49c2.41-22.49,13.54-40.38,34.96-49.16,21.95-9,47.58-3.55,63.53,13.46,1.25,1.35,3.68-.04,3.1-1.82-8.21-25.56-47.92-25.04-68.31-17.75-22.98,8.21-39.44,30.84-34.98,55.49.2,1.02,1.58.65,1.69-.23h0Z"/><path class="cls-1" d="m220.27,266.72c14.95,3.27,29.38.12,39.28-12.25,9.95-12.39,9.88-33.05-1-44.67-1.07-1.11-2.94.03-2.54,1.47,3.77,13.65,6.78,26.67-1.41,39.39-6.85,10.65-22.4,14.21-34.13,14.76-.76.03-.96,1.14-.2,1.3h0Z"/><path class="cls-1" d="m51.24,186.92c10.44-49.17,47.9-91.92,90.95-115.63,49.86-27.44,106.83-32.52,158.03-6.07,3.21,1.67,5.98-2.99,2.83-4.86-49.99-29.96-110.4-21.15-160.21,3.89-45.64,22.96-87.98,69.92-92.22,122.58-.02.37.56.44.62.09h0Z"/><path class="cls-1" d="m156.45,396.81c7.32,12.56,22.84,15.57,36.16,17.69,19.41,3.09,39.22,3.3,58.67.71,53.27-7.07,97.42-38.79,132.26-78.3,2.39-2.72-1.43-6.66-4.04-4.02-33.73,34.34-68.33,63.04-116.29,74.16-17.96,4.16-36.27,4.46-54.61,3.92-14.81-.45-41.56-1.27-51.44-14.57-.29-.44-.98-.07-.71.4h0Z"/></g></svg>