<?xml version="1.0" encoding="UTF-8"?><svg id="Layer_1" xmlns="http://www.w3.org/2000/svg" viewBox="0 0 309.5 306.68"><defs><style>.cls-1{fill:#fff;fill-rule:evenodd;}.cls-2{opacity:.15;}</style></defs><g class="cls-2"><path class="cls-1" d="m201.2,164.21c-1.02-4.52,2.08-8.49,2.58-12.26,6.21,1.03.23,10.38-2.58,12.26Z"/><path class="cls-1" d="m212.15,151.94c5.58.1,2.38,9.31-1.94,9.03,1.11-3.58,1.64-5.91,1.94-9.03Z"/><path class="cls-1" d="m251.49,153.88c1.04-.18,1.11.61,1.94.65-.28,3.37-.18,7.11-3.88,7.08.09-3.13,1.01-5.42,1.94-7.73Z"/><path class="cls-1" d="m255.36,194.5c.74-.09,1.13.16,1.29.66.94,10.22,2.93,28.25,0,36.1-3.97-4.57-1.11-11.19-1.29-16.12-.25-6.29-1.78-12.72,0-20.64Z"/><path class="cls-1" d="m243.76,213.84c1.01-.18,1.11.61,1.91.65.11,6.82,1.91,16-1.27,20.64-2.38-5.39-1.71-16.09-.65-21.29Z"/><path class="cls-1" d="m160.57,171.3c-16.77,5.12-28.17-5.27-27.06-20,1.48-20.24,31.26-20.49,36.1-1.93,1.98,7.66-1.45,16.44-9.04,21.93Zm-4.5-29.02c-15.71-2.95-18.27,15.7-8.4,24.49,4.75,2.2,10.77.24,10.31-.64,10.06-3.97,7.24-22.13-1.92-23.85Z"/><path class="cls-1" d="m193.47,148.08c-1.82,1.72-3.18-.6-5.17-.65-6.64-15.77-22.24-29-41.92-25.79-2.7.51-3.3,3.14-6.44,3.24-1.22-1.23-.07-1.63,0-3.24-5.93,1.6-8.42,6.64-12.9,9.67.25,1.46,3.55-.09,3.23,1.94-10.24,5.49-14.9,31.93-5.17,41.91-.28,1.64-.9,2.96-1.92,3.86,1.06,2.14,3.07,3.36,4.5,5.16,2.03-.32,2.81-1.9,5.17-1.93,7.75,3.29,15.64,6.62,24.5,6.45,16.86-.33,30.52-19.04,30.94-38.05,2.74-.31,9.04-1.1,12.25.65.23,5.19-2.72,9.87-3.88,15.47,7.52-1.95,13.7-5.23,22.59-5.8-.92-2.08-.62-5.4-.67-8.38,4.18.28,2.81,3.53,2.58,7.1-.16,1.21,4.54-1.36,5.17.65-.46-.98-.14-5.24,1.29-7.75,4.96-.15,1.2,4.6.65,6.45.69,1.46,4.04.24,5.81.65,1.02-4.26-1.15-4.8,0-7.75,4.2-.17,3.25,5.74,2.56,7.1.18,1.36,1.73-.93,2.58.65,2.35-2.09,1.01-4.04,1.29-5.81,2.24-.51,2.75.72,3.88,1.29.78,2.94-1.78,2.53-1.29,5.16,3.48-.17,1.48-5.84,5.14-5.81,1.89,2.35-.48,4.76-1.27,6.44,1.06,1.08,3.09,1.19,3.85,2.58,2.33-.46,1.84-3.74,4.52-3.86,1.87,2.51-1.08,4.65-2.58,5.8,1.98,3.95,2.91,10.3,1.94,16.12-5.19,30.51-42.29,63.24-69,72.85-10.68,3.84-25.54,3.66-28.35-6.45-4.66-16.76,5.47-43.34,10.96-58.04-5.33,1.86-13.03.69-15.48,3.87-1.22,1.15-.48,4.26-3.23,3.88-3.88-5.73-13.47-15.29-19.98-10.31,1.29,4.4,5.26-1.4,7.73.63,1.64,2.62-3.6,3.04-5.17,4.52,1.29,4.99,7.63-2.41,10.98.65-.28,4.24-6.69,2.32-9.02,4.52-.48,1.97,1.11,1.89.62,3.87,3.11-1.4,5.77-3.29,10.33-3.23v3.23c-3.99.01-5.72.82-9.04,2.57.23,1.52.76,2.67,1.29,3.88,3.11-.11,3.46-2.99,7.1-2.58-.11.75.14,1.14.65,1.29-.37,4.15-7.91,1.1-6.46,7.09,4.13.22,4.66-3.33,7.08,0-1.2,1.81-3.51,2.49-5.79,3.23v4.52c2.74-.05,7.27-2.26,7.08,1.93-2.12.53-3.34.59-6.44,1.28v5.17c1.52-.46,5.98-1.7,6.44.64-1.22,2.78-8.72,1.13-6.44,6.45.48,1.27,3.6-2.17,5.14,0,.25,3.9-5.86,1.45-5.14,5.8,1.22,1.69,3.46-1.46,4.52,1.3.74,3.33-4.5.67-4.52,3.22.21,2.13,2.79-1.69,3.21.65.3,3.93-4.96,2.33-4.5,6.45-3.85-1.19-9.53,2.27-15.48.63-20.74-5.67-40.62-24.46-53.5-40.61-6.46-8.08-17.09-24.04-18.71-36.11-1.57-11.6,7.13-18.95,18.71-17.4,2.49-.71,3.71-2.71,6.44-3.22.74.77.71,2.28.65,3.86,3.14-.72,2.42-5.31,7.08-4.51,1.84,2.17-1.55,3.22-2.58,4.51,1.78.99,3.16-.22,5.17,1.29,3.83-.69,1.5-7.52,6.44-7.09,1.78,2.73-1.43,5.19-2.56,7.09,4.87,4.85,6.07-9.93,10.96-5.16-1.41,2.68-3.53,4.63-5.17,7.1.23,1.71,3.3.58,3.88,1.93,3.02-4.06,5.03-9.15,8.4-12.89,10.03-.7,9-12.46,13.54-18.69-13.2,5.8-36.43,15.74-54.81,12.24-1.75.58,1.96,1.44,0,2.58-6.87,0-15.92-4.53-16.77-11.6-2.63-21.71,17.62-45.55,26.44-58.03,14.93-10.43,26.21-25.57,48.35-28.36,7.41-.95,13.4.28,19.98-1.93.95,1,2.61,1.27,1.94,3.86,1.34.39,4.24-.8,4.52.65-1.18,4.12-5.63,1.15-8.4,3.22.62,5.21,4.48.37,6.46,3.22.18,2.88-2.1,1.31-3.88,3.22.14,1.82,2.1,1.76,2.58,3.24.62,2.33-2.91.53-2.58,2.57-.32,3.02,1.59,3.41,3.23,5.8-3.94-.35-5.05,10.2-.65,10.32.25,3.04-4.57,1.02-3.23,5.16-.53,2.47,3.11.76,2.58,3.23-.21,2.6-5.47.12-3.85,4.52,1.11,1,6.6-2.62,6.44,1.93-2.74,1.97-9.09.38-9.04,5.16,1.36,1.32,3.58-1.99,6.46-1.29-.12.75.16,1.15.65,1.29-.58,4.35-8.17,1.72-9.02,5.81,1.82,1.45,5.08-2.94,7.73-.65-.81,4.78-8.42,2.76-9.67,7.1,3.35-.32,7.13-4.08,9.67-1.3,2.31-.91,2.88-3.56,2.58-7.09,1.89-.57,1.98-.57,3.88,0,.76,3.33,1.59,6.59,3.85,8.39,19.49,2.22,27.08,16.35,35.48,29.65Zm-54.81-93.49c2.35,1.83,5.72.63,8.37-.65-3.74-.62-6.9-1.2-8.37.65Zm-68.33,39.97c-7.01,12.99-16.38,23.61-15.48,44.49,2.35,2.38,5.44,7.45,9.02,6.45-.42-.73-3-2.49-1.29-3.22,4.98,2.94,12.32,3.05,19.33,1.94,14.9-2.38,31.37-8.56,41.29-14.18,12.9-17.61,22.91-50.9,7.08-70.28-30.73.86-44.94,18.26-59.96,34.82Zm116.68,76.73c2.38-.65,3.85-2.16,6.46-2.59.39-5.83,3.48-9.42,3.21-14.18h-2.56c-1.22,6.74-3.81,12.12-7.1,16.77Zm-82.52-3.88c1.22.28,1.61,1.39,3.21,1.29.69-3.96,4.89-7.43,3.9-10.96-4.27,1.32-5.7,5.48-7.1,9.67Zm5.81,3.24c4.06-1.3,4.31-6.41,6.44-9.68-.92-.14-1.11-1.05-1.94-1.28-.44,4.38-5.26,7.49-4.5,10.96Zm-35.48-3.24c-9.23-.72-13.82,1.27-19.33,4.51,6.69,40.39,34.7,65.02,69.62,79.3,1.5-2.9,5.35-.52,7.75-3.21,4.66-44.5-19.24-77.57-58.04-80.6Zm39.33,5.16c3.16.49,3.48,3.82,7.11,3.87-1.89-2.64-2.72-6.32-5.19-8.38-.32,1.83-1.52,2.74-1.91,4.52Zm70.91,4.51c-19.61,13.53-27.43,46.22-22.56,73.5,4.45,4.22,12.16,1.97,16.77,1.3,5.88-4.27,14.56-5.64,21.27-10.32,3.69-2.58,6.94-6.66,10.96-9.68,3.97-2.96,9-5.14,12.25-8.38,4.8-4.76,9.43-12.69,13.54-19.99,5.17-9.2,13.89-23.75,5.17-32.23-18.89-8.53-40.32,2.39-57.39,5.79Z"/><path class="cls-1" d="m163.8.43c2.19,9.3,2.54,16.1,3.88,25.79,18.15,5.22,16.68-10.09,19.98-21.27,7.15-1.6,13.43,2.78,20.62,3.22-.85,6.76-2.54,17.99-3.85,26.43,1.91,3.23,7.36,2.96,9.69,5.8,4.96-5.76,9.07-12.41,11.58-20.62,7.47,1.74,15.66,3.84,16.77,10.32,1.29,7.59-6.39,15.31-8.37,21.92,1.18,2.67,4.38,3.33,5.79,5.8,6.99-4.42,11.77-11.02,17.39-16.76,8.19-.91,9.3,8.62,16.12,10.96-4.78,7.66-11.33,13.59-16.75,20.64,1.82,2.69,3.23,5.8,5.79,7.73,6.34.93,16.61-12.5,21.27-10.96,5.31,1.76,3.34,12.24,10.31,14.19-5.14,8.81-15.87,12.07-22.56,19.35,2.68,16.05,15.39,4.17,29.02,4.51,4.27,4.79,3.81,13.85,4.52,19.34-7.7,1.12-12.37,4.09-21.29,5.16.28,2.95-1.29,3.7-1.94,7.09,8.56,3.63,20.44.19,27.73,4.51-1.02,8.92-3.37,16.09-1.27,21.93-7.29.17-15.89.55-26.46,1.28-2.44,1.18-2.79,4.5-3.85,7.09,8.72,5.24,17.85,10.09,26.44,15.48-3.48,3.78-4.89,13.59-7.1,20.62-8.44-1.85-15.27-5.36-24.48-6.44-3.3,2.3-4.84,6.35-7.11,9.68,6.34,6.76,14.21,12,21.29,18.05-5.05,5.07-7.04,13.17-12.9,17.4-5.65-5.76-14.05-8.75-21.29-12.9-4.11,1.5-6.5,4.69-9.02,7.75,1.87,10.6,11.44,13.47,14.81,22.56-4.18,4.63-10.57,7.04-14.16,12.25-9.55-2.7-11.05-13.39-20-18.05-2.88,1.83-6.23,3.23-9.02,5.16.67,7.61,6.44,14.81,8.37,23.21-7.2,3.1-12.37,8.26-21.27,9.68-.37-9.14-8.17-15.71-12.9-22.57-4.66.95-10.33.85-14.19,2.58,1.64,11.08-2.31,17.73,1.29,25.79-5.31,2.75-14.69,1.06-22.56,2.57-3.16-7.38-2.63-18.43-5.17-26.43-4.78.21-9.5-1.19-13.54-1.93-5.38,6.65-5.84,18.24-10.96,25.13-7.45-1.35-14.03-3.58-20.65-5.81-1.29-7.79,6.78-16.33,5.19-22.55-1.13-4.36-6.02-3.38-9.67-6.45-2.84,3.27-9.46,8.97-12.9,13.54-2.28,2.98-2.33,6.59-5.81,7.09-5.51.78-10.24-6.26-15.48-8.37,4.48-7.57,7.22-16.84,11.6-24.51-2.65-2.73-4.84-5.91-8.37-7.73-6.71,4.88-14.05,9.18-18.71,16.12-7.5-2.39-10.82-8.93-15.48-14.19,6.6-5.87,12.04-12.9,18.06-19.33-1.02-4.57-3.11-8.07-5.79-10.97-9.25,3.45-15.59,9.78-25.79,12.26-3.3-5.32-6.32-10.88-8.4-17.41,7.29-4.97,13.08-11.42,21.27-15.47-.65-4.06-2.14-7.3-3.21-10.96-8.6,1.39-17.46,5.65-25.79,5.15-1.54-7.04-4.96-14.95-4.52-21.93,10.22,2.05,16.1-5.22,25.14-6.44-.41-3.71.53-8.04-1.29-11.61-6.57-1.8-15.32-1.44-22.56-2.58-2.01-8.48-1.38-15.43,1.29-23.85,9.11.21,16.56,1.19,26.44,0,1.38-3.35,2.81-6.64,3.21-10.96-6.44-4.72-15.39-6.93-22.54-10.96-1.8-9.66,4.31-16.22,5.14-23.21,7.96.33,16.17,6.68,25.79,9.02,3.67-3.19,3.81-9.94,7.73-12.89-4.06-3.27-9.76-5.29-10.96-9.68-2.08-1.35-4.54-2.33-7.08-3.21-.76-10.2,8.14-15.19,12.87-21.93,5.4,7.93,14.88,11.78,23.23,16.77,3.88-2.12,7.98-4.05,10.31-7.73-4.41-7.41-8.58-15.06-14.19-21.29,4.15-7.44,11.19-12.01,18.71-16.12,1.36,9,11.21,14.39,16.75,21.29,4.82.53,6.16-2.46,9.67-3.23-1.64-8.45-6.83-16.8-7.08-24.49,4.34-2.12,12.67-4.32,21.27-6.45.9,10.5,5.84,16.95,9.69,24.5h9.67c5.44-4.79.58-20.61,3.23-26.44,5.74-1.05,13.5.18,19.33,0Zm-39.33,20c-.39-1.94-2.93-6.64-3.88-5.17.83,4.9,1.66,15.51,1.96,22.57.07,2.25,2.79,5.59-1.29,5.8-2.05-11.92-2.68-25.27-5.19-36.75-2.08,9.25.02,21.85,0,29.66,0,3.32,1.82,9.73-2.56,10.31.85-13.47-.53-24.37-2.56-38.03-7.15,5.9,5.68,27.27-1.29,34.81-.21-2.17.83-5.58-1.96-5.16-1.29,4,2.81,9.58-1.27,10.32-2.93-1.38-.39-8.2-3.23-9.67-4.94,1.59,1.36,12.09-3.85,12.25-1.57-2.74-.21-8.4-2.61-10.31-1.75,2.87,3.34,12.55-1.29,14.18-3.53-4.42.48-19.82-5.14-19.99.74,4.26,2.21,18.03-1.91,17.41-.35-6.98.09-18.03-3.25-23.86.12,8.56.07,17.17.65,23.86.25,2.85,3.64,7.38-.65,9.02-1.71-9.58-3.69-23.59-3.23-37.39-2.01.3-1.68-1.74-3.21-1.94-.19,10.56,1.73,21.49,2.58,30.31.58,6.08,1.04,14.45-1.94,17.4-.67-3.96-1.48-10.1-1.29-12.89-6.51,1.24-.44,15.05-5.17,18.05-2.56-3.51.6-9.07-1.94-12.89-4.52,2.55.48,14.64-3.21,18.05-3.92-2.75.05-13.38-3.23-16.77-3.39,4.77.41,16.74-1.94,22.57-6.57-4.81,1.85-24.3-5.14-27.07-.92,10.74,2.24,29.03.62,39.97-4.8-1.22-.62-11.4-3.85-14.19,2.84-9.16-.6-19.51-1.29-27.72-1.78,17.38,2.26,45.23-2.58,61.9-3.78-9.64,1.36-24.52-.65-35.47-2.72,1.37-2.44,5.72-4.52,7.73,1.41-.12,2.05.53,1.94,1.94-2.77,24.96,1.48,43.29-2.56,69.63-1.89-.82-1.82-3.25-1.94-4.5-2.21-22.82,2.42-37.52,1.29-62.54-2.24.52-2.49-.95-4.52-.65,1.71,35.57-.69,73.49,2.58,106.39.07-9.35-3.58-22.2,3.85-25.79-.83,8.06-2.49,26.77-.65,35.46,2.54-7.49-.44-17.75,3.23-23.85,4.18.87-.14,6.72,1.94,9.01-.65-1.94,1.43-1.14,2.58-1.28.97,11.59-5.17,25.51,2.58,30.94.69-4.99-3.58-16.81,1.94-21.29,2.4,6.38-1.91,19.17,1.91,26.45.9-4.52-2.42-14.46,2.58-17.42,2.03,9.42,0,27.9-1.29,36.11,11.05-2-.37-19.52,6.46-25.79,4.54,3.15-2.79,18.73,3.85,20,.69-6-2.63-13.29,2.58-15.49,2.56,8.07-3,18.08,3.23,21.92.92-5.31-2.42-14.89,3.23-15.46,1.2,4.54-1.59,10.36-.64,16.77,7.2,3.29-1.64,14.73,3.85,18.06,2.81-9.72-4.45-23.48,1.94-32.9,2.26,8.41-.09,21.28,2.58,30.3,2.47-5.72-2.49-22.2,3.88-21.91.25,9.04-1.25,18.7-.65,27.08,8-1.45-.05-18.95,6.46-21.93,2.28,5.08-2.19,12.96,3.21,14.84.3-4.65-1.11-11,2.58-12.26,3.11,2.65-3,15.64,4.5,15.47.32-5.28-.97-12.16,3.25-13.55,1.15,3.33-.74,8.98-.65,11.61,5.44,2.21,2.72,13.31,2.56,19.36,6.11-4.21.14-20.51,5.14-25.8,3.41,7.19-.32,18.02-.62,25.8,8.1-1.01,1.36-16.24,6.44-22.58,3.71,8.43-1.66,23.9,0,33.52.55-2.23,1.13-4.46,2.58-5.8.07-2-2.03-1.84-1.29-4.52,3.25-9.76-2.88-19.7,4.52-25.14,1.18,3.22-2.61,9.49.65,12.9,2.49-3.96-1.27-11.02,3.88-12.9,2.31,3.78-1.64,9.83.62,13.54,1.2-3.27-1.43-9.38,3.23-11.61,2.26,4.16-2.03,9.42,1.29,12.25,3.51-2.09-1.24-12.41,3.88-12.9,3.78,2.25-3.46,13.17,2.56,13.54,2.86-2.17-1.66-14.79,3.88-14.19,1.22,2.94-.74,8.28,0,12.9,3.37-.55,3.02,5.96,3.88,5.81.44-6.93-3.16-15.85,1.27-19.35,2.79,7.45-.05,25.32,2.61,32.24.18-3.53-.37-8.73,2.56-5.81,1.36-9.49-2.72-18.88,1.31-23.85,5.08,3.77-1.57,14.11,3.21,17.4.69,5.43-.92,13.52-.65,20.62,2.86-4.89,2.93-13.95,2.58-23.85-.18-5.27-3.46-14.42,2.58-16.76.9,6.2-2.03,16.21,1.92,19.35,1.89-5.23-3.67-17.22,3.23-18.71,1.11,4.47-3.02,14.2,3.88,12.9,1.08-2.55-2.49-13.66,3.23-13.54,1.89,3.79-2.81,11.06,1.29,12.26,3.32-3.33-.81-14.15,5.14-14.83.51,5.01-.83,8.18-.65,12.89,2.35-.43,2.91-1.9,4.52,0,1.18-5.16-3.21-12.52,1.29-14.84,3.67,4.29-1.41,17.3,3.23,20.64,3.11-7.3-.92-18.22,3.85-23.21,1.61,6.84,1.41,20.08,1.29,25.78,1.59,5.81.85.79,1.29-1.93,1.15-7.52-.55-25.61,4.52-27.73-.32,4.6.09,9.12,0,13.55-.11,4.33-2.86,10.82,2.56,12.24,1.66-8.62-4.04-26.21,5.17-29.66.76,3.49-.35,10.3-.62,14.83,9.6-.37-1.41-19.95,7.06-22.57.81,4.61-.25,10.48,0,15.48,6.99-.86-.42-13.13,5.17-17.42,3.23,6.51-2.7,21.5,3.88,22.58-.88-.43-1.22-1.39-1.29-2.59,2.61-7.54-1.68-20.9,1.94-26.43,3.71,2.52,1.2,11.27,1.91,16.77.07,1.24,2.51-1.12,2.58,1.29-.92,4.91-.74,8.17.67,12.24.95-8.89.78-21.89.62-31.59-.05-2.45-2.61-7.42,2.58-7.73-.07,4.88.97,12.26.64,19.34,3.81-1.35,5.1-5.21,8.37-7.1-.88-1.79,1.04-3.36,1.29-5.16,1.2-8.3-3.69-20.13,1.29-25.78,2.28,4.76.9,17.05,1.29,27.08,2.58,2.13,4.73,4.71,9.02,5.16-.51-12.85-.3-26.9-.65-36.75-.32-9.64-3.71-25.42,1.32-32.88,1.52,15.05-.76,31.75,2.56,43.84,3.18-28.74-1.66-61.83-3.23-88.96-.6-10.63-1.04-20.63-1.94-28.37-.44-4,.85-8.92-2.56-11.61,1.11,22.56,5.54,52.32,3.85,71.56-5.12-16.38-3.28-40.22-5.79-63.18.28-1.27-.25-5.93-.65-2.58-1.61,12.68,3.09,24.07-.65,32.24-4.48-24.24-1.82-40.72-4.52-63.83-2.93,8.77-.14,19.97.65,29.65.25,2.98,1.82,8.58-1.29,10.32-2.95-10.1-2.7-26.29-3.85-36.11-3.94,8.81,1.31,23.39-2.58,30.96-2.14-3.92-1.13-10.45-1.29-14.83-.16-4.41.49-10.19-2.56-13.53-3.07,6.64,2.72,19.11-1.94,23.21-4.15-7.47,3.3-26.06-6.46-29.01.14,5.62,2.1,15.71,0,19.34-4.59-2.1-2.42-9.08-2.58-14.18-.35-10.04-.49-21.95-2.58-29.66-2.84,10.69,2.49,28.45-2.58,35.46-2.65-7.71.94-19.46-2.56-27.08-5.54,4.74,3.25,20.54-4.52,21.92-.05-7.63,2.12-14.49-3.88-18.06-1.22,4.19,1.59,8.44-1.29,10.96-5.17-.85,1.68-13.72-4.5-13.54-1.98,2.77,1.98,9.93-2.58,12.26-.05-8.51-4.11-15.96-.65-22.56-4.73-3.25.46-16.37-3.23-20.64-.88,9.69,1.43,21.24,0,33.52-.23,2.12,1.48,5.91-1.94,6.45-1.34-12.83.05-28.41-1.94-40.61-1.5-.2-2.42-1.02-4.5-.65,2.24,10.71,2.7,23.7,1.94,37.39-4.43-.19-1.82-4.84-1.94-7.1-.35-6.83-.97-14.98-1.94-21.92-.95,2.28-1.25,5.22-2.58,7.09,1.66,4.2,4.34,17.72,0,19.99-2.47-3.13,2.28-13.45-3.85-12.89-2.21,2.12,2.1,7.56-1.29,9.02-4.11-1.31.35-8.47-4.52-9.66-1.87,3.59,1.36,9.39-1.94,12.24-3.3-3.46.23-10.28-3.23-12.9-3.69,2.89,2.35,12.06-1.27,14.83-3.9-3.2-.71-13.48-5.81-15.47-.64,4.01,2.65,10.47-.64,12.9-3.85-11.01-1.85-23.99-5.79-37.4-3.76,9.67,4.54,23.17,1.27,36.1-3.69-2.34-1.64-8.09-1.91-11.6-.53-6.18-2.65-12.42-3.88-18.06-.25,12.01,1.36,21.33,0,29.66-3.09-.95-2.68,1.61-5.17,1.3-.02-4.92.35-10.24-1.29-13.55-4.29,1.41-.99,7.89-3.21,10.96-5.01-1.18.51-7.12-3.88-8.38-1.89,1.97.83,8.55-1.94,9.67-3.53-.6.48-8.01-3.21-9.67-.62,3.47,1.36,9.53-1.29,10.96-2.84-5.46-1.57-11.07-5.81-14.84.16,4.2,2.49,12.17,0,14.84-4.34-4.06-1.34-15.22-2.58-21.28Zm26.44,14.83c-1.06-9.84.97-22.3-3.23-30.3,1.61,9.73.92,19.45,3.23,30.3Zm12.9-10.96c.72-5.31-.6-9.2-1.94-12.91.28,5.81,1.43,16.61,1.94,12.91Zm-86.39,22.56c-.99-9.43-.05-16.82-3.23-23.86-.85,8.15-1.25,18.3,3.23,23.86Zm151.51,3.23c3.39-7.12.37-14.74,1.29-25.14-.83-.05-.9-.83-1.94-.65-.76,6.53,1.36,14.91.65,25.79ZM67.1,31.38c1.25,2.21,2.28,4.59,4.5,5.81-.32-3.75-.67-7.49-1.91-10.32-.76,1.62-2.58,2.17-2.58,4.51Zm167.62,12.26c-.85-1.93-.64-4.93-.62-7.73,0-2.81-1.11-.1-.67,1.29.35,2.74-.48,7.64,0,8.39.32-.77.69-1.47,1.29-1.94Zm24.5,21.28c-2.05-4.79,1.27-15.03-1.94-18.69.42,6.47-.53,14.3,1.94,18.69Zm-5.79,5.81c3.18-2.49,1.2-17.16,0-21.28-.14,4.3-1.61,14.08,0,21.28Zm11.6-14.83c3.04-.52,3.04-4.63,0-5.16v5.16Zm-220.49,8.38c-.12-4.45-.16-8.4-1.31-9.67.58,3.1-1.27,8.6,1.31,9.67Zm3.85,10.32c3.07-6.51-.09-11.34.64-20.63h-1.94c.39,9.16-.6,16.63,1.29,20.63Zm232.09,16.12c2.86-1.14,1.48-13.04,0-16.12.51,5.36.69,8.83,0,16.12Zm5.19-3.22c.71-1.42,2.14-2.14,2.56-3.88-1.45-1.34-1.98-3.59-3.21-5.16.65,3.95-1.43,7.22.65,9.03Zm-17.42-3.88c1.31,3.55-.42,6.4.65,9.67v4.52c.88,2.05.62-2.27.62-3.22.42-3.67-.83-9.02.65-11.6-.07-.8-.18-1.53-1.27-1.3-.12.76.09,1.83-.65,1.93Zm9.02,9.67c-.42-3,2.54-8.79-.65-10.31.58,4.79-1.48,8.4.65,10.31Zm-14.83-7.09c.88,36.36,6.81,75.96,5.81,113.48,4.04-1.21,1.31-5.56,1.27-7.74-.39-39.3-1.59-71.6-5.14-107.67h-1.94v1.93Zm10.96,10.32c.85-.48,0-6.9-.62-5.81.39,1.76-.83,5.12.62,5.81Zm-246.28,13.53c3.64.55,5.44,3.77,9.02,2.59-1.75-7.73,1.41-13.96-1.29-19.35-4.08,3.45,2.44,13.21-2.58,16.76-3.44-4.26.92-16.39-3.85-19.34-.65,6.24,1.41,15.18-1.29,19.34Zm-3.88-2.57c-1.85-.95-2.58-2.98-3.88-4.51,1.04,2.53-2.77.22-2.56,1.93,2.01.37,7.01,3.84,6.44,2.58Zm272.74,17.42c2.77-1.86.85-12.03,0-12.26.14,6-.94,8.09,0,12.26Zm-7.1,1.93c-1.22-4.65,1.66-10.13-1.29-13.54-.46,2.99-2.4,12.58,1.29,13.54Zm-5.17,1.29c0-4.04,1.5-10.17-1.29-14.18,1.2,4.48-1.78,10.76,1.29,14.18Zm-8.37,14.19c1.55-5.51,1.04-22.23-.62-26.44-.16-.5-.55-.75-1.32-.64.97,9.96.74,17.24,1.94,27.08Zm4.52-19.99c-1.57-14.33-1.5.28-.65,1.94.12-.77-.11-1.84.65-1.94Zm-245.01,41.92c.02,12.26-3.11,24.21,2.58,32.23-2.4-22.49,2.86-53.98-1.94-78.01-2.84,13.71-.65,31.45-.65,45.78Zm235.97-22.58c1.48-3.85,1.31-18.94-1.29-21.92,1.08,4.74,1.27,13.17,1.29,21.92Zm21.94-16.75c-1.18.02,1.22-3.26-1.31-3.24-.18,1.36-.07,5.58,1.31,3.24Zm-275.3,13.53c-.21,3.95-1.22,9.49,1.91,10.96,2.38-3.74,1.8-15.47-1.27-18.06.48,2.34-.53,4.87-.65,7.09Zm5.79-5.16c1.24,6.74-1.85,13.84,3.23,16.76,1.61-5.23-1.85-13.81-.65-18.7h-1.94c-.09.76.12,1.83-.64,1.94Zm8.4,45.77c-.9-14.74,1.06-31.67-.65-47.71h-1.94c1.89,16.55-1.41,32.06,2.58,47.71Zm259.18-19.34c2.58-1.45,1.82-11.32,0-14.19-1.43,1.7-1.11,12.67,0,14.19Zm-8.4,1.28c2.4.46,2.77-1.1,5.17-.63-.67-5.51.28-7.94-1.27-14.2h-2.61c-.53,4.83-.32,10.42-1.29,14.83Zm12.9-1.93c1.57.27,1.41-1.19,3.23-.65-.14-4.16-1.01-7.55-.64-12.26h-1.92c-.99,3.54-.58,8.47-.67,12.91Zm-19.33-4.52c-.18-1.38.51-6.88-.65-5.16.18,1.37-.51,6.87.65,5.16Zm3.23,4.52c1.15,3.33.14-5.59,1.27-6.45-1.8.12.55-3.97-1.27-3.86v10.32Zm23.21-1.94c-.21-1.94.71-5.01-1.29-5.16.53,1.63-1.25,5.55,1.29,5.16ZM24.54,186.76c1.5-.2,2.42-1.02,4.52-.64-.85-3.44,3.44-1.71,2.58-5.16-2.31-1.01-.39,2.18-1.94,1.93-.85-.65-2.4-.62-2.58-1.93.9-1.59.05-6.9-.65-9.04-1.78,7.4,1.34,9.82-1.94,14.83Zm-12.9-3.22c2.21.66,1.52-4.84.65-5.16-1.01.95-.58,3.3-.65,5.16Zm265.64,13.55c-1.08,1.94-2.91.16-3.88,1.28,1.64,1.15,2.93,2.66,5.81,2.58-2.28-5.47,1.87-17.34-3.23-19.99.21,5.58.55,11.04,1.29,16.12Zm9.69,5.79c2.54-4.3,1.71-15.74-1.29-18.7.78,5.85-1.66,14.99,1.29,18.7Zm-5.19-1.28c1.08-3.68,1.08-11.82,0-15.48.62,5.02-.9,14.42,0,15.48Zm10.33-6.45c1.66-3.12,2.21-6.76-1.29-9.03,1.11,2.31-.09,6.97,1.29,9.03Zm1.27,9.65v-2.57c-1.73-.06-1.27,1.07-2.56,0-.44,2.17,1.08,2.35,2.56,2.57Zm-254.01,15.48c1.54-2.43-1.36-11.63.65-16.76h-1.94c1.15,5.24-1.8,12.54,1.29,16.76Zm-5.17,3.23c1.78-4.15,2.12-13.99,0-18.05-.09,9.5-.62,11.59,0,18.05Zm12.27-8.38c-1.24.14-1.43-.74-2.58-.65.05,1.13-.16,2.01-.67,2.58,1.91.59,3.55-1.44,5.81-1.29-.64-4.98,1.78-7.92-.64-9.02.07,3.51-.21,6.66-1.92,8.38Zm-18.71,11.6c-.92-6.21.51-11.25-1.29-14.82.81,4.58-1.61,12.37,1.29,14.82Zm239.82,8.39c-2.24-4.86.55-14.73-3.85-17.4,1.8,5.1-2.12,17.62,3.85,17.4Zm5.81-9.03c-.21-2.36-2.21-2.95-3.88-3.87-.37,2.94,1.5,3.68,3.88,3.87Zm3.88,5.16c-.14-1.23.71-1.42.65-2.59-2.1.81-.49-2.08-2.58-1.28-.23,2.18,1.13,2.75,1.94,3.87Zm-5.17,2.57c1.52-2.12-.49-5.21-2.58-5.79,0,3.79.32,3.84,2.58,5.79Zm-216.61,19.35c4.84-3.29,1.43-12.84.65-18.05-1.87,6.27.58,13.43-.65,18.05Zm-2.58,3.86c-.3-2.89.69-9.92-.65-14.82.35,5.39-1.87,10.05.65,14.82Zm188.91,10.32c-1.15-3.41.78-15.22-1.94-20.63-.3,5.25-1.24,17.82,1.94,20.63Zm-196.66-9.66c-.23-2.43,1.87-5.83,0-7.75-.53,3.17-2.28,6.34,0,7.75Zm199.89,5.15c.83-1.17,1.45-6.22-.64-6.45.39,1.96-.83,5.55.64,6.45Zm-168.93,11.61c-.32-2.25,1.61-2.25,2.58-3.24-1.02-2.66.58-6.53-.65-10.31-1.29,3.45-2.79,10.09-1.94,13.55Zm10.33,3.87c1.27-2.36,1.48-6.84.62-9.68-.34,2.67-1.73,7.72-.62,9.68Zm126.99,11.61c.76-6.6,2.61-12.78-.65-17.42.37,6.96-.48,12.16.65,17.42Zm-132.16-6.46c-.02-3.06,2.84-6.58,1.27-9.02.05,3.06-2.84,6.58-1.27,9.02Zm47.71,0c-.42-2.23,2.65-6.78,0-7.09.88,2.83-1.94,5.32,0,7.09Zm79.93,3.87c.74,5.91,1.71-7.47,0-7.09.02,3.3-.92,4.23,0,7.09Zm7.75.65c1.22.14,1.41-.74,2.58-.65-.35-1.61.02-3.88-1.94-3.87.37,2.09-.44,2.99-.65,4.52Zm-107.66,7.73c.25-1.29,1.59-4.78,0-5.8.16,2.64-2.63,4.21,0,5.8Zm50.91,0c-.16-1.38.51-6.88-.62-5.16.16,1.37-.51,6.87.62,5.16Z"/><path class="cls-1" d="m161.24,53.95c17.95-10.7,41.68,3.62,54.79,13.55,12.07,9.15,19.77,19.29,27.73,34.16,9.37,17.51,10.06,39.3-13.54,41.26-10.54.87-21.68-3.72-33.54-7.73-12.16-4.14-22.98-9.2-29-19.99-5.86-10.48-11.19-30.58-11.6-38.04-.46-7.87,2.77-13.14,5.17-23.21Zm39.31,14.82c-10.38-6.31-29.14-15.69-38.04-5.16-5.58,11.1-1.04,23.29,1.94,34.18,4.18,15.22,13.24,26,25.14,31.6,13.93,6.55,46.21,16.28,55.46,1.29-2.49-23.3-23.9-49.36-44.5-61.91Z"/></g></svg>